<svg width="31" height="30" viewBox="0 0 31 30" fill="none" xmlns="http://www.w3.org/2000/svg">
<path fill-rule="evenodd" clip-rule="evenodd" d="M27.0655 2.71689C27.0655 3.12029 26.7213 3.44731 26.2966 3.44731C25.872 3.44731 25.5278 3.12029 25.5278 2.71689C25.5278 2.31349 25.872 1.98646 26.2966 1.98646C26.7213 1.98646 27.0655 2.31349 27.0655 2.71689ZM28.2817 2.71689C28.2817 3.75841 27.393 4.60272 26.2966 4.60272C25.9465 4.60272 25.6175 4.5166 25.3319 4.36545C25.3174 4.3888 25.301 4.41146 25.2827 4.43325L21.3246 9.13339C21.3308 9.19389 21.334 9.25523 21.334 9.31726C21.334 10.3588 20.4452 11.2031 19.3489 11.2031C18.2525 11.2031 17.3638 10.3588 17.3638 9.31726C17.3638 9.28872 17.3645 9.26032 17.3658 9.23209L13.6842 7.97516C13.6528 7.96445 13.6229 7.95153 13.5946 7.93666C13.2624 8.17447 12.8491 8.31545 12.4011 8.31545C11.9562 8.31545 11.5455 8.17641 11.2145 7.94158L6.36882 11.6243C6.41893 11.79 6.44577 11.965 6.44577 12.146C6.44577 13.1875 5.55702 14.0319 4.46068 14.0319C3.36435 14.0319 2.47559 13.1875 2.47559 12.146C2.47559 11.1045 3.36435 10.2602 4.46068 10.2602C4.9235 10.2602 5.34932 10.4106 5.68691 10.6629L10.508 6.99883C10.4483 6.81923 10.416 6.628 10.416 6.42962C10.416 5.3881 11.3048 4.54379 12.4011 4.54379C13.4974 4.54379 14.3862 5.3881 14.3862 6.42962C14.3862 6.61374 14.3584 6.7917 14.3066 6.95992L17.7903 8.14925C18.1538 7.71203 18.7168 7.43143 19.3489 7.43143C19.8921 7.43143 20.3845 7.63876 20.7429 7.97467L24.333 3.71147C24.3863 3.6481 24.4509 3.59824 24.5218 3.56239C24.3873 3.30808 24.3115 3.02089 24.3115 2.71689C24.3115 1.67537 25.2003 0.831055 26.2966 0.831055C27.393 0.831055 28.2817 1.67537 28.2817 2.71689ZM13.17 6.42962C13.17 6.83302 12.8257 7.16004 12.4011 7.16004C11.9765 7.16004 11.6322 6.83302 11.6322 6.42962C11.6322 6.02622 11.9765 5.6992 12.4011 5.6992C12.8257 5.6992 13.17 6.02622 13.17 6.42962ZM24.9197 28.0129V8.86069H27.6736V28.0129H24.9197ZM23.7034 28.0129V8.63657C23.7034 8.12223 24.1423 7.70528 24.6838 7.70528H27.9095C28.4509 7.70528 28.8898 8.12223 28.8898 8.63657V28.0129H30.2669C30.6027 28.0129 30.875 28.2716 30.875 28.5906C30.875 28.9097 30.6027 29.1683 30.2669 29.1683H1.48311C1.14726 29.1683 0.875 28.9097 0.875 28.5906C0.875 28.2716 1.14726 28.0129 1.48311 28.0129H2.4632V19.9515C2.4632 19.4372 2.9021 19.0202 3.44351 19.0202H6.66928C7.21069 19.0202 7.64959 19.4372 7.64959 19.9515V28.0129H9.80792V14.294C9.80792 13.7797 10.2468 13.3627 10.7882 13.3627H14.014C14.5554 13.3627 14.9943 13.7797 14.9943 14.294V28.0129L16.7557 28.0129V16.1799C16.7557 15.6656 17.1946 15.2486 17.736 15.2486H20.9618C21.5032 15.2486 21.9421 15.6656 21.9421 16.1799V28.0129H23.7034ZM20.7259 28.0129V16.404H17.9719V28.0129H20.7259ZM13.7781 28.0129V14.5181H11.0241V28.0129H13.7781ZM6.43337 28.0129V20.1756H3.67942V28.0129H6.43337ZM4.46068 12.8764C4.88532 12.8764 5.22955 12.5494 5.22955 12.146C5.22955 11.7426 4.88532 11.4156 4.46068 11.4156C4.03605 11.4156 3.69181 11.7426 3.69181 12.146C3.69181 12.5494 4.03605 12.8764 4.46068 12.8764ZM19.3489 10.0477C19.7735 10.0477 20.1177 9.72066 20.1177 9.31726C20.1177 8.91386 19.7735 8.58684 19.3489 8.58684C18.9242 8.58684 18.58 8.91386 18.58 9.31726C18.58 9.72066 18.9242 10.0477 19.3489 10.0477Z" fill="#121212"/>
</svg>
