<svg width="32" height="31" viewBox="0 0 32 31" fill="none" xmlns="http://www.w3.org/2000/svg">
<path d="M16.0657 4.55617C16.3948 4.55617 16.6567 4.29426 16.6567 3.96519V1.32596C16.6567 0.996894 16.3948 0.734985 16.0657 0.734985C15.7366 0.734985 15.4747 0.996894 15.4747 1.32596V3.96519C15.468 4.28754 15.7366 4.55617 16.0657 4.55617Z" fill="#121212"/>
<mask id="path-2-outside-1_54_2327" maskUnits="userSpaceOnUse" x="0.0966797" y="-0.114014" width="32" height="32" fill="black">
<rect fill="white" x="0.0966797" y="-0.114014" width="32" height="32"/>
<path fill-rule="evenodd" clip-rule="evenodd" d="M8.20171 4.0524C8.31588 4.16656 8.47034 4.227 8.61808 4.227C8.77254 4.227 8.92028 4.16656 9.03445 4.0524C9.26278 3.82407 9.26278 3.44799 9.03445 3.21294L6.87874 1.05723C6.65041 0.828904 6.27434 0.828904 6.03929 1.05723C5.81096 1.28557 5.81096 1.66164 6.03929 1.89669L8.20171 4.0524ZM30.5379 21.0697L29.4903 20.0288C29.1209 19.6595 28.624 19.4513 28.0934 19.4513C27.7576 19.4513 27.4286 19.5386 27.1465 19.693L25.1721 17.7254L25.2662 17.6313C26.0653 16.8322 26.0653 15.5294 25.2662 14.7302C24.9774 14.4414 24.6215 14.2534 24.2319 14.1728C24.2857 13.9848 24.3125 13.7967 24.3125 13.5953C24.3125 13.0446 24.0976 12.5275 23.7148 12.1447C23.4261 11.8559 23.0701 11.6679 22.6806 11.5873C22.7344 11.3993 22.7612 11.2112 22.7612 11.0098C22.7612 10.4591 22.5463 9.94197 22.1568 9.55918C21.8613 9.2637 21.5054 9.08237 21.1293 9.00179C21.3308 8.30336 21.1562 7.52435 20.6122 6.97367C20.1556 6.51701 19.5377 6.32226 18.9401 6.38942L15.0316 5.6507C14.4339 5.53653 13.6884 5.46266 13.2251 5.89246L13.2251 5.89248C13.1982 5.91934 13.1646 5.95291 13.1378 5.98648C12.4125 5.71786 11.5596 5.87903 10.9753 6.46329C10.5858 6.85279 10.3776 7.36318 10.3776 7.91386C10.3776 8.10861 10.4045 8.30336 10.4582 8.4914C10.0687 8.57199 9.7128 8.76003 9.43075 9.0488C9.04124 9.43159 8.82634 9.94869 8.82634 10.4994C8.82634 10.7008 8.85321 10.8889 8.90693 11.0769C8.51743 11.1575 8.1615 11.3455 7.87944 11.6343C7.48994 12.0238 7.27504 12.5342 7.27504 13.0849C7.27504 13.508 7.40264 13.9042 7.63097 14.2467C7.33548 14.3474 7.06685 14.5153 6.84524 14.7369C6.04608 15.5361 6.04608 16.8389 6.84524 17.6381L6.93926 17.7321L4.96487 19.6997C4.23287 19.3573 3.32626 19.4848 2.72186 20.0893L1.67422 21.1302C1.30486 21.4995 1.09668 21.9965 1.09668 22.527C1.09668 23.0576 1.30486 23.5545 1.67422 23.9239L2.98377 25.2267C3.2121 25.455 3.58817 25.455 3.82322 25.2267C4.05155 24.9984 4.05155 24.6223 3.82322 24.3872L2.51367 23.0844C2.36593 22.9367 2.28534 22.7352 2.28534 22.527C2.28534 22.3121 2.36593 22.1174 2.51367 21.9696L3.56131 20.9287C3.82322 20.6668 4.22615 20.6265 4.52836 20.8078C4.54214 20.8308 4.55907 20.8506 4.577 20.8716L4.57702 20.8717L4.57704 20.8717C4.5853 20.8813 4.59376 20.8913 4.60223 20.9018C4.65595 20.9556 4.70968 20.9891 4.77012 21.0227L10.7739 27.0198C10.8007 27.0802 10.841 27.1406 10.8948 27.1944C10.9418 27.2414 11.0022 27.2817 11.0626 27.3085C11.1902 27.4496 11.2574 27.6376 11.2574 27.8323C11.2574 28.0472 11.1768 28.242 11.0291 28.3897L9.98143 29.4374C9.67251 29.7463 9.16884 29.7463 8.85992 29.4374L7.55038 28.1278C7.32205 27.8995 6.94597 27.8995 6.71093 28.1278C6.47588 28.3562 6.4826 28.7322 6.71093 28.9673L8.02047 30.2768C8.40326 30.6596 8.91365 30.8544 9.41732 30.8544C9.92099 30.8544 10.4314 30.6596 10.8142 30.2768L11.8618 29.2292C12.2312 28.8598 12.4393 28.3629 12.4393 27.8323C12.4393 27.4563 12.3319 27.0936 12.1371 26.7847L14.3533 24.5686L14.36 24.5618C14.6152 24.2999 15.3203 24.3469 16.0053 24.394L16.0411 24.3964C16.5156 24.4295 17.0458 24.4663 17.5633 24.4074L19.9944 26.8317C19.8399 27.1205 19.7526 27.4428 19.7526 27.7786C19.7526 28.3092 19.9608 28.7994 20.3302 29.1755L21.3778 30.2231C21.7472 30.5925 22.2441 30.8006 22.7747 30.8006C23.3052 30.8006 23.8021 30.5992 24.1715 30.2231L30.5178 23.8836C30.8871 23.5142 31.0953 23.0173 31.0953 22.4867C31.1154 21.9428 30.914 21.4458 30.5379 21.0697ZM14.8234 6.8125L17.3955 7.29602L15.8576 8.8339C15.6225 8.71973 15.2935 8.50483 14.9375 8.16234C14.4473 7.69224 14.0981 7.155 14.0645 6.81922V6.75878C14.1384 6.73863 14.3399 6.71848 14.8234 6.8125ZM11.8215 7.29602C12.1237 6.99382 12.5871 6.96024 12.9296 7.18857C13.1243 7.99445 13.8093 8.72645 14.1182 9.02193C14.3466 9.24355 15.0853 9.90168 15.824 10.0763C15.9247 10.2173 15.9785 10.3919 15.9785 10.5732C15.9785 10.8083 15.8912 11.0232 15.7233 11.1844C15.5621 11.3455 15.3405 11.4396 15.1054 11.4396C14.8704 11.4396 14.6555 11.3523 14.4876 11.1844L11.8148 8.51826C11.6536 8.35709 11.5596 8.13547 11.5596 7.90714C11.5663 7.6721 11.6603 7.4572 11.8215 7.29602ZM10.2702 9.87482C10.4314 9.71364 10.653 9.61962 10.8813 9.61962C11.1164 9.61962 11.3313 9.70693 11.4992 9.87482L13.6481 12.0238C13.9839 12.3663 13.9839 12.917 13.6481 13.2528C13.487 13.4139 13.2654 13.508 13.0303 13.508C12.7953 13.508 12.5804 13.4207 12.4125 13.2528L10.7806 11.6209L10.7739 11.6142L10.2635 11.1038C10.1023 10.9426 10.0083 10.721 10.0083 10.4859C10.0217 10.2576 10.109 10.0427 10.2702 9.87482ZM8.72561 12.4603C8.88678 12.2992 9.1084 12.2051 9.34345 12.2051C9.57849 12.2051 9.79339 12.2924 9.95457 12.4536L11.5932 14.0922C11.7543 14.2534 11.8484 14.475 11.8484 14.7033C11.8484 14.9384 11.7611 15.1533 11.5932 15.3145C11.432 15.4756 11.2104 15.5697 10.9753 15.5697C10.7403 15.5697 10.5254 15.4823 10.3575 15.3145L9.76653 14.7235L8.72561 13.6893C8.56444 13.5281 8.47042 13.3065 8.47042 13.0714C8.47042 12.8431 8.55772 12.6215 8.72561 12.4603ZM7.69141 15.5629C7.85258 15.4018 8.0742 15.3077 8.30924 15.3077C8.54429 15.3077 8.75919 15.395 8.92708 15.5629L9.51805 16.1539C9.67923 16.3151 9.77324 16.5367 9.77324 16.765C9.77324 17.0001 9.68594 17.215 9.51805 17.3761C9.35688 17.5373 9.13526 17.6313 8.90022 17.6313C8.66517 17.6313 8.45027 17.544 8.28238 17.3761L8.20851 17.3023H8.20179L7.69141 16.7919C7.35563 16.4561 7.35563 15.9054 7.69141 15.5629ZM19.7594 22.292C19.531 22.0636 19.1549 22.0636 18.9199 22.292L18.3961 22.8158C17.8965 23.3154 17.0003 23.2533 16.1338 23.1933L16.1128 23.1919C15.1592 23.1247 14.172 23.0576 13.5407 23.709L11.3581 25.8848L5.90505 20.4385L7.83243 18.5111C8.15478 18.7058 8.51743 18.8133 8.90693 18.8133C9.45761 18.8133 9.97471 18.5984 10.3575 18.2156C10.747 17.8261 10.9619 17.3157 10.9619 16.765V16.7516H10.9753C11.526 16.7516 12.0431 16.5367 12.4259 16.1539C12.8154 15.7644 13.0303 15.254 13.0303 14.7033V14.6899H13.0437C13.5944 14.6899 14.1115 14.475 14.4943 14.0922C14.8973 13.6893 15.0987 13.1587 15.092 12.6282H15.1054C15.6561 12.6282 16.1732 12.4133 16.556 12.0305C16.9455 11.641 17.1537 11.1306 17.1537 10.58C17.1537 10.1972 17.0462 9.82781 16.8515 9.51217L18.5438 7.81984C18.6714 7.69224 18.8259 7.61837 18.9871 7.58479C18.9971 7.58479 19.0055 7.58312 19.0139 7.58144C19.0223 7.57976 19.0307 7.57808 19.0408 7.57808C19.3027 7.5445 19.578 7.62509 19.7795 7.81984C20.1153 8.16234 20.1153 8.71302 19.7795 9.0488L19.2624 9.55918C19.2624 9.55918 19.2557 9.55918 19.2557 9.5659L18.6647 10.1569C18.4364 10.3852 18.4364 10.7613 18.6647 10.9963C18.893 11.2247 19.2691 11.2247 19.5042 10.9963L20.0213 10.4792L20.1018 10.3986C20.4443 10.0629 20.9883 10.0629 21.3308 10.3986C21.492 10.5598 21.586 10.7814 21.586 11.0098C21.586 11.2448 21.4987 11.4597 21.3308 11.6209L20.8137 12.138L20.2227 12.7289C19.9877 12.9573 19.9877 13.3334 20.2227 13.5684C20.4511 13.8034 20.8271 13.8034 21.0622 13.5684L21.6599 12.9774C21.821 12.8163 22.0427 12.7222 22.2777 12.7222C22.5128 12.7222 22.7277 12.8095 22.8955 12.9774C23.0567 13.1386 23.1507 13.3602 23.1507 13.5885C23.1507 13.8236 23.0634 14.0385 22.8955 14.1997L21.8613 15.2339C21.633 15.4622 21.633 15.8383 21.8613 16.0733C21.9755 16.1875 22.13 16.2479 22.2777 16.2479C22.4322 16.2479 22.5799 16.1875 22.6941 16.0733L23.1977 15.5697L23.2045 15.5629C23.3656 15.4018 23.5872 15.3077 23.8223 15.3077C24.0573 15.3077 24.2722 15.395 24.4401 15.5629C24.7759 15.8987 24.7759 16.4494 24.4401 16.7919L23.923 17.309L23.1037 18.1283C22.8754 18.3566 22.8754 18.7327 23.1037 18.9677C23.2179 19.0819 23.3724 19.1424 23.5201 19.1424C23.6746 19.1424 23.8223 19.0819 23.9365 18.9677L24.3394 18.5715L26.2533 20.4855L20.8003 25.9318L18.846 23.9776C18.9803 23.8903 19.1147 23.7896 19.2355 23.662L19.7594 23.1381C19.9877 22.9031 19.9877 22.527 19.7594 22.292ZM29.6985 23.0307L23.3522 29.3702C23.2045 29.518 23.003 29.5986 22.7948 29.5986C22.5799 29.5986 22.3852 29.518 22.2374 29.3702L21.1898 28.3226C21.042 28.1748 20.9614 27.9734 20.9614 27.7652C20.9614 27.5503 21.042 27.3555 21.1898 27.2078L27.536 20.8683C27.6838 20.7205 27.8852 20.6399 28.0934 20.6399C28.3083 20.6399 28.5031 20.7205 28.6508 20.8683L29.6985 21.9092C29.8462 22.0569 29.9268 22.2584 29.9268 22.4666C29.9335 22.6815 29.8529 22.8829 29.6985 23.0307ZM23.9231 4.0524C23.8089 4.16656 23.6612 4.227 23.5067 4.227C23.359 4.227 23.2045 4.16656 23.0837 4.0524C22.8553 3.81735 22.8553 3.44128 23.0837 3.21294L25.2394 1.05723C25.4744 0.828904 25.8505 0.828904 26.0788 1.05723C26.3072 1.29228 26.3072 1.66835 26.0788 1.89669L23.9231 4.0524ZM4.75672 26.2006C4.52839 26.4356 4.52839 26.8117 4.76344 27.04C4.8776 27.1542 5.02535 27.2079 5.1798 27.2079C5.33426 27.2079 5.48872 27.1475 5.60289 27.0333C5.83122 26.7983 5.83122 26.4222 5.59617 26.1939C5.36113 25.9655 4.98505 25.9655 4.75672 26.2006ZM21.4785 21.3787C21.3912 21.419 21.2972 21.4391 21.2099 21.4391C20.9883 21.4391 20.7801 21.325 20.6861 21.1168C20.5383 20.828 20.6592 20.4721 20.948 20.3243C21.2368 20.1766 21.5927 20.2975 21.7404 20.5862C21.8882 20.875 21.7673 21.2309 21.4785 21.3787Z"/>
</mask>
<path fill-rule="evenodd" clip-rule="evenodd" d="M8.20171 4.0524C8.31588 4.16656 8.47034 4.227 8.61808 4.227C8.77254 4.227 8.92028 4.16656 9.03445 4.0524C9.26278 3.82407 9.26278 3.44799 9.03445 3.21294L6.87874 1.05723C6.65041 0.828904 6.27434 0.828904 6.03929 1.05723C5.81096 1.28557 5.81096 1.66164 6.03929 1.89669L8.20171 4.0524ZM30.5379 21.0697L29.4903 20.0288C29.1209 19.6595 28.624 19.4513 28.0934 19.4513C27.7576 19.4513 27.4286 19.5386 27.1465 19.693L25.1721 17.7254L25.2662 17.6313C26.0653 16.8322 26.0653 15.5294 25.2662 14.7302C24.9774 14.4414 24.6215 14.2534 24.2319 14.1728C24.2857 13.9848 24.3125 13.7967 24.3125 13.5953C24.3125 13.0446 24.0976 12.5275 23.7148 12.1447C23.4261 11.8559 23.0701 11.6679 22.6806 11.5873C22.7344 11.3993 22.7612 11.2112 22.7612 11.0098C22.7612 10.4591 22.5463 9.94197 22.1568 9.55918C21.8613 9.2637 21.5054 9.08237 21.1293 9.00179C21.3308 8.30336 21.1562 7.52435 20.6122 6.97367C20.1556 6.51701 19.5377 6.32226 18.9401 6.38942L15.0316 5.6507C14.4339 5.53653 13.6884 5.46266 13.2251 5.89246L13.2251 5.89248C13.1982 5.91934 13.1646 5.95291 13.1378 5.98648C12.4125 5.71786 11.5596 5.87903 10.9753 6.46329C10.5858 6.85279 10.3776 7.36318 10.3776 7.91386C10.3776 8.10861 10.4045 8.30336 10.4582 8.4914C10.0687 8.57199 9.7128 8.76003 9.43075 9.0488C9.04124 9.43159 8.82634 9.94869 8.82634 10.4994C8.82634 10.7008 8.85321 10.8889 8.90693 11.0769C8.51743 11.1575 8.1615 11.3455 7.87944 11.6343C7.48994 12.0238 7.27504 12.5342 7.27504 13.0849C7.27504 13.508 7.40264 13.9042 7.63097 14.2467C7.33548 14.3474 7.06685 14.5153 6.84524 14.7369C6.04608 15.5361 6.04608 16.8389 6.84524 17.6381L6.93926 17.7321L4.96487 19.6997C4.23287 19.3573 3.32626 19.4848 2.72186 20.0893L1.67422 21.1302C1.30486 21.4995 1.09668 21.9965 1.09668 22.527C1.09668 23.0576 1.30486 23.5545 1.67422 23.9239L2.98377 25.2267C3.2121 25.455 3.58817 25.455 3.82322 25.2267C4.05155 24.9984 4.05155 24.6223 3.82322 24.3872L2.51367 23.0844C2.36593 22.9367 2.28534 22.7352 2.28534 22.527C2.28534 22.3121 2.36593 22.1174 2.51367 21.9696L3.56131 20.9287C3.82322 20.6668 4.22615 20.6265 4.52836 20.8078C4.54214 20.8308 4.55907 20.8506 4.577 20.8716L4.57702 20.8717L4.57704 20.8717C4.5853 20.8813 4.59376 20.8913 4.60223 20.9018C4.65595 20.9556 4.70968 20.9891 4.77012 21.0227L10.7739 27.0198C10.8007 27.0802 10.841 27.1406 10.8948 27.1944C10.9418 27.2414 11.0022 27.2817 11.0626 27.3085C11.1902 27.4496 11.2574 27.6376 11.2574 27.8323C11.2574 28.0472 11.1768 28.242 11.0291 28.3897L9.98143 29.4374C9.67251 29.7463 9.16884 29.7463 8.85992 29.4374L7.55038 28.1278C7.32205 27.8995 6.94597 27.8995 6.71093 28.1278C6.47588 28.3562 6.4826 28.7322 6.71093 28.9673L8.02047 30.2768C8.40326 30.6596 8.91365 30.8544 9.41732 30.8544C9.92099 30.8544 10.4314 30.6596 10.8142 30.2768L11.8618 29.2292C12.2312 28.8598 12.4393 28.3629 12.4393 27.8323C12.4393 27.4563 12.3319 27.0936 12.1371 26.7847L14.3533 24.5686L14.36 24.5618C14.6152 24.2999 15.3203 24.3469 16.0053 24.394L16.0411 24.3964C16.5156 24.4295 17.0458 24.4663 17.5633 24.4074L19.9944 26.8317C19.8399 27.1205 19.7526 27.4428 19.7526 27.7786C19.7526 28.3092 19.9608 28.7994 20.3302 29.1755L21.3778 30.2231C21.7472 30.5925 22.2441 30.8006 22.7747 30.8006C23.3052 30.8006 23.8021 30.5992 24.1715 30.2231L30.5178 23.8836C30.8871 23.5142 31.0953 23.0173 31.0953 22.4867C31.1154 21.9428 30.914 21.4458 30.5379 21.0697ZM14.8234 6.8125L17.3955 7.29602L15.8576 8.8339C15.6225 8.71973 15.2935 8.50483 14.9375 8.16234C14.4473 7.69224 14.0981 7.155 14.0645 6.81922V6.75878C14.1384 6.73863 14.3399 6.71848 14.8234 6.8125ZM11.8215 7.29602C12.1237 6.99382 12.5871 6.96024 12.9296 7.18857C13.1243 7.99445 13.8093 8.72645 14.1182 9.02193C14.3466 9.24355 15.0853 9.90168 15.824 10.0763C15.9247 10.2173 15.9785 10.3919 15.9785 10.5732C15.9785 10.8083 15.8912 11.0232 15.7233 11.1844C15.5621 11.3455 15.3405 11.4396 15.1054 11.4396C14.8704 11.4396 14.6555 11.3523 14.4876 11.1844L11.8148 8.51826C11.6536 8.35709 11.5596 8.13547 11.5596 7.90714C11.5663 7.6721 11.6603 7.4572 11.8215 7.29602ZM10.2702 9.87482C10.4314 9.71364 10.653 9.61962 10.8813 9.61962C11.1164 9.61962 11.3313 9.70693 11.4992 9.87482L13.6481 12.0238C13.9839 12.3663 13.9839 12.917 13.6481 13.2528C13.487 13.4139 13.2654 13.508 13.0303 13.508C12.7953 13.508 12.5804 13.4207 12.4125 13.2528L10.7806 11.6209L10.7739 11.6142L10.2635 11.1038C10.1023 10.9426 10.0083 10.721 10.0083 10.4859C10.0217 10.2576 10.109 10.0427 10.2702 9.87482ZM8.72561 12.4603C8.88678 12.2992 9.1084 12.2051 9.34345 12.2051C9.57849 12.2051 9.79339 12.2924 9.95457 12.4536L11.5932 14.0922C11.7543 14.2534 11.8484 14.475 11.8484 14.7033C11.8484 14.9384 11.7611 15.1533 11.5932 15.3145C11.432 15.4756 11.2104 15.5697 10.9753 15.5697C10.7403 15.5697 10.5254 15.4823 10.3575 15.3145L9.76653 14.7235L8.72561 13.6893C8.56444 13.5281 8.47042 13.3065 8.47042 13.0714C8.47042 12.8431 8.55772 12.6215 8.72561 12.4603ZM7.69141 15.5629C7.85258 15.4018 8.0742 15.3077 8.30924 15.3077C8.54429 15.3077 8.75919 15.395 8.92708 15.5629L9.51805 16.1539C9.67923 16.3151 9.77324 16.5367 9.77324 16.765C9.77324 17.0001 9.68594 17.215 9.51805 17.3761C9.35688 17.5373 9.13526 17.6313 8.90022 17.6313C8.66517 17.6313 8.45027 17.544 8.28238 17.3761L8.20851 17.3023H8.20179L7.69141 16.7919C7.35563 16.4561 7.35563 15.9054 7.69141 15.5629ZM19.7594 22.292C19.531 22.0636 19.1549 22.0636 18.9199 22.292L18.3961 22.8158C17.8965 23.3154 17.0003 23.2533 16.1338 23.1933L16.1128 23.1919C15.1592 23.1247 14.172 23.0576 13.5407 23.709L11.3581 25.8848L5.90505 20.4385L7.83243 18.5111C8.15478 18.7058 8.51743 18.8133 8.90693 18.8133C9.45761 18.8133 9.97471 18.5984 10.3575 18.2156C10.747 17.8261 10.9619 17.3157 10.9619 16.765V16.7516H10.9753C11.526 16.7516 12.0431 16.5367 12.4259 16.1539C12.8154 15.7644 13.0303 15.254 13.0303 14.7033V14.6899H13.0437C13.5944 14.6899 14.1115 14.475 14.4943 14.0922C14.8973 13.6893 15.0987 13.1587 15.092 12.6282H15.1054C15.6561 12.6282 16.1732 12.4133 16.556 12.0305C16.9455 11.641 17.1537 11.1306 17.1537 10.58C17.1537 10.1972 17.0462 9.82781 16.8515 9.51217L18.5438 7.81984C18.6714 7.69224 18.8259 7.61837 18.9871 7.58479C18.9971 7.58479 19.0055 7.58312 19.0139 7.58144C19.0223 7.57976 19.0307 7.57808 19.0408 7.57808C19.3027 7.5445 19.578 7.62509 19.7795 7.81984C20.1153 8.16234 20.1153 8.71302 19.7795 9.0488L19.2624 9.55918C19.2624 9.55918 19.2557 9.55918 19.2557 9.5659L18.6647 10.1569C18.4364 10.3852 18.4364 10.7613 18.6647 10.9963C18.893 11.2247 19.2691 11.2247 19.5042 10.9963L20.0213 10.4792L20.1018 10.3986C20.4443 10.0629 20.9883 10.0629 21.3308 10.3986C21.492 10.5598 21.586 10.7814 21.586 11.0098C21.586 11.2448 21.4987 11.4597 21.3308 11.6209L20.8137 12.138L20.2227 12.7289C19.9877 12.9573 19.9877 13.3334 20.2227 13.5684C20.4511 13.8034 20.8271 13.8034 21.0622 13.5684L21.6599 12.9774C21.821 12.8163 22.0427 12.7222 22.2777 12.7222C22.5128 12.7222 22.7277 12.8095 22.8955 12.9774C23.0567 13.1386 23.1507 13.3602 23.1507 13.5885C23.1507 13.8236 23.0634 14.0385 22.8955 14.1997L21.8613 15.2339C21.633 15.4622 21.633 15.8383 21.8613 16.0733C21.9755 16.1875 22.13 16.2479 22.2777 16.2479C22.4322 16.2479 22.5799 16.1875 22.6941 16.0733L23.1977 15.5697L23.2045 15.5629C23.3656 15.4018 23.5872 15.3077 23.8223 15.3077C24.0573 15.3077 24.2722 15.395 24.4401 15.5629C24.7759 15.8987 24.7759 16.4494 24.4401 16.7919L23.923 17.309L23.1037 18.1283C22.8754 18.3566 22.8754 18.7327 23.1037 18.9677C23.2179 19.0819 23.3724 19.1424 23.5201 19.1424C23.6746 19.1424 23.8223 19.0819 23.9365 18.9677L24.3394 18.5715L26.2533 20.4855L20.8003 25.9318L18.846 23.9776C18.9803 23.8903 19.1147 23.7896 19.2355 23.662L19.7594 23.1381C19.9877 22.9031 19.9877 22.527 19.7594 22.292ZM29.6985 23.0307L23.3522 29.3702C23.2045 29.518 23.003 29.5986 22.7948 29.5986C22.5799 29.5986 22.3852 29.518 22.2374 29.3702L21.1898 28.3226C21.042 28.1748 20.9614 27.9734 20.9614 27.7652C20.9614 27.5503 21.042 27.3555 21.1898 27.2078L27.536 20.8683C27.6838 20.7205 27.8852 20.6399 28.0934 20.6399C28.3083 20.6399 28.5031 20.7205 28.6508 20.8683L29.6985 21.9092C29.8462 22.0569 29.9268 22.2584 29.9268 22.4666C29.9335 22.6815 29.8529 22.8829 29.6985 23.0307ZM23.9231 4.0524C23.8089 4.16656 23.6612 4.227 23.5067 4.227C23.359 4.227 23.2045 4.16656 23.0837 4.0524C22.8553 3.81735 22.8553 3.44128 23.0837 3.21294L25.2394 1.05723C25.4744 0.828904 25.8505 0.828904 26.0788 1.05723C26.3072 1.29228 26.3072 1.66835 26.0788 1.89669L23.9231 4.0524ZM4.75672 26.2006C4.52839 26.4356 4.52839 26.8117 4.76344 27.04C4.8776 27.1542 5.02535 27.2079 5.1798 27.2079C5.33426 27.2079 5.48872 27.1475 5.60289 27.0333C5.83122 26.7983 5.83122 26.4222 5.59617 26.1939C5.36113 25.9655 4.98505 25.9655 4.75672 26.2006ZM21.4785 21.3787C21.3912 21.419 21.2972 21.4391 21.2099 21.4391C20.9883 21.4391 20.7801 21.325 20.6861 21.1168C20.5383 20.828 20.6592 20.4721 20.948 20.3243C21.2368 20.1766 21.5927 20.2975 21.7404 20.5862C21.8882 20.875 21.7673 21.2309 21.4785 21.3787Z" fill="#121212"/>
<path d="M8.20171 4.0524L8.27243 3.98169L8.27232 3.98158L8.20171 4.0524ZM9.03445 4.0524L9.10516 4.12311L9.10516 4.12311L9.03445 4.0524ZM9.03445 3.21294L9.10619 3.14326L9.10516 3.14223L9.03445 3.21294ZM6.87874 1.05723L6.80803 1.12795L6.80803 1.12795L6.87874 1.05723ZM6.03929 1.05723L5.9696 0.985499L5.96858 0.986524L6.03929 1.05723ZM6.03929 1.89669L5.96755 1.96637L5.96869 1.96751L6.03929 1.89669ZM29.4903 20.0288L29.4196 20.0995L29.4198 20.0998L29.4903 20.0288ZM30.5379 21.0697L30.6086 20.999L30.6084 20.9988L30.5379 21.0697ZM27.1465 19.693L27.0759 19.7639L27.1289 19.8167L27.1946 19.7807L27.1465 19.693ZM25.1721 17.7254L25.1014 17.6547L25.0306 17.7255L25.1015 17.7962L25.1721 17.7254ZM25.2662 17.6313L25.3369 17.7021L25.3369 17.7021L25.2662 17.6313ZM25.2662 14.7302L25.1954 14.8009L25.1954 14.8009L25.2662 14.7302ZM24.2319 14.1728L24.1358 14.1453L24.1062 14.2489L24.2117 14.2707L24.2319 14.1728ZM23.7148 12.1447L23.6441 12.2154L23.6441 12.2154L23.7148 12.1447ZM22.6806 11.5873L22.5845 11.5598L22.5549 11.6634L22.6604 11.6852L22.6806 11.5873ZM22.1568 9.55918L22.0861 9.6299L22.0867 9.63051L22.1568 9.55918ZM21.1293 9.00179L21.0333 8.97407L21.0035 9.0771L21.1084 9.09957L21.1293 9.00179ZM20.6122 6.97367L20.6834 6.9034L20.6829 6.90296L20.6122 6.97367ZM18.9401 6.38942L18.9215 6.48768L18.9363 6.49047L18.9512 6.48879L18.9401 6.38942ZM15.0316 5.6507L15.0128 5.74892L15.013 5.74896L15.0316 5.6507ZM13.2251 5.89246L13.1567 5.8188L13.1503 5.82603L13.2251 5.89246ZM13.2251 5.89248L13.2959 5.96331L13.2998 5.95891L13.2251 5.89248ZM13.1378 5.98648L13.103 6.08026L13.1707 6.10533L13.2158 6.04895L13.1378 5.98648ZM10.9753 6.46329L10.9046 6.39258L10.9046 6.39258L10.9753 6.46329ZM10.4582 8.4914L10.4785 8.58933L10.584 8.5675L10.5544 8.46393L10.4582 8.4914ZM9.43075 9.0488L9.50086 9.12013L9.50229 9.11867L9.43075 9.0488ZM8.90693 11.0769L8.92719 11.1748L9.03268 11.153L9.00308 11.0494L8.90693 11.0769ZM7.87944 11.6343L7.95016 11.705L7.95098 11.7042L7.87944 11.6343ZM7.63097 14.2467L7.66323 14.3413L7.78629 14.2994L7.71417 14.1912L7.63097 14.2467ZM6.84524 14.7369L6.77453 14.6662L6.77453 14.6662L6.84524 14.7369ZM6.93926 17.7321L7.00985 17.8029L7.0808 17.7322L7.00997 17.6614L6.93926 17.7321ZM4.96487 19.6997L4.92249 19.7903L4.98588 19.82L5.03546 19.7706L4.96487 19.6997ZM2.72186 20.0893L2.79234 20.1602L2.79257 20.16L2.72186 20.0893ZM1.67422 21.1302L1.60374 21.0592L1.60351 21.0595L1.67422 21.1302ZM1.67422 23.9239L1.60351 23.9946L1.60369 23.9948L1.67422 23.9239ZM2.98377 25.2267L3.05448 25.156L3.05429 25.1558L2.98377 25.2267ZM3.82322 25.2267L3.8929 25.2984L3.89393 25.2974L3.82322 25.2267ZM3.82322 24.3872L3.89495 24.3176L3.89374 24.3164L3.82322 24.3872ZM2.51367 23.0844L2.44296 23.1551L2.44314 23.1553L2.51367 23.0844ZM2.51367 21.9696L2.44319 21.8987L2.44296 21.8989L2.51367 21.9696ZM3.56131 20.9287L3.63179 20.9996L3.63202 20.9994L3.56131 20.9287ZM4.52836 20.8078L4.61411 20.7564L4.60124 20.7349L4.5798 20.7221L4.52836 20.8078ZM4.577 20.8716L4.65513 20.8091L4.65304 20.8067L4.577 20.8716ZM4.57702 20.8717L4.49891 20.9341L4.50059 20.9361L4.57702 20.8717ZM4.57704 20.8717L4.50061 20.9362L4.50099 20.9366L4.57704 20.8717ZM4.60223 20.9018L4.52366 20.9647L4.53152 20.9726L4.60223 20.9018ZM4.77012 21.0227L4.84079 20.952L4.8309 20.9421L4.81868 20.9353L4.77012 21.0227ZM10.7739 27.0198L10.8653 26.9791L10.8577 26.9622L10.8445 26.949L10.7739 27.0198ZM10.8948 27.1944L10.9655 27.1237L10.9655 27.1237L10.8948 27.1944ZM11.0626 27.3085L11.1368 27.2414L11.1226 27.2257L11.1033 27.2171L11.0626 27.3085ZM11.0291 28.3897L10.9584 28.319L10.9584 28.319L11.0291 28.3897ZM9.98143 29.4374L10.0521 29.5081L10.0521 29.5081L9.98143 29.4374ZM8.85992 29.4374L8.78921 29.5081L8.78921 29.5081L8.85992 29.4374ZM6.71093 28.9673L6.63919 29.037L6.64022 29.038L6.71093 28.9673ZM8.02047 30.2768L7.94976 30.3475L7.94976 30.3475L8.02047 30.2768ZM10.8142 30.2768L10.8849 30.3475L10.8849 30.3475L10.8142 30.2768ZM11.8618 29.2292L11.7911 29.1585L11.7911 29.1585L11.8618 29.2292ZM12.1371 26.7847L12.0664 26.714L12.01 26.7705L12.0525 26.838L12.1371 26.7847ZM14.3533 24.5686L14.424 24.6393L14.424 24.6393L14.3533 24.5686ZM14.36 24.5618L14.4307 24.6326L14.4316 24.6316L14.36 24.5618ZM16.0053 24.394L16.0123 24.2942L16.0122 24.2942L16.0053 24.394ZM16.0411 24.3964L16.048 24.2967L16.048 24.2967L16.0411 24.3964ZM17.5633 24.4074L17.634 24.3366L17.5999 24.3026L17.552 24.308L17.5633 24.4074ZM19.9944 26.8317L20.0826 26.8789L20.1176 26.8134L20.065 26.7609L19.9944 26.8317ZM20.3302 29.1755L20.2588 29.2455L20.2595 29.2462L20.3302 29.1755ZM24.1715 30.2231L24.1008 30.1524L24.1002 30.153L24.1715 30.2231ZM30.5178 23.8836L30.5884 23.9543L30.5885 23.9543L30.5178 23.8836ZM31.0953 22.4867L30.9953 22.483V22.4867H31.0953ZM17.3955 7.29602L17.4662 7.36673L17.6002 7.23275L17.4139 7.19774L17.3955 7.29602ZM14.8234 6.8125L14.8043 6.91066L14.8049 6.91078L14.8234 6.8125ZM15.8576 8.8339L15.8139 8.92385L15.8779 8.95496L15.9283 8.90461L15.8576 8.8339ZM14.9375 8.16234L15.0069 8.09028L15.0068 8.09016L14.9375 8.16234ZM14.0645 6.81922H13.964L13.965 6.82917L14.0645 6.81922ZM14.0645 6.75878L14.0382 6.6623L13.9645 6.6824V6.75878H14.0645ZM12.9296 7.18857L13.0268 7.16508L13.0176 7.12706L12.985 7.10537L12.9296 7.18857ZM11.8215 7.29602L11.7508 7.22531L11.7508 7.22531L11.8215 7.29602ZM14.1182 9.02193L14.1879 8.95017L14.1874 8.94967L14.1182 9.02193ZM15.824 10.0763L15.9054 10.0182L15.8836 9.9876L15.847 9.97897L15.824 10.0763ZM15.7233 11.1844L15.654 11.1122L15.6526 11.1136L15.7233 11.1844ZM14.4876 11.1844L14.5583 11.1136L14.5582 11.1136L14.4876 11.1844ZM11.8148 8.51826L11.7441 8.58898L11.7442 8.58906L11.8148 8.51826ZM11.5596 7.90714L11.4596 7.90429V7.90714H11.5596ZM10.2702 9.87482L10.1995 9.80409L10.1981 9.80556L10.2702 9.87482ZM13.6481 12.0238L13.7196 11.9538L13.7189 11.9531L13.6481 12.0238ZM12.4125 13.2528L12.3418 13.3235L12.3418 13.3235L12.4125 13.2528ZM10.7806 11.6209L10.7099 11.6916L10.7099 11.6916L10.7806 11.6209ZM10.7739 11.6142L10.8446 11.5435L10.8446 11.5434L10.7739 11.6142ZM10.0083 10.4859L9.90829 10.4801V10.4859H10.0083ZM8.72561 12.4603L8.79488 12.5325L8.79632 12.531L8.72561 12.4603ZM9.95457 12.4536L9.88386 12.5243L9.88386 12.5243L9.95457 12.4536ZM11.5932 14.0922L11.6639 14.0215L11.6639 14.0215L11.5932 14.0922ZM11.5932 15.3145L11.5239 15.2423L11.5225 15.2437L11.5932 15.3145ZM10.3575 15.3145L10.2868 15.3852L10.2868 15.3852L10.3575 15.3145ZM9.76653 14.7235L9.83724 14.6528L9.83701 14.6525L9.76653 14.7235ZM8.72561 13.6893L8.6549 13.76L8.65513 13.7602L8.72561 13.6893ZM7.69141 15.5629L7.62069 15.4922L7.62 15.4929L7.69141 15.5629ZM8.92708 15.5629L8.85637 15.6336L8.85637 15.6336L8.92708 15.5629ZM9.51805 16.1539L9.58876 16.0832L9.58876 16.0832L9.51805 16.1539ZM9.51805 17.3761L9.44878 17.304L9.44734 17.3054L9.51805 17.3761ZM8.28238 17.3761L8.35309 17.3054L8.35309 17.3054L8.28238 17.3761ZM8.20851 17.3023L8.27922 17.2316L8.24993 17.2023H8.20851V17.3023ZM8.20179 17.3023L8.13108 17.373L8.16037 17.4023H8.20179V17.3023ZM7.69141 16.7919L7.6207 16.8626L7.6207 16.8626L7.69141 16.7919ZM18.9199 22.292L18.8502 22.2202L18.8492 22.2213L18.9199 22.292ZM19.7594 22.292L19.8311 22.2223L19.8301 22.2213L19.7594 22.292ZM18.3961 22.8158L18.3254 22.7451L18.3254 22.7451L18.3961 22.8158ZM16.1338 23.1933L16.1407 23.0936L16.1407 23.0936L16.1338 23.1933ZM16.1128 23.1919L16.1058 23.2916L16.1059 23.2916L16.1128 23.1919ZM13.5407 23.709L13.6113 23.7798L13.6125 23.7786L13.5407 23.709ZM11.3581 25.8848L11.2875 25.9556L11.3581 26.0261L11.4287 25.9556L11.3581 25.8848ZM5.90505 20.4385L5.83434 20.3678L5.76359 20.4385L5.83439 20.5092L5.90505 20.4385ZM7.83243 18.5111L7.88415 18.4255L7.81711 18.385L7.76172 18.4404L7.83243 18.5111ZM10.9619 16.7516V16.6516H10.8619V16.7516H10.9619ZM12.4259 16.1539L12.4966 16.2246L12.4966 16.2246L12.4259 16.1539ZM13.0303 14.6899V14.5899H12.9303V14.6899H13.0303ZM14.4943 14.0922L14.565 14.1629L14.565 14.1629L14.4943 14.0922ZM15.092 12.6282V12.5282H14.9907L14.992 12.6295L15.092 12.6282ZM16.8515 9.51217L16.7808 9.44146L16.7249 9.49738L16.7664 9.56468L16.8515 9.51217ZM18.5438 7.81984L18.4731 7.74913L18.4731 7.74913L18.5438 7.81984ZM18.9871 7.58479V7.48479H18.9768L18.9667 7.4869L18.9871 7.58479ZM19.0408 7.57808V7.6789L19.0535 7.67727L19.0408 7.57808ZM19.7795 7.81984L19.8509 7.74981L19.849 7.74794L19.7795 7.81984ZM19.7795 9.0488L19.8497 9.11997L19.8502 9.11951L19.7795 9.0488ZM19.2624 9.55918L19.2624 9.65918L19.3034 9.65918L19.3326 9.63035L19.2624 9.55918ZM19.2557 9.5659L19.3264 9.63661L19.3557 9.60732V9.5659H19.2557ZM18.6647 10.1569L18.7354 10.2276L18.7354 10.2276L18.6647 10.1569ZM18.6647 10.9963L18.593 11.066L18.594 11.067L18.6647 10.9963ZM19.5042 10.9963L19.5738 11.0681L19.5749 11.067L19.5042 10.9963ZM20.0213 10.4792L19.9506 10.4085L19.9506 10.4085L20.0213 10.4792ZM20.1018 10.3986L20.0318 10.3272L20.0311 10.3279L20.1018 10.3986ZM21.3308 10.3986L21.4015 10.3279L21.4008 10.3272L21.3308 10.3986ZM21.3308 11.6209L21.2615 11.5487L21.2601 11.5502L21.3308 11.6209ZM20.8137 12.138L20.8844 12.2087L20.8844 12.2087L20.8137 12.138ZM20.2227 12.7289L20.2924 12.8007L20.2934 12.7997L20.2227 12.7289ZM20.2227 13.5684L20.2945 13.4987L20.2934 13.4977L20.2227 13.5684ZM21.0622 13.5684L20.9919 13.4973L20.9915 13.4977L21.0622 13.5684ZM21.6599 12.9774L21.7302 13.0485L21.7306 13.0481L21.6599 12.9774ZM22.8955 12.9774L22.9663 12.9067L22.9663 12.9067L22.8955 12.9774ZM22.8955 14.1997L22.8263 14.1275L22.8248 14.129L22.8955 14.1997ZM21.8613 15.2339L21.9321 15.3046L21.9321 15.3046L21.8613 15.2339ZM21.8613 16.0733L21.7896 16.143L21.7906 16.144L21.8613 16.0733ZM22.6941 16.0733L22.7648 16.144L22.7648 16.144L22.6941 16.0733ZM23.1977 15.5697L23.127 15.4989L23.127 15.4989L23.1977 15.5697ZM23.2045 15.5629L23.2752 15.6337L23.2752 15.6336L23.2045 15.5629ZM24.4401 15.5629L24.3694 15.6336L24.3694 15.6336L24.4401 15.5629ZM24.4401 16.7919L24.5108 16.8626L24.5115 16.8619L24.4401 16.7919ZM23.923 17.309L23.8523 17.2383L23.8523 17.2383L23.923 17.309ZM23.1037 18.1283L23.1744 18.199L23.1744 18.199L23.1037 18.1283ZM23.1037 18.9677L23.032 19.0374L23.033 19.0385L23.1037 18.9677ZM23.9365 18.9677L23.8663 18.8964L23.8658 18.897L23.9365 18.9677ZM24.3394 18.5715L24.4101 18.5008L24.34 18.4307L24.2693 18.5002L24.3394 18.5715ZM26.2533 20.4855L26.324 20.5562L26.3948 20.4855L26.3241 20.4148L26.2533 20.4855ZM20.8003 25.9318L20.7296 26.0025L20.8002 26.0732L20.8709 26.0026L20.8003 25.9318ZM18.846 23.9776L18.7915 23.8937L18.688 23.961L18.7753 24.0483L18.846 23.9776ZM19.2355 23.662L19.1648 23.5912L19.1629 23.5932L19.2355 23.662ZM19.7594 23.1381L19.8301 23.2089L19.8311 23.2078L19.7594 23.1381ZM23.3522 29.3702L23.2815 29.2995L23.2815 29.2995L23.3522 29.3702ZM29.6985 23.0307L29.6293 22.9584L29.6278 22.9599L29.6985 23.0307ZM22.2374 29.3702L22.1667 29.4409L22.1667 29.4409L22.2374 29.3702ZM21.1898 28.3226L21.2605 28.2519L21.2605 28.2519L21.1898 28.3226ZM21.1898 27.2078L21.1191 27.137L21.1191 27.1371L21.1898 27.2078ZM27.536 20.8683L27.6067 20.939L27.6067 20.939L27.536 20.8683ZM28.6508 20.8683L28.5801 20.939L28.5803 20.9392L28.6508 20.8683ZM29.6985 21.9092L29.7692 21.8385L29.7689 21.8382L29.6985 21.9092ZM29.9268 22.4666L29.8267 22.4666L29.8268 22.4697L29.9268 22.4666ZM23.9231 4.0524L23.8524 3.98169L23.8524 3.98169L23.9231 4.0524ZM23.0837 4.0524L23.0119 4.12214L23.015 4.1251L23.0837 4.0524ZM23.0837 3.21294L23.0129 3.14223L23.0129 3.14223L23.0837 3.21294ZM25.2394 1.05723L25.1697 0.985499L25.1687 0.986524L25.2394 1.05723ZM26.0788 1.05723L26.1506 0.987548L26.1495 0.986524L26.0788 1.05723ZM26.0788 1.89669L26.1495 1.9674L26.1495 1.9674L26.0788 1.89669ZM4.76344 27.04L4.83415 26.9693L4.83312 26.9683L4.76344 27.04ZM4.75672 26.2006L4.82845 26.2702L4.82845 26.2702L4.75672 26.2006ZM5.60289 27.0333L5.67361 27.104L5.67462 27.103L5.60289 27.0333ZM21.4785 21.3787L21.5205 21.4695L21.5241 21.4677L21.4785 21.3787ZM20.6861 21.1168L20.7773 21.0756L20.7751 21.0712L20.6861 21.1168ZM20.948 20.3243L20.9024 20.2353L20.9024 20.2353L20.948 20.3243ZM21.7404 20.5862L21.6514 20.6318L21.6514 20.6318L21.7404 20.5862ZM8.61808 4.127C8.49656 4.127 8.36762 4.07688 8.27243 3.98169L8.131 4.12311C8.26414 4.25624 8.44412 4.327 8.61808 4.327V4.127ZM8.96374 3.98169C8.86811 4.07731 8.74572 4.127 8.61808 4.127V4.327C8.79936 4.327 8.97246 4.25581 9.10516 4.12311L8.96374 3.98169ZM8.96272 3.28262C9.15391 3.47944 9.15246 3.79296 8.96374 3.98169L9.10516 4.12311C9.3731 3.85517 9.37165 3.41654 9.10618 3.14327L8.96272 3.28262ZM6.80803 1.12795L8.96374 3.28366L9.10516 3.14223L6.94945 0.986524L6.80803 1.12795ZM6.10897 1.12896C6.30578 0.937772 6.61931 0.939223 6.80803 1.12795L6.94945 0.986524C6.68151 0.718584 6.24289 0.720036 5.96961 0.985506L6.10897 1.12896ZM6.11102 1.82701C5.91983 1.63019 5.92128 1.31667 6.11 1.12795L5.96858 0.986524C5.70064 1.25446 5.70209 1.69309 5.96756 1.96636L6.11102 1.82701ZM8.27232 3.98158L6.10989 1.82586L5.96869 1.96751L8.13111 4.12322L8.27232 3.98158ZM29.4198 20.0998L30.4674 21.1407L30.6084 20.9988L29.5608 19.9579L29.4198 20.0998ZM28.0934 19.5513C28.5973 19.5513 29.0689 19.7489 29.4196 20.0995L29.561 19.9581C29.1729 19.57 28.6506 19.3513 28.0934 19.3513V19.5513ZM27.1946 19.7807C27.4621 19.6342 27.7747 19.5513 28.0934 19.5513V19.3513C27.7406 19.3513 27.395 19.4429 27.0985 19.6053L27.1946 19.7807ZM25.1015 17.7962L27.0759 19.7639L27.2171 19.6222L25.2427 17.6545L25.1015 17.7962ZM25.1954 17.5606L25.1014 17.6547L25.2428 17.7961L25.3369 17.7021L25.1954 17.5606ZM25.1954 14.8009C25.9555 15.561 25.9555 16.8005 25.1954 17.5606L25.3369 17.7021C26.1751 16.8638 26.1751 15.4977 25.3369 14.6595L25.1954 14.8009ZM24.2117 14.2707C24.5824 14.3474 24.9207 14.5262 25.1954 14.8009L25.3369 14.6595C25.034 14.3567 24.6605 14.1593 24.2522 14.0749L24.2117 14.2707ZM24.2125 13.5953C24.2125 13.7874 24.187 13.9662 24.1358 14.1453L24.3281 14.2003C24.3844 14.0033 24.4125 13.8061 24.4125 13.5953H24.2125ZM23.6441 12.2154C24.0081 12.5793 24.2125 13.071 24.2125 13.5953H24.4125C24.4125 13.0182 24.1872 12.4756 23.7856 12.074L23.6441 12.2154ZM22.6604 11.6852C23.0311 11.7619 23.3694 11.9407 23.6441 12.2154L23.7856 12.074C23.4827 11.7712 23.1092 11.5738 22.7009 11.4894L22.6604 11.6852ZM22.6612 11.0098C22.6612 11.2019 22.6357 11.3807 22.5845 11.5598L22.7768 11.6148C22.8331 11.4178 22.8612 11.2206 22.8612 11.0098H22.6612ZM22.0867 9.63051C22.4569 9.99424 22.6612 10.4855 22.6612 11.0098H22.8612C22.8612 10.4326 22.6358 9.8897 22.2269 9.48786L22.0867 9.63051ZM21.1084 9.09957C21.4667 9.17635 21.805 9.34879 22.0861 9.62989L22.2275 9.48847C21.9177 9.1786 21.5441 8.9884 21.1503 8.90401L21.1084 9.09957ZM20.5411 7.04395C21.0588 7.56805 21.225 8.30928 21.0333 8.97407L21.2254 9.0295C21.4366 8.29745 21.2536 7.48066 20.6834 6.9034L20.5411 7.04395ZM18.9512 6.48879C19.52 6.42488 20.1073 6.61015 20.5415 7.04439L20.6829 6.90296C20.2039 6.42387 19.5555 6.21964 18.9289 6.29004L18.9512 6.48879ZM15.013 5.74896L18.9215 6.48768L18.9586 6.29116L15.0501 5.55244L15.013 5.74896ZM13.2931 5.96578C13.502 5.77199 13.7788 5.68749 14.0845 5.66738C14.3906 5.64724 14.7164 5.6923 15.0128 5.74892L15.0503 5.55248C14.7491 5.49493 14.4033 5.44597 14.0714 5.46781C13.7391 5.48967 13.4115 5.58313 13.1571 5.81915L13.2931 5.96578ZM13.2998 5.95891L13.2998 5.9589L13.1503 5.82603L13.1503 5.82604L13.2998 5.95891ZM13.2158 6.04895C13.2386 6.02046 13.2682 5.99079 13.2958 5.96319L13.1543 5.82176C13.1282 5.84788 13.0906 5.88536 13.0597 5.92401L13.2158 6.04895ZM11.046 6.534C11.6019 5.97813 12.4134 5.82482 13.103 6.08026L13.1725 5.89271C12.4116 5.61089 11.5173 5.77993 10.9046 6.39258L11.046 6.534ZM10.4776 7.91386C10.4776 7.3893 10.6756 6.90447 11.046 6.534L10.9046 6.39258C10.4961 6.80112 10.2776 7.33706 10.2776 7.91386H10.4776ZM10.5544 8.46393C10.5032 8.28494 10.4776 8.09944 10.4776 7.91386H10.2776C10.2776 8.11778 10.3058 8.32179 10.3621 8.51887L10.5544 8.46393ZM9.50229 9.11867C9.76981 8.84478 10.1076 8.66606 10.4785 8.58933L10.438 8.39348C10.0298 8.47792 9.6558 8.67528 9.35921 8.97892L9.50229 9.11867ZM8.92634 10.4994C8.92634 9.97515 9.13072 9.48386 9.50084 9.12012L9.36066 8.97747C8.95176 9.37932 8.72634 9.92223 8.72634 10.4994H8.92634ZM9.00308 11.0494C8.9519 10.8703 8.92634 10.6915 8.92634 10.4994H8.72634C8.72634 10.7102 8.75451 10.9074 8.81078 11.1044L9.00308 11.0494ZM7.95098 11.7042C8.21851 11.4303 8.55631 11.2516 8.92719 11.1748L8.88667 10.979C8.47854 11.0634 8.10449 11.2608 7.80791 11.5644L7.95098 11.7042ZM7.37504 13.0849C7.37504 12.5612 7.57909 12.0761 7.95015 11.705L7.80873 11.5636C7.40079 11.9715 7.17504 12.5072 7.17504 13.0849H7.37504ZM7.71417 14.1912C7.49625 13.8643 7.37504 13.4873 7.37504 13.0849H7.17504C7.17504 13.5287 7.30902 13.944 7.54776 14.3021L7.71417 14.1912ZM6.91595 14.8076C7.12685 14.5967 7.38236 14.4371 7.66323 14.3413L7.5987 14.152C7.2886 14.2577 7.00686 14.4339 6.77453 14.6662L6.91595 14.8076ZM6.91595 17.5673C6.15585 16.8072 6.15585 15.5677 6.91595 14.8076L6.77453 14.6662C5.93632 15.5044 5.93632 16.8706 6.77453 17.7088L6.91595 17.5673ZM7.00997 17.6614L6.91595 17.5673L6.77453 17.7088L6.86855 17.8028L7.00997 17.6614ZM5.03546 19.7706L7.00985 17.8029L6.86867 17.6612L4.89428 19.6289L5.03546 19.7706ZM2.79257 20.16C3.36594 19.5866 4.22695 19.4649 4.92249 19.7903L5.00725 19.6092C4.23879 19.2496 3.28659 19.3831 2.65115 20.0185L2.79257 20.16ZM1.7447 21.2011L2.79234 20.1602L2.65137 20.0183L1.60374 21.0592L1.7447 21.2011ZM1.19668 22.527C1.19668 22.0231 1.39427 21.5515 1.74493 21.2009L1.60351 21.0595C1.21546 21.4475 0.99668 21.9699 0.99668 22.527H1.19668ZM1.74493 23.8532C1.39427 23.5025 1.19668 23.0309 1.19668 22.527H0.99668C0.99668 23.0842 1.21546 23.6065 1.60351 23.9946L1.74493 23.8532ZM3.05429 25.1558L1.74475 23.853L1.60369 23.9948L2.91324 25.2976L3.05429 25.1558ZM3.75354 25.155C3.55672 25.3462 3.2432 25.3447 3.05448 25.156L2.91305 25.2974C3.18099 25.5653 3.61962 25.5639 3.89289 25.2984L3.75354 25.155ZM3.75149 24.4569C3.94268 24.6537 3.94123 24.9673 3.75251 25.156L3.89393 25.2974C4.16187 25.0295 4.16042 24.5908 3.89494 24.3176L3.75149 24.4569ZM2.44314 23.1553L3.75269 24.4581L3.89374 24.3164L2.5842 23.0135L2.44314 23.1553ZM2.18534 22.527C2.18534 22.7608 2.27585 22.988 2.44296 23.1551L2.58438 23.0137C2.45601 22.8853 2.38534 22.7096 2.38534 22.527H2.18534ZM2.44296 21.8989C2.27616 22.0657 2.18534 22.286 2.18534 22.527H2.38534C2.38534 22.3382 2.4557 22.169 2.58438 22.0403L2.44296 21.8989ZM3.49082 20.8578L2.44319 21.8987L2.58416 22.0406L3.63179 20.9996L3.49082 20.8578ZM4.5798 20.7221C4.23904 20.5176 3.78559 20.563 3.4906 20.858L3.63202 20.9994C3.86084 20.7706 4.21327 20.7354 4.47691 20.8936L4.5798 20.7221ZM4.65304 20.8067C4.63424 20.7847 4.6229 20.771 4.61411 20.7564L4.4426 20.8593C4.46139 20.8906 4.48391 20.9166 4.50095 20.9366L4.65304 20.8067ZM4.65511 20.8092L4.65509 20.8092L4.49891 20.9341L4.49893 20.9341L4.65511 20.8092ZM4.65347 20.8072L4.65345 20.8072L4.50059 20.9361L4.50061 20.9362L4.65347 20.8072ZM4.68031 20.8394C4.6707 20.8273 4.66121 20.8163 4.65309 20.8067L4.50099 20.9366C4.50938 20.9464 4.51683 20.9552 4.52414 20.9643L4.68031 20.8394ZM4.81868 20.9353C4.76135 20.9035 4.717 20.8752 4.67294 20.8311L4.53152 20.9726C4.59491 21.0359 4.658 21.0748 4.72155 21.1101L4.81868 20.9353ZM10.8445 26.949L4.84079 20.952L4.69945 21.0935L10.7032 27.0905L10.8445 26.949ZM10.9655 27.1237C10.9205 27.0787 10.8872 27.0285 10.8653 26.9791L10.6825 27.0604C10.7143 27.1319 10.7616 27.2026 10.824 27.2651L10.9655 27.1237ZM11.1033 27.2171C11.0531 27.1949 11.0031 27.1613 10.9655 27.1237L10.824 27.2651C10.8804 27.3214 10.9513 27.3685 11.022 27.3999L11.1033 27.2171ZM11.3574 27.8323C11.3574 27.615 11.2825 27.4024 11.1368 27.2414L10.9885 27.3756C11.098 27.4967 11.1574 27.6602 11.1574 27.8323H11.3574ZM11.0998 28.4605C11.2666 28.2937 11.3574 28.0733 11.3574 27.8323H11.1574C11.1574 28.0212 11.087 28.1903 10.9584 28.319L11.0998 28.4605ZM10.0521 29.5081L11.0998 28.4605L10.9584 28.319L9.91072 29.3667L10.0521 29.5081ZM8.78921 29.5081C9.13718 29.8561 9.70417 29.8561 10.0521 29.5081L9.91072 29.3667C9.64085 29.6365 9.2005 29.6365 8.93063 29.3667L8.78921 29.5081ZM7.47967 28.1985L8.78921 29.5081L8.93063 29.3667L7.62109 28.0571L7.47967 28.1985ZM6.78061 28.1996C6.97742 28.0084 7.29095 28.0098 7.47967 28.1985L7.62109 28.0571C7.35315 27.7892 6.91453 27.7906 6.64125 28.0561L6.78061 28.1996ZM6.78266 28.8976C6.59015 28.6994 6.58785 28.3868 6.78061 28.1996L6.64125 28.0561C6.36391 28.3255 6.37504 28.765 6.6392 29.037L6.78266 28.8976ZM8.09118 30.2061L6.78164 28.8966L6.64022 29.038L7.94976 30.3475L8.09118 30.2061ZM9.41732 30.7544C8.93901 30.7544 8.45441 30.5693 8.09118 30.2061L7.94976 30.3475C8.35211 30.7499 8.88828 30.9544 9.41732 30.9544V30.7544ZM10.7435 30.2061C10.3802 30.5693 9.89562 30.7544 9.41732 30.7544V30.9544C9.94635 30.9544 10.4825 30.7499 10.8849 30.3475L10.7435 30.2061ZM11.7911 29.1585L10.7435 30.2061L10.8849 30.3475L11.9325 29.2999L11.7911 29.1585ZM12.3393 27.8323C12.3393 28.3363 12.1418 28.8078 11.7911 29.1585L11.9325 29.2999C12.3206 28.9119 12.5393 28.3895 12.5393 27.8323H12.3393ZM12.0525 26.838C12.2373 27.1312 12.3393 27.4753 12.3393 27.8323H12.5393C12.5393 27.4372 12.4264 27.0561 12.2217 26.7314L12.0525 26.838ZM14.2826 24.4979L12.0664 26.714L12.2078 26.8554L14.424 24.6393L14.2826 24.4979ZM14.2893 24.4911L14.2826 24.4979L14.424 24.6393L14.4307 24.6325L14.2893 24.4911ZM16.0122 24.2942C15.6713 24.2708 15.3173 24.2467 15.0164 24.2622C14.8656 24.2699 14.7239 24.2878 14.6013 24.3222C14.4793 24.3566 14.369 24.4093 14.2884 24.4921L14.4316 24.6316C14.4786 24.5834 14.5521 24.5438 14.6555 24.5148C14.7583 24.4859 14.8836 24.4693 15.0266 24.4619C15.3133 24.4472 15.6544 24.4701 15.9985 24.4937L16.0122 24.2942ZM16.048 24.2967L16.0123 24.2942L15.9984 24.4937L16.0341 24.4962L16.048 24.2967ZM17.552 24.308C17.0451 24.3658 16.524 24.3298 16.048 24.2967L16.0341 24.4962C16.5072 24.5291 17.0466 24.5669 17.5747 24.5067L17.552 24.308ZM20.065 26.7609L17.634 24.3366L17.4927 24.4782L19.9238 26.9025L20.065 26.7609ZM19.8526 27.7786C19.8526 27.4604 19.9353 27.1541 20.0826 26.8789L19.9062 26.7846C19.7445 27.0868 19.6526 27.4253 19.6526 27.7786H19.8526ZM20.4015 29.1054C20.0499 28.7474 19.8526 28.282 19.8526 27.7786H19.6526C19.6526 28.3363 19.8718 28.8514 20.2588 29.2455L20.4015 29.1054ZM21.4485 30.1524L20.4009 29.1048L20.2595 29.2462L21.3071 30.2938L21.4485 30.1524ZM22.7747 30.7006C22.2707 30.7006 21.7992 30.5031 21.4485 30.1524L21.3071 30.2938C21.6952 30.6819 22.2175 30.9006 22.7747 30.9006V30.7006ZM24.1002 30.153C23.7503 30.5093 23.2794 30.7006 22.7747 30.7006V30.9006C23.331 30.9006 23.854 30.6891 24.2429 30.2932L24.1002 30.153ZM30.4471 23.8128L24.1008 30.1524L24.2422 30.2939L30.5884 23.9543L30.4471 23.8128ZM30.9953 22.4867C30.9953 22.9907 30.7977 23.4622 30.447 23.8129L30.5885 23.9543C30.9765 23.5662 31.1953 23.0439 31.1953 22.4867H30.9953ZM30.4672 21.1404C30.8239 21.4972 31.0145 21.9673 30.9954 22.483L31.1952 22.4904C31.2164 21.9182 31.004 21.3944 30.6086 20.999L30.4672 21.1404ZM17.4139 7.19774L14.8419 6.71422L14.8049 6.91078L17.377 7.3943L17.4139 7.19774ZM15.9283 8.90461L17.4662 7.36673L17.3247 7.22531L15.7869 8.76319L15.9283 8.90461ZM14.8682 8.23439C15.2309 8.58339 15.5685 8.80464 15.8139 8.92385L15.9013 8.74395C15.6766 8.63483 15.3561 8.42627 15.0069 8.09028L14.8682 8.23439ZM13.965 6.82917C13.9842 7.02093 14.0903 7.2554 14.2459 7.49491C14.4034 7.73716 14.6184 7.99483 14.8683 8.23452L15.0068 8.09016C14.7665 7.85975 14.5617 7.61375 14.4136 7.38591C14.2638 7.15533 14.1784 6.95328 14.164 6.80927L13.965 6.82917ZM13.9645 6.75878V6.81922H14.1645V6.75878H13.9645ZM14.8425 6.71434C14.3551 6.61956 14.1349 6.63592 14.0382 6.6623L14.0908 6.85525C14.1419 6.84133 14.3247 6.8174 14.8043 6.91066L14.8425 6.71434ZM12.985 7.10537C12.6042 6.85148 12.0878 6.88829 11.7508 7.22531L11.8922 7.36673C12.1596 7.09935 12.5699 7.06901 12.8741 7.27178L12.985 7.10537ZM14.1874 8.94967C13.8794 8.6551 13.2142 7.94043 13.0268 7.16508L12.8324 7.21206C13.0345 8.04846 13.7392 8.7978 14.0491 9.0942L14.1874 8.94967ZM15.847 9.97897C15.4955 9.89589 15.1383 9.69585 14.8371 9.48484C14.5371 9.27466 14.2995 9.05846 14.1879 8.95018L14.0486 9.09369C14.1654 9.20703 14.4112 9.43069 14.7224 9.64864C15.0323 9.86575 15.4137 10.0821 15.801 10.1736L15.847 9.97897ZM16.0785 10.5732C16.0785 10.3724 16.019 10.1772 15.9054 10.0182L15.7426 10.1344C15.8305 10.2574 15.8785 10.4114 15.8785 10.5732H16.0785ZM15.7925 11.2565C15.9811 11.0755 16.0785 10.8341 16.0785 10.5732H15.8785C15.8785 10.7825 15.8013 10.9709 15.654 11.1122L15.7925 11.2565ZM15.1054 11.5396C15.3672 11.5396 15.6142 11.4348 15.794 11.2551L15.6526 11.1136C15.51 11.2562 15.3137 11.3396 15.1054 11.3396V11.5396ZM14.4169 11.2551C14.6038 11.442 14.8442 11.5396 15.1054 11.5396V11.3396C14.8966 11.3396 14.7072 11.2625 14.5583 11.1136L14.4169 11.2551ZM11.7442 8.58906L14.417 11.2552L14.5582 11.1136L11.8854 8.44746L11.7442 8.58906ZM11.4596 7.90714C11.4596 8.16263 11.5646 8.4095 11.7441 8.58897L11.8855 8.44755C11.7426 8.30468 11.6596 8.10832 11.6596 7.90714H11.4596ZM11.7508 7.22531C11.5716 7.40456 11.4671 7.64374 11.4596 7.90429L11.6596 7.91C11.6655 7.70046 11.7491 7.50984 11.8922 7.36673L11.7508 7.22531ZM10.8813 9.51962C10.6258 9.51962 10.379 9.62463 10.1995 9.80411L10.3409 9.94553C10.4838 9.80266 10.6801 9.71962 10.8813 9.71962V9.51962ZM11.5699 9.80411C11.383 9.61721 11.1425 9.51962 10.8813 9.51962V9.71962C11.0902 9.71962 11.2796 9.79665 11.4284 9.94553L11.5699 9.80411ZM13.7189 11.9531L11.5699 9.80411L11.4284 9.94553L13.5774 12.0945L13.7189 11.9531ZM13.7189 13.3235C14.0941 12.9483 14.0931 12.3348 13.7196 11.9538L13.5767 12.0938C13.8748 12.3978 13.8738 12.8857 13.5774 13.1821L13.7189 13.3235ZM13.0303 13.608C13.2921 13.608 13.5391 13.5032 13.7189 13.3235L13.5774 13.1821C13.4349 13.3246 13.2386 13.408 13.0303 13.408V13.608ZM12.3418 13.3235C12.5287 13.5104 12.7691 13.608 13.0303 13.608V13.408C12.8214 13.408 12.6321 13.3309 12.4832 13.1821L12.3418 13.3235ZM10.7099 11.6916L12.3418 13.3235L12.4832 13.1821L10.8513 11.5502L10.7099 11.6916ZM10.7032 11.6849L10.7099 11.6916L10.8513 11.5502L10.8446 11.5435L10.7032 11.6849ZM10.1928 11.1745L10.7032 11.6849L10.8446 11.5434L10.3342 11.0331L10.1928 11.1745ZM9.90829 10.4859C9.90829 10.7477 10.013 10.9947 10.1928 11.1745L10.3342 11.0331C10.1916 10.8905 10.1083 10.6942 10.1083 10.4859H9.90829ZM10.1981 9.80556C10.0193 9.99182 9.92319 10.2297 9.90846 10.4801L10.1081 10.4918C10.1203 10.2855 10.1988 10.0936 10.3423 9.94407L10.1981 9.80556ZM9.34345 12.1051C9.08166 12.1051 8.83467 12.2098 8.6549 12.3896L8.79632 12.531C8.9389 12.3885 9.13514 12.3051 9.34345 12.3051V12.1051ZM10.0253 12.3829C9.84468 12.2023 9.60405 12.1051 9.34345 12.1051V12.3051C9.55293 12.3051 9.7421 12.3826 9.88386 12.5243L10.0253 12.3829ZM11.6639 14.0215L10.0253 12.3829L9.88386 12.5243L11.5225 14.1629L11.6639 14.0215ZM11.9484 14.7033C11.9484 14.4479 11.8434 14.201 11.6639 14.0215L11.5225 14.1629C11.6653 14.3058 11.7484 14.5022 11.7484 14.7033H11.9484ZM11.6624 15.3866C11.851 15.2056 11.9484 14.9642 11.9484 14.7033H11.7484C11.7484 14.9126 11.6712 15.101 11.5239 15.2423L11.6624 15.3866ZM10.9753 15.6697C11.2371 15.6697 11.4841 15.5649 11.6639 15.3852L11.5225 15.2437C11.3799 15.3863 11.1836 15.4697 10.9753 15.4697V15.6697ZM10.2868 15.3852C10.4737 15.5721 10.7141 15.6697 10.9753 15.6697V15.4697C10.7665 15.4697 10.5771 15.3926 10.4282 15.2437L10.2868 15.3852ZM9.69582 14.7942L10.2868 15.3852L10.4282 15.2437L9.83724 14.6528L9.69582 14.7942ZM8.65513 13.7602L9.69605 14.7944L9.83701 14.6525L8.79609 13.6183L8.65513 13.7602ZM8.37042 13.0714C8.37042 13.3332 8.47513 13.5802 8.6549 13.76L8.79632 13.6186C8.65374 13.476 8.57042 13.2797 8.57042 13.0714H8.37042ZM8.65636 12.3882C8.46752 12.5695 8.37042 12.8178 8.37042 13.0714H8.57042C8.57042 12.8685 8.64792 12.6735 8.79486 12.5325L8.65636 12.3882ZM8.30924 15.2077C8.04746 15.2077 7.80047 15.3125 7.6207 15.4922L7.76212 15.6336C7.90469 15.4911 8.10094 15.4077 8.30924 15.4077V15.2077ZM8.99779 15.4922C8.81089 15.3053 8.57045 15.2077 8.30924 15.2077V15.4077C8.51813 15.4077 8.70748 15.4848 8.85637 15.6336L8.99779 15.4922ZM9.58876 16.0832L8.99779 15.4922L8.85637 15.6336L9.44734 16.2246L9.58876 16.0832ZM9.87324 16.765C9.87324 16.5095 9.76824 16.2627 9.58876 16.0832L9.44734 16.2246C9.59021 16.3675 9.67324 16.5638 9.67324 16.765H9.87324ZM9.58731 17.4483C9.77586 17.2673 9.87324 17.0259 9.87324 16.765H9.67324C9.67324 16.9743 9.59603 17.1627 9.4488 17.304L9.58731 17.4483ZM8.90022 17.7313C9.162 17.7313 9.40899 17.6266 9.58876 17.4469L9.44734 17.3054C9.30476 17.448 9.10852 17.5313 8.90022 17.5313V17.7313ZM8.21167 17.4469C8.39857 17.6338 8.63901 17.7313 8.90022 17.7313V17.5313C8.69133 17.5313 8.50197 17.4543 8.35309 17.3054L8.21167 17.4469ZM8.1378 17.373L8.21167 17.4469L8.35309 17.3054L8.27922 17.2316L8.1378 17.373ZM8.20179 17.4023H8.20851V17.2023H8.20179V17.4023ZM7.6207 16.8626L8.13108 17.373L8.2725 17.2316L7.76212 16.7212L7.6207 16.8626ZM7.62 15.4929C7.24648 15.8739 7.24548 16.4874 7.6207 16.8626L7.76212 16.7212C7.46577 16.4248 7.46477 15.9369 7.76281 15.6329L7.62 15.4929ZM18.9896 22.3637C19.1864 22.1725 19.4999 22.174 19.6886 22.3627L19.8301 22.2213C19.5621 21.9533 19.1235 21.9548 18.8502 22.2202L18.9896 22.3637ZM18.4668 22.8865L18.9906 22.3627L18.8492 22.2213L18.3254 22.7451L18.4668 22.8865ZM16.1269 23.2931C16.5581 23.3229 17.0076 23.3544 17.4125 23.3139C17.8176 23.2735 18.1935 23.1598 18.4668 22.8865L18.3254 22.7451C18.099 22.9714 17.7771 23.0765 17.3926 23.1149C17.0078 23.1534 16.576 23.1237 16.1407 23.0936L16.1269 23.2931ZM16.1059 23.2916L16.1269 23.2931L16.1407 23.0936L16.1197 23.0921L16.1059 23.2916ZM13.6125 23.7786C13.9071 23.4746 14.2873 23.3347 14.7184 23.2802C15.1518 23.2254 15.6268 23.2579 16.1058 23.2916L16.1198 23.0921C15.6451 23.0587 15.1497 23.024 14.6933 23.0817C14.2346 23.1397 13.8056 23.292 13.4689 23.6394L13.6125 23.7786ZM11.4287 25.9556L13.6113 23.7798L13.4701 23.6381L11.2875 25.814L11.4287 25.9556ZM5.83439 20.5092L11.2875 25.9556L11.4288 25.8141L5.97572 20.3677L5.83439 20.5092ZM7.76172 18.4404L5.83434 20.3678L5.97577 20.5092L7.90314 18.5818L7.76172 18.4404ZM8.90693 18.7133C8.53647 18.7133 8.19161 18.6113 7.88415 18.4255L7.78072 18.5967C8.11796 18.8004 8.49838 18.9133 8.90693 18.9133V18.7133ZM10.2868 18.1449C9.92286 18.5088 9.43124 18.7133 8.90693 18.7133V18.9133C9.48398 18.9133 10.0266 18.688 10.4282 18.2863L10.2868 18.1449ZM10.8619 16.765C10.8619 17.2887 10.6579 17.7738 10.2868 18.1449L10.4282 18.2863C10.8362 17.8784 11.0619 17.3427 11.0619 16.765H10.8619ZM10.8619 16.7516V16.765H11.0619V16.7516H10.8619ZM10.9753 16.6516H10.9619V16.8516H10.9753V16.6516ZM12.3552 16.0832C11.9913 16.4471 11.4997 16.6516 10.9753 16.6516V16.8516C11.5524 16.8516 12.095 16.6263 12.4966 16.2246L12.3552 16.0832ZM12.9303 14.7033C12.9303 15.2271 12.7263 15.7121 12.3552 16.0832L12.4966 16.2246C12.9046 15.8167 13.1303 15.281 13.1303 14.7033H12.9303ZM12.9303 14.6899V14.7033H13.1303V14.6899H12.9303ZM13.0437 14.5899H13.0303V14.7899H13.0437V14.5899ZM14.4236 14.0215C14.0597 14.3854 13.5681 14.5899 13.0437 14.5899V14.7899C13.6208 14.7899 14.1634 14.5646 14.565 14.1629L14.4236 14.0215ZM14.992 12.6295C14.9984 13.1338 14.8069 13.6382 14.4236 14.0215L14.565 14.1629C14.9876 13.7404 15.199 13.1837 15.192 12.627L14.992 12.6295ZM15.1054 12.5282H15.092V12.7282H15.1054V12.5282ZM16.4853 11.9598C16.1214 12.3237 15.6297 12.5282 15.1054 12.5282V12.7282C15.6825 12.7282 16.2251 12.5029 16.6267 12.1012L16.4853 11.9598ZM17.0537 10.58C17.0537 11.1045 16.8558 11.5893 16.4853 11.9598L16.6267 12.1012C17.0353 11.6927 17.2537 11.1568 17.2537 10.58H17.0537ZM16.7664 9.56468C16.9515 9.86468 17.0537 10.2159 17.0537 10.58H17.2537C17.2537 10.1784 17.141 9.79093 16.9366 9.45966L16.7664 9.56468ZM18.4731 7.74913L16.7808 9.44146L16.9222 9.58288L18.6145 7.89055L18.4731 7.74913ZM18.9667 7.4869C18.789 7.52391 18.6162 7.60602 18.4731 7.74913L18.6145 7.89055C18.7266 7.77847 18.8628 7.71284 19.0075 7.68269L18.9667 7.4869ZM18.9943 7.48338C18.9855 7.48515 18.986 7.48479 18.9871 7.48479V7.68479C19.0082 7.68479 19.0256 7.68108 19.0335 7.67949L18.9943 7.48338ZM19.0408 7.47808C19.0196 7.47808 19.0023 7.48179 18.9943 7.48338L19.0335 7.67949C19.0424 7.67773 19.0418 7.67808 19.0408 7.67808V7.47808ZM19.849 7.74794C19.6244 7.53079 19.3182 7.44169 19.0281 7.47889L19.0535 7.67727C19.2872 7.64731 19.5317 7.71939 19.71 7.89174L19.849 7.74794ZM19.8502 9.11951C20.2254 8.74429 20.2244 8.13083 19.8509 7.74983L19.7081 7.88985C20.0061 8.19385 20.0051 8.68174 19.7088 8.97809L19.8502 9.11951ZM19.3326 9.63035L19.8497 9.11997L19.7093 8.97763L19.1922 9.48801L19.3326 9.63035ZM19.3557 9.5659C19.3557 9.58172 19.3514 9.60023 19.3399 9.61748C19.3289 9.63411 19.3148 9.64395 19.3038 9.64946C19.2931 9.65478 19.2837 9.65694 19.2778 9.65792C19.2746 9.65846 19.2717 9.65876 19.2692 9.65894C19.268 9.65903 19.2668 9.65909 19.2657 9.65913C19.2651 9.65915 19.2645 9.65916 19.264 9.65917C19.2637 9.65917 19.2635 9.65918 19.2632 9.65918C19.2631 9.65918 19.2629 9.65918 19.2628 9.65918C19.2627 9.65918 19.2627 9.65918 19.2626 9.65918C19.2626 9.65918 19.2625 9.65918 19.2625 9.65918C19.2625 9.65918 19.2624 9.65918 19.2624 9.55918C19.2624 9.45918 19.2623 9.45918 19.2623 9.45918C19.2623 9.45918 19.2622 9.45918 19.2622 9.45918C19.2621 9.45918 19.2621 9.45918 19.262 9.45918C19.2619 9.45918 19.2617 9.45918 19.2616 9.45919C19.2613 9.45919 19.261 9.45919 19.2608 9.4592C19.2602 9.4592 19.2596 9.45922 19.259 9.45924C19.2577 9.45928 19.2564 9.45935 19.255 9.45945C19.2521 9.45965 19.2487 9.46001 19.2449 9.46065C19.2377 9.46185 19.2266 9.46443 19.2143 9.47058C19.2016 9.47694 19.1859 9.48803 19.1735 9.50655C19.1608 9.52569 19.1557 9.54672 19.1557 9.5659H19.3557ZM18.7354 10.2276L19.3264 9.63661L19.185 9.49519L18.594 10.0862L18.7354 10.2276ZM18.7364 10.9266C18.5452 10.7298 18.5467 10.4163 18.7354 10.2276L18.594 10.0862C18.3261 10.3541 18.3275 10.7927 18.593 11.066L18.7364 10.9266ZM19.4345 10.9246C19.2377 11.1158 18.9241 11.1143 18.7354 10.9256L18.594 11.067C18.8619 11.335 19.3006 11.3335 19.5738 11.0681L19.4345 10.9246ZM19.9506 10.4085L19.4334 10.9256L19.5749 11.067L20.092 10.5499L19.9506 10.4085ZM20.0311 10.3279L19.9506 10.4085L20.092 10.5499L20.1726 10.4693L20.0311 10.3279ZM21.4008 10.3272C21.0194 9.95332 20.4132 9.95332 20.0318 10.3272L20.1719 10.47C20.4755 10.1724 20.9572 10.1724 21.2608 10.47L21.4008 10.3272ZM21.686 11.0098C21.686 10.7543 21.581 10.5074 21.4015 10.3279L21.2601 10.4693C21.403 10.6122 21.486 10.8086 21.486 11.0098H21.686ZM21.4001 11.693C21.5886 11.512 21.686 11.2706 21.686 11.0098H21.486C21.486 11.219 21.4088 11.4074 21.2616 11.5487L21.4001 11.693ZM20.8844 12.2087L21.4015 11.6916L21.2601 11.5502L20.743 12.0673L20.8844 12.2087ZM20.2934 12.7997L20.8844 12.2087L20.743 12.0673L20.152 12.6582L20.2934 12.7997ZM20.2934 13.4977C20.0969 13.3011 20.0984 12.9892 20.2924 12.8007L20.1531 12.6572C19.877 12.9254 19.8785 13.3656 20.152 13.6391L20.2934 13.4977ZM20.9915 13.4977C20.7949 13.6943 20.483 13.6928 20.2945 13.4987L20.151 13.6381C20.4192 13.9141 20.8594 13.9126 21.1329 13.6391L20.9915 13.4977ZM21.5896 12.9063L20.9919 13.4973L21.1325 13.6395L21.7302 13.0485L21.5896 12.9063ZM22.2777 12.6222C22.0159 12.6222 21.7689 12.7269 21.5892 12.9067L21.7306 13.0481C21.8732 12.9056 22.0694 12.8222 22.2777 12.8222V12.6222ZM22.9663 12.9067C22.7794 12.7198 22.5389 12.6222 22.2777 12.6222V12.8222C22.4866 12.8222 22.6759 12.8993 22.8248 13.0481L22.9663 12.9067ZM23.2507 13.5885C23.2507 13.3331 23.1457 13.0862 22.9663 12.9067L22.8248 13.0481C22.9677 13.191 23.0507 13.3874 23.0507 13.5885H23.2507ZM22.9648 14.2718C23.1533 14.0908 23.2507 13.8494 23.2507 13.5885H23.0507C23.0507 13.7978 22.9735 13.9862 22.8263 14.1275L22.9648 14.2718ZM21.9321 15.3046L22.9663 14.2704L22.8248 14.129L21.7906 15.1632L21.9321 15.3046ZM21.9331 16.0036C21.7419 15.8068 21.7433 15.4933 21.9321 15.3046L21.7906 15.1632C21.5227 15.4311 21.5241 15.8697 21.7896 16.143L21.9331 16.0036ZM22.2777 16.1479C22.1562 16.1479 22.0272 16.0978 21.9321 16.0026L21.7906 16.144C21.9238 16.2772 22.1037 16.3479 22.2777 16.3479V16.1479ZM22.6234 16.0026C22.5277 16.0982 22.4053 16.1479 22.2777 16.1479V16.3479C22.459 16.3479 22.6321 16.2767 22.7648 16.144L22.6234 16.0026ZM23.127 15.4989L22.6234 16.0026L22.7648 16.144L23.2685 15.6404L23.127 15.4989ZM23.1338 15.4922L23.127 15.4989L23.2685 15.6404L23.2752 15.6337L23.1338 15.4922ZM23.8223 15.2077C23.5605 15.2077 23.3135 15.3125 23.1337 15.4922L23.2752 15.6336C23.4177 15.4911 23.614 15.4077 23.8223 15.4077V15.2077ZM24.5108 15.4922C24.3239 15.3053 24.0835 15.2077 23.8223 15.2077V15.4077C24.0312 15.4077 24.2205 15.4848 24.3694 15.6336L24.5108 15.4922ZM24.5115 16.8619C24.8851 16.4809 24.8861 15.8674 24.5108 15.4922L24.3694 15.6336C24.6658 15.93 24.6668 16.4179 24.3687 16.7219L24.5115 16.8619ZM23.9937 17.3797L24.5108 16.8626L24.3694 16.7212L23.8523 17.2383L23.9937 17.3797ZM23.1744 18.199L23.9937 17.3797L23.8523 17.2383L23.033 18.0576L23.1744 18.199ZM23.1755 18.8981C22.9843 18.7013 22.9857 18.3877 23.1744 18.199L23.033 18.0576C22.7651 18.3255 22.7665 18.7641 23.032 19.0374L23.1755 18.8981ZM23.5201 19.0424C23.3986 19.0424 23.2696 18.9922 23.1744 18.897L23.033 19.0385C23.1661 19.1716 23.3461 19.2424 23.5201 19.2424V19.0424ZM23.8658 18.897C23.7701 18.9927 23.6477 19.0424 23.5201 19.0424V19.2424C23.7014 19.2424 23.8745 19.1712 24.0072 19.0385L23.8658 18.897ZM24.2693 18.5002L23.8663 18.8964L24.0066 19.039L24.4095 18.6428L24.2693 18.5002ZM26.3241 20.4148L24.4101 18.5008L24.2687 18.6422L26.1826 20.5562L26.3241 20.4148ZM20.8709 26.0026L26.324 20.5562L26.1827 20.4147L20.7296 25.8611L20.8709 26.0026ZM18.7753 24.0483L20.7296 26.0025L20.871 25.8611L18.9167 23.9069L18.7753 24.0483ZM19.1629 23.5932C19.0494 23.7131 18.9221 23.8089 18.7915 23.8937L18.9005 24.0614C19.0386 23.9717 19.1799 23.8661 19.3081 23.7307L19.1629 23.5932ZM19.6886 23.0674L19.1648 23.5912L19.3062 23.7327L19.8301 23.2089L19.6886 23.0674ZM19.6876 22.3617C19.8783 22.5579 19.8783 22.8722 19.6876 23.0685L19.8311 23.2078C20.0971 22.934 20.0971 22.4961 19.8311 22.2223L19.6876 22.3617ZM23.4229 29.441L29.7691 23.1014L29.6278 22.9599L23.2815 29.2995L23.4229 29.441ZM22.7948 29.6986C23.0286 29.6986 23.2558 29.608 23.4229 29.4409L23.2815 29.2995C23.1531 29.4279 22.9774 29.4986 22.7948 29.4986V29.6986ZM22.1667 29.4409C22.3335 29.6077 22.5538 29.6986 22.7948 29.6986V29.4986C22.606 29.4986 22.4368 29.4282 22.3081 29.2995L22.1667 29.4409ZM21.1191 28.3933L22.1667 29.4409L22.3081 29.2995L21.2605 28.2519L21.1191 28.3933ZM20.8614 27.7652C20.8614 27.999 20.952 28.2262 21.1191 28.3933L21.2605 28.2519C21.1321 28.1235 21.0614 27.9477 21.0614 27.7652H20.8614ZM21.1191 27.1371C20.9523 27.3039 20.8614 27.5242 20.8614 27.7652H21.0614C21.0614 27.5764 21.1318 27.4072 21.2605 27.2785L21.1191 27.1371ZM27.4654 20.7975L21.1191 27.137L21.2605 27.2785L27.6067 20.939L27.4654 20.7975ZM28.0934 20.5399C27.8596 20.5399 27.6324 20.6304 27.4653 20.7976L27.6067 20.939C27.7351 20.8106 27.9109 20.7399 28.0934 20.7399V20.5399ZM28.7215 20.7976C28.5547 20.6308 28.3344 20.5399 28.0934 20.5399V20.7399C28.2822 20.7399 28.4514 20.8103 28.5801 20.939L28.7215 20.7976ZM29.7689 21.8382L28.7213 20.7973L28.5803 20.9392L29.628 21.9801L29.7689 21.8382ZM30.0268 22.4666C30.0268 22.2328 29.9363 22.0056 29.7692 21.8385L29.6277 21.9799C29.7561 22.1083 29.8268 22.284 29.8268 22.4666H30.0268ZM29.7676 23.103C29.943 22.9351 30.0343 22.706 30.0267 22.4635L29.8268 22.4697C29.8327 22.6569 29.7628 22.8308 29.6293 22.9584L29.7676 23.103ZM23.5067 4.327C23.688 4.327 23.8611 4.25581 23.9938 4.12311L23.8524 3.98169C23.7568 4.07731 23.6344 4.127 23.5067 4.127V4.327ZM23.015 4.1251C23.1536 4.25599 23.3323 4.327 23.5067 4.327V4.127C23.3857 4.127 23.2555 4.07713 23.1523 3.97969L23.015 4.1251ZM23.0129 3.14223C22.745 3.41017 22.7465 3.8488 23.0119 4.12207L23.1554 3.98272C22.9642 3.7859 22.9656 3.47238 23.1544 3.28366L23.0129 3.14223ZM25.1687 0.986524L23.0129 3.14223L23.1544 3.28366L25.3101 1.12795L25.1687 0.986524ZM26.1495 0.986524C25.8816 0.718584 25.443 0.720036 25.1697 0.985506L25.3091 1.12896C25.5059 0.937772 25.8194 0.939223 26.0081 1.12795L26.1495 0.986524ZM26.1495 1.9674C26.4175 1.69946 26.416 1.26083 26.1506 0.987556L26.0071 1.12691C26.1983 1.32373 26.1968 1.63725 26.0081 1.82597L26.1495 1.9674ZM23.9938 4.12311L26.1495 1.9674L26.0081 1.82597L23.8524 3.98169L23.9938 4.12311ZM4.83312 26.9683C4.63889 26.7796 4.63742 26.4669 4.82845 26.2702L4.68499 26.1309C4.41936 26.4043 4.41789 26.8438 4.69376 27.1117L4.83312 26.9683ZM5.1798 27.1079C5.04916 27.1079 4.92773 27.0629 4.83415 26.9693L4.69273 27.1107C4.82748 27.2455 5.00153 27.3079 5.1798 27.3079V27.1079ZM5.53218 26.9626C5.43739 27.0574 5.30864 27.1079 5.1798 27.1079V27.3079C5.35988 27.3079 5.54005 27.2376 5.6736 27.104L5.53218 26.9626ZM5.52649 26.2656C5.72072 26.4543 5.72219 26.767 5.53116 26.9636L5.67462 27.103C5.94024 26.8295 5.94172 26.3901 5.66585 26.1221L5.52649 26.2656ZM4.82845 26.2702C5.01712 26.076 5.32984 26.0745 5.52649 26.2656L5.66585 26.1221C5.39241 25.8565 4.95298 25.855 4.68499 26.1309L4.82845 26.2702ZM21.2099 21.5391C21.312 21.5391 21.4203 21.5157 21.5204 21.4695L21.4366 21.2879C21.3621 21.3223 21.2824 21.3391 21.2099 21.3391V21.5391ZM20.5949 21.1579C20.7074 21.4069 20.9548 21.5391 21.2099 21.5391V21.3391C21.0218 21.3391 20.8528 21.243 20.7772 21.0756L20.5949 21.1579ZM20.9024 20.2353C20.5661 20.4074 20.4234 20.8228 20.5971 21.1623L20.7751 21.0712C20.6533 20.8332 20.7524 20.5367 20.9935 20.4134L20.9024 20.2353ZM21.8295 20.5407C21.6574 20.2043 21.2419 20.0616 20.9024 20.2353L20.9935 20.4134C21.2316 20.2916 21.528 20.3906 21.6514 20.6318L21.8295 20.5407ZM21.5241 21.4677C21.8604 21.2956 22.0031 20.8802 21.8295 20.5407L21.6514 20.6318C21.7732 20.8698 21.6741 21.1663 21.433 21.2897L21.5241 21.4677Z" fill="#121212" mask="url(#path-2-outside-1_54_2327)"/>
</svg>
