<svg width="32" height="32" viewBox="0 0 32 32" fill="none" xmlns="http://www.w3.org/2000/svg">
<mask id="path-1-outside-1_54_2344" maskUnits="userSpaceOnUse" x="0" y="0" width="32" height="32" fill="black">
<rect fill="white" width="32" height="32"/>
<path fill-rule="evenodd" clip-rule="evenodd" d="M2.12196 3.48701C2.12196 3.79866 1.87263 4.04799 1.56098 4.04799C1.24932 4.04799 1 3.79866 1 3.48701V1.56098C1 1.24932 1.24932 1 1.56098 1H3.48701C3.79866 1 4.04799 1.24932 4.04799 1.56098C4.04799 1.87263 3.79866 2.12196 3.48701 2.12196H2.12196V3.48701ZM1.56098 11.1973C1.87263 11.1973 2.12196 10.948 2.12196 10.6363V7.05852C2.12196 6.74687 1.87263 6.49754 1.56098 6.49754C1.24932 6.49754 1 6.74687 1 7.05852V10.6363C1 10.948 1.24932 11.1973 1.56098 11.1973ZM15.4109 29.8781H17.7857C18.0974 29.8781 18.3467 30.1274 18.3467 30.439C18.3467 30.7507 18.0974 31 17.7857 31H1.56098C1.24932 31 1 30.7507 1 30.439V14.2143C1 13.9026 1.24932 13.6533 1.56098 13.6533C1.87263 13.6533 2.12196 13.9026 2.12196 14.2143V16.5891H14.85C15.1616 16.5891 15.4109 16.8384 15.4109 17.1501V29.8781ZM2.12196 29.8781H14.2142H14.289V17.711H2.12196V29.8781ZM30.439 27.952C30.1273 27.952 29.878 28.2013 29.878 28.5129V29.878H28.5129C28.2013 29.878 27.952 30.1273 27.952 30.439C27.952 30.7506 28.2013 30.9999 28.5129 30.9999H30.439C30.7506 30.9999 30.9999 30.7506 30.9999 30.439V28.5129C30.9999 28.2013 30.7506 27.952 30.439 27.952ZM24.9414 29.878H21.3636C21.0519 29.878 20.8026 30.1274 20.8026 30.439C20.8026 30.7507 21.0519 31 21.3636 31H24.9414C25.2531 31 25.5024 30.7507 25.5024 30.439C25.5024 30.1274 25.2468 29.878 24.9414 29.878ZM21.3636 2.12196H24.9414C25.2531 2.12196 25.5024 1.87263 25.5024 1.56098C25.5024 1.24932 25.2531 1 24.9414 1H21.3636C21.0519 1 20.8026 1.24932 20.8026 1.56098C20.8026 1.87263 21.0519 2.12196 21.3636 2.12196ZM17.7921 2.12196H14.2143C13.9026 2.12196 13.6533 1.87263 13.6533 1.56098C13.6533 1.24932 13.9026 1 14.2143 1H17.7921C18.1037 1 18.3531 1.24932 18.3531 1.56098C18.3531 1.87263 18.1037 2.12196 17.7921 2.12196ZM7.05852 2.12196H10.6363C10.948 2.12196 11.1973 1.87263 11.1973 1.56098C11.1973 1.24932 10.948 1 10.6363 1H7.05852C6.74687 1 6.49754 1.24932 6.49754 1.56098C6.49754 1.87263 6.7531 2.12196 7.05852 2.12196ZM28.5129 1H30.439C30.7506 1 30.9999 1.24932 30.9999 1.56098V3.48701C30.9999 3.79866 30.7506 4.04799 30.439 4.04799C30.1273 4.04799 29.878 3.79866 29.878 3.48701V2.12196H28.5129C28.2013 2.12196 27.952 1.87263 27.952 1.56098C27.952 1.24932 28.2013 1 28.5129 1ZM30.439 13.6533C30.1274 13.6533 29.878 13.9026 29.878 14.2143V17.7921C29.878 18.1037 30.1274 18.353 30.439 18.353C30.7507 18.353 31 18.1037 31 17.7921V14.2143C31 13.9026 30.7507 13.6533 30.439 13.6533ZM29.878 7.05852C29.878 6.74687 30.1274 6.49754 30.439 6.49754C30.7507 6.49754 31 6.7531 31 7.05852V10.6363C31 10.948 30.7507 11.1973 30.439 11.1973C30.1274 11.1973 29.878 10.948 29.878 10.6363V7.05852ZM30.439 20.8024C30.1274 20.8024 29.878 21.0518 29.878 21.3634V24.9412C29.878 25.2529 30.1274 25.5022 30.439 25.5022C30.7507 25.5022 31 25.2529 31 24.9412V21.3634C31 21.0518 30.7507 20.8024 30.439 20.8024ZM24.0562 4.86461H26.9359C27.2475 4.86461 27.4969 5.11394 27.4969 5.43183V8.31152C27.4969 8.62318 27.2475 8.8725 26.9359 8.8725C26.6242 8.8725 26.3749 8.62318 26.3749 8.31152V6.78441L18.8827 14.2766H20.4098C20.7215 14.2766 20.9708 14.5259 20.9708 14.8376C20.9708 15.1492 20.7215 15.3986 20.4098 15.3986H17.5301C17.2185 15.3986 16.9691 15.1492 16.9691 14.8376V11.9579C16.9691 11.6462 17.2185 11.3969 17.5301 11.3969C17.8418 11.3969 18.0911 11.6462 18.0911 11.9579V13.4788L25.5833 5.98657H24.0562C23.7445 5.98657 23.4952 5.73725 23.4952 5.42559C23.4952 5.11394 23.7445 4.86461 24.0562 4.86461Z"/>
</mask>
<path fill-rule="evenodd" clip-rule="evenodd" d="M2.12196 3.48701C2.12196 3.79866 1.87263 4.04799 1.56098 4.04799C1.24932 4.04799 1 3.79866 1 3.48701V1.56098C1 1.24932 1.24932 1 1.56098 1H3.48701C3.79866 1 4.04799 1.24932 4.04799 1.56098C4.04799 1.87263 3.79866 2.12196 3.48701 2.12196H2.12196V3.48701ZM1.56098 11.1973C1.87263 11.1973 2.12196 10.948 2.12196 10.6363V7.05852C2.12196 6.74687 1.87263 6.49754 1.56098 6.49754C1.24932 6.49754 1 6.74687 1 7.05852V10.6363C1 10.948 1.24932 11.1973 1.56098 11.1973ZM15.4109 29.8781H17.7857C18.0974 29.8781 18.3467 30.1274 18.3467 30.439C18.3467 30.7507 18.0974 31 17.7857 31H1.56098C1.24932 31 1 30.7507 1 30.439V14.2143C1 13.9026 1.24932 13.6533 1.56098 13.6533C1.87263 13.6533 2.12196 13.9026 2.12196 14.2143V16.5891H14.85C15.1616 16.5891 15.4109 16.8384 15.4109 17.1501V29.8781ZM2.12196 29.8781H14.2142H14.289V17.711H2.12196V29.8781ZM30.439 27.952C30.1273 27.952 29.878 28.2013 29.878 28.5129V29.878H28.5129C28.2013 29.878 27.952 30.1273 27.952 30.439C27.952 30.7506 28.2013 30.9999 28.5129 30.9999H30.439C30.7506 30.9999 30.9999 30.7506 30.9999 30.439V28.5129C30.9999 28.2013 30.7506 27.952 30.439 27.952ZM24.9414 29.878H21.3636C21.0519 29.878 20.8026 30.1274 20.8026 30.439C20.8026 30.7507 21.0519 31 21.3636 31H24.9414C25.2531 31 25.5024 30.7507 25.5024 30.439C25.5024 30.1274 25.2468 29.878 24.9414 29.878ZM21.3636 2.12196H24.9414C25.2531 2.12196 25.5024 1.87263 25.5024 1.56098C25.5024 1.24932 25.2531 1 24.9414 1H21.3636C21.0519 1 20.8026 1.24932 20.8026 1.56098C20.8026 1.87263 21.0519 2.12196 21.3636 2.12196ZM17.7921 2.12196H14.2143C13.9026 2.12196 13.6533 1.87263 13.6533 1.56098C13.6533 1.24932 13.9026 1 14.2143 1H17.7921C18.1037 1 18.3531 1.24932 18.3531 1.56098C18.3531 1.87263 18.1037 2.12196 17.7921 2.12196ZM7.05852 2.12196H10.6363C10.948 2.12196 11.1973 1.87263 11.1973 1.56098C11.1973 1.24932 10.948 1 10.6363 1H7.05852C6.74687 1 6.49754 1.24932 6.49754 1.56098C6.49754 1.87263 6.7531 2.12196 7.05852 2.12196ZM28.5129 1H30.439C30.7506 1 30.9999 1.24932 30.9999 1.56098V3.48701C30.9999 3.79866 30.7506 4.04799 30.439 4.04799C30.1273 4.04799 29.878 3.79866 29.878 3.48701V2.12196H28.5129C28.2013 2.12196 27.952 1.87263 27.952 1.56098C27.952 1.24932 28.2013 1 28.5129 1ZM30.439 13.6533C30.1274 13.6533 29.878 13.9026 29.878 14.2143V17.7921C29.878 18.1037 30.1274 18.353 30.439 18.353C30.7507 18.353 31 18.1037 31 17.7921V14.2143C31 13.9026 30.7507 13.6533 30.439 13.6533ZM29.878 7.05852C29.878 6.74687 30.1274 6.49754 30.439 6.49754C30.7507 6.49754 31 6.7531 31 7.05852V10.6363C31 10.948 30.7507 11.1973 30.439 11.1973C30.1274 11.1973 29.878 10.948 29.878 10.6363V7.05852ZM30.439 20.8024C30.1274 20.8024 29.878 21.0518 29.878 21.3634V24.9412C29.878 25.2529 30.1274 25.5022 30.439 25.5022C30.7507 25.5022 31 25.2529 31 24.9412V21.3634C31 21.0518 30.7507 20.8024 30.439 20.8024ZM24.0562 4.86461H26.9359C27.2475 4.86461 27.4969 5.11394 27.4969 5.43183V8.31152C27.4969 8.62318 27.2475 8.8725 26.9359 8.8725C26.6242 8.8725 26.3749 8.62318 26.3749 8.31152V6.78441L18.8827 14.2766H20.4098C20.7215 14.2766 20.9708 14.5259 20.9708 14.8376C20.9708 15.1492 20.7215 15.3986 20.4098 15.3986H17.5301C17.2185 15.3986 16.9691 15.1492 16.9691 14.8376V11.9579C16.9691 11.6462 17.2185 11.3969 17.5301 11.3969C17.8418 11.3969 18.0911 11.6462 18.0911 11.9579V13.4788L25.5833 5.98657H24.0562C23.7445 5.98657 23.4952 5.73725 23.4952 5.42559C23.4952 5.11394 23.7445 4.86461 24.0562 4.86461Z" fill="#121212"/>
<path d="M2.12196 2.12196V1.92196H1.92196V2.12196H2.12196ZM15.4109 29.8781H15.2109V30.0781H15.4109V29.8781ZM2.12196 16.5891H1.92196V16.7891H2.12196V16.5891ZM2.12196 29.8781H1.92196V30.0781H2.12196V29.8781ZM14.289 29.8781V30.0781H14.489V29.8781H14.289ZM14.289 17.711H14.489V17.511H14.289V17.711ZM2.12196 17.711V17.511H1.92196V17.711H2.12196ZM29.878 29.878V30.078H30.078V29.878H29.878ZM29.878 2.12196H30.078V1.92196H29.878V2.12196ZM26.3749 6.78441H26.5749V6.30157L26.2335 6.64299L26.3749 6.78441ZM18.8827 14.2766L18.7413 14.1352L18.3999 14.4766H18.8827V14.2766ZM18.0911 13.4788H17.8911V13.9616L18.2325 13.6202L18.0911 13.4788ZM25.5833 5.98657L25.7247 6.12799L26.0661 5.78657H25.5833V5.98657ZM1.56098 4.24799C1.98309 4.24799 2.32196 3.90912 2.32196 3.48701H1.92196C1.92196 3.68821 1.76218 3.84799 1.56098 3.84799V4.24799ZM0.8 3.48701C0.8 3.90912 1.13887 4.24799 1.56098 4.24799V3.84799C1.35978 3.84799 1.2 3.68821 1.2 3.48701H0.8ZM0.8 1.56098V3.48701H1.2V1.56098H0.8ZM1.56098 0.8C1.13887 0.8 0.8 1.13887 0.8 1.56098H1.2C1.2 1.35978 1.35978 1.2 1.56098 1.2V0.8ZM3.48701 0.8H1.56098V1.2H3.48701V0.8ZM4.24799 1.56098C4.24799 1.13887 3.90912 0.8 3.48701 0.8V1.2C3.68821 1.2 3.84799 1.35978 3.84799 1.56098H4.24799ZM3.48701 2.32196C3.90912 2.32196 4.24799 1.98309 4.24799 1.56098H3.84799C3.84799 1.76218 3.68821 1.92196 3.48701 1.92196V2.32196ZM2.12196 2.32196H3.48701V1.92196H2.12196V2.32196ZM2.32196 3.48701V2.12196H1.92196V3.48701H2.32196ZM1.92196 10.6363C1.92196 10.8375 1.76218 10.9973 1.56098 10.9973V11.3973C1.98309 11.3973 2.32196 11.0584 2.32196 10.6363H1.92196ZM1.92196 7.05852V10.6363H2.32196V7.05852H1.92196ZM1.56098 6.69754C1.76218 6.69754 1.92196 6.85733 1.92196 7.05852H2.32196C2.32196 6.63641 1.98309 6.29754 1.56098 6.29754V6.69754ZM1.2 7.05852C1.2 6.85733 1.35978 6.69754 1.56098 6.69754V6.29754C1.13887 6.29754 0.8 6.63641 0.8 7.05852H1.2ZM1.2 10.6363V7.05852H0.8V10.6363H1.2ZM1.56098 10.9973C1.35978 10.9973 1.2 10.8375 1.2 10.6363H0.8C0.8 11.0584 1.13887 11.3973 1.56098 11.3973V10.9973ZM17.7857 29.6781H15.4109V30.0781H17.7857V29.6781ZM18.5467 30.439C18.5467 30.0169 18.2079 29.6781 17.7857 29.6781V30.0781C17.9869 30.0781 18.1467 30.2378 18.1467 30.439H18.5467ZM17.7857 31.2C18.2079 31.2 18.5467 30.8611 18.5467 30.439H18.1467C18.1467 30.6402 17.9869 30.8 17.7857 30.8V31.2ZM1.56098 31.2H17.7857V30.8H1.56098V31.2ZM0.8 30.439C0.8 30.8611 1.13887 31.2 1.56098 31.2V30.8C1.35978 30.8 1.2 30.6402 1.2 30.439H0.8ZM0.8 14.2143V30.439H1.2V14.2143H0.8ZM1.56098 13.4533C1.13887 13.4533 0.8 13.7922 0.8 14.2143H1.2C1.2 14.0131 1.35978 13.8533 1.56098 13.8533V13.4533ZM2.32196 14.2143C2.32196 13.7922 1.98309 13.4533 1.56098 13.4533V13.8533C1.76218 13.8533 1.92196 14.0131 1.92196 14.2143H2.32196ZM2.32196 16.5891V14.2143H1.92196V16.5891H2.32196ZM14.85 16.3891H2.12196V16.7891H14.85V16.3891ZM15.6109 17.1501C15.6109 16.7279 15.2721 16.3891 14.85 16.3891V16.7891C15.0512 16.7891 15.2109 16.9489 15.2109 17.1501H15.6109ZM15.6109 29.8781V17.1501H15.2109V29.8781H15.6109ZM14.2142 29.6781H2.12196V30.0781H14.2142V29.6781ZM14.289 29.6781H14.2142V30.0781H14.289V29.6781ZM14.089 17.711V29.8781H14.489V17.711H14.089ZM2.12196 17.911H14.289V17.511H2.12196V17.911ZM2.32196 29.8781V17.711H1.92196V29.8781H2.32196ZM30.078 28.5129C30.078 28.3117 30.2378 28.152 30.439 28.152V27.752C30.0169 27.752 29.678 28.0908 29.678 28.5129H30.078ZM30.078 29.878V28.5129H29.678V29.878H30.078ZM28.5129 30.078H29.878V29.678H28.5129V30.078ZM28.152 30.439C28.152 30.2378 28.3117 30.078 28.5129 30.078V29.678C28.0908 29.678 27.752 30.0169 27.752 30.439H28.152ZM28.5129 30.7999C28.3117 30.7999 28.152 30.6402 28.152 30.439H27.752C27.752 30.8611 28.0908 31.1999 28.5129 31.1999V30.7999ZM30.439 30.7999H28.5129V31.1999H30.439V30.7999ZM30.7999 30.439C30.7999 30.6402 30.6402 30.7999 30.439 30.7999V31.1999C30.8611 31.1999 31.1999 30.8611 31.1999 30.439H30.7999ZM30.7999 28.5129V30.439H31.1999V28.5129H30.7999ZM30.439 28.152C30.6402 28.152 30.7999 28.3117 30.7999 28.5129H31.1999C31.1999 28.0908 30.8611 27.752 30.439 27.752V28.152ZM21.3636 30.078H24.9414V29.678H21.3636V30.078ZM21.0026 30.439C21.0026 30.2378 21.1624 30.078 21.3636 30.078V29.678C20.9415 29.678 20.6026 30.0169 20.6026 30.439H21.0026ZM21.3636 30.8C21.1624 30.8 21.0026 30.6402 21.0026 30.439H20.6026C20.6026 30.8611 20.9415 31.2 21.3636 31.2V30.8ZM24.9414 30.8H21.3636V31.2H24.9414V30.8ZM25.3024 30.439C25.3024 30.6402 25.1426 30.8 24.9414 30.8V31.2C25.3635 31.2 25.7024 30.8611 25.7024 30.439H25.3024ZM24.9414 30.078C25.1378 30.078 25.3024 30.2393 25.3024 30.439H25.7024C25.7024 30.0155 25.3558 29.678 24.9414 29.678V30.078ZM24.9414 1.92196H21.3636V2.32196H24.9414V1.92196ZM25.3024 1.56098C25.3024 1.76218 25.1426 1.92196 24.9414 1.92196V2.32196C25.3635 2.32196 25.7024 1.98309 25.7024 1.56098H25.3024ZM24.9414 1.2C25.1426 1.2 25.3024 1.35978 25.3024 1.56098H25.7024C25.7024 1.13887 25.3635 0.8 24.9414 0.8V1.2ZM21.3636 1.2H24.9414V0.8H21.3636V1.2ZM21.0026 1.56098C21.0026 1.35978 21.1624 1.2 21.3636 1.2V0.8C20.9415 0.8 20.6026 1.13887 20.6026 1.56098H21.0026ZM21.3636 1.92196C21.1624 1.92196 21.0026 1.76218 21.0026 1.56098H20.6026C20.6026 1.98309 20.9415 2.32196 21.3636 2.32196V1.92196ZM14.2143 2.32196H17.7921V1.92196H14.2143V2.32196ZM13.4533 1.56098C13.4533 1.98309 13.7922 2.32196 14.2143 2.32196V1.92196C14.0131 1.92196 13.8533 1.76218 13.8533 1.56098H13.4533ZM14.2143 0.8C13.7922 0.8 13.4533 1.13887 13.4533 1.56098H13.8533C13.8533 1.35978 14.0131 1.2 14.2143 1.2V0.8ZM17.7921 0.8H14.2143V1.2H17.7921V0.8ZM18.5531 1.56098C18.5531 1.13887 18.2142 0.8 17.7921 0.8V1.2C17.9933 1.2 18.1531 1.35978 18.1531 1.56098H18.5531ZM17.7921 2.32196C18.2142 2.32196 18.5531 1.98309 18.5531 1.56098H18.1531C18.1531 1.76218 17.9933 1.92196 17.7921 1.92196V2.32196ZM10.6363 1.92196H7.05852V2.32196H10.6363V1.92196ZM10.9973 1.56098C10.9973 1.76218 10.8375 1.92196 10.6363 1.92196V2.32196C11.0584 2.32196 11.3973 1.98309 11.3973 1.56098H10.9973ZM10.6363 1.2C10.8375 1.2 10.9973 1.35978 10.9973 1.56098H11.3973C11.3973 1.13887 11.0584 0.8 10.6363 0.8V1.2ZM7.05852 1.2H10.6363V0.8H7.05852V1.2ZM6.69754 1.56098C6.69754 1.35978 6.85733 1.2 7.05852 1.2V0.8C6.63641 0.8 6.29754 1.13887 6.29754 1.56098H6.69754ZM7.05852 1.92196C6.86211 1.92196 6.69754 1.76074 6.69754 1.56098H6.29754C6.29754 1.98453 6.64409 2.32196 7.05852 2.32196V1.92196ZM30.439 0.8H28.5129V1.2H30.439V0.8ZM31.1999 1.56098C31.1999 1.13887 30.8611 0.8 30.439 0.8V1.2C30.6402 1.2 30.7999 1.35978 30.7999 1.56098H31.1999ZM31.1999 3.48701V1.56098H30.7999V3.48701H31.1999ZM30.439 4.24799C30.8611 4.24799 31.1999 3.90912 31.1999 3.48701H30.7999C30.7999 3.68821 30.6402 3.84799 30.439 3.84799V4.24799ZM29.678 3.48701C29.678 3.90912 30.0169 4.24799 30.439 4.24799V3.84799C30.2378 3.84799 30.078 3.68821 30.078 3.48701H29.678ZM29.678 2.12196V3.48701H30.078V2.12196H29.678ZM28.5129 2.32196H29.878V1.92196H28.5129V2.32196ZM27.752 1.56098C27.752 1.98309 28.0908 2.32196 28.5129 2.32196V1.92196C28.3117 1.92196 28.152 1.76218 28.152 1.56098H27.752ZM28.5129 0.8C28.0908 0.8 27.752 1.13887 27.752 1.56098H28.152C28.152 1.35978 28.3117 1.2 28.5129 1.2V0.8ZM30.078 14.2143C30.078 14.0131 30.2378 13.8533 30.439 13.8533V13.4533C30.0169 13.4533 29.678 13.7922 29.678 14.2143H30.078ZM30.078 17.7921V14.2143H29.678V17.7921H30.078ZM30.439 18.153C30.2378 18.153 30.078 17.9933 30.078 17.7921H29.678C29.678 18.2142 30.0169 18.553 30.439 18.553V18.153ZM30.8 17.7921C30.8 17.9933 30.6402 18.153 30.439 18.153V18.553C30.8611 18.553 31.2 18.2142 31.2 17.7921H30.8ZM30.8 14.2143V17.7921H31.2V14.2143H30.8ZM30.439 13.8533C30.6402 13.8533 30.8 14.0131 30.8 14.2143H31.2C31.2 13.7922 30.8611 13.4533 30.439 13.4533V13.8533ZM30.439 6.29754C30.0169 6.29754 29.678 6.63641 29.678 7.05852H30.078C30.078 6.85733 30.2378 6.69754 30.439 6.69754V6.29754ZM31.2 7.05852C31.2 6.64409 30.8626 6.29754 30.439 6.29754V6.69754C30.6388 6.69754 30.8 6.86211 30.8 7.05852H31.2ZM31.2 10.6363V7.05852H30.8V10.6363H31.2ZM30.439 11.3973C30.8611 11.3973 31.2 11.0584 31.2 10.6363H30.8C30.8 10.8375 30.6402 10.9973 30.439 10.9973V11.3973ZM29.678 10.6363C29.678 11.0584 30.0169 11.3973 30.439 11.3973V10.9973C30.2378 10.9973 30.078 10.8375 30.078 10.6363H29.678ZM29.678 7.05852V10.6363H30.078V7.05852H29.678ZM30.078 21.3634C30.078 21.1622 30.2378 21.0024 30.439 21.0024V20.6024C30.0169 20.6024 29.678 20.9413 29.678 21.3634H30.078ZM30.078 24.9412V21.3634H29.678V24.9412H30.078ZM30.439 25.3022C30.2378 25.3022 30.078 25.1424 30.078 24.9412H29.678C29.678 25.3633 30.0169 25.7022 30.439 25.7022V25.3022ZM30.8 24.9412C30.8 25.1424 30.6402 25.3022 30.439 25.3022V25.7022C30.8611 25.7022 31.2 25.3633 31.2 24.9412H30.8ZM30.8 21.3634V24.9412H31.2V21.3634H30.8ZM30.439 21.0024C30.6402 21.0024 30.8 21.1622 30.8 21.3634H31.2C31.2 20.9413 30.8611 20.6024 30.439 20.6024V21.0024ZM26.9359 4.66461H24.0562V5.06461H26.9359V4.66461ZM27.6969 5.43183C27.6969 5.00493 27.3594 4.66461 26.9359 4.66461V5.06461C27.1356 5.06461 27.2969 5.22295 27.2969 5.43183H27.6969ZM27.6969 8.31152V5.43183H27.2969V8.31152H27.6969ZM26.9359 9.0725C27.358 9.0725 27.6969 8.73363 27.6969 8.31152H27.2969C27.2969 8.51272 27.1371 8.6725 26.9359 8.6725V9.0725ZM26.1749 8.31152C26.1749 8.73363 26.5138 9.0725 26.9359 9.0725V8.6725C26.7347 8.6725 26.5749 8.51272 26.5749 8.31152H26.1749ZM26.1749 6.78441V8.31152H26.5749V6.78441H26.1749ZM19.0241 14.418L26.5163 6.92583L26.2335 6.64299L18.7413 14.1352L19.0241 14.418ZM20.4098 14.0766H18.8827V14.4766H20.4098V14.0766ZM21.1708 14.8376C21.1708 14.4155 20.8319 14.0766 20.4098 14.0766V14.4766C20.611 14.4766 20.7708 14.6364 20.7708 14.8376H21.1708ZM20.4098 15.5986C20.8319 15.5986 21.1708 15.2597 21.1708 14.8376H20.7708C20.7708 15.0388 20.611 15.1986 20.4098 15.1986V15.5986ZM17.5301 15.5986H20.4098V15.1986H17.5301V15.5986ZM16.7691 14.8376C16.7691 15.2597 17.108 15.5986 17.5301 15.5986V15.1986C17.3289 15.1986 17.1691 15.0388 17.1691 14.8376H16.7691ZM16.7691 11.9579V14.8376H17.1691V11.9579H16.7691ZM17.5301 11.1969C17.108 11.1969 16.7691 11.5358 16.7691 11.9579H17.1691C17.1691 11.7567 17.3289 11.5969 17.5301 11.5969V11.1969ZM18.2911 11.9579C18.2911 11.5358 17.9522 11.1969 17.5301 11.1969V11.5969C17.7313 11.5969 17.8911 11.7567 17.8911 11.9579H18.2911ZM18.2911 13.4788V11.9579H17.8911V13.4788H18.2911ZM25.4419 5.84515L17.9497 13.3373L18.2325 13.6202L25.7247 6.12799L25.4419 5.84515ZM24.0562 6.18657H25.5833V5.78657H24.0562V6.18657ZM23.2952 5.42559C23.2952 5.84771 23.6341 6.18657 24.0562 6.18657V5.78657C23.855 5.78657 23.6952 5.62679 23.6952 5.42559H23.2952ZM24.0562 4.66461C23.6341 4.66461 23.2952 5.00348 23.2952 5.42559H23.6952C23.6952 5.2244 23.855 5.06461 24.0562 5.06461V4.66461Z" fill="#121212" mask="url(#path-1-outside-1_54_2344)"/>
</svg>
