<svg width="48" height="48" viewBox="0 0 48 48" fill="none" xmlns="http://www.w3.org/2000/svg">
<path fill-rule="evenodd" clip-rule="evenodd" d="M48 37.9061C48 36.618 47.3092 35.5397 46.3531 34.8588L25.1942 20.9023V18.0542C27.8918 17.4746 29.934 15.0538 29.934 12.1028C29.934 8.76756 27.2989 6.09961 24.0049 6.09961C20.7109 6.09961 18.0759 8.76756 18.0759 12.1028C18.0759 12.4428 18.1871 12.7495 18.4067 12.9719C18.6264 13.1943 18.9293 13.3069 19.2651 13.3069C19.601 13.3069 19.9039 13.1943 20.1236 12.9719C20.3432 12.7495 20.4544 12.4428 20.4544 12.1028C20.4544 10.0925 22.0195 8.50793 24.0049 8.50793C25.9904 8.50793 27.5554 10.0925 27.5554 12.1028C27.5554 14.113 25.9904 15.6976 24.0049 15.6976C23.6691 15.6976 23.3662 15.8102 23.1465 16.0326C22.9268 16.2551 22.8156 16.5618 22.8156 16.9018V20.9024L1.56699 34.9423L1.55857 34.9483C0.592338 35.6363 0 36.7187 0 37.9061C0 39.7767 1.37166 41.2771 3.14548 41.3757L44.7499 41.3761L44.7662 41.3752C46.5287 41.2773 48 39.7883 48 37.9061ZM45.0514 36.8136C45.4393 37.0441 45.7035 37.4105 45.7096 37.8123C45.6286 38.5787 45.11 39.0568 44.485 39.0568H3.52483C2.88379 39.0568 2.3884 38.5552 2.3884 37.9061C2.3884 37.5639 2.59109 37.2031 2.88912 36.9803L24.0056 22.9632L45.0397 36.8067L45.0514 36.8136Z" fill="#121212"/>
</svg>
