<svg width="30" height="28" viewBox="0 0 30 28" fill="none" xmlns="http://www.w3.org/2000/svg">
<path fill-rule="evenodd" clip-rule="evenodd" d="M8 0.249878C8.41421 0.249878 8.75 0.585664 8.75 0.999878V2.11654H21.25V0.999878C21.25 0.585664 21.5858 0.249878 22 0.249878C22.4142 0.249878 22.75 0.585664 22.75 0.999878V2.11654H26.9467C28.4949 2.11654 29.75 3.37164 29.75 4.91988V25.0799C29.75 26.6281 28.4949 27.8832 26.9467 27.8832H3.05333C1.5051 27.8832 0.25 26.6281 0.25 25.0799V4.91988C0.25 3.37164 1.50509 2.11654 3.05333 2.11654H7.25V0.999878C7.25 0.585664 7.58579 0.249878 8 0.249878ZM7.25 3.61654H3.05333C2.33352 3.61654 1.75 4.20007 1.75 4.91988V7.71655H28.25V4.91988C28.25 4.20007 27.6665 3.61654 26.9467 3.61654H22.75V5.66655C22.75 6.08076 22.4142 6.41655 22 6.41655C21.5858 6.41655 21.25 6.08076 21.25 5.66655V3.61654H8.75V5.66655C8.75 6.08076 8.41421 6.41655 8 6.41655C7.58579 6.41655 7.25 6.08076 7.25 5.66655V3.61654ZM28.25 9.21655H1.75V25.0799C1.75 25.7997 2.33352 26.3832 3.05333 26.3832H26.9467C27.6665 26.3832 28.25 25.7997 28.25 25.0799V9.21655ZM20.5833 11.5999C20.9147 11.8484 20.9819 12.3185 20.7333 12.6499L13.7333 21.9832C13.6029 22.1571 13.4034 22.2659 13.1865 22.2813C12.9696 22.2967 12.7567 22.2173 12.603 22.0635L8.86967 18.3302C8.57678 18.0373 8.57678 17.5624 8.86967 17.2695C9.16256 16.9767 9.63744 16.9767 9.93033 17.2695L13.0522 20.3914L19.5333 11.7499C19.7819 11.4185 20.252 11.3514 20.5833 11.5999Z" fill="#121212"/>
</svg>
