<svg width="32" height="29" viewBox="0 0 32 29" fill="none" xmlns="http://www.w3.org/2000/svg">
<mask id="path-1-outside-1_54_2373" maskUnits="userSpaceOnUse" x="0.0654297" y="-0.619019" width="32" height="30" fill="black">
<rect fill="white" x="0.0654297" y="-0.619019" width="32" height="30"/>
<path fill-rule="evenodd" clip-rule="evenodd" d="M10.4268 13.297C10.1496 13.6309 9.99841 14.0467 9.99841 14.4814V15.8484C9.99841 16.0059 10.0803 16.1508 10.2189 16.2264C10.2882 16.2642 10.3638 16.2894 10.4394 16.2894C10.515 16.2894 10.5906 16.2705 10.6536 16.2327L13.7846 14.4688C13.9043 14.6893 14.0302 14.9035 14.1625 15.1114L13.772 16.6863C13.7405 16.8186 13.7657 16.9572 13.8539 17.0643C13.9421 17.1714 14.068 17.2344 14.2003 17.2344H17.955C18.0873 17.2344 18.2196 17.1714 18.3015 17.0643C18.3834 16.9572 18.4149 16.8186 18.3834 16.6863L17.9928 15.1114C18.1251 14.9035 18.2511 14.6893 18.3708 14.4688L21.5017 16.2327C21.571 16.2705 21.6403 16.2894 21.7159 16.2894C21.7915 16.2894 21.8671 16.2705 21.9364 16.2264C22.0687 16.1445 22.1569 16.0059 22.1569 15.8484V14.4814C22.1569 14.0467 22.0057 13.6309 21.7285 13.297L19.6433 10.796C19.7504 10.1409 19.8071 9.47939 19.8071 8.80531C19.8071 7.20518 19.4984 5.65544 18.8874 4.2002C18.2952 2.80166 17.4573 1.55431 16.3927 0.508551C16.2226 0.338458 15.9454 0.338458 15.7753 0.508551C14.7106 1.56061 13.8665 2.80166 13.2806 4.2002C12.6695 5.65544 12.3608 7.19888 12.3608 8.80531C12.3608 9.47939 12.4175 10.1409 12.5246 10.796L10.4268 13.297ZM10.8804 15.0988V14.4814C10.8804 14.2546 10.9623 14.0341 11.1072 13.8577L12.7514 11.8796C12.9152 12.497 13.1294 13.0954 13.394 13.675L10.8804 15.0988ZM14.761 16.3524L15.013 15.3507H17.1423L17.3943 16.3524H14.761ZM21.0482 13.8577C21.1931 14.0341 21.275 14.2546 21.275 14.4814V15.0988L18.7614 13.6813C19.0259 13.1017 19.2401 12.5033 19.4039 11.8859L21.0482 13.8577ZM16.0777 1.44721C16.8147 2.24098 17.4258 3.14814 17.8857 4.1372H14.2696C14.7295 3.15444 15.3406 2.24098 16.0777 1.44721ZM13.898 5.01917H18.2511C18.6921 6.21612 18.9252 7.50127 18.9252 8.80531C18.9252 10.8275 18.3834 12.7805 17.3502 14.4751H14.8051C13.772 12.7805 13.2302 10.8275 13.2302 8.80531C13.2302 7.50127 13.4633 6.21612 13.898 5.01917ZM30.6365 25.7454H28.7276V9.74402C28.7276 8.72346 27.8961 7.89819 26.8818 7.89819H21.2435C20.9978 7.89819 20.8026 8.09348 20.8026 8.33917C20.8026 8.58487 20.9978 8.78016 21.2435 8.78016H26.8818C27.4173 8.78016 27.852 9.21484 27.852 9.75032V25.7517H26.3463C26.3715 25.5879 26.3778 25.4178 26.3778 25.254C26.3778 23.2003 24.7084 21.5246 22.6484 21.5246C22.3712 21.5246 22.094 21.5561 21.8231 21.619C21.3506 20.7056 20.4057 20.1134 19.3599 20.1134C19.0197 20.1134 18.6858 20.1764 18.3771 20.2961C18.2512 19.1369 17.2621 18.2361 16.0714 18.2361C14.8808 18.2361 13.898 19.1369 13.7657 20.2961C13.457 20.1764 13.1232 20.1134 12.783 20.1134C11.7372 20.1134 10.7922 20.7056 10.3198 21.619C10.0489 21.5561 9.77169 21.5246 9.4945 21.5246C7.44078 21.5246 5.76504 23.194 5.76504 25.254C5.76504 25.4241 5.77764 25.5879 5.79654 25.7517H4.2909V9.75032C4.2909 9.21484 4.72559 8.78016 5.26106 8.78016H10.8993C11.145 8.78016 11.3403 8.58487 11.3403 8.33917C11.3403 8.09348 11.145 7.89819 10.8993 7.89819H5.26106C4.2405 7.89819 3.41524 8.72976 3.41524 9.74402V25.7454H1.50641C1.26072 25.7454 1.06543 25.9407 1.06543 26.1864V27.125C1.06543 27.8873 1.68281 28.5047 2.44508 28.5047H29.6852C30.4475 28.5047 31.0648 27.8873 31.0648 27.125V26.1864C31.0774 25.9407 30.8822 25.7454 30.6365 25.7454ZM30.1955 27.125C30.1955 27.4022 29.9687 27.6227 29.6978 27.6227H2.45767C2.18049 27.6227 1.95999 27.3959 1.95999 27.125V26.6273H7.62347C7.86916 26.6273 8.06445 26.4321 8.06445 26.1864C8.06445 25.9407 7.86916 25.7454 7.62347 25.7454H6.69741C6.66591 25.5816 6.65331 25.4115 6.65331 25.2477C6.65331 23.6791 7.93216 22.4002 9.5008 22.4002C9.81578 22.4002 10.1245 22.4569 10.4332 22.5577C10.5466 22.5955 10.6663 22.5892 10.767 22.5388C10.8741 22.4884 10.9497 22.3939 10.9875 22.2868C11.2521 21.512 11.9766 20.9891 12.783 20.9891C13.2303 20.9891 13.646 21.1466 14.0051 21.4427C14.1563 21.5686 14.3705 21.5812 14.5343 21.4742C14.6981 21.3671 14.7674 21.1655 14.7107 20.9765C14.6603 20.8127 14.6351 20.6804 14.6351 20.5481C14.6351 19.7543 15.284 19.1117 16.0714 19.1117C16.8652 19.1117 17.5078 19.7543 17.5078 20.5481C17.5078 20.6804 17.4826 20.8127 17.4322 20.9765C17.3755 21.1655 17.4448 21.3671 17.6086 21.4742C17.7724 21.5812 17.9866 21.5686 18.1378 21.4427C18.4905 21.1466 18.9126 20.9891 19.3599 20.9891C20.1726 20.9891 20.8907 21.512 21.1553 22.2868C21.1931 22.4002 21.275 22.4884 21.3758 22.5388C21.4829 22.5892 21.6026 22.5955 21.7097 22.5577C22.0121 22.4506 22.3271 22.4002 22.6421 22.4002C24.2107 22.4002 25.4896 23.6791 25.4896 25.2477C25.4896 25.4178 25.477 25.5816 25.4455 25.7454H9.4882C9.24251 25.7454 9.04722 25.9407 9.04722 26.1864C9.04722 26.4321 9.24251 26.6273 9.4882 26.6273H30.1829V27.125H30.1955ZM16.0776 6.487C17.0919 6.487 17.9235 7.31226 17.9235 8.33282C17.9235 9.35338 17.0982 10.1849 16.0776 10.1786C15.0634 10.1786 14.2318 9.34708 14.2318 8.33282C14.2318 7.31856 15.0571 6.487 16.0776 6.487ZM16.0776 7.36266C15.5422 7.36266 15.1075 7.79734 15.1075 8.33282C15.1075 8.8683 15.5422 9.30298 16.0776 9.30298C16.6131 9.30298 17.0478 8.8683 17.0478 8.33282C17.0478 7.79734 16.6131 7.36266 16.0776 7.36266Z"/>
</mask>
<path fill-rule="evenodd" clip-rule="evenodd" d="M10.4268 13.297C10.1496 13.6309 9.99841 14.0467 9.99841 14.4814V15.8484C9.99841 16.0059 10.0803 16.1508 10.2189 16.2264C10.2882 16.2642 10.3638 16.2894 10.4394 16.2894C10.515 16.2894 10.5906 16.2705 10.6536 16.2327L13.7846 14.4688C13.9043 14.6893 14.0302 14.9035 14.1625 15.1114L13.772 16.6863C13.7405 16.8186 13.7657 16.9572 13.8539 17.0643C13.9421 17.1714 14.068 17.2344 14.2003 17.2344H17.955C18.0873 17.2344 18.2196 17.1714 18.3015 17.0643C18.3834 16.9572 18.4149 16.8186 18.3834 16.6863L17.9928 15.1114C18.1251 14.9035 18.2511 14.6893 18.3708 14.4688L21.5017 16.2327C21.571 16.2705 21.6403 16.2894 21.7159 16.2894C21.7915 16.2894 21.8671 16.2705 21.9364 16.2264C22.0687 16.1445 22.1569 16.0059 22.1569 15.8484V14.4814C22.1569 14.0467 22.0057 13.6309 21.7285 13.297L19.6433 10.796C19.7504 10.1409 19.8071 9.47939 19.8071 8.80531C19.8071 7.20518 19.4984 5.65544 18.8874 4.2002C18.2952 2.80166 17.4573 1.55431 16.3927 0.508551C16.2226 0.338458 15.9454 0.338458 15.7753 0.508551C14.7106 1.56061 13.8665 2.80166 13.2806 4.2002C12.6695 5.65544 12.3608 7.19888 12.3608 8.80531C12.3608 9.47939 12.4175 10.1409 12.5246 10.796L10.4268 13.297ZM10.8804 15.0988V14.4814C10.8804 14.2546 10.9623 14.0341 11.1072 13.8577L12.7514 11.8796C12.9152 12.497 13.1294 13.0954 13.394 13.675L10.8804 15.0988ZM14.761 16.3524L15.013 15.3507H17.1423L17.3943 16.3524H14.761ZM21.0482 13.8577C21.1931 14.0341 21.275 14.2546 21.275 14.4814V15.0988L18.7614 13.6813C19.0259 13.1017 19.2401 12.5033 19.4039 11.8859L21.0482 13.8577ZM16.0777 1.44721C16.8147 2.24098 17.4258 3.14814 17.8857 4.1372H14.2696C14.7295 3.15444 15.3406 2.24098 16.0777 1.44721ZM13.898 5.01917H18.2511C18.6921 6.21612 18.9252 7.50127 18.9252 8.80531C18.9252 10.8275 18.3834 12.7805 17.3502 14.4751H14.8051C13.772 12.7805 13.2302 10.8275 13.2302 8.80531C13.2302 7.50127 13.4633 6.21612 13.898 5.01917ZM30.6365 25.7454H28.7276V9.74402C28.7276 8.72346 27.8961 7.89819 26.8818 7.89819H21.2435C20.9978 7.89819 20.8026 8.09348 20.8026 8.33917C20.8026 8.58487 20.9978 8.78016 21.2435 8.78016H26.8818C27.4173 8.78016 27.852 9.21484 27.852 9.75032V25.7517H26.3463C26.3715 25.5879 26.3778 25.4178 26.3778 25.254C26.3778 23.2003 24.7084 21.5246 22.6484 21.5246C22.3712 21.5246 22.094 21.5561 21.8231 21.619C21.3506 20.7056 20.4057 20.1134 19.3599 20.1134C19.0197 20.1134 18.6858 20.1764 18.3771 20.2961C18.2512 19.1369 17.2621 18.2361 16.0714 18.2361C14.8808 18.2361 13.898 19.1369 13.7657 20.2961C13.457 20.1764 13.1232 20.1134 12.783 20.1134C11.7372 20.1134 10.7922 20.7056 10.3198 21.619C10.0489 21.5561 9.77169 21.5246 9.4945 21.5246C7.44078 21.5246 5.76504 23.194 5.76504 25.254C5.76504 25.4241 5.77764 25.5879 5.79654 25.7517H4.2909V9.75032C4.2909 9.21484 4.72559 8.78016 5.26106 8.78016H10.8993C11.145 8.78016 11.3403 8.58487 11.3403 8.33917C11.3403 8.09348 11.145 7.89819 10.8993 7.89819H5.26106C4.2405 7.89819 3.41524 8.72976 3.41524 9.74402V25.7454H1.50641C1.26072 25.7454 1.06543 25.9407 1.06543 26.1864V27.125C1.06543 27.8873 1.68281 28.5047 2.44508 28.5047H29.6852C30.4475 28.5047 31.0648 27.8873 31.0648 27.125V26.1864C31.0774 25.9407 30.8822 25.7454 30.6365 25.7454ZM30.1955 27.125C30.1955 27.4022 29.9687 27.6227 29.6978 27.6227H2.45767C2.18049 27.6227 1.95999 27.3959 1.95999 27.125V26.6273H7.62347C7.86916 26.6273 8.06445 26.4321 8.06445 26.1864C8.06445 25.9407 7.86916 25.7454 7.62347 25.7454H6.69741C6.66591 25.5816 6.65331 25.4115 6.65331 25.2477C6.65331 23.6791 7.93216 22.4002 9.5008 22.4002C9.81578 22.4002 10.1245 22.4569 10.4332 22.5577C10.5466 22.5955 10.6663 22.5892 10.767 22.5388C10.8741 22.4884 10.9497 22.3939 10.9875 22.2868C11.2521 21.512 11.9766 20.9891 12.783 20.9891C13.2303 20.9891 13.646 21.1466 14.0051 21.4427C14.1563 21.5686 14.3705 21.5812 14.5343 21.4742C14.6981 21.3671 14.7674 21.1655 14.7107 20.9765C14.6603 20.8127 14.6351 20.6804 14.6351 20.5481C14.6351 19.7543 15.284 19.1117 16.0714 19.1117C16.8652 19.1117 17.5078 19.7543 17.5078 20.5481C17.5078 20.6804 17.4826 20.8127 17.4322 20.9765C17.3755 21.1655 17.4448 21.3671 17.6086 21.4742C17.7724 21.5812 17.9866 21.5686 18.1378 21.4427C18.4905 21.1466 18.9126 20.9891 19.3599 20.9891C20.1726 20.9891 20.8907 21.512 21.1553 22.2868C21.1931 22.4002 21.275 22.4884 21.3758 22.5388C21.4829 22.5892 21.6026 22.5955 21.7097 22.5577C22.0121 22.4506 22.3271 22.4002 22.6421 22.4002C24.2107 22.4002 25.4896 23.6791 25.4896 25.2477C25.4896 25.4178 25.477 25.5816 25.4455 25.7454H9.4882C9.24251 25.7454 9.04722 25.9407 9.04722 26.1864C9.04722 26.4321 9.24251 26.6273 9.4882 26.6273H30.1829V27.125H30.1955ZM16.0776 6.487C17.0919 6.487 17.9235 7.31226 17.9235 8.33282C17.9235 9.35338 17.0982 10.1849 16.0776 10.1786C15.0634 10.1786 14.2318 9.34708 14.2318 8.33282C14.2318 7.31856 15.0571 6.487 16.0776 6.487ZM16.0776 7.36266C15.5422 7.36266 15.1075 7.79734 15.1075 8.33282C15.1075 8.8683 15.5422 9.30298 16.0776 9.30298C16.6131 9.30298 17.0478 8.8683 17.0478 8.33282C17.0478 7.79734 16.6131 7.36266 16.0776 7.36266Z" fill="#121212"/>
<path d="M10.4268 13.297L10.2353 13.1364L10.2344 13.1373L10.4268 13.297ZM10.2189 16.2264L10.0992 16.4459L10.0992 16.4459L10.2189 16.2264ZM10.6536 16.2327L10.5308 16.0148L10.525 16.0183L10.6536 16.2327ZM13.7846 14.4688L14.0043 14.3495L13.8831 14.1263L13.6618 14.251L13.7846 14.4688ZM14.1625 15.1114L14.4052 15.1715L14.431 15.0675L14.3735 14.9771L14.1625 15.1114ZM13.772 16.6863L13.5293 16.6261L13.5288 16.6284L13.772 16.6863ZM18.3015 17.0643L18.5001 17.2161L18.5001 17.2161L18.3015 17.0643ZM18.3834 16.6863L18.6266 16.6284L18.626 16.6261L18.3834 16.6863ZM17.9928 15.1114L17.7819 14.9771L17.7243 15.0675L17.7501 15.1715L17.9928 15.1114ZM18.3708 14.4688L18.4935 14.251L18.2722 14.1263L18.1511 14.3495L18.3708 14.4688ZM21.5017 16.2327L21.379 16.4505L21.382 16.4522L21.5017 16.2327ZM21.9364 16.2264L21.8048 16.0138L21.8022 16.0155L21.9364 16.2264ZM21.7285 13.297L21.9209 13.1373L21.9206 13.1369L21.7285 13.297ZM19.6433 10.796L19.3966 10.7557L19.3782 10.8684L19.4513 10.9561L19.6433 10.796ZM18.8874 4.2002L19.1179 4.10341L19.1176 4.10272L18.8874 4.2002ZM16.3927 0.508551L16.2159 0.685335L16.2175 0.686904L16.3927 0.508551ZM15.7753 0.508551L15.951 0.68638L15.9521 0.685328L15.7753 0.508551ZM13.2806 4.2002L13.5111 4.29699L13.5112 4.2968L13.2806 4.2002ZM12.5246 10.796L12.7161 10.9567L12.7898 10.8689L12.7713 10.7557L12.5246 10.796ZM10.8804 15.0988H10.6304V15.5277L11.0036 15.3163L10.8804 15.0988ZM11.1072 13.8577L10.9149 13.6979L10.914 13.699L11.1072 13.8577ZM12.7514 11.8796L12.993 11.8155L12.8688 11.3472L12.5591 11.7198L12.7514 11.8796ZM13.394 13.675L13.5172 13.8925L13.7165 13.7796L13.6214 13.5712L13.394 13.675ZM15.013 15.3507V15.1007H14.8181L14.7706 15.2898L15.013 15.3507ZM14.761 16.3524L14.5186 16.2914L14.4403 16.6024H14.761V16.3524ZM17.1423 15.3507L17.3848 15.2898L17.3372 15.1007H17.1423V15.3507ZM17.3943 16.3524V16.6024H17.715L17.6368 16.2914L17.3943 16.3524ZM21.0482 13.8577L21.2414 13.699L21.2402 13.6976L21.0482 13.8577ZM21.275 15.0988L21.1522 15.3165L21.525 15.5267V15.0988H21.275ZM18.7614 13.6813L18.5339 13.5775L18.4386 13.7863L18.6386 13.8991L18.7614 13.6813ZM19.4039 11.8859L19.5959 11.7258L19.2863 11.3544L19.1623 11.8218L19.4039 11.8859ZM17.8857 4.1372V4.3872H18.2776L18.1124 4.0318L17.8857 4.1372ZM16.0777 1.44721L16.2609 1.2771L16.0777 1.07981L15.8945 1.2771L16.0777 1.44721ZM14.2696 4.1372L14.0432 4.03124L13.8766 4.3872H14.2696V4.1372ZM18.2511 5.01917L18.4857 4.93274L18.4254 4.76917H18.2511V5.01917ZM13.898 5.01917V4.76917H13.7228L13.663 4.93383L13.898 5.01917ZM17.3502 14.4751V14.7251H17.4906L17.5637 14.6052L17.3502 14.4751ZM14.8051 14.4751L14.5917 14.6052L14.6647 14.7251H14.8051V14.4751ZM28.7276 25.7454H28.4776V25.9954H28.7276V25.7454ZM27.852 25.7517V26.0017H28.102V25.7517H27.852ZM26.3463 25.7517L26.0992 25.7137L26.0549 26.0017H26.3463V25.7517ZM21.8231 21.619L21.6011 21.7339L21.6904 21.9066L21.8797 21.8626L21.8231 21.619ZM18.3771 20.2961L18.1286 20.3231L18.1638 20.647L18.4675 20.5292L18.3771 20.2961ZM13.7657 20.2961L13.6753 20.5292L13.9774 20.6463L14.0141 20.3245L13.7657 20.2961ZM10.3198 21.619L10.2631 21.8626L10.4525 21.9066L10.5418 21.7339L10.3198 21.619ZM5.79654 25.7517V26.0017H6.07705L6.0449 25.723L5.79654 25.7517ZM4.2909 25.7517H4.0409V26.0017H4.2909V25.7517ZM3.41524 25.7454V25.9954H3.66524V25.7454H3.41524ZM31.0648 26.1864L30.8148 26.1735V26.1864H31.0648ZM30.1955 27.125H30.4455V26.875H30.1955V27.125ZM1.95999 26.6273V26.3773H1.70999V26.6273H1.95999ZM6.69741 25.7454L6.45191 25.7926L6.4909 25.9954H6.69741V25.7454ZM10.4332 22.5577L10.5122 22.3205L10.5108 22.3201L10.4332 22.5577ZM10.767 22.5388L10.6606 22.3125L10.6552 22.3152L10.767 22.5388ZM10.9875 22.2868L11.2233 22.37L11.2241 22.3676L10.9875 22.2868ZM14.0051 21.4427L14.1652 21.2506L14.1642 21.2498L14.0051 21.4427ZM14.7107 20.9765L14.9502 20.9046L14.9496 20.903L14.7107 20.9765ZM17.4322 20.9765L17.1932 20.903L17.1927 20.9046L17.4322 20.9765ZM18.1378 21.4427L18.2978 21.6347L18.2985 21.6341L18.1378 21.4427ZM21.1553 22.2868L21.3925 22.2078L21.3919 22.206L21.1553 22.2868ZM21.3758 22.5388L21.264 22.7625L21.2694 22.765L21.3758 22.5388ZM21.7097 22.5577L21.7929 22.7935L21.7932 22.7934L21.7097 22.5577ZM25.4455 25.7454V25.9954H25.652L25.691 25.7926L25.4455 25.7454ZM30.1829 26.6273H30.4329V26.3773H30.1829V26.6273ZM30.1829 27.125H29.9329V27.375H30.1829V27.125ZM16.0776 10.1786L16.0792 9.92864H16.0776V10.1786ZM10.2484 14.4814C10.2484 14.1054 10.379 13.746 10.6191 13.4567L10.2344 13.1373C9.92024 13.5158 9.74841 13.988 9.74841 14.4814H10.2484ZM10.2484 15.8484V14.4814H9.74841V15.8484H10.2484ZM10.3386 16.0069C10.2842 15.9772 10.2484 15.9189 10.2484 15.8484H9.74841C9.74841 16.0929 9.87644 16.3244 10.0992 16.4459L10.3386 16.0069ZM10.4394 16.0394C10.4183 16.0394 10.3842 16.0318 10.3386 16.0069L10.0992 16.4459C10.1922 16.4966 10.3093 16.5394 10.4394 16.5394V16.0394ZM10.525 16.0183C10.5052 16.0302 10.475 16.0394 10.4394 16.0394V16.5394C10.555 16.5394 10.676 16.5108 10.7822 16.4471L10.525 16.0183ZM13.6618 14.251L10.5309 16.0149L10.7763 16.4505L13.9073 14.6866L13.6618 14.251ZM14.3735 14.9771C14.2443 14.7742 14.1213 14.565 14.0043 14.3495L13.5648 14.5881C13.6872 14.8135 13.8162 15.0327 13.9516 15.2456L14.3735 14.9771ZM14.0146 16.7465L14.4052 15.1715L13.9199 15.0512L13.5293 16.6261L14.0146 16.7465ZM14.0468 16.9054C14.0138 16.8652 13.9997 16.8089 14.0152 16.7442L13.5288 16.6284C13.4812 16.8283 13.5176 17.0492 13.6609 17.2232L14.0468 16.9054ZM14.2003 16.9844C14.149 16.9844 14.0917 16.9598 14.0468 16.9054L13.6609 17.2232C13.7924 17.3829 13.9871 17.4844 14.2003 17.4844V16.9844ZM17.955 16.9844H14.2003V17.4844H17.955V16.9844ZM18.1029 16.9124C18.0696 16.9559 18.0116 16.9844 17.955 16.9844V17.4844C18.1629 17.4844 18.3695 17.3868 18.5001 17.2161L18.1029 16.9124ZM18.1402 16.7442C18.1537 16.8011 18.1406 16.8631 18.1029 16.9124L18.5001 17.2161C18.6261 17.0513 18.676 16.8361 18.6266 16.6284L18.1402 16.7442ZM17.7501 15.1715L18.1407 16.7465L18.626 16.6261L18.2354 15.0512L17.7501 15.1715ZM18.1511 14.3495C18.0341 14.565 17.911 14.7742 17.7819 14.9771L18.2037 15.2456C18.3392 15.0327 18.4681 14.8135 18.5905 14.5881L18.1511 14.3495ZM21.6245 16.0149L18.4935 14.251L18.2481 14.6866L21.379 16.4505L21.6245 16.0149ZM21.7159 16.0394C21.6858 16.0394 21.6574 16.0328 21.6215 16.0132L21.382 16.4522C21.4847 16.5082 21.5948 16.5394 21.7159 16.5394V16.0394ZM21.8022 16.0155C21.7769 16.0316 21.7488 16.0394 21.7159 16.0394V16.5394C21.8343 16.5394 21.9574 16.5094 22.0706 16.4373L21.8022 16.0155ZM21.9069 15.8484C21.9069 15.9081 21.8736 15.9713 21.8048 16.0138L22.068 16.439C22.2638 16.3178 22.4069 16.1038 22.4069 15.8484H21.9069ZM21.9069 14.4814V15.8484H22.4069V14.4814H21.9069ZM21.5362 13.4567C21.7764 13.746 21.9069 14.1054 21.9069 14.4814H22.4069C22.4069 13.988 22.2351 13.5158 21.9209 13.1373L21.5362 13.4567ZM19.4513 10.9561L21.5365 13.4571L21.9206 13.1369L19.8353 10.6359L19.4513 10.9561ZM19.5571 8.80531C19.5571 9.46524 19.5016 10.1132 19.3966 10.7557L19.89 10.8364C19.9992 10.1685 20.0571 9.49353 20.0571 8.80531H19.5571ZM18.6568 4.29699C19.2548 5.72103 19.5571 7.23781 19.5571 8.80531H20.0571C20.0571 7.17255 19.742 5.58985 19.1179 4.10341L18.6568 4.29699ZM16.2175 0.686904C17.2577 1.70868 18.0773 2.92823 18.6571 4.29768L19.1176 4.10272C18.5131 2.67508 17.6569 1.39994 16.5678 0.330199L16.2175 0.686904ZM15.9521 0.685328C16.0245 0.612866 16.1434 0.612866 16.2159 0.685328L16.5694 0.331775C16.3017 0.06405 15.8662 0.0640507 15.5985 0.331774L15.9521 0.685328ZM13.5112 4.2968C14.0842 2.929 14.9096 1.71549 15.951 0.686377L15.5996 0.330726C14.5117 1.40573 13.6488 2.67431 13.05 4.10361L13.5112 4.2968ZM12.6108 8.80531C12.6108 7.23158 12.9131 5.72109 13.5111 4.29699L13.0501 4.10341C12.4259 5.58979 12.1108 7.16618 12.1108 8.80531H12.6108ZM12.7713 10.7557C12.6663 10.1132 12.6108 9.46524 12.6108 8.80531H12.1108C12.1108 9.49353 12.1687 10.1685 12.2779 10.8364L12.7713 10.7557ZM10.6183 13.4577L12.7161 10.9567L12.3331 10.6354L10.2353 13.1364L10.6183 13.4577ZM10.6304 14.4814V15.0988H11.1304V14.4814H10.6304ZM10.914 13.699C10.7339 13.9183 10.6304 14.1944 10.6304 14.4814H11.1304C11.1304 14.3148 11.1907 14.1499 11.3003 14.0164L10.914 13.699ZM12.5591 11.7198L10.9149 13.6979L11.2994 14.0175L12.9437 12.0394L12.5591 11.7198ZM13.6214 13.5712C13.3627 13.0045 13.1532 12.4193 12.993 11.8155L12.5098 11.9437C12.6772 12.5747 12.8961 13.1864 13.1666 13.7788L13.6214 13.5712ZM11.0036 15.3163L13.5172 13.8925L13.2708 13.4575L10.7572 14.8812L11.0036 15.3163ZM14.7706 15.2898L14.5186 16.2914L15.0035 16.4134L15.2555 15.4117L14.7706 15.2898ZM17.1423 15.1007H15.013V15.6007H17.1423V15.1007ZM17.6368 16.2914L17.3848 15.2898L16.8999 15.4117L17.1519 16.4134L17.6368 16.2914ZM14.761 16.6024H17.3943V16.1024H14.761V16.6024ZM21.525 14.4814C21.525 14.1944 21.4215 13.9183 21.2413 13.699L20.855 14.0164C20.9647 14.1499 21.025 14.3148 21.025 14.4814H21.525ZM21.525 15.0988V14.4814H21.025V15.0988H21.525ZM18.6386 13.8991L21.1522 15.3165L21.3978 14.881L18.8842 13.4636L18.6386 13.8991ZM19.1623 11.8218C19.0021 12.4256 18.7927 13.0108 18.5339 13.5775L18.9888 13.7851C19.2592 13.1927 19.4782 12.581 19.6456 11.95L19.1623 11.8218ZM21.2402 13.6976L19.5959 11.7258L19.2119 12.046L20.8562 14.0178L21.2402 13.6976ZM18.1124 4.0318C17.6414 3.01896 17.0157 2.08997 16.2609 1.2771L15.8945 1.61733C16.6138 2.39199 17.2102 3.27733 17.659 4.24261L18.1124 4.0318ZM14.2696 4.3872H17.8857V3.8872H14.2696V4.3872ZM15.8945 1.2771C15.1393 2.09032 14.5138 3.02554 14.0432 4.03124L14.4961 4.24316C14.9452 3.28335 15.5419 2.39164 16.2609 1.61733L15.8945 1.2771ZM18.2511 4.76917H13.898V5.26917H18.2511V4.76917ZM19.1752 8.80531C19.1752 7.4716 18.9368 6.1572 18.4857 4.93274L18.0165 5.10559C18.4473 6.27504 18.6752 7.53093 18.6752 8.80531H19.1752ZM17.5637 14.6052C18.6212 12.8705 19.1752 10.8724 19.1752 8.80531H18.6752C18.6752 10.7826 18.1455 12.6904 17.1368 14.3449L17.5637 14.6052ZM14.8051 14.7251H17.3502V14.2251H14.8051V14.7251ZM12.9802 8.80531C12.9802 10.8724 13.5341 12.8705 14.5917 14.6052L15.0186 14.3449C14.0098 12.6904 13.4802 10.7826 13.4802 8.80531H12.9802ZM13.663 4.93383C13.2185 6.15762 12.9802 7.47161 12.9802 8.80531H13.4802C13.4802 7.53092 13.708 6.27462 14.1329 5.1045L13.663 4.93383ZM28.7276 25.9954H30.6365V25.4954H28.7276V25.9954ZM28.4776 9.74402V25.7454H28.9776V9.74402H28.4776ZM26.8818 8.14819C27.7586 8.14819 28.4776 8.86209 28.4776 9.74402H28.9776C28.9776 8.58483 28.0336 7.64819 26.8818 7.64819V8.14819ZM21.2435 8.14819H26.8818V7.64819H21.2435V8.14819ZM21.0526 8.33917C21.0526 8.23156 21.1359 8.14819 21.2435 8.14819V7.64819C20.8598 7.64819 20.5526 7.95541 20.5526 8.33917H21.0526ZM21.2435 8.53016C21.1359 8.53016 21.0526 8.44679 21.0526 8.33917H20.5526C20.5526 8.72294 20.8598 9.03016 21.2435 9.03016V8.53016ZM26.8818 8.53016H21.2435V9.03016H26.8818V8.53016ZM28.102 9.75032C28.102 9.07677 27.5554 8.53016 26.8818 8.53016V9.03016C27.2792 9.03016 27.602 9.35291 27.602 9.75032H28.102ZM28.102 25.7517V9.75032H27.602V25.7517H28.102ZM26.3463 26.0017H27.852V25.5017H26.3463V26.0017ZM26.1278 25.254C26.1278 25.4125 26.1216 25.5681 26.0992 25.7137L26.5934 25.7897C26.6214 25.6076 26.6278 25.4231 26.6278 25.254H26.1278ZM22.6484 21.7746C24.5701 21.7746 26.1278 23.3381 26.1278 25.254H26.6278C26.6278 23.0625 24.8467 21.2746 22.6484 21.2746V21.7746ZM21.8797 21.8626C22.1319 21.8039 22.3901 21.7746 22.6484 21.7746V21.2746C22.3523 21.2746 22.0561 21.3082 21.7665 21.3755L21.8797 21.8626ZM19.3599 20.3634C20.3103 20.3634 21.1706 20.9017 21.6011 21.7339L22.0452 21.5042C21.5307 20.5095 20.5011 19.8634 19.3599 19.8634V20.3634ZM18.4675 20.5292C18.7472 20.4207 19.0505 20.3634 19.3599 20.3634V19.8634C18.989 19.8634 18.6244 19.9321 18.2868 20.063L18.4675 20.5292ZM16.0714 18.4861C17.1341 18.4861 18.0164 19.2905 18.1286 20.3231L18.6257 20.2691C18.4859 18.9834 17.3901 17.9861 16.0714 17.9861V18.4861ZM14.0141 20.3245C14.1322 19.2896 15.0099 18.4861 16.0714 18.4861V17.9861C14.7517 17.9861 13.6638 18.9843 13.5173 20.2678L14.0141 20.3245ZM12.783 20.3634C13.0924 20.3634 13.3956 20.4207 13.6753 20.5292L13.8561 20.063C13.5185 19.9321 13.1539 19.8634 12.783 19.8634V20.3634ZM10.5418 21.7339C10.9723 20.9017 11.8326 20.3634 12.783 20.3634V19.8634C11.6418 19.8634 10.6122 20.5095 10.0977 21.5042L10.5418 21.7339ZM9.4945 21.7746C9.75278 21.7746 10.011 21.8039 10.2631 21.8626L10.3764 21.3755C10.0868 21.3082 9.7906 21.2746 9.4945 21.2746V21.7746ZM6.01504 25.254C6.01504 23.3323 7.57858 21.7746 9.4945 21.7746V21.2746C7.30298 21.2746 5.51504 23.0556 5.51504 25.254H6.01504ZM6.0449 25.723C6.02672 25.5655 6.01504 25.4117 6.01504 25.254H5.51504C5.51504 25.4365 5.52857 25.6103 5.54819 25.7803L6.0449 25.723ZM4.2909 26.0017H5.79654V25.5017H4.2909V26.0017ZM4.0409 9.75032V25.7517H4.5409V9.75032H4.0409ZM5.26106 8.53016C4.58751 8.53016 4.0409 9.07677 4.0409 9.75032H4.5409C4.5409 9.35291 4.86366 9.03016 5.26106 9.03016V8.53016ZM10.8993 8.53016H5.26106V9.03016H10.8993V8.53016ZM11.0903 8.33917C11.0903 8.44679 11.007 8.53016 10.8993 8.53016V9.03016C11.2831 9.03016 11.5903 8.72294 11.5903 8.33917H11.0903ZM10.8993 8.14819C11.007 8.14819 11.0903 8.23156 11.0903 8.33917H11.5903C11.5903 7.95541 11.2831 7.64819 10.8993 7.64819V8.14819ZM5.26106 8.14819H10.8993V7.64819H5.26106V8.14819ZM3.66524 9.74402C3.66524 8.86727 4.37913 8.14819 5.26106 8.14819V7.64819C4.10188 7.64819 3.16524 8.59224 3.16524 9.74402H3.66524ZM3.66524 25.7454V9.74402H3.16524V25.7454H3.66524ZM1.50641 25.9954H3.41524V25.4954H1.50641V25.9954ZM1.31543 26.1864C1.31543 26.0787 1.39879 25.9954 1.50641 25.9954V25.4954C1.12265 25.4954 0.81543 25.8026 0.81543 26.1864H1.31543ZM1.31543 27.125V26.1864H0.81543V27.125H1.31543ZM2.44508 28.2547C1.82088 28.2547 1.31543 27.7492 1.31543 27.125H0.81543C0.81543 28.0254 1.54473 28.7547 2.44508 28.7547V28.2547ZM29.6852 28.2547H2.44508V28.7547H29.6852V28.2547ZM30.8148 27.125C30.8148 27.7492 30.3094 28.2547 29.6852 28.2547V28.7547C30.5855 28.7547 31.3148 28.0254 31.3148 27.125H30.8148ZM30.8148 26.1864V27.125H31.3148V26.1864H30.8148ZM30.6365 25.9954C30.7467 25.9954 30.8201 26.0783 30.8152 26.1736L31.3145 26.1992C31.3348 25.8031 31.0176 25.4954 30.6365 25.4954V25.9954ZM29.6978 27.8727C30.1047 27.8727 30.4455 27.5423 30.4455 27.125H29.9455C29.9455 27.2621 29.8327 27.3727 29.6978 27.3727V27.8727ZM2.45767 27.8727H29.6978V27.3727H2.45767V27.8727ZM1.70999 27.125C1.70999 27.5319 2.04036 27.8727 2.45767 27.8727V27.3727C2.32061 27.3727 2.20999 27.2599 2.20999 27.125H1.70999ZM1.70999 26.6273V27.125H2.20999V26.6273H1.70999ZM7.62347 26.3773H1.95999V26.8773H7.62347V26.3773ZM7.81445 26.1864C7.81445 26.294 7.73109 26.3773 7.62347 26.3773V26.8773C8.00723 26.8773 8.31445 26.5701 8.31445 26.1864H7.81445ZM7.62347 25.9954C7.73109 25.9954 7.81445 26.0787 7.81445 26.1864H8.31445C8.31445 25.8026 8.00723 25.4954 7.62347 25.4954V25.9954ZM6.69741 25.9954H7.62347V25.4954H6.69741V25.9954ZM6.40331 25.2477C6.40331 25.4237 6.4168 25.61 6.45191 25.7926L6.94291 25.6982C6.91502 25.5531 6.90331 25.3993 6.90331 25.2477H6.40331ZM9.5008 22.1502C7.79409 22.1502 6.40331 23.541 6.40331 25.2477H6.90331C6.90331 23.8171 8.07023 22.6502 9.5008 22.6502V22.1502ZM10.5108 22.3201C10.1814 22.2125 9.84638 22.1502 9.5008 22.1502V22.6502C9.78519 22.6502 10.0676 22.7013 10.3556 22.7954L10.5108 22.3201ZM10.6552 22.3152C10.6186 22.3335 10.5681 22.3392 10.5122 22.3205L10.3541 22.7949C10.525 22.8519 10.7139 22.8449 10.8789 22.7624L10.6552 22.3152ZM10.7518 22.2036C10.7328 22.2575 10.6984 22.2948 10.6606 22.3126L10.8735 22.765C11.0499 22.682 11.1667 22.5303 11.2233 22.37L10.7518 22.2036ZM12.783 20.7391C11.8677 20.7391 11.0495 21.3318 10.751 22.206L11.2241 22.3676C11.4548 21.6921 12.0855 21.2391 12.783 21.2391V20.7391ZM14.1642 21.2498C13.7637 20.9196 13.2926 20.7391 12.783 20.7391V21.2391C13.1679 21.2391 13.5283 21.3736 13.8461 21.6355L14.1642 21.2498ZM14.3975 21.2649C14.3262 21.3115 14.2324 21.3066 14.1652 21.2506L13.8451 21.6347C14.0802 21.8307 14.4149 21.851 14.6711 21.6834L14.3975 21.2649ZM14.4712 21.0483C14.4976 21.1361 14.4643 21.2212 14.3975 21.2649L14.6711 21.6834C14.9318 21.5129 15.0372 21.1948 14.9502 20.9046L14.4712 21.0483ZM14.3851 20.5481C14.3851 20.714 14.4171 20.8725 14.4717 21.05L14.9496 20.903C14.9035 20.7529 14.8851 20.6467 14.8851 20.5481H14.3851ZM16.0714 18.8617C15.1466 18.8617 14.3851 19.6155 14.3851 20.5481H14.8851C14.8851 19.8931 15.4213 19.3617 16.0714 19.3617V18.8617ZM17.7578 20.5481C17.7578 19.6163 17.0033 18.8617 16.0714 18.8617V19.3617C16.7271 19.3617 17.2578 19.8924 17.2578 20.5481H17.7578ZM17.6711 21.05C17.7257 20.8725 17.7578 20.714 17.7578 20.5481H17.2578C17.2578 20.6467 17.2394 20.7529 17.1932 20.903L17.6711 21.05ZM17.7454 21.2649C17.6785 21.2212 17.6453 21.1361 17.6716 21.0483L17.1927 20.9046C17.1057 21.1948 17.211 21.5129 17.4718 21.6834L17.7454 21.2649ZM17.9777 21.2506C17.9105 21.3066 17.8167 21.3115 17.7454 21.2649L17.4718 21.6834C17.728 21.851 18.0626 21.8307 18.2978 21.6347L17.9777 21.2506ZM19.3599 20.7391C18.8515 20.7391 18.373 20.9188 17.977 21.2512L18.2985 21.6341C18.6081 21.3743 18.9738 21.2391 19.3599 21.2391V20.7391ZM21.3919 22.206C21.0936 21.3323 20.282 20.7391 19.3599 20.7391V21.2391C20.0632 21.2391 20.6879 21.6916 20.9188 22.3676L21.3919 22.206ZM21.4876 22.3152C21.4421 22.2925 21.408 22.2541 21.3925 22.2078L20.9182 22.3659C20.9783 22.5463 21.1079 22.6844 21.264 22.7624L21.4876 22.3152ZM21.6265 22.322C21.5832 22.3373 21.5316 22.3358 21.4823 22.3126L21.2694 22.765C21.4343 22.8426 21.622 22.8538 21.7929 22.7935L21.6265 22.322ZM22.6421 22.1502C22.3004 22.1502 21.957 22.2049 21.6263 22.3221L21.7932 22.7934C22.0672 22.6963 22.3538 22.6502 22.6421 22.6502V22.1502ZM25.7396 25.2477C25.7396 23.541 24.3488 22.1502 22.6421 22.1502V22.6502C24.0726 22.6502 25.2396 23.8171 25.2396 25.2477H25.7396ZM25.691 25.7926C25.726 25.6103 25.7396 25.4303 25.7396 25.2477H25.2396C25.2396 25.4053 25.2279 25.5529 25.2 25.6982L25.691 25.7926ZM9.4882 25.9954H25.4455V25.4954H9.4882V25.9954ZM9.29722 26.1864C9.29722 26.0787 9.38058 25.9954 9.4882 25.9954V25.4954C9.10444 25.4954 8.79722 25.8026 8.79722 26.1864H9.29722ZM9.4882 26.3773C9.38058 26.3773 9.29722 26.294 9.29722 26.1864H8.79722C8.79722 26.5701 9.10444 26.8773 9.4882 26.8773V26.3773ZM30.1829 26.3773H9.4882V26.8773H30.1829V26.3773ZM30.4329 27.125V26.6273H29.9329V27.125H30.4329ZM30.1955 26.875H30.1829V27.375H30.1955V26.875ZM18.1735 8.33282C18.1735 7.17364 17.2294 6.237 16.0776 6.237V6.737C16.9544 6.737 17.6735 7.45089 17.6735 8.33282H18.1735ZM16.0761 10.4286C17.2373 10.4358 18.1735 9.49003 18.1735 8.33282H17.6735C17.6735 9.21672 16.9591 9.93408 16.0792 9.92865L16.0761 10.4286ZM13.9818 8.33282C13.9818 9.48515 14.9253 10.4286 16.0776 10.4286V9.92864C15.2014 9.92864 14.4818 9.20901 14.4818 8.33282H13.9818ZM16.0776 6.237C14.9185 6.237 13.9818 7.18105 13.9818 8.33282H14.4818C14.4818 7.45608 15.1957 6.737 16.0776 6.737V6.237ZM15.3575 8.33282C15.3575 7.93542 15.6802 7.61266 16.0776 7.61266V7.11266C15.4041 7.11266 14.8575 7.65927 14.8575 8.33282H15.3575ZM16.0776 9.05298C15.6802 9.05298 15.3575 8.73023 15.3575 8.33282H14.8575C14.8575 9.00637 15.4041 9.55298 16.0776 9.55298V9.05298ZM16.7978 8.33282C16.7978 8.73023 16.475 9.05298 16.0776 9.05298V9.55298C16.7512 9.55298 17.2978 9.00637 17.2978 8.33282H16.7978ZM16.0776 7.61266C16.475 7.61266 16.7978 7.93542 16.7978 8.33282H17.2978C17.2978 7.65927 16.7512 7.11266 16.0776 7.11266V7.61266Z" fill="#121212" mask="url(#path-1-outside-1_54_2373)"/>
</svg>
