<svg width="48" height="48" viewBox="0 0 48 48" fill="none" xmlns="http://www.w3.org/2000/svg">
<path fill-rule="evenodd" clip-rule="evenodd" d="M17.7554 7.84195C20.0147 6.10574 22.3728 4.56401 24.0019 3.58474L26.2844 4.92737L21.7362 8.82581C21.3085 9.19242 21.2589 9.83634 21.6256 10.2641C21.9922 10.6918 22.6361 10.7413 23.0638 10.3747L28.1433 6.02085L36.4842 10.9273L35.075 19.8517C33.3726 20.5937 29.3225 21.4992 24.3226 19.8326C22.7009 19.292 21.4567 18.7938 20.389 18.3663L20.1059 18.2531C18.9891 17.8068 18.0072 17.4243 16.9924 17.2036C15.1733 16.8079 13.3563 16.9538 10.4101 17.7824C10.6557 16.2498 11.1577 14.7026 12.0487 13.366C13.1911 11.6525 15.3699 9.67503 17.7554 7.84195ZM31.8108 29.2776C33.5088 27.4353 34.2027 24.9031 34.6965 22.1547C32.2554 22.8925 28.2863 23.3042 23.6775 21.7679C21.9965 21.2076 20.7017 20.6891 19.6333 20.2612L19.349 20.1474C18.2134 19.6937 17.3831 19.3762 16.5589 19.1969C15.0845 18.8763 13.5131 18.9726 10.2093 19.9658C10.1449 21.4555 10.2366 22.52 10.8821 24.4611C11.0228 24.8381 11.2231 25.3139 11.4747 25.8398C12.0871 26.8527 12.7406 27.8405 13.4335 28.8006C13.4639 28.8247 13.4932 28.8508 13.5213 28.879C15.9472 31.3048 18.3239 32.2211 19.8456 32.4882L14.8496 27.4923C13.3629 26.0055 13.3629 23.5949 14.8496 22.1081C15.9211 21.0367 17.6397 20.9795 18.78 21.9773L23.6401 26.2298C23.7285 26.3072 23.8265 26.373 23.9316 26.4256L31.0708 29.9952C31.3395 29.7628 31.5853 29.5223 31.8108 29.2776ZM32.949 31.0351C33.0744 30.9111 33.1949 30.786 33.3109 30.6602C35.8591 27.8954 36.4871 23.989 37.0075 20.6927L38.5438 10.9629C38.6476 10.3054 38.3387 9.65139 37.765 9.31392L24.8201 1.69928C24.3169 1.40324 23.6872 1.39807 23.1765 1.70148C21.4869 2.70524 18.9485 4.35232 16.5123 6.22438C14.1 8.07809 11.691 10.2249 10.3513 12.2345C8.90503 14.4039 8.34809 16.9334 8.21128 19.137L8.2057 19.228C8.12171 19.0144 8.03938 18.8 7.95871 18.5849L7.11335 16.3306C6.61594 15.0042 5.23027 14.234 3.84116 14.5118C1.94142 14.8917 0.756783 16.7965 1.25597 18.6684L1.8221 20.7914C3.17075 25.8488 5.38365 30.6351 8.363 34.9386C9.27594 36.2573 10.3266 37.4683 11.4941 38.5527L9.67295 41.4145L4.52488 38.3256C4.04183 38.0358 3.41528 38.1924 3.12545 38.6755C2.83562 39.1585 2.99225 39.7851 3.47531 40.0749L9.47531 43.6749L15.4753 47.2749C15.9584 47.5647 16.5849 47.4081 16.8747 46.925C17.1646 46.442 17.0079 45.8154 16.5249 45.5256L11.4228 42.4644L13.0662 39.882C13.9301 40.546 14.8444 41.1472 15.8024 41.6794L18.7047 43.2918C18.7424 43.3128 18.7813 43.3313 18.8213 43.3472L26.8213 46.5472C27.3443 46.7565 27.9379 46.5021 28.1471 45.979C28.3564 45.456 28.102 44.8624 27.5789 44.6532L19.6389 41.4772L16.7931 39.8962C14.1027 38.4015 11.7922 36.3079 10.0403 33.7774C7.19476 29.6672 5.08129 25.096 3.79322 20.2658L3.22709 18.1428C3.03126 17.4084 3.49598 16.6612 4.24123 16.5122C4.64963 16.4305 5.05701 16.6569 5.20324 17.0469L6.0486 19.3012C7.02962 21.9172 8.24576 24.4303 9.67814 26.811C10.0376 27.5539 10.4848 28.3753 11.0045 29.1757C11.5893 30.0764 12.3007 31.0053 13.1224 31.7631C14.1806 33.0885 15.3141 34.3568 16.5187 35.5613L16.8788 35.9215C18.1608 37.2034 20.2394 37.2034 21.5213 35.9214C22.8033 34.6395 22.8033 32.5609 21.5213 31.279L16.2921 26.0498C15.602 25.3596 15.602 24.2408 16.2921 23.5506C16.6041 23.2387 17.1046 23.222 17.4367 23.5125L22.2967 27.7651C22.5159 27.9569 22.7588 28.1199 23.0193 28.2502L30.7186 32.0999L31.2817 32.4216C34.4868 34.2531 37.3287 36.6571 39.6663 39.5141L43.2107 43.8461C43.5674 44.2821 44.21 44.3464 44.646 43.9896C45.082 43.6329 45.1463 42.9903 44.7895 42.5543L41.2452 38.2223C38.91 35.3682 36.1035 32.9377 32.949 31.0351ZM20.1856 12.201C20.4132 12.201 20.6408 12.11 20.8046 11.9462C20.9684 11.7823 21.0595 11.5548 21.0595 11.3272C21.0595 11.0996 20.9684 10.8721 20.8046 10.7082C20.6408 10.5444 20.4132 10.4534 20.1856 10.4534C19.9581 10.4534 19.7305 10.5444 19.5667 10.7082C19.4028 10.8721 19.3118 11.0996 19.3118 11.3272C19.3118 11.5548 19.4028 11.7823 19.5667 11.9462C19.7305 12.1009 19.9581 12.201 20.1856 12.201ZM19.9785 34.5691C19.3823 34.4986 18.693 34.3508 17.9403 34.0979L17.9612 34.1188L18.3213 34.479C18.7745 34.9321 19.4905 34.9621 19.9785 34.5691Z" fill="#121212"/>
</svg>
