<svg width="41" height="40" viewBox="0 0 41 40" fill="none" xmlns="http://www.w3.org/2000/svg">
<path fill-rule="evenodd" clip-rule="evenodd" d="M20.8673 5.32694C15.7126 5.32694 11.5339 9.50078 11.5339 14.6495C11.5339 19.7981 15.7126 23.972 20.8673 23.972C26.0219 23.972 30.2006 19.7981 30.2006 14.6495C30.2006 9.50078 26.0219 5.32694 20.8673 5.32694ZM10.2006 14.6495C10.2006 8.76525 14.9762 3.99516 20.8673 3.99516C26.7583 3.99516 31.5339 8.76525 31.5339 14.6495C31.5339 20.5337 26.7583 25.3038 20.8673 25.3038C14.9762 25.3038 10.2006 20.5337 10.2006 14.6495Z" fill="#3693FF"/>
<path fill-rule="evenodd" clip-rule="evenodd" d="M20.8673 7.32463C21.1106 7.32463 21.3346 7.45703 21.4517 7.67007L23.3852 11.1879L27.3322 11.9376C27.5712 11.983 27.7665 12.1548 27.8417 12.386C27.9169 12.6171 27.86 12.8708 27.6934 13.0479L24.9413 15.9717L25.4472 19.9528C25.4779 20.1939 25.3746 20.4325 25.1777 20.5754C24.9809 20.7182 24.7217 20.7426 24.5016 20.639L20.8673 18.9282L17.2329 20.639C17.0128 20.7426 16.7537 20.7182 16.5569 20.5754C16.36 20.4325 16.2567 20.1939 16.2874 19.9528L16.7933 15.9717L14.0412 13.0479C13.8745 12.8708 13.8177 12.6171 13.8929 12.386C13.9681 12.1548 14.1633 11.983 14.4024 11.9376L18.3494 11.1879L20.2829 7.67007C20.4 7.45703 20.624 7.32463 20.8673 7.32463ZM20.8673 9.37424L19.367 12.1039C19.2713 12.2781 19.1026 12.4005 18.9071 12.4376L15.8444 13.0193L17.9799 15.288C18.1162 15.4328 18.1806 15.6309 18.1556 15.828L17.763 18.9172L20.5831 17.5897C20.7631 17.5049 20.9715 17.5049 21.1515 17.5897L23.9716 18.9172L23.579 15.828C23.554 15.6309 23.6184 15.4328 23.7547 15.288L25.8901 13.0193L22.8274 12.4376C22.632 12.4005 22.4633 12.2781 22.3676 12.1039L20.8673 9.37424Z" fill="#3693FF"/>
<path fill-rule="evenodd" clip-rule="evenodd" d="M20.2267 0.26434C20.6138 0.0434152 21.0858 0.0303297 21.4845 0.229468L23.594 1.28296L25.9782 1.01836C26.4166 0.969707 26.8507 1.14077 27.1378 1.47529L28.7235 3.3232L30.767 3.83347C31.2092 3.9439 31.5643 4.27237 31.7085 4.70434L32.5197 7.13527L34.1667 8.7803C34.4167 9.03006 34.5572 9.36881 34.5572 9.72202V11.9271L35.4037 14.1818C35.5169 14.4833 35.5169 14.8156 35.4037 15.1171L34.5572 17.3718V19.8353C34.5572 20.2654 34.3492 20.669 33.9988 20.919L32.1987 22.2033L31.692 24.2279C31.5856 24.6527 31.2771 24.9981 30.8666 25.1519L30.4433 25.3104L34.6873 36.023C34.7774 36.2504 34.7355 36.5088 34.5781 36.6961C34.4207 36.8834 34.1732 36.9695 33.9334 36.9203L29.9476 36.1032L28.0748 39.6449C27.9538 39.8737 27.7109 40.0118 27.4521 39.999C27.1933 39.9861 26.9654 39.8246 26.8678 39.5848L22.3986 28.613L21.4845 29.0695C21.0858 29.2686 20.6138 29.2555 20.2267 29.0346L19.61 28.6826L14.7184 39.5691C14.614 39.8016 14.3859 39.9541 14.1309 39.9621C13.876 39.97 13.6388 39.8319 13.5201 39.6064L11.6577 36.0685L7.68317 36.8905C7.4373 36.9413 7.18368 36.8499 7.02702 36.6539C6.87035 36.4579 6.83721 36.1907 6.94128 35.9624L11.6724 25.5867L11.2548 25.4676C10.8316 25.3468 10.4954 25.0252 10.3562 24.6082L9.55061 22.1942L7.98269 20.8892C7.6787 20.6361 7.50293 20.2613 7.50293 19.866L7.50293 17.4083L6.42006 15.2451C6.23238 14.8701 6.23238 14.4288 6.42006 14.0539L7.48527 11.9259L7.22462 9.58284C7.17128 9.10331 7.38176 8.63248 7.77482 8.35204L9.55919 7.07897L10.362 4.67342C10.4947 4.27574 10.8071 3.96369 11.2052 3.83113L13.6393 3.0207L14.9163 1.49007C15.2029 1.14657 15.643 0.96964 16.0879 1.01902L18.446 1.28073L20.2267 0.26434ZM23.5947 28.0156L27.5638 37.7597L29.0022 35.0394C29.1407 34.7777 29.4355 34.6386 29.7258 34.6982L32.994 35.3682L29.1946 25.7781L28.78 25.9334L27.4947 27.7307C27.217 28.1191 26.7525 28.3293 26.2771 28.2818L23.5975 28.0142L23.5947 28.0156ZM18.4425 28.0162L18.4469 28.0187L14.0628 37.7757L12.6041 35.0048C12.4658 34.742 12.17 34.6024 11.8789 34.6626L8.69919 35.3203L12.9688 25.9567L13.0031 25.9665L14.5998 27.8272C14.8835 28.1578 15.3111 28.329 15.7449 28.2856L18.4425 28.0162ZM22.9977 2.47415L20.8883 1.42066L19.1075 2.43704C18.8625 2.57692 18.5793 2.6355 18.2988 2.60437L15.9406 2.34266L14.6636 3.87329C14.5049 4.06355 14.2962 4.20583 14.061 4.28415L11.6269 5.09457L10.8241 7.50012C10.735 7.76714 10.5635 7.9991 10.3342 8.16269L8.5498 9.43577L8.81045 11.7788C8.83883 12.034 8.79278 12.2919 8.67784 12.5215L7.61263 14.6495L8.6955 16.8127C8.78807 16.9976 8.83627 17.2015 8.83627 17.4083V19.866L10.4042 21.1711C10.5947 21.3297 10.7371 21.5381 10.8155 21.7731L11.6211 24.187L13.3694 24.686C13.6207 24.7577 13.8454 24.9016 14.0155 25.0998L15.6122 26.9605L18.3098 26.691C18.5857 26.6635 18.8633 26.7225 19.104 26.8599L20.8883 27.8783L23.0012 26.823C23.2267 26.7104 23.4794 26.664 23.7302 26.689L26.4097 26.9567L27.695 25.1593C27.849 24.944 28.0638 24.7794 28.3118 24.6864L30.3984 23.9049L30.9052 21.8803C30.982 21.5732 31.1659 21.3036 31.4237 21.1196L33.2239 19.8353V17.3718C33.2239 17.2121 33.2526 17.0538 33.3088 16.9042L34.1553 14.6495L33.3088 12.3947C33.2526 12.2452 33.2239 12.0868 33.2239 11.9271V9.72202L31.5769 8.07699C31.4306 7.93079 31.3203 7.75256 31.2548 7.55642L30.4436 5.12549L28.4001 4.61522C28.1319 4.54824 27.8911 4.39961 27.7112 4.18992L26.1254 2.342L23.7412 2.60661C23.4858 2.63496 23.2276 2.58896 22.9977 2.47415Z" fill="#3693FF"/>
</svg>
