<svg width="27" height="30" viewBox="0 0 27 30" fill="none" xmlns="http://www.w3.org/2000/svg">
<path fill-rule="evenodd" clip-rule="evenodd" d="M3.18981 4.25893C4.98984 1.87714 7.93852 0 12.4545 0C16.7514 0 19.5794 1.70023 21.3426 3.93027C23.0828 6.13127 23.7505 8.8 23.8593 10.7372C23.8731 10.9822 23.9438 11.1991 24.0635 11.3718L26.7237 15.2113C27.4338 16.2362 26.6928 17.6296 25.4377 17.6296H24.0694C23.9625 17.6296 23.8758 17.7154 23.8758 17.8213V22.3788C23.8758 23.7113 22.7851 24.7914 21.4396 24.7914H19.0289C18.922 24.7914 18.8354 24.8772 18.8354 24.9831V28.4555C18.8354 29.3085 18.1371 30 17.2757 30H7.63316C6.77181 30 6.07355 29.3085 6.07355 28.4555V21.9316C6.07355 21.6095 5.91829 21.286 5.64067 21.0501C1.52625 17.5534 0.560184 13.2452 0.778889 11.2712C0.787628 9.37724 1.4259 6.59292 3.18981 4.25893ZM4.28346 5.0695C2.711 7.15018 2.14483 9.66042 2.14483 11.3106V11.351L2.13997 11.3912C1.96094 12.8686 2.70986 16.7767 6.53029 20.0235C7.0788 20.4896 7.43958 21.1756 7.43958 21.9316V28.4555C7.43958 28.5614 7.52625 28.6472 7.63316 28.6472H17.2757C17.3827 28.6472 17.4693 28.5614 17.4693 28.4555V24.9831C17.4693 24.1301 18.1676 23.4386 19.0289 23.4386H21.4396C22.0306 23.4386 22.5098 22.9641 22.5098 22.3788V17.8213C22.5098 16.9683 23.208 16.2768 24.0694 16.2768H25.4377C25.5935 16.2768 25.6855 16.1039 25.5973 15.9767L22.9372 12.1372C22.6562 11.7316 22.521 11.2676 22.4954 10.8124C22.3978 9.07403 21.7924 6.69355 20.267 4.76425C18.7646 2.86397 16.3343 1.35279 12.4545 1.35279C8.37973 1.35279 5.83209 3.02038 4.28346 5.0695ZM12.6383 18.4211C16.4831 18.4211 19.6 15.3344 19.6 11.5269C19.6 7.71938 16.4831 4.63277 12.6383 4.63277C8.7935 4.63277 5.67666 7.71938 5.67666 11.5269C5.67666 15.3344 8.7935 18.4211 12.6383 18.4211ZM12.6383 19.7738C17.2376 19.7738 20.966 16.0816 20.966 11.5269C20.966 6.97226 17.2376 3.27999 12.6383 3.27999C8.03906 3.27999 4.31063 6.97226 4.31063 11.5269C4.31063 16.0816 8.03906 19.7738 12.6383 19.7738ZM11.7871 8.05552C11.7871 7.59007 12.1681 7.21274 12.6382 7.21274C13.1082 7.21274 13.4892 7.59007 13.4892 8.05552V9.11532H11.7871V8.05552ZM14.8552 8.05552V9.11532H15.4871C16.3485 9.11532 17.0467 9.80682 17.0467 10.6598V14.3492C17.0467 15.2022 16.3484 15.8937 15.4871 15.8937H9.57006C8.70871 15.8937 8.01045 15.2022 8.01045 14.3492V10.6598C8.01045 9.80681 8.70871 9.11532 9.57006 9.11532H10.4211V8.05552C10.4211 6.84294 11.4137 5.85996 12.6382 5.85996C13.8626 5.85996 14.8552 6.84295 14.8552 8.05552ZM9.37648 10.6598C9.37648 10.5539 9.46315 10.4681 9.57006 10.4681H15.4871C15.594 10.4681 15.6807 10.5539 15.6807 10.6598V14.3492C15.6807 14.4551 15.594 14.5409 15.4871 14.5409H9.57006C9.46315 14.5409 9.37648 14.4551 9.37648 14.3492V10.6598Z" fill="#121212"/>
</svg>