<svg width="26" height="31" viewBox="0 0 26 31" fill="none" xmlns="http://www.w3.org/2000/svg">
<mask id="path-1-outside-1_54_2308" maskUnits="userSpaceOnUse" x="0" y="-0.5" width="26" height="32" fill="black">
<rect fill="white" y="-0.5" width="26" height="32"/>
<path fill-rule="evenodd" clip-rule="evenodd" d="M16.9677 0.5H23.7419C24.5403 0.5 25.1935 1.14718 25.1935 1.95161V7.75806C25.1935 8.55645 24.5403 9.20968 23.7419 9.20968H21.3226V8.24194C21.3226 7.70968 20.8871 7.27419 20.3548 7.27419C19.8226 7.27419 19.3871 7.70968 19.3871 8.24194V9.20968H15.5161V6.79032C14.4516 6.79032 13.5806 5.91935 13.5806 4.85484C13.5806 3.79032 14.4516 2.91935 15.5161 2.91935V1.95161C15.5161 1.15323 16.1693 0.5 16.9677 0.5ZM23.7419 8.24194C24.008 8.24194 24.2258 8.02419 24.2258 7.75806V1.95161C24.2258 1.68548 24.008 1.46774 23.7419 1.46774H16.9677C16.7016 1.46774 16.4839 1.68548 16.4839 1.95161V3.8871H15.5161C14.9839 3.8871 14.5484 4.32258 14.5484 4.85484C14.5484 5.3871 14.9839 5.82258 15.5161 5.82258H16.4839V8.24194H18.4193C18.4193 7.17742 19.2903 6.30645 20.3548 6.30645C21.4193 6.30645 22.2903 7.17742 22.2903 8.24194H23.7419ZM13.5806 12.113C13.5806 11.0485 14.4516 10.1775 15.5161 10.1775C16.5806 10.1775 17.4516 11.0424 17.4516 12.113H20.3548V12.7541C20.3548 15.5666 19.1028 18.2037 16.9254 19.988L15.0323 21.5364V22.8489C15.5948 23.0485 16 23.5807 16 24.2098C16 24.8811 15.5403 25.4376 14.9234 25.607C14.996 25.7703 15.0323 25.9517 15.0323 26.1453C15.0323 26.7864 14.6149 27.3247 14.0403 27.5182C13.8407 29.1936 12.4073 30.5001 10.6774 30.5001C8.94758 30.5001 7.51411 29.1936 7.31452 27.5182C6.73992 27.3247 6.32258 26.7864 6.32258 26.1453C6.32258 25.9578 6.36492 25.7763 6.43145 25.607C5.81452 25.4376 5.35484 24.8811 5.35484 24.2098C5.35484 23.5807 5.76008 23.0485 6.32258 22.8489V21.5364L4.42944 19.988C2.25202 18.2037 1 15.5666 1 12.7541C1 7.59485 5.19758 3.40332 10.3508 3.40332H11.6452V7.75816H10.6774C10.1452 7.75816 9.70968 8.19364 9.70968 8.7259C9.70968 9.25816 10.1452 9.69364 10.6774 9.69364H11.6452V12.113H13.5806ZM10.6774 4.37106H10.3508C5.94153 4.37106 2.31855 7.7884 1.99194 12.113H4.87097C4.87097 11.0485 5.74194 10.1775 6.80645 10.1775C7.87097 10.1775 8.74194 11.0485 8.74194 12.113H10.6774V10.6614C9.6129 10.6614 8.74194 9.79042 8.74194 8.7259C8.74194 7.66139 9.6129 6.79042 10.6774 6.79042V4.37106ZM1.97379 13.0747C2.06452 15.4759 3.17137 17.7017 5.04032 19.232L7.29032 21.0707V22.7521H10.6774V18.8811C9.6129 18.8811 8.74194 18.0102 8.74194 16.9457C8.74194 15.8811 9.6129 15.0102 10.6774 15.0102V13.0747H7.77419V12.1069C7.77419 11.5747 7.33871 11.1392 6.80645 11.1392C6.27419 11.1392 5.83871 11.5747 5.83871 12.1069V13.0747H1.97379ZM8.30645 27.5969C8.53024 28.6977 9.51008 29.5324 10.6774 29.5324C11.8448 29.5324 12.8246 28.6977 13.0484 27.5969H8.30645ZM7.77419 26.6291H13.5806C13.8468 26.6291 14.0645 26.4114 14.0645 26.1453C14.0645 25.8791 13.8468 25.6614 13.5806 25.6614H7.77419C7.50806 25.6614 7.29032 25.8791 7.29032 26.1453C7.29032 26.4114 7.50806 26.6291 7.77419 26.6291ZM13.5806 24.6936H14.5484C14.8145 24.6936 15.0323 24.4759 15.0323 24.2098C15.0323 23.9436 14.8145 23.7259 14.5484 23.7259H6.80645C6.54032 23.7259 6.32258 23.9436 6.32258 24.2098C6.32258 24.4759 6.54032 24.6936 6.80645 24.6936H7.77419H13.5806ZM14.0645 21.0707L16.3145 19.232C18.1835 17.7078 19.2903 15.4759 19.381 13.0747H16.4839V12.1069C16.4839 11.5747 16.0484 11.1392 15.5161 11.1392C14.9839 11.1392 14.5484 11.5747 14.5484 12.1069V13.0747H11.6452V15.9779H10.6774C10.1452 15.9779 9.70968 16.4134 9.70968 16.9457C9.70968 17.4779 10.1452 17.9134 10.6774 17.9134H11.6452V22.7521H14.0645V21.0707Z"/>
</mask>
<path fill-rule="evenodd" clip-rule="evenodd" d="M16.9677 0.5H23.7419C24.5403 0.5 25.1935 1.14718 25.1935 1.95161V7.75806C25.1935 8.55645 24.5403 9.20968 23.7419 9.20968H21.3226V8.24194C21.3226 7.70968 20.8871 7.27419 20.3548 7.27419C19.8226 7.27419 19.3871 7.70968 19.3871 8.24194V9.20968H15.5161V6.79032C14.4516 6.79032 13.5806 5.91935 13.5806 4.85484C13.5806 3.79032 14.4516 2.91935 15.5161 2.91935V1.95161C15.5161 1.15323 16.1693 0.5 16.9677 0.5ZM23.7419 8.24194C24.008 8.24194 24.2258 8.02419 24.2258 7.75806V1.95161C24.2258 1.68548 24.008 1.46774 23.7419 1.46774H16.9677C16.7016 1.46774 16.4839 1.68548 16.4839 1.95161V3.8871H15.5161C14.9839 3.8871 14.5484 4.32258 14.5484 4.85484C14.5484 5.3871 14.9839 5.82258 15.5161 5.82258H16.4839V8.24194H18.4193C18.4193 7.17742 19.2903 6.30645 20.3548 6.30645C21.4193 6.30645 22.2903 7.17742 22.2903 8.24194H23.7419ZM13.5806 12.113C13.5806 11.0485 14.4516 10.1775 15.5161 10.1775C16.5806 10.1775 17.4516 11.0424 17.4516 12.113H20.3548V12.7541C20.3548 15.5666 19.1028 18.2037 16.9254 19.988L15.0323 21.5364V22.8489C15.5948 23.0485 16 23.5807 16 24.2098C16 24.8811 15.5403 25.4376 14.9234 25.607C14.996 25.7703 15.0323 25.9517 15.0323 26.1453C15.0323 26.7864 14.6149 27.3247 14.0403 27.5182C13.8407 29.1936 12.4073 30.5001 10.6774 30.5001C8.94758 30.5001 7.51411 29.1936 7.31452 27.5182C6.73992 27.3247 6.32258 26.7864 6.32258 26.1453C6.32258 25.9578 6.36492 25.7763 6.43145 25.607C5.81452 25.4376 5.35484 24.8811 5.35484 24.2098C5.35484 23.5807 5.76008 23.0485 6.32258 22.8489V21.5364L4.42944 19.988C2.25202 18.2037 1 15.5666 1 12.7541C1 7.59485 5.19758 3.40332 10.3508 3.40332H11.6452V7.75816H10.6774C10.1452 7.75816 9.70968 8.19364 9.70968 8.7259C9.70968 9.25816 10.1452 9.69364 10.6774 9.69364H11.6452V12.113H13.5806ZM10.6774 4.37106H10.3508C5.94153 4.37106 2.31855 7.7884 1.99194 12.113H4.87097C4.87097 11.0485 5.74194 10.1775 6.80645 10.1775C7.87097 10.1775 8.74194 11.0485 8.74194 12.113H10.6774V10.6614C9.6129 10.6614 8.74194 9.79042 8.74194 8.7259C8.74194 7.66139 9.6129 6.79042 10.6774 6.79042V4.37106ZM1.97379 13.0747C2.06452 15.4759 3.17137 17.7017 5.04032 19.232L7.29032 21.0707V22.7521H10.6774V18.8811C9.6129 18.8811 8.74194 18.0102 8.74194 16.9457C8.74194 15.8811 9.6129 15.0102 10.6774 15.0102V13.0747H7.77419V12.1069C7.77419 11.5747 7.33871 11.1392 6.80645 11.1392C6.27419 11.1392 5.83871 11.5747 5.83871 12.1069V13.0747H1.97379ZM8.30645 27.5969C8.53024 28.6977 9.51008 29.5324 10.6774 29.5324C11.8448 29.5324 12.8246 28.6977 13.0484 27.5969H8.30645ZM7.77419 26.6291H13.5806C13.8468 26.6291 14.0645 26.4114 14.0645 26.1453C14.0645 25.8791 13.8468 25.6614 13.5806 25.6614H7.77419C7.50806 25.6614 7.29032 25.8791 7.29032 26.1453C7.29032 26.4114 7.50806 26.6291 7.77419 26.6291ZM13.5806 24.6936H14.5484C14.8145 24.6936 15.0323 24.4759 15.0323 24.2098C15.0323 23.9436 14.8145 23.7259 14.5484 23.7259H6.80645C6.54032 23.7259 6.32258 23.9436 6.32258 24.2098C6.32258 24.4759 6.54032 24.6936 6.80645 24.6936H7.77419H13.5806ZM14.0645 21.0707L16.3145 19.232C18.1835 17.7078 19.2903 15.4759 19.381 13.0747H16.4839V12.1069C16.4839 11.5747 16.0484 11.1392 15.5161 11.1392C14.9839 11.1392 14.5484 11.5747 14.5484 12.1069V13.0747H11.6452V15.9779H10.6774C10.1452 15.9779 9.70968 16.4134 9.70968 16.9457C9.70968 17.4779 10.1452 17.9134 10.6774 17.9134H11.6452V22.7521H14.0645V21.0707Z" fill="#121212"/>
<path d="M21.3226 9.20968H21.1226V9.40968H21.3226V9.20968ZM19.3871 9.20968V9.40968H19.5871V9.20968H19.3871ZM15.5161 9.20968H15.3161V9.40968H15.5161V9.20968ZM15.5161 6.79032H15.7161V6.59032H15.5161V6.79032ZM15.5161 2.91935V3.11935H15.7161V2.91935H15.5161ZM16.4839 3.8871V4.0871H16.6839V3.8871H16.4839ZM16.4839 5.82258H16.6839V5.62258H16.4839V5.82258ZM16.4839 8.24194H16.2839V8.44194H16.4839V8.24194ZM18.4193 8.24194V8.44194H18.6193V8.24194H18.4193ZM22.2903 8.24194H22.0903V8.44194H22.2903V8.24194ZM13.5806 12.113V12.313H13.7806V12.113H13.5806ZM17.4516 12.113H17.2516V12.313H17.4516V12.113ZM20.3548 12.113H20.5548V11.913H20.3548V12.113ZM16.9254 19.988L17.052 20.1428L17.0522 20.1427L16.9254 19.988ZM15.0323 21.5364L14.9056 21.3816L14.8323 21.4416V21.5364H15.0323ZM15.0323 22.8489H14.8323V22.9901L14.9654 23.0374L15.0323 22.8489ZM14.9234 25.607L14.8704 25.4141L14.6462 25.4757L14.7406 25.6882L14.9234 25.607ZM14.0403 27.5182L13.9765 27.3287L13.8567 27.3691L13.8417 27.4946L14.0403 27.5182ZM7.31452 27.5182L7.51311 27.4946L7.49816 27.3691L7.37836 27.3287L7.31452 27.5182ZM6.43145 25.607L6.6176 25.6801L6.69896 25.473L6.4844 25.4141L6.43145 25.607ZM6.32258 22.8489L6.38946 23.0374L6.52258 22.9901V22.8489H6.32258ZM6.32258 21.5364H6.52258V21.4416L6.4492 21.3816L6.32258 21.5364ZM4.42944 19.988L4.30267 20.1427L4.30282 20.1428L4.42944 19.988ZM11.6452 3.40332H11.8452V3.20332H11.6452V3.40332ZM11.6452 7.75816V7.95816H11.8452V7.75816H11.6452ZM11.6452 9.69364H11.8452V9.49364H11.6452V9.69364ZM11.6452 12.113H11.4452V12.313H11.6452V12.113ZM10.6774 4.37106H10.8774V4.17106H10.6774V4.37106ZM1.99194 12.113L1.7925 12.0979L1.77626 12.313H1.99194V12.113ZM4.87097 12.113V12.313H5.07097V12.113H4.87097ZM8.74194 12.113H8.54194V12.313H8.74194V12.113ZM10.6774 12.113V12.313H10.8774V12.113H10.6774ZM10.6774 10.6614H10.8774V10.4614H10.6774V10.6614ZM10.6774 6.79042V6.99042H10.8774V6.79042H10.6774ZM5.04032 19.232L4.91362 19.3867L4.91377 19.3868L5.04032 19.232ZM1.97379 13.0747V12.8747H1.76609L1.77393 13.0822L1.97379 13.0747ZM7.29032 21.0707H7.49032V20.9758L7.41688 20.9158L7.29032 21.0707ZM7.29032 22.7521H7.09032V22.9521H7.29032V22.7521ZM10.6774 22.7521V22.9521H10.8774V22.7521H10.6774ZM10.6774 18.8811H10.8774V18.6811H10.6774V18.8811ZM10.6774 15.0102V15.2102H10.8774V15.0102H10.6774ZM10.6774 13.0747H10.8774V12.8747H10.6774V13.0747ZM7.77419 13.0747H7.57419V13.2747H7.77419V13.0747ZM5.83871 13.0747V13.2747H6.03871V13.0747H5.83871ZM8.30645 27.5969V27.3969H8.0617L8.11046 27.6367L8.30645 27.5969ZM13.0484 27.5969L13.2444 27.6367L13.2931 27.3969H13.0484V27.5969ZM16.3145 19.232L16.1881 19.077L16.188 19.0771L16.3145 19.232ZM14.0645 21.0707L13.938 20.9158L13.8645 20.9758V21.0707H14.0645ZM19.381 13.0747L19.5809 13.0822L19.5887 12.8747H19.381V13.0747ZM16.4839 13.0747H16.2839V13.2747H16.4839V13.0747ZM14.5484 13.0747V13.2747H14.7484V13.0747H14.5484ZM11.6452 13.0747V12.8747H11.4452V13.0747H11.6452ZM11.6452 15.9779V16.1779H11.8452V15.9779H11.6452ZM11.6452 17.9134H11.8452V17.7134H11.6452V17.9134ZM11.6452 22.7521H11.4452V22.9521H11.6452V22.7521ZM14.0645 22.7521V22.9521H14.2645V22.7521H14.0645ZM23.7419 0.3H16.9677V0.7H23.7419V0.3ZM25.3935 1.95161C25.3935 1.03618 24.6502 0.3 23.7419 0.3V0.7C24.4304 0.7 24.9935 1.25818 24.9935 1.95161H25.3935ZM25.3935 7.75806V1.95161H24.9935V7.75806H25.3935ZM23.7419 9.40968C24.6508 9.40968 25.3935 8.66691 25.3935 7.75806H24.9935C24.9935 8.44599 24.4299 9.00968 23.7419 9.00968V9.40968ZM21.3226 9.40968H23.7419V9.00968H21.3226V9.40968ZM21.1226 8.24194V9.20968H21.5226V8.24194H21.1226ZM20.3548 7.47419C20.7766 7.47419 21.1226 7.82013 21.1226 8.24194H21.5226C21.5226 7.59922 20.9975 7.07419 20.3548 7.07419V7.47419ZM19.5871 8.24194C19.5871 7.82013 19.933 7.47419 20.3548 7.47419V7.07419C19.7121 7.07419 19.1871 7.59922 19.1871 8.24194H19.5871ZM19.5871 9.20968V8.24194H19.1871V9.20968H19.5871ZM15.5161 9.40968H19.3871V9.00968H15.5161V9.40968ZM15.3161 6.79032V9.20968H15.7161V6.79032H15.3161ZM13.3806 4.85484C13.3806 6.02981 14.3411 6.99032 15.5161 6.99032V6.59032C14.5621 6.59032 13.7806 5.8089 13.7806 4.85484H13.3806ZM15.5161 2.71935C14.3411 2.71935 13.3806 3.67987 13.3806 4.85484H13.7806C13.7806 3.90078 14.5621 3.11935 15.5161 3.11935V2.71935ZM15.3161 1.95161V2.91935H15.7161V1.95161H15.3161ZM16.9677 0.3C16.0589 0.3 15.3161 1.04277 15.3161 1.95161H15.7161C15.7161 1.26368 16.2798 0.7 16.9677 0.7V0.3ZM24.0258 7.75806C24.0258 7.91374 23.8976 8.04194 23.7419 8.04194V8.44194C24.1185 8.44194 24.4258 8.13465 24.4258 7.75806H24.0258ZM24.0258 1.95161V7.75806H24.4258V1.95161H24.0258ZM23.7419 1.66774C23.8976 1.66774 24.0258 1.79594 24.0258 1.95161H24.4258C24.4258 1.57503 24.1185 1.26774 23.7419 1.26774V1.66774ZM16.9677 1.66774H23.7419V1.26774H16.9677V1.66774ZM16.6839 1.95161C16.6839 1.79594 16.8121 1.66774 16.9677 1.66774V1.26774C16.5911 1.26774 16.2839 1.57503 16.2839 1.95161H16.6839ZM16.6839 3.8871V1.95161H16.2839V3.8871H16.6839ZM15.5161 4.0871H16.4839V3.6871H15.5161V4.0871ZM14.7484 4.85484C14.7484 4.43304 15.0943 4.0871 15.5161 4.0871V3.6871C14.8734 3.6871 14.3484 4.21212 14.3484 4.85484H14.7484ZM15.5161 5.62258C15.0943 5.62258 14.7484 5.27664 14.7484 4.85484H14.3484C14.3484 5.49755 14.8734 6.02258 15.5161 6.02258V5.62258ZM16.4839 5.62258H15.5161V6.02258H16.4839V5.62258ZM16.6839 8.24194V5.82258H16.2839V8.24194H16.6839ZM18.4193 8.04194H16.4839V8.44194H18.4193V8.04194ZM20.3548 6.10645C19.1798 6.10645 18.2193 7.06696 18.2193 8.24194H18.6193C18.6193 7.28788 19.4008 6.50645 20.3548 6.50645V6.10645ZM22.4903 8.24194C22.4903 7.06696 21.5298 6.10645 20.3548 6.10645V6.50645C21.3089 6.50645 22.0903 7.28788 22.0903 8.24194H22.4903ZM23.7419 8.04194H22.2903V8.44194H23.7419V8.04194ZM15.5161 9.97751C14.3412 9.97751 13.3806 10.938 13.3806 12.113H13.7806C13.7806 11.1589 14.5621 10.3775 15.5161 10.3775V9.97751ZM17.6516 12.113C17.6516 10.9316 16.6907 9.97751 15.5161 9.97751V10.3775C16.4706 10.3775 17.2516 11.1533 17.2516 12.113H17.6516ZM20.3548 11.913H17.4516V12.313H20.3548V11.913ZM20.5548 12.7541V12.113H20.1548V12.7541H20.5548ZM17.0522 20.1427C19.2758 18.3206 20.5548 15.6268 20.5548 12.7541H20.1548C20.1548 15.5065 18.9299 18.0869 16.7986 19.8333L17.0522 20.1427ZM15.1589 21.6912L17.052 20.1428L16.7988 19.8332L14.9056 21.3816L15.1589 21.6912ZM15.2323 22.8489V21.5364H14.8323V22.8489H15.2323ZM16.2 24.2098C16.2 23.492 15.7375 22.8869 15.0991 22.6604L14.9654 23.0374C15.452 23.21 15.8 23.6695 15.8 24.2098H16.2ZM14.9763 25.7998C15.6752 25.608 16.2 24.9762 16.2 24.2098H15.8C15.8 24.7861 15.4054 25.2672 14.8704 25.4141L14.9763 25.7998ZM15.2323 26.1453C15.2323 25.9265 15.1912 25.7171 15.1061 25.5257L14.7406 25.6882C14.8007 25.8235 14.8323 25.9769 14.8323 26.1453H15.2323ZM14.1042 27.7078C14.7562 27.4881 15.2323 26.8763 15.2323 26.1453H14.8323C14.8323 26.6965 14.4736 27.1613 13.9765 27.3287L14.1042 27.7078ZM10.6774 30.7001C12.5098 30.7001 14.0275 29.3167 14.2389 27.5419L13.8417 27.4946C13.654 29.0706 12.3047 30.3001 10.6774 30.3001V30.7001ZM7.11592 27.5419C7.32736 29.3167 8.84506 30.7001 10.6774 30.7001V30.3001C9.0501 30.3001 7.70087 29.0706 7.51311 27.4946L7.11592 27.5419ZM6.12258 26.1453C6.12258 26.8763 6.59861 27.4881 7.25067 27.7078L7.37836 27.3287C6.88123 27.1613 6.52258 26.6965 6.52258 26.1453H6.12258ZM6.2453 25.5338C6.1717 25.7212 6.12258 25.9276 6.12258 26.1453H6.52258C6.52258 25.9879 6.55814 25.8314 6.6176 25.6801L6.2453 25.5338ZM5.15484 24.2098C5.15484 24.9762 5.6796 25.608 6.37851 25.7998L6.4844 25.4141C5.94944 25.2672 5.55484 24.7861 5.55484 24.2098H5.15484ZM6.2557 22.6604C5.6173 22.8869 5.15484 23.492 5.15484 24.2098H5.55484C5.55484 23.6695 5.90286 23.21 6.38946 23.0374L6.2557 22.6604ZM6.12258 21.5364V22.8489H6.52258V21.5364H6.12258ZM4.30282 20.1428L6.19596 21.6912L6.4492 21.3816L4.55606 19.8332L4.30282 20.1428ZM0.8 12.7541C0.8 15.6268 2.07905 18.3206 4.30267 20.1427L4.5562 19.8333C2.42498 18.0869 1.2 15.5065 1.2 12.7541H0.8ZM10.3508 3.20332C5.08721 3.20332 0.8 7.48431 0.8 12.7541H1.2C1.2 7.70539 5.30795 3.60332 10.3508 3.60332V3.20332ZM11.6452 3.20332H10.3508V3.60332H11.6452V3.20332ZM11.8452 7.75816V3.40332H11.4452V7.75816H11.8452ZM10.6774 7.95816H11.6452V7.55816H10.6774V7.95816ZM9.90968 8.7259C9.90968 8.3041 10.2556 7.95816 10.6774 7.95816V7.55816C10.0347 7.55816 9.50968 8.08319 9.50968 8.7259H9.90968ZM10.6774 9.49364C10.2556 9.49364 9.90968 9.1477 9.90968 8.7259H9.50968C9.50968 9.36862 10.0347 9.89364 10.6774 9.89364V9.49364ZM11.6452 9.49364H10.6774V9.89364H11.6452V9.49364ZM11.8452 12.113V9.69364H11.4452V12.113H11.8452ZM13.5806 11.913H11.6452V12.313H13.5806V11.913ZM10.3508 4.57106H10.6774V4.17106H10.3508V4.57106ZM2.19137 12.1281C2.51016 7.907 6.04693 4.57106 10.3508 4.57106V4.17106C5.83613 4.17106 2.12694 7.66981 1.7925 12.0979L2.19137 12.1281ZM4.87097 11.913H1.99194V12.313H4.87097V11.913ZM6.80645 9.97751C5.63148 9.97751 4.67097 10.938 4.67097 12.113H5.07097C5.07097 11.1589 5.85239 10.3775 6.80645 10.3775V9.97751ZM8.94194 12.113C8.94194 10.938 7.98142 9.97751 6.80645 9.97751V10.3775C7.76051 10.3775 8.54194 11.1589 8.54194 12.113H8.94194ZM10.6774 11.913H8.74194V12.313H10.6774V11.913ZM10.4774 10.6614V12.113H10.8774V10.6614H10.4774ZM8.54194 8.7259C8.54194 9.90087 9.50245 10.8614 10.6774 10.8614V10.4614C9.72336 10.4614 8.94194 9.67996 8.94194 8.7259H8.54194ZM10.6774 6.59042C9.50245 6.59042 8.54194 7.55093 8.54194 8.7259H8.94194C8.94194 7.77184 9.72336 6.99042 10.6774 6.99042V6.59042ZM10.4774 4.37106V6.79042H10.8774V4.37106H10.4774ZM5.16702 19.0772C3.34227 17.5832 2.2622 15.4109 2.17365 13.0671L1.77393 13.0822C1.86683 15.5409 3.00047 17.8203 4.91362 19.3867L5.16702 19.0772ZM7.41688 20.9158L5.16688 19.0771L4.91377 19.3868L7.16377 21.2255L7.41688 20.9158ZM7.49032 22.7521V21.0707H7.09032V22.7521H7.49032ZM10.6774 22.5521H7.29032V22.9521H10.6774V22.5521ZM10.4774 18.8811V22.7521H10.8774V18.8811H10.4774ZM8.54194 16.9457C8.54194 18.1206 9.50245 19.0811 10.6774 19.0811V18.6811C9.72336 18.6811 8.94194 17.8997 8.94194 16.9457H8.54194ZM10.6774 14.8102C9.50245 14.8102 8.54194 15.7707 8.54194 16.9457H8.94194C8.94194 15.9916 9.72336 15.2102 10.6774 15.2102V14.8102ZM10.4774 13.0747V15.0102H10.8774V13.0747H10.4774ZM7.77419 13.2747H10.6774V12.8747H7.77419V13.2747ZM7.57419 12.1069V13.0747H7.97419V12.1069H7.57419ZM6.80645 11.3392C7.22825 11.3392 7.57419 11.6851 7.57419 12.1069H7.97419C7.97419 11.4642 7.44917 10.9392 6.80645 10.9392V11.3392ZM6.03871 12.1069C6.03871 11.6851 6.38465 11.3392 6.80645 11.3392V10.9392C6.16374 10.9392 5.63871 11.4642 5.63871 12.1069H6.03871ZM6.03871 13.0747V12.1069H5.63871V13.0747H6.03871ZM1.97379 13.2747H5.83871V12.8747H1.97379V13.2747ZM10.6774 29.3324C9.60714 29.3324 8.70768 28.5666 8.50244 27.557L8.11046 27.6367C8.3528 28.8288 9.41303 29.7324 10.6774 29.7324V29.3324ZM12.8524 27.557C12.6472 28.5666 11.7477 29.3324 10.6774 29.3324V29.7324C11.9418 29.7324 13.002 28.8288 13.2444 27.6367L12.8524 27.557ZM8.30645 27.7969H13.0484V27.3969H8.30645V27.7969ZM13.5806 26.4291H7.77419V26.8291H13.5806V26.4291ZM13.8645 26.1453C13.8645 26.3009 13.7363 26.4291 13.5806 26.4291V26.8291C13.9572 26.8291 14.2645 26.5218 14.2645 26.1453H13.8645ZM13.5806 25.8614C13.7363 25.8614 13.8645 25.9896 13.8645 26.1453H14.2645C14.2645 25.7687 13.9572 25.4614 13.5806 25.4614V25.8614ZM7.77419 25.8614H13.5806V25.4614H7.77419V25.8614ZM7.49032 26.1453C7.49032 25.9896 7.61852 25.8614 7.77419 25.8614V25.4614C7.39761 25.4614 7.09032 25.7687 7.09032 26.1453H7.49032ZM7.77419 26.4291C7.61852 26.4291 7.49032 26.3009 7.49032 26.1453H7.09032C7.09032 26.5218 7.39761 26.8291 7.77419 26.8291V26.4291ZM14.5484 24.4936H13.5806V24.8936H14.5484V24.4936ZM14.8323 24.2098C14.8323 24.3654 14.7041 24.4936 14.5484 24.4936V24.8936C14.925 24.8936 15.2323 24.5864 15.2323 24.2098H14.8323ZM14.5484 23.9259C14.7041 23.9259 14.8323 24.0541 14.8323 24.2098H15.2323C15.2323 23.8332 14.925 23.5259 14.5484 23.5259V23.9259ZM6.80645 23.9259H14.5484V23.5259H6.80645V23.9259ZM6.52258 24.2098C6.52258 24.0541 6.65078 23.9259 6.80645 23.9259V23.5259C6.42987 23.5259 6.12258 23.8332 6.12258 24.2098H6.52258ZM6.80645 24.4936C6.65078 24.4936 6.52258 24.3654 6.52258 24.2098H6.12258C6.12258 24.5864 6.42987 24.8936 6.80645 24.8936V24.4936ZM7.77419 24.4936H6.80645V24.8936H7.77419V24.4936ZM13.5806 24.4936H7.77419V24.8936H13.5806V24.4936ZM16.188 19.0771L13.938 20.9158L14.1911 21.2255L16.4411 19.3868L16.188 19.0771ZM19.1812 13.0671C19.0926 15.4111 18.0124 17.5892 16.1881 19.077L16.4409 19.3869C18.3545 17.8263 19.488 15.5407 19.5809 13.0822L19.1812 13.0671ZM16.4839 13.2747H19.381V12.8747H16.4839V13.2747ZM16.2839 12.1069V13.0747H16.6839V12.1069H16.2839ZM15.5161 11.3392C15.9379 11.3392 16.2839 11.6851 16.2839 12.1069H16.6839C16.6839 11.4642 16.1588 10.9392 15.5161 10.9392V11.3392ZM14.7484 12.1069C14.7484 11.6851 15.0943 11.3392 15.5161 11.3392V10.9392C14.8734 10.9392 14.3484 11.4642 14.3484 12.1069H14.7484ZM14.7484 13.0747V12.1069H14.3484V13.0747H14.7484ZM11.6452 13.2747H14.5484V12.8747H11.6452V13.2747ZM11.8452 15.9779V13.0747H11.4452V15.9779H11.8452ZM10.6774 16.1779H11.6452V15.7779H10.6774V16.1779ZM9.90968 16.9457C9.90968 16.5239 10.2556 16.1779 10.6774 16.1779V15.7779C10.0347 15.7779 9.50968 16.3029 9.50968 16.9457H9.90968ZM10.6774 17.7134C10.2556 17.7134 9.90968 17.3675 9.90968 16.9457H9.50968C9.50968 17.5884 10.0347 18.1134 10.6774 18.1134V17.7134ZM11.6452 17.7134H10.6774V18.1134H11.6452V17.7134ZM11.8452 22.7521V17.9134H11.4452V22.7521H11.8452ZM14.0645 22.5521H11.6452V22.9521H14.0645V22.5521ZM13.8645 21.0707V22.7521H14.2645V21.0707H13.8645Z" fill="#121212" mask="url(#path-1-outside-1_54_2308)"/>
</svg>
