<svg width="30" height="30" viewBox="0 0 30 30" fill="none" xmlns="http://www.w3.org/2000/svg">
<path fill-rule="evenodd" clip-rule="evenodd" d="M2.4248 2.42373C2.4248 2.05164 2.72644 1.75 3.09853 1.75H27.3019C27.674 1.75 27.9757 2.05164 27.9757 2.42373V21.8814C27.9757 22.2534 27.674 22.5551 27.3019 22.5551H12.1358C11.9371 22.5497 11.7367 22.6229 11.5851 22.7745L7.17053 27.1891V23.3124C7.17056 23.31 7.17057 23.3075 7.17057 23.3051C7.17057 23.2792 7.16926 23.2536 7.16669 23.2284C7.16503 23.212 7.16284 23.1958 7.16013 23.1797C7.10057 22.825 6.79212 22.5548 6.42053 22.5548C6.41368 22.5548 6.40685 22.5549 6.40004 22.5551H3.09853C2.72644 22.5551 2.4248 22.2534 2.4248 21.8814V2.42373ZM5.67053 24.0551H3.09853C1.89802 24.0551 0.924805 23.0819 0.924805 21.8814V2.42373C0.924805 1.22321 1.89802 0.25 3.09853 0.25H27.3019C28.5024 0.25 29.4757 1.22321 29.4757 2.42373V21.8814C29.4757 23.0819 28.5024 24.0551 27.3019 24.0551H12.4258L6.95086 29.5301C6.73636 29.7446 6.41378 29.8087 6.13352 29.6926C5.85326 29.5765 5.67053 29.3031 5.67053 28.9997V24.0551ZM21.8063 11.0258C21.7287 11.3608 21.3839 11.9071 20.3223 12.4631C19.1523 13.076 17.4321 13.5001 15.4498 13.5001C13.4676 13.5001 11.7473 13.076 10.5774 12.4631C9.33636 11.8131 9.07483 11.1764 9.07483 10.8751C9.07483 10.5737 9.33636 9.93705 10.5774 9.28699C11.7473 8.67415 13.4676 8.25006 15.4498 8.25006C17.4321 8.25006 19.1523 8.67415 20.3223 9.28699C21.5633 9.93705 21.8248 10.5737 21.8248 10.8751C21.8248 10.9028 21.8226 10.9334 21.8176 10.9666H21.8063V11.0258ZM21.8063 13.3106C20.3734 14.3349 18.0599 15.0001 15.4498 15.0001C12.8249 15.0001 10.4999 14.3273 9.06897 13.2931V14.3644C9.06897 14.5873 9.09574 14.7158 9.13664 14.7978C9.55893 15.6439 11.2075 17.3353 15.4376 17.3353C19.6678 17.3353 21.3163 15.6439 21.7386 14.7978C21.7795 14.7158 21.8063 14.5873 21.8063 14.3644V13.3106ZM23.3063 11.1606V14.3644C23.3063 14.6707 23.2761 15.0761 23.0807 15.4676C22.3389 16.9539 20.0729 18.8353 15.4376 18.8353C10.8024 18.8353 8.53628 16.9539 7.7945 15.4676C7.5991 15.0761 7.56897 14.6707 7.56897 14.3644V10.9666H7.57673C7.57546 10.9362 7.57483 10.9057 7.57483 10.8751C7.57483 8.59689 11.1006 6.75006 15.4498 6.75006C19.7991 6.75006 23.3248 8.59689 23.3248 10.8751C23.3248 10.971 23.3186 11.0662 23.3063 11.1606Z" fill="#121212"/>
</svg>
