<svg width="41" height="40" viewBox="0 0 41 40" fill="none" xmlns="http://www.w3.org/2000/svg">
<path fill-rule="evenodd" clip-rule="evenodd" d="M0.867188 3.33333C0.867188 1.49238 2.35957 0 4.20052 0C6.04147 0 7.53385 1.49238 7.53385 3.33333C7.53385 4.37223 7.05858 5.30013 6.3136 5.91145L8.24446 9.77316C9.06609 9.48817 9.94856 9.33333 10.8672 9.33333C13.9862 9.33333 16.6884 11.1183 18.0079 13.7225L25.4009 10.879C25.0562 9.98565 24.8672 9.0149 24.8672 8C24.8672 7.88947 24.8694 7.77946 24.8739 7.67002L22.006 6.23606C21.396 6.90997 20.5144 7.33333 19.5339 7.33333C17.6929 7.33333 16.2005 5.84095 16.2005 4C16.2005 2.15905 17.6929 0.666667 19.5339 0.666667C21.3748 0.666667 22.8672 2.15905 22.8672 4C22.8672 4.38007 22.8036 4.74529 22.6864 5.08558L25.0548 6.26977C25.8455 2.68326 29.043 0 32.8672 0C37.2855 0 40.8672 3.58172 40.8672 8C40.8672 10.4495 39.7663 12.6418 38.0324 14.1093C37.9865 14.161 37.9327 14.2054 37.8728 14.2408C36.5024 15.3415 34.7617 16 32.8672 16C32.1224 16 31.4015 15.8982 30.7174 15.7078L27.1724 24.5702C28.7986 25.2213 30.1612 26.3907 31.0559 27.8742L34.3556 25.6744C34.2549 25.3565 34.2005 25.0179 34.2005 24.6667C34.2005 22.8257 35.6929 21.3333 37.5339 21.3333C39.3748 21.3333 40.8672 22.8257 40.8672 24.6667C40.8672 26.5076 39.3748 28 37.5339 28C36.5242 28 35.6193 27.5511 35.008 26.8419L31.6509 29.08C32.0057 29.9846 32.2005 30.9696 32.2005 32C32.2005 34.4495 31.0997 36.6418 29.3657 38.1093C29.3198 38.161 29.266 38.2054 29.2062 38.2408C27.8357 39.3415 26.095 40 24.2005 40C22.306 40 20.5653 39.3415 19.1949 38.2408C19.135 38.2054 19.0812 38.161 19.0353 38.1093C17.8397 37.0974 16.945 35.7408 16.5048 34.1929L13.4407 35.2143C13.5016 35.4662 13.5339 35.7293 13.5339 36C13.5339 37.8409 12.0415 39.3333 10.2005 39.3333C8.35957 39.3333 6.86719 37.8409 6.86719 36C6.86719 34.1591 8.35957 32.6667 10.2005 32.6667C11.291 32.6667 12.2592 33.1903 12.8674 33.9999L16.2476 32.8732C16.2165 32.5864 16.2005 32.2951 16.2005 32C16.2005 29.9304 16.9864 28.0443 18.2761 26.624L15.7896 23.6401C14.4322 24.7011 12.7235 25.3333 10.8672 25.3333C9.71541 25.3333 8.62048 25.0899 7.63104 24.6518L6.35052 26.786C7.07425 27.3974 7.53385 28.3117 7.53385 29.3333C7.53385 31.1743 6.04147 32.6667 4.20052 32.6667C2.35957 32.6667 0.867188 31.1743 0.867188 29.3333C0.867188 27.4924 2.35957 26 4.20052 26C4.54121 26 4.86996 26.0511 5.17952 26.1461L6.46043 24.0112C6.25389 23.8747 6.05407 23.7288 5.86154 23.5742C5.80171 23.5388 5.74789 23.4943 5.70198 23.4426C3.96804 21.9751 2.86719 19.7828 2.86719 17.3333C2.86719 14.3077 4.54686 11.6743 7.02461 10.3149L5.13423 6.53413C4.83796 6.62041 4.52464 6.66667 4.20052 6.66667C2.35957 6.66667 0.867188 5.17428 0.867188 3.33333ZM4.20052 1.33333C3.09595 1.33333 2.20052 2.22876 2.20052 3.33333C2.20052 4.4379 3.09595 5.33333 4.20052 5.33333C5.30509 5.33333 6.20052 4.4379 6.20052 3.33333C6.20052 2.22876 5.30509 1.33333 4.20052 1.33333ZM18.8672 17.3333C18.8672 16.5064 18.7417 15.7087 18.5088 14.9584L25.9859 12.0826C26.4424 12.8504 27.0237 13.5353 27.702 14.1093C27.7479 14.161 27.8017 14.2054 27.8615 14.2408C28.3525 14.6351 28.891 14.9727 29.4671 15.2436L25.8928 24.1793C25.3473 24.0618 24.7811 24 24.2005 24C22.3326 24 20.6141 24.6402 19.2527 25.7132L16.7696 22.7335C18.0723 21.3104 18.8672 19.4147 18.8672 17.3333ZM26.2005 8C26.2005 4.3181 29.1853 1.33333 32.8672 1.33333C36.5491 1.33333 39.5339 4.3181 39.5339 8C39.5339 9.67126 38.9189 11.1989 37.9029 12.3689C37.6201 11.7453 37.1554 11.1673 36.5954 10.6976C36.1686 10.3395 35.6688 10.0284 35.1158 9.79404C35.7824 9.18454 36.2005 8.30777 36.2005 7.33333C36.2005 5.49238 34.7081 4 32.8672 4C31.0262 4 29.5339 5.49238 29.5339 7.33333C29.5339 8.30777 29.952 9.18454 30.6186 9.79404C30.0656 10.0284 29.5658 10.3395 29.1389 10.6976C28.5789 11.1673 28.1143 11.7453 27.8315 12.3689C26.8155 11.1989 26.2005 9.67126 26.2005 8ZM35.7386 11.7191C36.3624 12.2423 36.727 12.8439 36.8339 13.3587C35.7254 14.1805 34.3531 14.6667 32.8672 14.6667C31.3813 14.6667 30.0089 14.1805 28.9005 13.3587C29.0074 12.8439 29.372 12.2423 29.9958 11.7191C30.7323 11.1013 31.7503 10.6667 32.8672 10.6667C33.9841 10.6667 35.002 11.1013 35.7386 11.7191ZM34.8672 7.33333C34.8672 8.4379 33.9718 9.33333 32.8672 9.33333C31.7626 9.33333 30.8672 8.4379 30.8672 7.33333C30.8672 6.22876 31.7626 5.33333 32.8672 5.33333C33.9718 5.33333 34.8672 6.22876 34.8672 7.33333ZM10.8672 10.6667C7.18529 10.6667 4.20052 13.6514 4.20052 17.3333C4.20052 19.0046 4.81549 20.5322 5.83149 21.7023C6.11431 21.0786 6.57894 20.5006 7.13893 20.0309C7.56579 19.6729 8.06555 19.3617 8.61859 19.1274C7.95198 18.5179 7.53385 17.6411 7.53385 16.6667C7.53385 14.8257 9.02624 13.3333 10.8672 13.3333C12.7081 13.3333 14.2005 14.8257 14.2005 16.6667C14.2005 17.6411 13.7824 18.5179 13.1158 19.1274C13.6688 19.3617 14.1686 19.6729 14.5954 20.0309C15.1554 20.5006 15.6201 21.0786 15.9029 21.7023C16.9189 20.5322 17.5339 19.0046 17.5339 17.3333C17.5339 13.6514 14.5491 10.6667 10.8672 10.6667ZM14.8339 22.692C14.727 22.1772 14.3624 21.5757 13.7386 21.0524C13.002 20.4347 11.9841 20 10.8672 20C9.75032 20 8.73234 20.4347 7.99578 21.0524C7.37198 21.5757 7.00742 22.1772 6.90049 22.692C8.00894 23.5139 9.3813 24 10.8672 24C12.3531 24 13.7254 23.5139 14.8339 22.692ZM10.8672 18.6667C11.9718 18.6667 12.8672 17.7712 12.8672 16.6667C12.8672 15.5621 11.9718 14.6667 10.8672 14.6667C9.76262 14.6667 8.86719 15.5621 8.86719 16.6667C8.86719 17.7712 9.76262 18.6667 10.8672 18.6667ZM4.20052 27.3333C3.09595 27.3333 2.20052 28.2288 2.20052 29.3333C2.20052 30.4379 3.09595 31.3333 4.20052 31.3333C5.30509 31.3333 6.20052 30.4379 6.20052 29.3333C6.20052 28.2288 5.30509 27.3333 4.20052 27.3333ZM37.5339 22.6667C36.4293 22.6667 35.5339 23.5621 35.5339 24.6667C35.5339 25.7712 36.4293 26.6667 37.5339 26.6667C38.6384 26.6667 39.5339 25.7712 39.5339 24.6667C39.5339 23.5621 38.6384 22.6667 37.5339 22.6667ZM24.2005 25.3333C20.5186 25.3333 17.5339 28.3181 17.5339 32C17.5339 33.6713 18.1488 35.1989 19.1648 36.3689C19.4476 35.7453 19.9123 35.1673 20.4723 34.6976C20.8991 34.3395 21.3989 34.0284 21.9519 33.794C21.2853 33.1845 20.8672 32.3078 20.8672 31.3333C20.8672 29.4924 22.3596 28 24.2005 28C26.0415 28 27.5339 29.4924 27.5339 31.3333C27.5339 32.3078 27.1157 33.1845 26.4491 33.794C27.0022 34.0284 27.5019 34.3395 27.9288 34.6976C28.4888 35.1673 28.9534 35.7453 29.2362 36.3689C30.2522 35.1989 30.8672 33.6713 30.8672 32C30.8672 28.3181 27.8824 25.3333 24.2005 25.3333ZM28.1672 37.3587C28.0603 36.8439 27.6957 36.2423 27.0719 35.7191C26.3354 35.1013 25.3174 34.6667 24.2005 34.6667C23.0837 34.6667 22.0657 35.1013 21.3291 35.7191C20.7053 36.2423 20.3408 36.8439 20.2338 37.3587C21.3423 38.1805 22.7146 38.6667 24.2005 38.6667C25.6864 38.6667 27.0588 38.1805 28.1672 37.3587ZM24.2005 33.3333C25.3051 33.3333 26.2005 32.4379 26.2005 31.3333C26.2005 30.2288 25.3051 29.3333 24.2005 29.3333C23.096 29.3333 22.2005 30.2288 22.2005 31.3333C22.2005 32.4379 23.096 33.3333 24.2005 33.3333ZM8.20052 36C8.20052 34.8954 9.09595 34 10.2005 34C11.3051 34 12.2005 34.8954 12.2005 36C12.2005 37.1046 11.3051 38 10.2005 38C9.09595 38 8.20052 37.1046 8.20052 36ZM19.5339 2C18.4293 2 17.5339 2.89543 17.5339 4C17.5339 5.10457 18.4293 6 19.5339 6C20.6384 6 21.5339 5.10457 21.5339 4C21.5339 2.89543 20.6384 2 19.5339 2Z" fill="#3693FF"/>
</svg>
