<svg width="41" height="40" viewBox="0 0 41 40" fill="none" xmlns="http://www.w3.org/2000/svg">
<path fill-rule="evenodd" clip-rule="evenodd" d="M22.1703 0.016486L29.8569 1.57594C30.1419 1.63374 30.3565 1.8701 30.3874 2.15917L30.3875 2.16007L30.3877 2.16278L30.3887 2.17172L30.3918 2.20353C30.3944 2.23083 30.398 2.27019 30.4022 2.3209C30.4106 2.42229 30.4215 2.5691 30.432 2.75545C30.4529 3.12798 30.4721 3.65945 30.4661 4.30262C30.454 5.58609 30.3411 7.32852 29.9332 9.1461C29.1227 12.7573 27.0934 16.8491 22.1846 17.9803C22.1323 17.9934 22.078 18.0003 22.0228 18.0002C21.9676 18.0003 21.9133 17.9934 21.8611 17.9803C16.9522 16.8491 14.9229 12.7573 14.1124 9.1461C13.7045 7.32852 13.5916 5.58609 13.5795 4.30262C13.5735 3.65945 13.5927 3.12798 13.6137 2.75545C13.6241 2.5691 13.635 2.42229 13.6434 2.3209C13.6477 2.27019 13.6512 2.23083 13.6538 2.20353L13.6569 2.17172L13.6579 2.16278L13.6581 2.16007L13.6582 2.15917C13.6891 1.8701 13.9038 1.63374 14.1887 1.57594L21.8753 0.0164859C21.9231 0.00561058 21.9725 -5.45577e-05 22.0228 3.99262e-07C22.0731 -5.47803e-05 22.1225 0.00561038 22.1703 0.016486ZM22.0228 16.6482C26.0901 15.6446 27.8745 12.2301 28.6322 8.85411C29.0133 7.15608 29.1213 5.51309 29.1328 4.29007C29.1385 3.67998 29.1203 3.17792 29.1007 2.83024L29.098 2.78245L22.0228 1.34705L14.9476 2.78245L14.9449 2.83024C14.9253 3.17793 14.9071 3.67998 14.9128 4.29007C14.9243 5.51309 15.0323 7.15608 15.4134 8.85411C16.1711 12.2301 17.9555 15.6446 22.0228 16.6482Z" fill="#3693FF"/>
<path fill-rule="evenodd" clip-rule="evenodd" d="M21.873 2.23921L16.3857 3.38217C16.1017 3.44133 15.8885 3.67792 15.8585 3.96647L15.8582 3.96946L15.8575 3.97647L15.8552 4.00072C15.8532 4.02136 15.8506 4.05088 15.8476 4.08873C15.8414 4.16441 15.8336 4.27351 15.826 4.41168C15.8109 4.68786 15.797 5.08114 15.8014 5.55678C15.8101 6.50524 15.8913 7.79503 16.1858 9.14247C16.7685 11.8079 18.2425 14.9007 21.8584 15.7574C21.9115 15.7709 21.9666 15.778 22.0228 15.778C22.079 15.778 22.1342 15.7709 22.1872 15.7574C25.8031 14.9007 27.2771 11.8079 27.8598 9.14247C28.1543 7.79503 28.2355 6.50524 28.2442 5.55678C28.2486 5.08114 28.2347 4.68786 28.2196 4.41168C28.212 4.27351 28.2042 4.16441 28.198 4.08873C28.195 4.05088 28.1924 4.02136 28.1905 4.00072L28.1881 3.97647L28.1874 3.96946L28.1872 3.96725L28.1871 3.96647C28.1571 3.67792 27.9439 3.44133 27.6599 3.38217L22.1726 2.23921C22.124 2.228 22.0739 2.22215 22.0228 2.2222C21.9718 2.22215 21.9216 2.228 21.873 2.23921ZM22.0228 3.56997L17.1522 4.58446C17.1406 4.82909 17.1311 5.15668 17.1347 5.54455C17.1428 6.4342 17.2194 7.62704 17.4884 8.85772C18.0226 11.3011 19.2609 13.6997 22.0228 14.4243C24.7847 13.6997 26.023 11.3011 26.5572 8.85772C26.8262 7.62704 26.9028 6.4342 26.9109 5.54455C26.9145 5.15668 26.905 4.82909 26.8934 4.58446L22.0228 3.56997Z" fill="#3693FF"/>
<path fill-rule="evenodd" clip-rule="evenodd" d="M25.7892 5.71554C26.0691 5.95476 26.1021 6.37558 25.8629 6.65547L21.5894 11.6555C21.4696 11.7956 21.2971 11.8799 21.1129 11.8883C20.9287 11.8967 20.7492 11.8284 20.6172 11.6996L19.3352 10.4496C19.0715 10.1926 19.0662 9.77054 19.3232 9.50691C19.5803 9.24329 20.0023 9.23795 20.266 9.49498L21.0383 10.248L24.8493 5.78918C25.0885 5.50929 25.5094 5.47632 25.7892 5.71554Z" fill="#3693FF"/>
<path fill-rule="evenodd" clip-rule="evenodd" d="M1.8393 13.0741C1.51199 12.9055 1.10996 13.0341 0.94135 13.3614C0.772736 13.6888 0.901384 14.0908 1.22869 14.2594L12.2287 19.926C12.3977 20.0131 12.5958 20.0239 12.7733 19.9556C15.343 18.9673 20.3553 19.4309 25.7292 24.8048C26.0599 25.1355 25.9976 25.5064 25.8396 25.6751C25.7189 25.804 25.2507 26.0785 24.2206 25.4347C22.0872 24.1013 21.1683 23.3583 21.0053 23.1953C20.7489 22.9389 20.3345 22.9345 20.0727 23.1854L12.4468 30.4935C12.1314 30.2823 11.7534 29.9999 11.3884 29.6713C10.8303 29.1688 10.3635 28.6121 10.153 28.0858C10.0923 27.9342 9.97815 27.8101 9.83211 27.7371L1.83214 23.7371C1.50282 23.5724 1.10237 23.7059 0.937715 24.0352C0.773056 24.3646 0.906539 24.765 1.23586 24.9297L9.02234 28.8229C9.3677 29.532 9.9441 30.165 10.4962 30.6621C11.1203 31.2241 11.7762 31.6682 12.2032 31.9122L12.2052 31.9133C12.2766 33.0481 13.178 34 14.3488 34C14.3827 34 14.4164 33.9992 14.4499 33.9976C14.5594 35.0949 15.4449 36 16.5867 36C16.635 36 16.6829 35.9984 16.7304 35.9951C16.8388 37.0935 17.7247 38 18.8673 38C18.9335 38 18.9988 37.9969 19.0633 37.9909C19.1698 39.0911 20.0566 40 21.2007 40C21.9193 40 22.5447 39.6343 22.9291 39.0937C22.9583 39.0527 22.9822 39.0095 23.0009 38.965C23.5696 39.1394 24.2103 39.0557 24.7309 38.6821C25.3104 38.2663 25.5974 37.5944 25.5482 36.9315C26.15 37.1675 26.8555 37.1031 27.4198 36.6981C27.9643 36.3075 28.2505 35.6908 28.2424 35.068C28.65 35.074 29.0631 34.9541 29.4198 34.6982C29.9643 34.3075 30.2505 33.6908 30.2424 33.068C30.65 33.074 31.0631 32.9541 31.4198 32.6982C31.8868 32.3631 32.1638 31.8618 32.228 31.333C32.3195 31.3293 32.4116 31.3066 32.4987 31.263C32.5535 31.2356 32.6165 31.2058 32.6863 31.1728C32.9768 31.0353 33.3838 30.8426 33.801 30.5392C34.299 30.177 34.818 29.6599 35.3252 28.8607L40.4678 26.6108C40.8051 26.4632 40.9589 26.0702 40.8113 25.7328C40.6637 25.3955 40.2707 25.2417 39.9333 25.3893L34.6 27.7226C34.4732 27.7781 34.3668 27.8717 34.2956 27.9904C33.8387 28.7519 33.3982 29.1835 33.0168 29.4609C32.7104 29.6837 32.4438 29.8106 32.1631 29.9442C32.0909 29.9786 32.0178 30.0134 31.9428 30.0504C31.9206 30.0149 31.8972 29.98 31.8725 29.9455L30.9589 28.6723C30.3237 27.7872 29.0913 27.5846 28.2062 28.2197C27.6618 28.6104 27.3756 29.227 27.3837 29.8499C26.976 29.8439 26.5629 29.9638 26.2062 30.2197C25.6618 30.6104 25.3756 31.227 25.3837 31.8499C24.976 31.8439 24.5629 31.9637 24.2062 32.2197C23.6267 32.6356 23.3397 33.3075 23.389 33.9703C22.7871 33.7344 22.0816 33.7988 21.5173 34.2037C20.6322 34.8388 20.4295 36.0712 21.0647 36.9563L21.9556 38.1979C21.9138 38.2333 21.8757 38.2744 21.8425 38.321C21.6864 38.5407 21.4513 38.6667 21.2007 38.6667C20.7847 38.6667 20.3858 38.2994 20.3858 37.768C20.3858 37.5097 20.4839 37.2831 20.6344 37.1226C20.8862 36.8539 20.8725 36.432 20.6039 36.1803C20.3913 35.9811 20.0829 35.948 19.8387 36.0759C19.7102 36.1193 19.5938 36.2021 19.5092 36.321C19.353 36.5407 19.1179 36.6667 18.8673 36.6667C18.4514 36.6667 18.0525 36.2994 18.0525 35.7681C18.0525 35.5097 18.1506 35.2831 18.301 35.1226C18.5528 34.8539 18.5392 34.432 18.2705 34.1803C18.0044 33.9309 17.588 33.9419 17.3354 34.2032C17.2961 34.2373 17.2601 34.2767 17.2285 34.321C17.0724 34.5407 16.8373 34.6667 16.5867 34.6667C16.1707 34.6667 15.7718 34.2994 15.7718 33.7681C15.7718 33.6143 15.8066 33.4718 15.8664 33.3478C15.9429 33.2685 16.0134 33.1835 16.0773 33.0937C16.1651 32.9702 16.2049 32.827 16.2003 32.6864C16.2057 32.502 16.135 32.3163 15.9899 32.1803C15.7212 31.9285 15.2993 31.9422 15.0475 32.2108C14.9624 32.3016 14.8848 32.3998 14.8157 32.5043C14.6801 32.6092 14.518 32.6667 14.3488 32.6667C13.9329 32.6667 13.534 32.2994 13.534 31.7681C13.534 31.5097 13.632 31.2832 13.7825 31.1226C13.8327 31.069 13.8724 31.0093 13.9016 30.9461L20.5637 24.5616C21.1055 24.9829 22.0524 25.6519 23.5139 26.5654C24.8171 27.3799 26.0719 27.3774 26.8127 26.5866C27.5162 25.8355 27.4539 24.6439 26.672 23.862C25.7196 22.9096 24.7694 22.0967 23.8322 21.4093C24.6324 21.0907 25.3282 21.0438 25.9183 21.1196C26.7513 21.2267 27.4304 21.5852 27.9564 21.9037C28.1573 22.0254 28.4075 22.0323 28.6149 21.9219L40.5138 15.5886C40.8388 15.4156 40.962 15.0119 40.7891 14.6869C40.6161 14.3618 40.2123 14.2386 39.8873 14.4116L28.3165 20.5703C27.7581 20.2583 27.005 19.915 26.0883 19.7972C25.0576 19.6647 23.8664 19.8226 22.5535 20.5422C18.6116 18.0848 15.0012 17.8015 12.5819 18.6082L1.8393 13.0741ZM28.9836 29.303C28.6967 29.5088 28.6311 29.9082 28.8369 30.195L29.7505 31.4682C29.9563 31.755 30.3557 31.8207 30.6425 31.6149C30.9293 31.4091 30.995 31.0097 30.7892 30.7229L29.8756 29.4497C29.6698 29.1629 29.2704 29.0972 28.9836 29.303ZM26.8369 32.195C26.6311 31.9082 26.6967 31.5088 26.9836 31.303C27.2704 31.0972 27.6698 31.1628 27.8756 31.4497L28.7892 32.7229C28.995 33.0097 28.9293 33.409 28.6425 33.6149C28.3557 33.8207 27.9563 33.755 27.7505 33.4682L26.8369 32.195ZM24.9836 33.303C24.6967 33.5088 24.6311 33.9082 24.8369 34.195L25.7505 35.4682C25.9563 35.755 26.3557 35.8207 26.6425 35.6149C26.9293 35.409 26.995 35.0097 26.7892 34.7228L25.8756 33.4497C25.6698 33.1628 25.2704 33.0972 24.9836 33.303ZM22.2946 35.287C22.0078 35.4928 21.9421 35.8922 22.1479 36.179L23.0615 37.4522C23.2674 37.739 23.6667 37.8047 23.9536 37.5989C24.2404 37.393 24.306 36.9937 24.1002 36.7069L23.1866 35.4337C22.9808 35.1468 22.5814 35.0812 22.2946 35.287Z" fill="#3693FF"/>
</svg>
