<svg width="32" height="29" viewBox="0 0 32 29" fill="none" xmlns="http://www.w3.org/2000/svg">
<mask id="path-1-outside-1_54_2396" maskUnits="userSpaceOnUse" x="0" y="0" width="32" height="29" fill="black">
<rect fill="white" width="32" height="29"/>
<path fill-rule="evenodd" clip-rule="evenodd" d="M29.1575 14.5277C28.7974 15.9992 27.5556 17.0858 26.053 17.2472C24.7678 21.8418 20.5768 25.027 15.8021 25.0146H6.73084V26.7158C6.73084 27.0387 6.47007 27.2995 6.1472 27.2995H1.58364C1.26078 27.2995 1 27.0387 1 26.7158V22.1523C1 21.8294 1.26078 21.5686 1.58364 21.5686H6.1472C6.47007 21.5686 6.73084 21.8294 6.73084 22.1523V23.8535H15.8145C19.9807 23.8535 23.6564 21.1464 24.8858 17.1665C23.7123 16.8995 22.7561 16.0613 22.3277 14.9437C21.6199 13.0934 22.5512 11.0197 24.4015 10.3118C22.8492 7.00248 19.5274 4.88524 15.8704 4.87282L17.5778 6.58028C17.6834 6.68583 17.7455 6.82863 17.7455 6.98386C17.7517 7.30672 17.4909 7.5675 17.1681 7.57371C17.0128 7.57371 16.87 7.51162 16.7583 7.39986L14.0574 4.69897L14.0512 4.69276C13.8277 4.46303 13.8277 4.10291 14.0574 3.87939L16.7583 1.1723C16.988 0.942567 17.3543 0.942567 17.5841 1.1723C17.8138 1.40203 17.8138 1.76836 17.5841 1.99809L15.8704 3.71175C20.08 3.72417 23.8799 6.22016 25.5687 10.0759H25.6805C26.6491 10.0821 27.5804 10.4795 28.2572 11.1749L29.1327 10.2994C29.3624 10.0697 29.7287 10.0697 29.9585 10.2994C30.1882 10.5292 30.1882 10.8955 29.9585 11.1252L26.469 14.6271C26.3573 14.7326 26.2145 14.7947 26.0592 14.7947H25.9972C25.8233 14.7823 25.6681 14.6891 25.5687 14.5525L24.8361 13.4846C24.6995 13.2425 24.7492 12.9382 24.9603 12.7582C25.2024 12.5471 25.5687 12.5719 25.7798 12.814L26.1151 13.3045L27.419 12.0007C27.0961 11.6592 26.6801 11.4232 26.2207 11.3115C24.9106 11.001 23.5943 11.8082 23.2839 13.1183C22.9734 14.4284 23.7806 15.7447 25.0907 16.0551C26.4007 16.3656 27.717 15.5584 28.0275 14.2483C28.102 13.9441 28.4124 13.7516 28.7229 13.8261C29.0395 13.9006 29.232 14.2173 29.1575 14.5277ZM2.17349 26.1384H5.56977V22.7421H2.17349V26.1384ZM8.68665 22.072C8.84187 22.072 8.99088 22.0099 9.10264 21.8981C9.32617 21.6684 9.32617 21.302 9.10264 21.0785C5.39591 17.3718 5.39591 11.3616 9.10264 7.64861C9.95948 6.79178 10.9777 6.10259 12.0953 5.6245C12.3934 5.50653 12.5362 5.16504 12.4182 4.86701C12.3002 4.56898 11.9588 4.42618 11.6607 4.54415C11.6576 4.54415 11.6545 4.5457 11.6514 4.54725C11.6483 4.5488 11.6452 4.55036 11.6421 4.55036C6.22791 6.85387 3.70088 13.1063 6.00439 18.5267C6.53836 19.7809 7.30826 20.9295 8.27686 21.8919C8.38241 22.0099 8.53142 22.072 8.68665 22.072ZM30.8276 24.0642L28.1268 21.3572C27.897 21.1274 27.5245 21.1336 27.2948 21.3634C27.065 21.5931 27.0712 21.9656 27.301 22.1954L28.965 23.8594H23.5446C23.2217 23.8594 22.9609 24.1201 22.9609 24.443C22.9609 24.7659 23.2217 25.0266 23.5446 25.0266H29.0519L27.3072 26.7713C27.0775 27.0011 27.0837 27.3736 27.3072 27.5971C27.4189 27.7027 27.5618 27.7648 27.717 27.7648C27.8722 27.7648 28.0212 27.7027 28.1268 27.5909L30.8276 24.89C31.0574 24.6665 31.0574 24.3002 30.8276 24.0642Z"/>
</mask>
<path fill-rule="evenodd" clip-rule="evenodd" d="M29.1575 14.5277C28.7974 15.9992 27.5556 17.0858 26.053 17.2472C24.7678 21.8418 20.5768 25.027 15.8021 25.0146H6.73084V26.7158C6.73084 27.0387 6.47007 27.2995 6.1472 27.2995H1.58364C1.26078 27.2995 1 27.0387 1 26.7158V22.1523C1 21.8294 1.26078 21.5686 1.58364 21.5686H6.1472C6.47007 21.5686 6.73084 21.8294 6.73084 22.1523V23.8535H15.8145C19.9807 23.8535 23.6564 21.1464 24.8858 17.1665C23.7123 16.8995 22.7561 16.0613 22.3277 14.9437C21.6199 13.0934 22.5512 11.0197 24.4015 10.3118C22.8492 7.00248 19.5274 4.88524 15.8704 4.87282L17.5778 6.58028C17.6834 6.68583 17.7455 6.82863 17.7455 6.98386C17.7517 7.30672 17.4909 7.5675 17.1681 7.57371C17.0128 7.57371 16.87 7.51162 16.7583 7.39986L14.0574 4.69897L14.0512 4.69276C13.8277 4.46303 13.8277 4.10291 14.0574 3.87939L16.7583 1.1723C16.988 0.942567 17.3543 0.942567 17.5841 1.1723C17.8138 1.40203 17.8138 1.76836 17.5841 1.99809L15.8704 3.71175C20.08 3.72417 23.8799 6.22016 25.5687 10.0759H25.6805C26.6491 10.0821 27.5804 10.4795 28.2572 11.1749L29.1327 10.2994C29.3624 10.0697 29.7287 10.0697 29.9585 10.2994C30.1882 10.5292 30.1882 10.8955 29.9585 11.1252L26.469 14.6271C26.3573 14.7326 26.2145 14.7947 26.0592 14.7947H25.9972C25.8233 14.7823 25.6681 14.6891 25.5687 14.5525L24.8361 13.4846C24.6995 13.2425 24.7492 12.9382 24.9603 12.7582C25.2024 12.5471 25.5687 12.5719 25.7798 12.814L26.1151 13.3045L27.419 12.0007C27.0961 11.6592 26.6801 11.4232 26.2207 11.3115C24.9106 11.001 23.5943 11.8082 23.2839 13.1183C22.9734 14.4284 23.7806 15.7447 25.0907 16.0551C26.4007 16.3656 27.717 15.5584 28.0275 14.2483C28.102 13.9441 28.4124 13.7516 28.7229 13.8261C29.0395 13.9006 29.232 14.2173 29.1575 14.5277ZM2.17349 26.1384H5.56977V22.7421H2.17349V26.1384ZM8.68665 22.072C8.84187 22.072 8.99088 22.0099 9.10264 21.8981C9.32617 21.6684 9.32617 21.302 9.10264 21.0785C5.39591 17.3718 5.39591 11.3616 9.10264 7.64861C9.95948 6.79178 10.9777 6.10259 12.0953 5.6245C12.3934 5.50653 12.5362 5.16504 12.4182 4.86701C12.3002 4.56898 11.9588 4.42618 11.6607 4.54415C11.6576 4.54415 11.6545 4.5457 11.6514 4.54725C11.6483 4.5488 11.6452 4.55036 11.6421 4.55036C6.22791 6.85387 3.70088 13.1063 6.00439 18.5267C6.53836 19.7809 7.30826 20.9295 8.27686 21.8919C8.38241 22.0099 8.53142 22.072 8.68665 22.072ZM30.8276 24.0642L28.1268 21.3572C27.897 21.1274 27.5245 21.1336 27.2948 21.3634C27.065 21.5931 27.0712 21.9656 27.301 22.1954L28.965 23.8594H23.5446C23.2217 23.8594 22.9609 24.1201 22.9609 24.443C22.9609 24.7659 23.2217 25.0266 23.5446 25.0266H29.0519L27.3072 26.7713C27.0775 27.0011 27.0837 27.3736 27.3072 27.5971C27.4189 27.7027 27.5618 27.7648 27.717 27.7648C27.8722 27.7648 28.0212 27.7027 28.1268 27.5909L30.8276 24.89C31.0574 24.6665 31.0574 24.3002 30.8276 24.0642Z" fill="#121212"/>
<path d="M26.053 17.2472L26.0263 16.9987L25.8579 17.0167L25.8123 17.1799L26.053 17.2472ZM29.1575 14.5277L29.4003 14.5871L29.4006 14.5861L29.1575 14.5277ZM15.8021 25.0146L15.8027 24.7646H15.8021V25.0146ZM6.73084 25.0146V24.7646H6.48084V25.0146H6.73084ZM6.73084 23.8535H6.48084V24.1035H6.73084V23.8535ZM24.8858 17.1665L25.1246 17.2403L25.2042 16.9826L24.9412 16.9227L24.8858 17.1665ZM22.3277 14.9437L22.0942 15.033L22.0942 15.0332L22.3277 14.9437ZM24.4015 10.3118L24.4908 10.5453L24.742 10.4492L24.6278 10.2057L24.4015 10.3118ZM15.8704 4.87282L15.8712 4.62282L15.2648 4.62076L15.6936 5.0496L15.8704 4.87282ZM17.5778 6.58028L17.4011 6.75705L17.4011 6.75705L17.5778 6.58028ZM17.7455 6.98386H17.4954L17.4955 6.98866L17.7455 6.98386ZM17.1681 7.57371V7.82375L17.1729 7.82366L17.1681 7.57371ZM16.7583 7.39986L16.5815 7.57663L16.5815 7.57663L16.7583 7.39986ZM14.0574 4.69897L13.8806 4.87574L13.8806 4.87575L14.0574 4.69897ZM14.0512 4.69276L13.872 4.86712L13.8744 4.86953L14.0512 4.69276ZM14.0574 3.87939L14.2317 4.05859L14.2344 4.05597L14.0574 3.87939ZM16.7583 1.1723L16.5815 0.995521L16.5813 0.995724L16.7583 1.1723ZM17.5841 1.1723L17.4073 1.34907L17.4073 1.34907L17.5841 1.1723ZM17.5841 1.99809L17.4073 1.82131L17.4073 1.82131L17.5841 1.99809ZM15.8704 3.71175L15.6936 3.53497L15.2686 3.95998L15.8697 3.96175L15.8704 3.71175ZM25.5687 10.0759L25.3397 10.1762L25.4053 10.3259H25.5687V10.0759ZM25.6805 10.0759L25.6821 9.8259H25.6805V10.0759ZM28.2572 11.1749L28.078 11.3492L28.2548 11.5309L28.434 11.3517L28.2572 11.1749ZM29.1327 10.2994L28.9559 10.1226L28.9559 10.1226L29.1327 10.2994ZM29.9585 11.1252L29.7817 10.9484L29.7814 10.9488L29.9585 11.1252ZM26.469 14.6271L26.6408 14.8089L26.6461 14.8035L26.469 14.6271ZM25.9972 14.7947L25.9793 15.0441L25.9882 15.0447H25.9972V14.7947ZM25.5687 14.5525L25.3625 14.694L25.3666 14.6996L25.5687 14.5525ZM24.8361 13.4846L24.6183 13.6074L24.6237 13.617L24.6299 13.626L24.8361 13.4846ZM24.9603 12.7582L25.1225 12.9484L25.1245 12.9466L24.9603 12.7582ZM25.7798 12.814L25.9862 12.673L25.9779 12.6608L25.9683 12.6498L25.7798 12.814ZM26.1151 13.3045L25.9087 13.4456L26.0788 13.6944L26.2919 13.4813L26.1151 13.3045ZM27.419 12.0007L27.5958 12.1774L27.7677 12.0056L27.6007 11.8289L27.419 12.0007ZM26.2207 11.3115L26.2798 11.0686L26.2783 11.0682L26.2207 11.3115ZM23.2839 13.1183L23.5271 13.1759L23.5271 13.1759L23.2839 13.1183ZM25.0907 16.0551L25.1483 15.8118L25.1483 15.8118L25.0907 16.0551ZM28.0275 14.2483L27.7846 14.1888L27.7842 14.1907L28.0275 14.2483ZM28.7229 13.8261L28.6645 14.0692L28.6656 14.0695L28.7229 13.8261ZM5.56977 26.1384V26.3884H5.81977V26.1384H5.56977ZM2.17349 26.1384H1.92349V26.3884H2.17349V26.1384ZM5.56977 22.7421H5.81977V22.4921H5.56977V22.7421ZM2.17349 22.7421V22.4921H1.92349V22.7421H2.17349ZM9.10264 21.8981L9.27944 22.0749L9.28183 22.0724L9.10264 21.8981ZM9.10264 21.0785L8.92587 21.2553L8.92587 21.2553L9.10264 21.0785ZM9.10264 7.64861L8.92587 7.47184L8.92572 7.47198L9.10264 7.64861ZM12.0953 5.6245L12.0033 5.39196L11.997 5.39465L12.0953 5.6245ZM12.4182 4.86701L12.1858 4.95902L12.1858 4.95902L12.4182 4.86701ZM11.6607 4.54415V4.79415H11.7084L11.7527 4.7766L11.6607 4.54415ZM11.6514 4.54725L11.7632 4.77086L11.7632 4.77085L11.6514 4.54725ZM11.6421 4.55036V4.30036H11.5911L11.5442 4.32031L11.6421 4.55036ZM6.00439 18.5267L5.7743 18.6244L5.77437 18.6246L6.00439 18.5267ZM8.27686 21.8919L8.46317 21.7252L8.45827 21.7197L8.45306 21.7146L8.27686 21.8919ZM28.1268 21.3572L28.3037 21.1806L28.3035 21.1804L28.1268 21.3572ZM30.8276 24.0642L31.0068 23.8898L31.0046 23.8877L30.8276 24.0642ZM27.301 22.1954L27.4778 22.0186L27.4778 22.0186L27.301 22.1954ZM28.965 23.8594V24.1094H29.5685L29.1417 23.6826L28.965 23.8594ZM29.0519 25.0266L29.2287 25.2034L29.6554 24.7766H29.0519V25.0266ZM27.3072 26.7713L27.484 26.9481L27.484 26.9481L27.3072 26.7713ZM27.3072 27.5971L27.1303 27.774L27.1355 27.7789L27.3072 27.5971ZM28.1268 27.5909L27.9499 27.4141L27.945 27.4193L28.1268 27.5909ZM30.8276 24.89L30.6533 24.7108L30.6509 24.7133L30.8276 24.89ZM26.0797 17.4958C27.6871 17.3231 29.0152 16.1608 29.4003 14.5871L28.9147 14.4683C28.5795 15.8377 27.4241 16.8485 26.0263 16.9987L26.0797 17.4958ZM15.8014 25.2646C20.689 25.2773 24.9784 22.0169 26.2938 17.3146L25.8123 17.1799C24.5572 21.6667 20.4646 24.7767 15.8027 24.7646L15.8014 25.2646ZM6.73084 25.2646H15.8021V24.7646H6.73084V25.2646ZM6.98084 26.7158V25.0146H6.48084V26.7158H6.98084ZM6.1472 27.5495C6.60814 27.5495 6.98084 27.1768 6.98084 26.7158H6.48084C6.48084 26.9006 6.332 27.0495 6.1472 27.0495V27.5495ZM1.58364 27.5495H6.1472V27.0495H1.58364V27.5495ZM0.75 26.7158C0.75 27.1768 1.1227 27.5495 1.58364 27.5495V27.0495C1.39885 27.0495 1.25 26.9006 1.25 26.7158H0.75ZM0.75 22.1523V26.7158H1.25V22.1523H0.75ZM1.58364 21.3186C1.1227 21.3186 0.75 21.6913 0.75 22.1523H1.25C1.25 21.9675 1.39885 21.8186 1.58364 21.8186V21.3186ZM6.1472 21.3186H1.58364V21.8186H6.1472V21.3186ZM6.98084 22.1523C6.98084 21.6913 6.60814 21.3186 6.1472 21.3186V21.8186C6.332 21.8186 6.48084 21.9675 6.48084 22.1523H6.98084ZM6.98084 23.8535V22.1523H6.48084V23.8535H6.98084ZM15.8145 23.6035H6.73084V24.1035H15.8145V23.6035ZM24.6469 17.0927C23.4499 20.9677 19.8713 23.6035 15.8145 23.6035V24.1035C20.0901 24.1035 23.8628 21.3252 25.1246 17.2403L24.6469 17.0927ZM22.0942 15.0332C22.5522 16.2279 23.5746 17.1246 24.8303 17.4103L24.9412 16.9227C23.8499 16.6745 22.96 15.8948 22.5611 14.8542L22.0942 15.0332ZM24.3121 10.0783C22.3335 10.8353 21.3368 13.0532 22.0942 15.033L22.5612 14.8544C21.9029 13.1336 22.7689 11.204 24.4908 10.5453L24.3121 10.0783ZM15.8695 5.12282C19.4301 5.13491 22.664 7.19624 24.1751 10.418L24.6278 10.2057C23.0345 6.80873 19.6248 4.63557 15.8712 4.62282L15.8695 5.12282ZM17.7546 6.4035L16.0472 4.69604L15.6936 5.0496L17.4011 6.75705L17.7546 6.4035ZM17.9955 6.98386C17.9955 6.76042 17.9057 6.55457 17.7546 6.4035L17.4011 6.75705C17.4611 6.81709 17.4955 6.89684 17.4955 6.98386H17.9955ZM17.1729 7.82366C17.6281 7.8149 18.0044 7.44552 17.9954 6.97905L17.4955 6.98866C17.499 7.16792 17.3537 7.32009 17.1632 7.32375L17.1729 7.82366ZM16.5815 7.57663C16.7373 7.73248 16.9427 7.82371 17.1681 7.82371V7.32371C17.083 7.32371 17.0027 7.29076 16.935 7.22308L16.5815 7.57663ZM13.8806 4.87575L16.5815 7.57663L16.935 7.22308L14.2342 4.52219L13.8806 4.87575ZM13.8744 4.86953L13.8806 4.87574L14.2342 4.5222L14.228 4.51599L13.8744 4.86953ZM13.883 3.70021C13.5515 4.02277 13.555 4.54126 13.872 4.8671L14.2304 4.51842C14.1003 4.3848 14.1038 4.18306 14.2317 4.05857L13.883 3.70021ZM16.5813 0.995724L13.8804 3.70282L14.2344 4.05597L16.9352 1.34887L16.5813 0.995724ZM17.7608 0.995522C17.4335 0.668159 16.9089 0.66816 16.5815 0.995521L16.935 1.34907C17.0671 1.21697 17.2752 1.21698 17.4073 1.34907L17.7608 0.995522ZM17.7608 2.17486C18.0882 1.8475 18.0882 1.32288 17.7608 0.995521L17.4073 1.34907C17.5394 1.48117 17.5394 1.68921 17.4073 1.82131L17.7608 2.17486ZM16.0472 3.88853L17.7608 2.17486L17.4073 1.82131L15.6936 3.53497L16.0472 3.88853ZM25.7977 9.9756C24.0692 6.0293 20.18 3.47446 15.8711 3.46175L15.8697 3.96175C19.9801 3.97387 23.6906 6.41101 25.3397 10.1762L25.7977 9.9756ZM25.6805 9.8259H25.5687V10.3259H25.6805V9.8259ZM28.4364 11.0005C27.713 10.2573 26.7178 9.83255 25.6821 9.82591L25.6789 10.3259C26.5804 10.3317 27.4478 10.7017 28.078 11.3492L28.4364 11.0005ZM28.9559 10.1226L28.0804 10.9981L28.434 11.3517L29.3094 10.4762L28.9559 10.1226ZM30.1352 10.1226C29.8079 9.79529 29.2832 9.79529 28.9559 10.1226L29.3094 10.4762C29.4415 10.3441 29.6496 10.3441 29.7817 10.4762L30.1352 10.1226ZM30.1352 11.302C30.4626 10.9746 30.4626 10.45 30.1352 10.1226L29.7817 10.4762C29.9138 10.6083 29.9138 10.8163 29.7817 10.9484L30.1352 11.302ZM26.6461 14.8035L30.1355 11.3017L29.7814 10.9488L26.2919 14.4506L26.6461 14.8035ZM26.0592 15.0447C26.2838 15.0447 26.4867 14.9543 26.6407 14.8088L26.2974 14.4453C26.2279 14.5109 26.1452 14.5447 26.0592 14.5447V15.0447ZM25.9972 15.0447H26.0592V14.5447H25.9972V15.0447ZM25.3666 14.6996C25.506 14.8913 25.7266 15.026 25.9793 15.0441L26.015 14.5453C25.92 14.5385 25.8301 14.4869 25.7709 14.4055L25.3666 14.6996ZM24.6299 13.626L25.3626 14.694L25.7749 14.4111L25.0422 13.3432L24.6299 13.626ZM24.798 12.568C24.4932 12.828 24.4248 13.2643 24.6183 13.6074L25.0538 13.3618C24.9742 13.2206 25.0052 13.0485 25.1225 12.9484L24.798 12.568ZM25.9683 12.6498C25.6663 12.3034 25.1421 12.268 24.796 12.5697L25.1245 12.9466C25.2628 12.8261 25.4712 12.8404 25.5914 12.9783L25.9683 12.6498ZM26.3215 13.1635L25.9862 12.673L25.5735 12.9551L25.9087 13.4456L26.3215 13.1635ZM27.2422 11.8239L25.9383 13.1278L26.2919 13.4813L27.5958 12.1774L27.2422 11.8239ZM26.1616 11.5544C26.5761 11.6552 26.9489 11.8674 27.2373 12.1724L27.6007 11.8289C27.2433 11.451 26.7842 11.1913 26.2798 11.0686L26.1616 11.5544ZM23.5271 13.1759C23.8055 12.0009 24.9865 11.276 26.163 11.5547L26.2783 11.0682C24.8346 10.7261 23.383 11.6154 23.0406 13.0606L23.5271 13.1759ZM25.1483 15.8118C23.9733 15.5334 23.2483 14.3524 23.5271 13.1759L23.0406 13.0606C22.6985 14.5043 23.5878 15.9559 25.033 16.2984L25.1483 15.8118ZM27.7842 14.1907C27.5058 15.3656 26.3248 16.0906 25.1483 15.8118L25.033 16.2984C26.4767 16.6405 27.9283 15.7511 28.2707 14.306L27.7842 14.1907ZM28.7812 13.583C28.3365 13.4763 27.8918 13.7514 27.7846 14.1888L28.2703 14.3078C28.3122 14.1367 28.4884 14.0269 28.6645 14.0692L28.7812 13.583ZM29.4006 14.5861C29.5074 14.141 29.2317 13.689 28.7801 13.5827L28.6656 14.0695C28.8474 14.1122 28.9566 14.2936 28.9144 14.4694L29.4006 14.5861ZM5.56977 25.8884H2.17349V26.3884H5.56977V25.8884ZM5.31977 22.7421V26.1384H5.81977V22.7421H5.31977ZM2.17349 22.9921H5.56977V22.4921H2.17349V22.9921ZM2.42349 26.1384V22.7421H1.92349V26.1384H2.42349ZM8.92587 21.7213C8.86026 21.7869 8.77454 21.822 8.68665 21.822V22.322C8.90921 22.322 9.12151 22.2328 9.27942 22.0749L8.92587 21.7213ZM8.92587 21.2553C9.05044 21.3799 9.05388 21.5897 8.92346 21.7238L9.28183 22.0724C9.59846 21.747 9.60189 21.2242 9.27942 20.9018L8.92587 21.2553ZM8.92572 7.47198C5.12164 11.2824 5.12142 17.4509 8.92587 21.2553L9.27942 20.9018C5.6704 17.2927 5.67019 11.4407 9.27957 7.82524L8.92572 7.47198ZM11.997 5.39465C10.8501 5.88526 9.80524 6.59246 8.92587 7.47184L9.27942 7.82539C10.1137 6.9911 11.1053 6.31992 12.1937 5.85435L11.997 5.39465ZM12.1858 4.95902C12.2543 5.13206 12.1696 5.32623 12.0033 5.39205L12.1874 5.85695C12.6171 5.68684 12.8181 5.19802 12.6507 4.775L12.1858 4.95902ZM11.7527 4.7766C11.9258 4.70811 12.1199 4.79273 12.1858 4.95902L12.6507 4.775C12.4805 4.34523 11.9917 4.14425 11.5687 4.3117L11.7527 4.7766ZM11.7632 4.77085C11.7672 4.76889 11.7568 4.77435 11.7439 4.7792C11.7299 4.78444 11.7001 4.79415 11.6607 4.79415V4.29415C11.6182 4.29415 11.5854 4.30463 11.5683 4.31104C11.5592 4.31443 11.552 4.3177 11.5476 4.31975C11.5435 4.32169 11.5399 4.32351 11.5396 4.32365L11.7632 4.77085ZM11.6421 4.80036C11.6846 4.80036 11.7175 4.78988 11.7345 4.78347C11.7436 4.78007 11.7508 4.77681 11.7552 4.77475C11.7593 4.77282 11.7629 4.771 11.7632 4.77086L11.5396 4.32364C11.5357 4.32561 11.5461 4.32015 11.559 4.3153C11.573 4.31006 11.6027 4.30036 11.6421 4.30036V4.80036ZM6.23447 18.4289C3.985 13.1356 6.45268 7.02993 11.74 4.7804L11.5442 4.32031C6.00314 6.67781 3.41675 13.0769 5.7743 18.6244L6.23447 18.4289ZM8.45306 21.7146C7.50796 20.7755 6.75607 19.654 6.23441 18.4287L5.77437 18.6246C6.32065 19.9077 7.10856 21.0835 8.10065 22.0692L8.45306 21.7146ZM8.68665 21.822C8.59828 21.822 8.51852 21.7871 8.46317 21.7252L8.09055 22.0586C8.2463 22.2327 8.46457 22.322 8.68665 22.322V21.822ZM27.9498 21.5337L30.6507 24.2408L31.0046 23.8877L28.3037 21.1806L27.9498 21.5337ZM27.4715 21.5401C27.6071 21.4046 27.8213 21.4052 27.95 21.5339L28.3035 21.1804C27.9728 20.8496 27.4419 20.8627 27.118 21.1866L27.4715 21.5401ZM27.4778 22.0186C27.3422 21.883 27.3429 21.6688 27.4715 21.5401L27.118 21.1866C26.7872 21.5174 26.8003 22.0482 27.1242 22.3721L27.4778 22.0186ZM29.1417 23.6826L27.4778 22.0186L27.1242 22.3721L28.7882 24.0361L29.1417 23.6826ZM23.5446 24.1094H28.965V23.6094H23.5446V24.1094ZM23.2109 24.443C23.2109 24.2582 23.3598 24.1094 23.5446 24.1094V23.6094C23.0836 23.6094 22.7109 23.9821 22.7109 24.443H23.2109ZM23.5446 24.7766C23.3598 24.7766 23.2109 24.6278 23.2109 24.443H22.7109C22.7109 24.9039 23.0836 25.2766 23.5446 25.2766V24.7766ZM29.0519 24.7766H23.5446V25.2766H29.0519V24.7766ZM27.484 26.9481L29.2287 25.2034L28.8751 24.8499L27.1304 26.5946L27.484 26.9481ZM27.484 27.4203C27.3563 27.2927 27.3536 27.0785 27.484 26.9481L27.1304 26.5946C26.8013 26.9236 26.811 27.4545 27.1304 27.7739L27.484 27.4203ZM27.717 27.5148C27.6311 27.5148 27.5483 27.481 27.4788 27.4154L27.1355 27.7789C27.2896 27.9243 27.4924 28.0148 27.717 28.0148V27.5148ZM27.945 27.4193C27.8885 27.4791 27.8061 27.5148 27.717 27.5148V28.0148C27.9382 28.0148 28.1539 27.9263 28.3085 27.7626L27.945 27.4193ZM30.6509 24.7133L27.95 27.4141L28.3035 27.7677L31.0044 25.0668L30.6509 24.7133ZM30.6485 24.2386C30.7864 24.3802 30.7795 24.5881 30.6533 24.7108L31.002 25.0692C31.3352 24.745 31.3284 24.2201 31.0068 23.8898L30.6485 24.2386Z" fill="#121212" mask="url(#path-1-outside-1_54_2396)"/>
</svg>
