<svg width="41" height="40" viewBox="0 0 41 40" fill="none" xmlns="http://www.w3.org/2000/svg">
<path fill-rule="evenodd" clip-rule="evenodd" d="M21.6809 0.0163879L30.9083 1.88844C31.1932 1.94624 31.4079 2.18263 31.4387 2.4717L31.4388 2.47269L31.4391 2.47575L31.4402 2.48611L31.4438 2.52351C31.4469 2.55575 31.4512 2.60245 31.4562 2.66274C31.4662 2.78331 31.4792 2.9583 31.4917 3.18066C31.5167 3.62521 31.5396 4.26003 31.5324 5.02853C31.518 6.56266 31.383 8.64362 30.8962 10.8128C29.9278 15.1273 27.5132 19.9746 21.6945 21.3139C21.6426 21.3268 21.5887 21.3336 21.5338 21.3335C21.4789 21.3336 21.425 21.3268 21.3731 21.3139C15.5544 19.9746 13.1398 15.1273 12.1714 10.8128C11.6846 8.64362 11.5496 6.56266 11.5352 5.02853C11.5279 4.26003 11.5509 3.62521 11.5759 3.18066C11.5884 2.9583 11.6014 2.78331 11.6114 2.66274C11.6164 2.60245 11.6207 2.55575 11.6237 2.52351L11.6274 2.48611L11.6285 2.47575L11.6288 2.47269L11.6289 2.4717C11.6597 2.18263 11.8744 1.94624 12.1593 1.88844L21.3867 0.0163879C21.4344 0.00557831 21.4837 -5.25703e-05 21.5338 3.70014e-07C21.5839 -5.25804e-05 21.6332 0.0055783 21.6809 0.0163879ZM21.5338 19.9817C26.5099 18.7696 28.6796 14.6004 29.5952 10.5208C30.0552 8.47118 30.1853 6.48965 30.1991 5.01598C30.2061 4.28057 30.184 3.67516 30.1604 3.25546C30.1573 3.19858 30.154 3.14514 30.1508 3.09526L21.5338 1.34704L12.9167 3.09526C12.9136 3.14514 12.9103 3.19858 12.9071 3.25546C12.8836 3.67516 12.8615 4.28057 12.8684 5.01598C12.8823 6.48965 13.0124 8.47118 13.4724 10.5208C14.388 14.6004 16.5577 18.7696 21.5338 19.9817Z" fill="#3693FF"/>
<path fill-rule="evenodd" clip-rule="evenodd" d="M21.6841 2.68378L28.2711 4.0558C28.5551 4.11495 28.7683 4.35157 28.7983 4.64012L28.7984 4.64096L28.7987 4.64343L28.7995 4.65148L28.8022 4.67983C28.8044 4.7041 28.8075 4.73899 28.8111 4.78387C28.8184 4.87362 28.8278 5.00337 28.8368 5.16795C28.8548 5.49695 28.8713 5.96603 28.8661 6.53357C28.8557 7.66584 28.7588 9.20389 28.4079 10.8091C27.7125 13.99 25.9635 17.6366 21.6986 18.6462C21.6454 18.6598 21.5901 18.6669 21.5338 18.6669C21.4775 18.6669 21.4222 18.6598 21.369 18.6462C17.1041 17.6366 15.3551 13.99 14.6597 10.8091C14.3088 9.20389 14.2118 7.66584 14.2015 6.53357C14.1962 5.96603 14.2128 5.49695 14.2308 5.16795C14.2398 5.00337 14.2492 4.87362 14.2564 4.78387C14.2601 4.73899 14.2632 4.7041 14.2654 4.67983L14.2681 4.65148L14.2689 4.64343L14.2692 4.64096L14.2692 4.64012C14.2992 4.35157 14.5124 4.11495 14.7965 4.0558L21.3835 2.68378C21.4322 2.67249 21.4826 2.66661 21.5338 2.66666C21.585 2.66661 21.6354 2.67249 21.6841 2.68378ZM21.5338 17.3136C24.9446 16.436 26.4583 13.4842 27.1053 10.5244C27.4307 9.0359 27.523 7.5948 27.5329 6.52135C27.5377 5.99627 27.5227 5.56249 27.5064 5.25846L21.5338 4.01443L15.5612 5.25846C15.5449 5.56249 15.5299 5.99627 15.5347 6.52135C15.5446 7.5948 15.6369 9.0359 15.9623 10.5244C16.6093 13.4842 18.123 16.436 21.5338 17.3136Z" fill="#3693FF"/>
<path fill-rule="evenodd" clip-rule="evenodd" d="M25.9669 6.82667C26.2468 7.06588 26.2798 7.4867 26.0406 7.76659L20.9124 13.7666C20.7926 13.9067 20.6201 13.991 20.4359 13.9994C20.2517 14.0078 20.0722 13.9395 19.9402 13.8108L18.4017 12.3108C18.1381 12.0537 18.1328 11.6317 18.3898 11.368C18.6468 11.1044 19.0689 11.0991 19.3325 11.3561L20.3613 12.3592L25.027 6.9003C25.2662 6.62041 25.687 6.58745 25.9669 6.82667Z" fill="#3693FF"/>
<path fill-rule="evenodd" clip-rule="evenodd" d="M1.53385 22.6667C1.16566 22.6667 0.867188 22.9652 0.867188 23.3334V39.3333C0.867188 39.7015 1.16566 40 1.53385 40H9.53383C9.90202 40 10.2005 39.7015 10.2005 39.3333V36.972H13.113L13.2985 37.0367C13.4855 37.1019 13.754 37.1953 14.0804 37.3085C14.7331 37.5349 15.6177 37.8403 16.5446 38.1563C18.38 38.7819 20.4338 39.4675 21.1413 39.6444C21.8621 39.8246 22.5896 39.9167 23.2381 39.9167C23.8692 39.9167 24.4949 39.8297 24.9665 39.5939C25.6489 39.2527 37.1022 33.1892 39.4703 31.8361C40.1803 31.4303 40.635 30.8767 40.7997 30.2414C40.9631 29.6111 40.8171 28.9897 40.4985 28.4972C39.8684 27.5235 38.4996 26.9617 37.1587 27.6321C36.1665 28.1282 33.7436 29.2146 31.5501 30.1848C30.8992 30.4727 30.2706 30.7495 29.7088 30.9962C29.7096 30.971 29.71 30.9459 29.71 30.9207C29.71 30.3212 29.4694 29.7227 28.9945 29.2775C28.5163 28.8291 27.8399 28.5714 27.0242 28.5714H20.9665C20.8266 28.5714 20.5847 28.4923 20.1737 28.2457C19.9138 28.0898 19.6484 27.9075 19.3486 27.7016C19.1821 27.5873 19.0049 27.4656 18.8123 27.3372C17.7943 26.6585 16.4705 25.8791 14.9088 25.8791H10.2005V23.3334C10.2005 22.9652 9.90202 22.6667 9.53383 22.6667H1.53385ZM8.86716 24H2.20052V38.6667H8.86716V24ZM10.2005 35.6386V27.2124H14.9088C16.0394 27.2124 17.0714 27.779 18.0727 28.4466C18.2275 28.5498 18.3864 28.6588 18.5455 28.7679C18.8696 28.9902 19.1946 29.2131 19.4877 29.389C19.918 29.6472 20.4333 29.9047 20.9665 29.9047H27.0242C27.5545 29.9047 27.8878 30.0676 28.0826 30.2502C28.2808 30.436 28.3767 30.6789 28.3767 30.9207C28.3767 31.1625 28.2808 31.4054 28.0826 31.5912C27.8878 31.7738 27.5545 31.9367 27.0242 31.9367H21.3031L21.3008 31.9367H20.6299H20.9507L20.6291 31.9367H20.6282L20.6263 31.9367L20.6222 31.9368L20.6129 31.9369C20.6062 31.9371 20.5985 31.9373 20.5897 31.9377C20.5722 31.9384 20.5508 31.9397 20.5256 31.942C20.4752 31.9465 20.4098 31.9547 20.3317 31.9695C20.1752 31.9993 19.968 32.0559 19.7282 32.1625C19.244 32.3777 18.6493 32.7869 18.0774 33.5495C17.8565 33.8441 17.9162 34.262 18.2107 34.4829C18.5053 34.7038 18.9231 34.6441 19.1441 34.3495C19.5817 33.766 19.9967 33.5022 20.2697 33.3809C20.4085 33.3192 20.5168 33.2916 20.5812 33.2793C20.6134 33.2732 20.635 33.2708 20.6437 33.2701H27.6972C27.7887 33.2701 27.8795 33.2511 27.9634 33.2146L28.3002 33.0679C28.516 32.9738 28.8265 32.8383 29.2054 32.6725C29.9632 32.341 30.9947 31.8884 32.0895 31.4042C34.271 30.4393 36.7279 29.3382 37.755 28.8247C38.4332 28.4855 39.0837 28.7651 39.3791 29.2216C39.5231 29.4442 39.5665 29.6853 39.509 29.9068C39.4529 30.1233 39.2766 30.4111 38.8087 30.6784C36.4653 32.0175 25.034 38.0694 24.3703 38.4013C24.1688 38.502 23.7849 38.5833 23.2381 38.5833C22.7088 38.5833 22.0901 38.5072 21.4647 38.3508C20.8261 38.1912 18.8414 37.5306 16.9749 36.8942C16.0509 36.5792 15.1686 36.2747 14.5173 36.0488C14.1916 35.9359 13.9238 35.8426 13.7374 35.7777L13.4464 35.6761C13.3756 35.6513 13.3011 35.6386 13.2261 35.6386H10.2005Z" fill="#3693FF"/>
</svg>
