<svg width="24" height="32" viewBox="0 0 24 32" fill="none" xmlns="http://www.w3.org/2000/svg">
<mask id="path-1-outside-1_54_2358" maskUnits="userSpaceOnUse" x="-0.617188" y="0.145996" width="24" height="32" fill="black">
<rect fill="white" x="-0.617188" y="0.145996" width="24" height="32"/>
<path fill-rule="evenodd" clip-rule="evenodd" d="M21.6409 21.673H18.8665V21.0543H21.6409C22.4407 21.0543 23.0968 20.4045 23.0968 19.5984C23.0968 18.7923 22.447 18.1425 21.6409 18.1425H15.2172C14.5111 18.1425 13.9237 18.6486 13.7925 19.311H10.162C9.41218 19.311 8.80606 19.9171 8.80606 20.6669V22.7977H6.56278C6.37531 22.2104 5.82543 21.7854 5.17556 21.7854H3.83834C3.03851 21.7854 2.3824 22.4353 2.3824 23.2414C2.3699 24.11 3.18848 24.7911 4.0633 24.6973V25.9658C4.0633 26.7157 4.66942 27.3218 5.41926 27.3218H7.05642C7.30012 27.3218 7.49383 27.1281 7.49383 26.8844C7.49383 26.6407 7.30012 26.447 7.05642 26.447H5.41926C5.15682 26.447 4.94436 26.2345 4.94436 25.9721V24.7036C5.61922 24.7848 6.35657 24.3599 6.55653 23.6913H13.8738C14.0925 24.2162 14.6111 24.5911 15.2172 24.5911H17.9854V28.759C17.9854 29.5963 17.3043 30.2774 16.467 30.2774H2.76982C1.93249 30.2774 1.25138 29.5963 1.25138 28.759V3.53925C1.25138 2.70192 1.93249 2.02081 2.76982 2.02081H4.48196L4.68192 3.0581C4.86938 4.02665 5.7192 4.73275 6.70649 4.73275H12.5365C13.5238 4.73275 14.3736 4.02665 14.5611 3.0581L14.7611 2.02081H16.4732C17.3105 2.02081 17.9916 2.70192 17.9916 3.53925V16.4053C17.9916 16.649 18.1854 16.8427 18.4291 16.8427C18.6728 16.8427 18.8665 16.649 18.8665 16.4053V3.53925C18.8665 2.22077 17.7917 1.146 16.4732 1.146H2.77606C1.45759 1.146 0.382812 2.22077 0.382812 3.53925V28.7527C0.382812 30.0712 1.45759 31.146 2.77606 31.146H16.4732C17.7917 31.146 18.8665 30.0712 18.8665 28.7527V24.5849H21.6409C22.4407 24.5849 23.0968 23.935 23.0968 23.1289C23.0968 22.3228 22.4407 21.673 21.6409 21.673ZM5.17556 23.8225H3.83834C3.51966 23.8225 3.26346 23.5663 3.26346 23.2476C3.26346 22.929 3.51966 22.6728 3.83834 22.6728H5.17556C5.49425 22.6728 5.75044 22.929 5.75044 23.2476C5.75044 23.5663 5.49425 23.8225 5.17556 23.8225ZM13.8613 2.02706L13.6925 2.89563C13.5863 3.45177 13.0989 3.85793 12.5303 3.85793H6.70025C6.13161 3.85793 5.64422 3.45177 5.53799 2.89563L5.36927 2.02706H13.8613ZM15.2172 19.0298H21.6409C21.9596 19.0298 22.2158 19.286 22.2158 19.6047C22.2158 19.9233 21.9596 20.1795 21.6409 20.1795H18.4291H18.4228H18.4166H15.2172C14.8985 20.1795 14.6423 19.9233 14.6423 19.6047C14.6423 19.286 14.9048 19.0298 15.2172 19.0298ZM9.68712 20.6794C9.68712 20.417 9.89958 20.2045 10.162 20.2045H13.8925C14.1175 20.7107 14.6298 21.0606 15.2172 21.0606H17.9854V21.6792H15.2172C14.5236 21.6792 13.9487 22.1666 13.7988 22.8102H9.68088L9.68712 20.6794ZM21.6409 23.7038H18.4228H15.2172C14.8985 23.7038 14.6423 23.4476 14.6423 23.1289C14.6423 22.8102 14.8985 22.554 15.2172 22.554H21.6409C21.9596 22.554 22.2158 22.8102 22.2158 23.1289C22.2158 23.4476 21.9596 23.7038 21.6409 23.7038ZM10.4932 3.44611H8.74356C8.49986 3.44611 8.30615 3.2524 8.30615 3.0087C8.30615 2.765 8.49986 2.57129 8.74356 2.57129H10.4932C10.7369 2.57129 10.9306 2.765 10.9306 3.0087C10.9306 3.2524 10.7369 3.44611 10.4932 3.44611ZM15.6609 3.43897C15.6609 3.20152 15.8547 3.00781 16.0921 3.00781C16.3296 3.00781 16.5233 3.20152 16.5233 3.43897C16.5233 3.67642 16.3296 3.87013 16.0921 3.87013C15.8547 3.87013 15.6609 3.67642 15.6609 3.43897ZM15.3359 26.8845C15.3359 27.6906 14.6798 28.3404 13.88 28.3404H10.162C9.35592 28.3404 8.70605 27.6906 8.70605 26.8845C8.70605 26.0784 9.36217 25.4285 10.162 25.4285H13.88C14.6861 25.4285 15.3359 26.0784 15.3359 26.8845ZM10.162 26.3096C9.84332 26.3096 9.58712 26.5658 9.58712 26.8845C9.58712 27.2032 9.84332 27.4594 10.162 27.4594H13.88C14.1987 27.4594 14.4549 27.2032 14.4549 26.8845C14.4549 26.5658 14.1987 26.3096 13.88 26.3096H10.162ZM3.14471 7.40749C2.90101 7.40749 2.7073 7.6012 2.7073 7.8449V12.6814C2.64481 14.0686 4.07576 15.3308 5.55045 15.3121C6.98766 15.3558 8.54983 14.1123 8.47485 12.6751V7.83865C8.47485 7.59495 8.28114 7.40125 8.03744 7.40125C7.79374 7.40125 7.60003 7.59495 7.60003 7.83865V12.6751C7.65002 13.6187 6.60648 14.4373 5.55045 14.431C4.6319 14.4623 3.52588 13.6125 3.58836 12.6751V7.83865C3.58211 7.6012 3.3884 7.40749 3.14471 7.40749ZM10.7494 15.0559C10.5495 15.2934 10.262 15.2371 10.1371 15.1434C9.94335 14.9934 9.89961 14.7185 10.0496 14.5248L12.6303 11.1005L10.312 8.05113C10.1683 7.85742 10.2058 7.57623 10.3995 7.43251C10.5932 7.28879 10.8744 7.32629 11.0181 7.51999L13.1864 10.3757L15.336 7.52624C15.4797 7.33253 15.7546 7.29504 15.9483 7.43876C16.1421 7.58248 16.1795 7.85742 16.0358 8.05113L13.7363 11.1005L16.4295 14.6498C16.5732 14.8435 16.5357 15.1247 16.342 15.2684C16.0296 15.4496 15.8609 15.3059 15.7234 15.1809L13.1802 11.8316L10.7494 15.0559Z"/>
</mask>
<path fill-rule="evenodd" clip-rule="evenodd" d="M21.6409 21.673H18.8665V21.0543H21.6409C22.4407 21.0543 23.0968 20.4045 23.0968 19.5984C23.0968 18.7923 22.447 18.1425 21.6409 18.1425H15.2172C14.5111 18.1425 13.9237 18.6486 13.7925 19.311H10.162C9.41218 19.311 8.80606 19.9171 8.80606 20.6669V22.7977H6.56278C6.37531 22.2104 5.82543 21.7854 5.17556 21.7854H3.83834C3.03851 21.7854 2.3824 22.4353 2.3824 23.2414C2.3699 24.11 3.18848 24.7911 4.0633 24.6973V25.9658C4.0633 26.7157 4.66942 27.3218 5.41926 27.3218H7.05642C7.30012 27.3218 7.49383 27.1281 7.49383 26.8844C7.49383 26.6407 7.30012 26.447 7.05642 26.447H5.41926C5.15682 26.447 4.94436 26.2345 4.94436 25.9721V24.7036C5.61922 24.7848 6.35657 24.3599 6.55653 23.6913H13.8738C14.0925 24.2162 14.6111 24.5911 15.2172 24.5911H17.9854V28.759C17.9854 29.5963 17.3043 30.2774 16.467 30.2774H2.76982C1.93249 30.2774 1.25138 29.5963 1.25138 28.759V3.53925C1.25138 2.70192 1.93249 2.02081 2.76982 2.02081H4.48196L4.68192 3.0581C4.86938 4.02665 5.7192 4.73275 6.70649 4.73275H12.5365C13.5238 4.73275 14.3736 4.02665 14.5611 3.0581L14.7611 2.02081H16.4732C17.3105 2.02081 17.9916 2.70192 17.9916 3.53925V16.4053C17.9916 16.649 18.1854 16.8427 18.4291 16.8427C18.6728 16.8427 18.8665 16.649 18.8665 16.4053V3.53925C18.8665 2.22077 17.7917 1.146 16.4732 1.146H2.77606C1.45759 1.146 0.382812 2.22077 0.382812 3.53925V28.7527C0.382812 30.0712 1.45759 31.146 2.77606 31.146H16.4732C17.7917 31.146 18.8665 30.0712 18.8665 28.7527V24.5849H21.6409C22.4407 24.5849 23.0968 23.935 23.0968 23.1289C23.0968 22.3228 22.4407 21.673 21.6409 21.673ZM5.17556 23.8225H3.83834C3.51966 23.8225 3.26346 23.5663 3.26346 23.2476C3.26346 22.929 3.51966 22.6728 3.83834 22.6728H5.17556C5.49425 22.6728 5.75044 22.929 5.75044 23.2476C5.75044 23.5663 5.49425 23.8225 5.17556 23.8225ZM13.8613 2.02706L13.6925 2.89563C13.5863 3.45177 13.0989 3.85793 12.5303 3.85793H6.70025C6.13161 3.85793 5.64422 3.45177 5.53799 2.89563L5.36927 2.02706H13.8613ZM15.2172 19.0298H21.6409C21.9596 19.0298 22.2158 19.286 22.2158 19.6047C22.2158 19.9233 21.9596 20.1795 21.6409 20.1795H18.4291H18.4228H18.4166H15.2172C14.8985 20.1795 14.6423 19.9233 14.6423 19.6047C14.6423 19.286 14.9048 19.0298 15.2172 19.0298ZM9.68712 20.6794C9.68712 20.417 9.89958 20.2045 10.162 20.2045H13.8925C14.1175 20.7107 14.6298 21.0606 15.2172 21.0606H17.9854V21.6792H15.2172C14.5236 21.6792 13.9487 22.1666 13.7988 22.8102H9.68088L9.68712 20.6794ZM21.6409 23.7038H18.4228H15.2172C14.8985 23.7038 14.6423 23.4476 14.6423 23.1289C14.6423 22.8102 14.8985 22.554 15.2172 22.554H21.6409C21.9596 22.554 22.2158 22.8102 22.2158 23.1289C22.2158 23.4476 21.9596 23.7038 21.6409 23.7038ZM10.4932 3.44611H8.74356C8.49986 3.44611 8.30615 3.2524 8.30615 3.0087C8.30615 2.765 8.49986 2.57129 8.74356 2.57129H10.4932C10.7369 2.57129 10.9306 2.765 10.9306 3.0087C10.9306 3.2524 10.7369 3.44611 10.4932 3.44611ZM15.6609 3.43897C15.6609 3.20152 15.8547 3.00781 16.0921 3.00781C16.3296 3.00781 16.5233 3.20152 16.5233 3.43897C16.5233 3.67642 16.3296 3.87013 16.0921 3.87013C15.8547 3.87013 15.6609 3.67642 15.6609 3.43897ZM15.3359 26.8845C15.3359 27.6906 14.6798 28.3404 13.88 28.3404H10.162C9.35592 28.3404 8.70605 27.6906 8.70605 26.8845C8.70605 26.0784 9.36217 25.4285 10.162 25.4285H13.88C14.6861 25.4285 15.3359 26.0784 15.3359 26.8845ZM10.162 26.3096C9.84332 26.3096 9.58712 26.5658 9.58712 26.8845C9.58712 27.2032 9.84332 27.4594 10.162 27.4594H13.88C14.1987 27.4594 14.4549 27.2032 14.4549 26.8845C14.4549 26.5658 14.1987 26.3096 13.88 26.3096H10.162ZM3.14471 7.40749C2.90101 7.40749 2.7073 7.6012 2.7073 7.8449V12.6814C2.64481 14.0686 4.07576 15.3308 5.55045 15.3121C6.98766 15.3558 8.54983 14.1123 8.47485 12.6751V7.83865C8.47485 7.59495 8.28114 7.40125 8.03744 7.40125C7.79374 7.40125 7.60003 7.59495 7.60003 7.83865V12.6751C7.65002 13.6187 6.60648 14.4373 5.55045 14.431C4.6319 14.4623 3.52588 13.6125 3.58836 12.6751V7.83865C3.58211 7.6012 3.3884 7.40749 3.14471 7.40749ZM10.7494 15.0559C10.5495 15.2934 10.262 15.2371 10.1371 15.1434C9.94335 14.9934 9.89961 14.7185 10.0496 14.5248L12.6303 11.1005L10.312 8.05113C10.1683 7.85742 10.2058 7.57623 10.3995 7.43251C10.5932 7.28879 10.8744 7.32629 11.0181 7.51999L13.1864 10.3757L15.336 7.52624C15.4797 7.33253 15.7546 7.29504 15.9483 7.43876C16.1421 7.58248 16.1795 7.85742 16.0358 8.05113L13.7363 11.1005L16.4295 14.6498C16.5732 14.8435 16.5357 15.1247 16.342 15.2684C16.0296 15.4496 15.8609 15.3059 15.7234 15.1809L13.1802 11.8316L10.7494 15.0559Z" fill="#121212"/>
<path d="M18.8665 21.673H18.6665V21.873H18.8665V21.673ZM18.8665 21.0543V20.8543H18.6665V21.0543H18.8665ZM13.7925 19.311V19.511H13.9568L13.9887 19.3498L13.7925 19.311ZM8.80606 22.7977V22.9977H9.00606V22.7977H8.80606ZM6.56278 22.7977L6.37224 22.8585L6.41667 22.9977H6.56278V22.7977ZM2.3824 23.2414L2.5824 23.2443V23.2414H2.3824ZM4.0633 24.6973H4.2633V24.4748L4.04199 24.4985L4.0633 24.6973ZM4.94436 24.7036L4.96826 24.505L4.74436 24.4781V24.7036H4.94436ZM6.55653 23.6913V23.4913H6.40759L6.36491 23.634L6.55653 23.6913ZM13.8738 23.6913L14.0584 23.6144L14.0071 23.4913H13.8738V23.6913ZM17.9854 24.5911H18.1854V24.3911H17.9854V24.5911ZM4.48196 2.02081L4.67834 1.98296L4.64709 1.82081H4.48196V2.02081ZM4.68192 3.0581L4.48553 3.09595L4.48556 3.0961L4.68192 3.0581ZM14.5611 3.0581L14.7575 3.0961L14.7575 3.09596L14.5611 3.0581ZM14.7611 2.02081V1.82081H14.5959L14.5647 1.98296L14.7611 2.02081ZM18.8665 24.5849V24.3849H18.6665V24.5849H18.8665ZM13.6925 2.89563L13.4962 2.8575L13.4961 2.85811L13.6925 2.89563ZM13.8613 2.02706L14.0576 2.0652L14.1038 1.82706H13.8613V2.02706ZM5.53799 2.89563L5.73444 2.85811L5.73432 2.8575L5.53799 2.89563ZM5.36927 2.02706V1.82706H5.12669L5.17294 2.0652L5.36927 2.02706ZM9.68712 20.6794L9.88712 20.68V20.6794H9.68712ZM13.8925 20.2045L14.0753 20.1233L14.0225 20.0045H13.8925V20.2045ZM17.9854 21.0606H18.1854V20.8606H17.9854V21.0606ZM17.9854 21.6792V21.8792H18.1854V21.6792H17.9854ZM13.7988 22.8102V23.0102H13.9575L13.9935 22.8556L13.7988 22.8102ZM9.68088 22.8102L9.48088 22.8096L9.48029 23.0102H9.68088V22.8102ZM2.7073 12.6814L2.9073 12.6904V12.6814H2.7073ZM5.55045 15.3121L5.55654 15.112L5.54791 15.1121L5.55045 15.3121ZM8.47485 12.6751L8.27457 12.6751L8.27512 12.6856L8.47485 12.6751ZM7.60003 12.6751H7.39975L7.40031 12.6857L7.60003 12.6751ZM5.55045 14.431L5.55164 14.2309L5.54366 14.2311L5.55045 14.431ZM3.58836 12.6751L3.78836 12.6885V12.6751H3.58836ZM3.58836 7.83865H3.78843L3.78829 7.83339L3.58836 7.83865ZM10.1371 15.1434L10.0146 15.3016L10.0171 15.3034L10.1371 15.1434ZM10.7494 15.0559L10.9026 15.1849L10.9091 15.1763L10.7494 15.0559ZM10.0496 14.5248L10.2077 14.6472L10.2093 14.6452L10.0496 14.5248ZM12.6303 11.1005L12.79 11.2209L12.8811 11.1L12.7895 10.9795L12.6303 11.1005ZM10.312 8.05113L10.1514 8.17031L10.1528 8.17218L10.312 8.05113ZM10.3995 7.43251L10.5187 7.59313L10.5187 7.59313L10.3995 7.43251ZM11.0181 7.51999L10.8575 7.63917L10.8588 7.64094L11.0181 7.51999ZM13.1864 10.3757L13.0271 10.4966L13.1869 10.7071L13.3461 10.4961L13.1864 10.3757ZM15.336 7.52624L15.4956 7.64669L15.4966 7.64541L15.336 7.52624ZM15.9483 7.43876L16.0675 7.27814L16.0675 7.27814L15.9483 7.43876ZM16.0358 8.05113L16.1955 8.17156L16.1964 8.1703L16.0358 8.05113ZM13.7363 11.1005L13.5766 10.9801L13.4855 11.1009L13.577 11.2214L13.7363 11.1005ZM16.4295 14.6498L16.5901 14.5306L16.5888 14.5289L16.4295 14.6498ZM16.342 15.2684L16.4424 15.4414L16.4521 15.4357L16.4612 15.429L16.342 15.2684ZM15.7234 15.1809L15.5641 15.3018L15.5752 15.3165L15.5889 15.3289L15.7234 15.1809ZM13.1802 11.8316L13.3395 11.7106L13.1796 11.5001L13.0205 11.7112L13.1802 11.8316ZM18.8665 21.873H21.6409V21.473H18.8665V21.873ZM18.6665 21.0543V21.673H19.0665V21.0543H18.6665ZM21.6409 20.8543H18.8665V21.2543H21.6409V20.8543ZM22.8968 19.5984C22.8968 20.2935 22.3308 20.8543 21.6409 20.8543V21.2543C22.5506 21.2543 23.2968 20.5155 23.2968 19.5984H22.8968ZM21.6409 18.3425C22.3365 18.3425 22.8968 18.9028 22.8968 19.5984H23.2968C23.2968 18.6819 22.5574 17.9425 21.6409 17.9425V18.3425ZM15.2172 18.3425H21.6409V17.9425H15.2172V18.3425ZM13.9887 19.3498C14.1018 18.7789 14.6088 18.3425 15.2172 18.3425V17.9425C14.4134 17.9425 13.7457 18.5183 13.5963 19.2721L13.9887 19.3498ZM10.162 19.511H13.7925V19.111H10.162V19.511ZM9.00606 20.6669C9.00606 20.0275 9.52264 19.511 10.162 19.511V19.111C9.30172 19.111 8.60606 19.8066 8.60606 20.6669H9.00606ZM9.00606 22.7977V20.6669H8.60606V22.7977H9.00606ZM6.56278 22.9977H8.80606V22.5977H6.56278V22.9977ZM5.17556 21.9854C5.73597 21.9854 6.2105 22.3517 6.37224 22.8585L6.75331 22.7369C6.54013 22.069 5.91489 21.5854 5.17556 21.5854V21.9854ZM3.83834 21.9854H5.17556V21.5854H3.83834V21.9854ZM2.5824 23.2414C2.5824 22.5463 3.14841 21.9854 3.83834 21.9854V21.5854C2.92861 21.5854 2.1824 22.3243 2.1824 23.2414H2.5824ZM4.04199 24.4985C3.27362 24.5808 2.57179 23.9802 2.58238 23.2443L2.18242 23.2385C2.16801 24.2397 3.10334 25.0013 4.0846 24.8962L4.04199 24.4985ZM4.2633 25.9658V24.6973H3.8633V25.9658H4.2633ZM5.41926 27.1218C4.77988 27.1218 4.2633 26.6052 4.2633 25.9658H3.8633C3.8633 26.8261 4.55896 27.5218 5.41926 27.5218V27.1218ZM7.05642 27.1218H5.41926V27.5218H7.05642V27.1218ZM7.29383 26.8844C7.29383 27.0176 7.18966 27.1218 7.05642 27.1218V27.5218C7.41058 27.5218 7.69383 27.2385 7.69383 26.8844H7.29383ZM7.05642 26.647C7.18966 26.647 7.29383 26.7511 7.29383 26.8844H7.69383C7.69383 26.5302 7.41058 26.247 7.05642 26.247V26.647ZM5.41926 26.647H7.05642V26.247H5.41926V26.647ZM4.74436 25.9721C4.74436 26.345 5.04636 26.647 5.41926 26.647V26.247C5.26727 26.247 5.14436 26.1241 5.14436 25.9721H4.74436ZM4.74436 24.7036V25.9721H5.14436V24.7036H4.74436ZM6.36491 23.634C6.1959 24.1991 5.55749 24.5759 4.96826 24.505L4.92046 24.9022C5.68096 24.9937 6.51723 24.5207 6.74814 23.7486L6.36491 23.634ZM13.8738 23.4913H6.55653V23.8913H13.8738V23.4913ZM15.2172 24.3911C14.6957 24.3911 14.2475 24.0684 14.0584 23.6144L13.6891 23.7682C13.9374 24.364 14.5265 24.7911 15.2172 24.7911V24.3911ZM17.9854 24.3911H15.2172V24.7911H17.9854V24.3911ZM18.1854 28.759V24.5911H17.7854V28.759H18.1854ZM16.467 30.4774C17.4147 30.4774 18.1854 29.7068 18.1854 28.759H17.7854C17.7854 29.4859 17.1938 30.0774 16.467 30.0774V30.4774ZM2.76982 30.4774H16.467V30.0774H2.76982V30.4774ZM1.05138 28.759C1.05138 29.7068 1.82203 30.4774 2.76982 30.4774V30.0774C2.04295 30.0774 1.45138 29.4859 1.45138 28.759H1.05138ZM1.05138 3.53925V28.759H1.45138V3.53925H1.05138ZM2.76982 1.82081C1.82203 1.82081 1.05138 2.59146 1.05138 3.53925H1.45138C1.45138 2.81238 2.04295 2.22081 2.76982 2.22081V1.82081ZM4.48196 1.82081H2.76982V2.22081H4.48196V1.82081ZM4.8783 3.02024L4.67834 1.98296L4.28557 2.05867L4.48553 3.09595L4.8783 3.02024ZM6.70649 4.53275C5.81567 4.53275 5.04766 3.89524 4.87827 3.02009L4.48556 3.0961C4.6911 4.15805 5.62273 4.93275 6.70649 4.93275V4.53275ZM12.5365 4.53275H6.70649V4.93275H12.5365V4.53275ZM14.3648 3.02009C14.1954 3.89524 13.4274 4.53275 12.5365 4.53275V4.93275C13.6203 4.93275 14.5519 4.15805 14.7575 3.0961L14.3648 3.02009ZM14.5647 1.98296L14.3647 3.02024L14.7575 3.09596L14.9575 2.05867L14.5647 1.98296ZM16.4732 1.82081H14.7611V2.22081H16.4732V1.82081ZM18.1916 3.53925C18.1916 2.59147 17.421 1.82081 16.4732 1.82081V2.22081C17.2001 2.22081 17.7916 2.81238 17.7916 3.53925H18.1916ZM18.1916 16.4053V3.53925H17.7916V16.4053H18.1916ZM18.4291 16.6427C18.2958 16.6427 18.1916 16.5386 18.1916 16.4053H17.7916C17.7916 16.7595 18.0749 17.0427 18.4291 17.0427V16.6427ZM18.6665 16.4053C18.6665 16.5386 18.5623 16.6427 18.4291 16.6427V17.0427C18.7832 17.0427 19.0665 16.7595 19.0665 16.4053H18.6665ZM18.6665 3.53925V16.4053H19.0665V3.53925H18.6665ZM16.4732 1.346C17.6812 1.346 18.6665 2.33123 18.6665 3.53925H19.0665C19.0665 2.11032 17.9021 0.945996 16.4732 0.945996V1.346ZM2.77606 1.346H16.4732V0.945996H2.77606V1.346ZM0.582813 3.53925C0.582813 2.33123 1.56805 1.346 2.77606 1.346V0.945996C1.34713 0.945996 0.182812 2.11032 0.182812 3.53925H0.582813ZM0.582813 28.7527V3.53925H0.182812V28.7527H0.582813ZM2.77606 30.946C1.56805 30.946 0.582813 29.9608 0.582813 28.7527H0.182812C0.182812 30.1817 1.34713 31.346 2.77606 31.346V30.946ZM16.4732 30.946H2.77606V31.346H16.4732V30.946ZM18.6665 28.7527C18.6665 29.9608 17.6812 30.946 16.4732 30.946V31.346C17.9021 31.346 19.0665 30.1817 19.0665 28.7527H18.6665ZM18.6665 24.5849V28.7527H19.0665V24.5849H18.6665ZM21.6409 24.3849H18.8665V24.7849H21.6409V24.3849ZM22.8968 23.1289C22.8968 23.824 22.3308 24.3849 21.6409 24.3849V24.7849C22.5506 24.7849 23.2968 24.046 23.2968 23.1289H22.8968ZM21.6409 21.873C22.3308 21.873 22.8968 22.4338 22.8968 23.1289H23.2968C23.2968 22.2118 22.5506 21.473 21.6409 21.473V21.873ZM3.83834 24.0225H5.17556V23.6225H3.83834V24.0225ZM3.06346 23.2476C3.06346 23.6768 3.4092 24.0225 3.83834 24.0225V23.6225C3.63012 23.6225 3.46346 23.4559 3.46346 23.2476H3.06346ZM3.83834 22.4728C3.4092 22.4728 3.06346 22.8185 3.06346 23.2476H3.46346C3.46346 23.0394 3.63012 22.8728 3.83834 22.8728V22.4728ZM5.17556 22.4728H3.83834V22.8728H5.17556V22.4728ZM5.95044 23.2476C5.95044 22.8185 5.60471 22.4728 5.17556 22.4728V22.8728C5.38379 22.8728 5.55044 23.0394 5.55044 23.2476H5.95044ZM5.17556 24.0225C5.6047 24.0225 5.95044 23.6768 5.95044 23.2476H5.55044C5.55044 23.4559 5.38379 23.6225 5.17556 23.6225V24.0225ZM13.8889 2.93377L14.0576 2.0652L13.6649 1.98893L13.4962 2.8575L13.8889 2.93377ZM12.5303 4.05793C13.1954 4.05793 13.7648 3.58307 13.889 2.93316L13.4961 2.85811C13.4078 3.32046 13.0024 3.65793 12.5303 3.65793V4.05793ZM6.70025 4.05793H12.5303V3.65793H6.70025V4.05793ZM5.34154 2.93316C5.46568 3.58307 6.03512 4.05793 6.70025 4.05793V3.65793C6.22811 3.65793 5.82275 3.32046 5.73444 2.85811L5.34154 2.93316ZM5.17294 2.0652L5.34166 2.93377L5.73432 2.8575L5.5656 1.98893L5.17294 2.0652ZM13.8613 1.82706H5.36927V2.22706H13.8613V1.82706ZM21.6409 18.8298H15.2172V19.2298H21.6409V18.8298ZM22.4158 19.6047C22.4158 19.1755 22.07 18.8298 21.6409 18.8298V19.2298C21.8491 19.2298 22.0158 19.3964 22.0158 19.6047H22.4158ZM21.6409 20.3795C22.07 20.3795 22.4158 20.0338 22.4158 19.6047H22.0158C22.0158 19.8129 21.8491 19.9795 21.6409 19.9795V20.3795ZM18.4291 20.3795H21.6409V19.9795H18.4291V20.3795ZM18.4228 20.3795H18.4291V19.9795H18.4228V20.3795ZM18.4166 20.3795H18.4228V19.9795H18.4166V20.3795ZM15.2172 20.3795H18.4166V19.9795H15.2172V20.3795ZM14.4423 19.6047C14.4423 20.0338 14.7881 20.3795 15.2172 20.3795V19.9795C15.009 19.9795 14.8423 19.8129 14.8423 19.6047H14.4423ZM15.2172 18.8298C14.7957 18.8298 14.4423 19.1741 14.4423 19.6047H14.8423C14.8423 19.3978 15.0138 19.2298 15.2172 19.2298V18.8298ZM10.162 20.0045C9.78912 20.0045 9.48712 20.3065 9.48712 20.6794H9.88712C9.88712 20.5274 10.01 20.4045 10.162 20.4045V20.0045ZM13.8925 20.0045H10.162V20.4045H13.8925V20.0045ZM15.2172 20.8606C14.7103 20.8606 14.2687 20.5586 14.0753 20.1233L13.7097 20.2858C13.9662 20.8628 14.5493 21.2606 15.2172 21.2606V20.8606ZM17.9854 20.8606H15.2172V21.2606H17.9854V20.8606ZM18.1854 21.6792V21.0606H17.7854V21.6792H18.1854ZM15.2172 21.8792H17.9854V21.4792H15.2172V21.8792ZM13.9935 22.8556C14.1233 22.2989 14.6203 21.8792 15.2172 21.8792V21.4792C14.4269 21.4792 13.7742 22.0344 13.604 22.7648L13.9935 22.8556ZM9.68088 23.0102H13.7988V22.6102H9.68088V23.0102ZM9.48712 20.6788L9.48088 22.8096L9.88087 22.8108L9.88712 20.68L9.48712 20.6788ZM18.4228 23.9038H21.6409V23.5038H18.4228V23.9038ZM15.2172 23.9038H18.4228V23.5038H15.2172V23.9038ZM14.4423 23.1289C14.4423 23.5581 14.7881 23.9038 15.2172 23.9038V23.5038C15.009 23.5038 14.8423 23.3371 14.8423 23.1289H14.4423ZM15.2172 22.354C14.7881 22.354 14.4423 22.6998 14.4423 23.1289H14.8423C14.8423 22.9207 15.009 22.754 15.2172 22.754V22.354ZM21.6409 22.354H15.2172V22.754H21.6409V22.354ZM22.4158 23.1289C22.4158 22.6998 22.07 22.354 21.6409 22.354V22.754C21.8491 22.754 22.0158 22.9207 22.0158 23.1289H22.4158ZM21.6409 23.9038C22.07 23.9038 22.4158 23.5581 22.4158 23.1289H22.0158C22.0158 23.3371 21.8491 23.5038 21.6409 23.5038V23.9038ZM8.74356 3.64611H10.4932V3.24611H8.74356V3.64611ZM8.10615 3.0087C8.10615 3.36285 8.3894 3.64611 8.74356 3.64611V3.24611C8.61032 3.24611 8.50615 3.14194 8.50615 3.0087H8.10615ZM8.74356 2.37129C8.3894 2.37129 8.10615 2.65454 8.10615 3.0087H8.50615C8.50615 2.87546 8.61032 2.77129 8.74356 2.77129V2.37129ZM10.4932 2.37129H8.74356V2.77129H10.4932V2.37129ZM11.1306 3.0087C11.1306 2.65454 10.8474 2.37129 10.4932 2.37129V2.77129C10.6264 2.77129 10.7306 2.87546 10.7306 3.0087H11.1306ZM10.4932 3.64611C10.8474 3.64611 11.1306 3.36285 11.1306 3.0087H10.7306C10.7306 3.14194 10.6264 3.24611 10.4932 3.24611V3.64611ZM16.0921 2.80781C15.7442 2.80781 15.4609 3.09107 15.4609 3.43897H15.8609C15.8609 3.31198 15.9651 3.20781 16.0921 3.20781V2.80781ZM16.7233 3.43897C16.7233 3.09107 16.44 2.80781 16.0921 2.80781V3.20781C16.2191 3.20781 16.3233 3.31198 16.3233 3.43897H16.7233ZM16.0921 4.07013C16.44 4.07013 16.7233 3.78688 16.7233 3.43897H16.3233C16.3233 3.56597 16.2191 3.67013 16.0921 3.67013V4.07013ZM15.4609 3.43897C15.4609 3.78688 15.7442 4.07013 16.0921 4.07013V3.67013C15.9651 3.67013 15.8609 3.56597 15.8609 3.43897H15.4609ZM13.88 28.5404C14.7897 28.5404 15.5359 27.8016 15.5359 26.8845H15.1359C15.1359 27.5795 14.5699 28.1404 13.88 28.1404V28.5404ZM10.162 28.5404H13.88V28.1404H10.162V28.5404ZM8.50605 26.8845C8.50605 27.801 9.24546 28.5404 10.162 28.5404V28.1404C9.46638 28.1404 8.90605 27.5801 8.90605 26.8845H8.50605ZM10.162 25.2285C9.25227 25.2285 8.50605 25.9674 8.50605 26.8845H8.90605C8.90605 26.1894 9.47207 25.6285 10.162 25.6285V25.2285ZM13.88 25.2285H10.162V25.6285H13.88V25.2285ZM15.5359 26.8845C15.5359 25.9679 14.7965 25.2285 13.88 25.2285V25.6285C14.5756 25.6285 15.1359 26.1888 15.1359 26.8845H15.5359ZM9.78712 26.8845C9.78712 26.6762 9.95377 26.5096 10.162 26.5096V26.1096C9.73286 26.1096 9.38712 26.4553 9.38712 26.8845H9.78712ZM10.162 27.2594C9.95378 27.2594 9.78712 27.0927 9.78712 26.8845H9.38712C9.38712 27.3136 9.73286 27.6594 10.162 27.6594V27.2594ZM13.88 27.2594H10.162V27.6594H13.88V27.2594ZM14.2549 26.8845C14.2549 27.0927 14.0882 27.2594 13.88 27.2594V27.6594C14.3091 27.6594 14.6549 27.3136 14.6549 26.8845H14.2549ZM13.88 26.5096C14.0882 26.5096 14.2549 26.6762 14.2549 26.8845H14.6549C14.6549 26.4553 14.3091 26.1096 13.88 26.1096V26.5096ZM10.162 26.5096H13.88V26.1096H10.162V26.5096ZM2.9073 7.8449C2.9073 7.71166 3.01146 7.60749 3.14471 7.60749V7.20749C2.79055 7.20749 2.5073 7.49075 2.5073 7.8449H2.9073ZM2.9073 12.6814V7.8449H2.5073V12.6814H2.9073ZM5.54791 15.1121C4.86695 15.1208 4.18833 14.8326 3.68711 14.3761C3.18553 13.9193 2.87914 13.311 2.90709 12.6904L2.5075 12.6724C2.47297 13.439 2.85081 14.1555 3.41776 14.6718C3.98507 15.1886 4.75926 15.5222 5.553 15.5121L5.54791 15.1121ZM8.27512 12.6856C8.30853 13.326 7.97712 13.9408 7.44889 14.3977C6.92063 14.8546 6.21836 15.1323 5.55654 15.1122L5.54437 15.512C6.31975 15.5356 7.11716 15.2135 7.71055 14.7002C8.30396 14.187 8.71614 13.4615 8.67457 12.6647L8.27512 12.6856ZM8.27485 7.83865V12.6751H8.67485V7.83865H8.27485ZM8.03744 7.60125C8.17068 7.60125 8.27485 7.70541 8.27485 7.83865H8.67485C8.67485 7.4845 8.39159 7.20125 8.03744 7.20125V7.60125ZM7.80003 7.83865C7.80003 7.70541 7.90419 7.60125 8.03744 7.60125V7.20125C7.68328 7.20125 7.40003 7.4845 7.40003 7.83865H7.80003ZM7.80003 12.6751V7.83865H7.40003V12.6751H7.80003ZM5.54927 14.631C6.12707 14.6344 6.69714 14.4132 7.11794 14.063C7.53805 13.7133 7.829 13.2166 7.79975 12.6646L7.40031 12.6857C7.42105 13.0772 7.21522 13.4616 6.86205 13.7555C6.50959 14.0489 6.02987 14.2339 5.55164 14.231L5.54927 14.631ZM3.38881 12.6618C3.35192 13.2151 3.65927 13.7182 4.07205 14.0687C4.48555 14.4199 5.03871 14.6486 5.55725 14.6309L5.54366 14.2311C5.14364 14.2448 4.68451 14.0641 4.33098 13.7639C3.97674 13.463 3.76232 13.0725 3.78792 12.6884L3.38881 12.6618ZM3.38836 7.83865V12.6751H3.78836V7.83865H3.38836ZM3.14471 7.60749C3.27879 7.60749 3.385 7.71362 3.38843 7.84392L3.78829 7.83339C3.77923 7.48879 3.49802 7.20749 3.14471 7.20749V7.60749ZM10.0171 15.3034C10.2028 15.4427 10.6163 15.5246 10.9024 15.1848L10.5964 14.9271C10.5358 14.9991 10.4687 15.0219 10.4082 15.024C10.3401 15.0263 10.2821 15.0022 10.2571 14.9834L10.0171 15.3034ZM9.89143 14.4024C9.66945 14.6891 9.73936 15.0884 10.0146 15.3016L10.2595 14.9853C10.1473 14.8984 10.1298 14.7479 10.2077 14.6472L9.89143 14.4024ZM12.4706 10.9801L9.88986 14.4044L10.2093 14.6452L12.79 11.2209L12.4706 10.9801ZM10.1528 8.17218L12.4711 11.2215L12.7895 10.9795L10.4712 7.93009L10.1528 8.17218ZM10.2803 7.27189C9.99518 7.48346 9.94391 7.89065 10.1514 8.1703L10.4726 7.93196C10.3927 7.8242 10.4164 7.66901 10.5187 7.59313L10.2803 7.27189ZM11.1787 7.40082C10.9672 7.11567 10.56 7.0644 10.2803 7.27189L10.5187 7.59313C10.6264 7.51318 10.7816 7.5369 10.8575 7.63916L11.1787 7.40082ZM13.3457 10.2547L11.1774 7.39905L10.8588 7.64094L13.0271 10.4966L13.3457 10.2547ZM15.1763 7.4058L13.0268 10.2552L13.3461 10.4961L15.4956 7.64669L15.1763 7.4058ZM16.0675 7.27814C15.7873 7.07022 15.3865 7.1225 15.1754 7.40707L15.4966 7.64541C15.5729 7.54257 15.722 7.51986 15.8292 7.59938L16.0675 7.27814ZM16.1964 8.1703C16.4044 7.89006 16.3521 7.48928 16.0675 7.27814L15.8292 7.59938C15.932 7.67568 15.9547 7.82479 15.8752 7.93196L16.1964 8.1703ZM13.896 11.2209L16.1955 8.17155L15.8761 7.93072L13.5766 10.9801L13.896 11.2209ZM16.5888 14.5289L13.8956 10.9796L13.577 11.2214L16.2702 14.7707L16.5888 14.5289ZM16.4612 15.429C16.7463 15.2174 16.7976 14.8102 16.5901 14.5306L16.2689 14.7689C16.3488 14.8767 16.3251 15.0319 16.2228 15.1078L16.4612 15.429ZM15.5889 15.3289C15.6547 15.3888 15.7624 15.4878 15.9107 15.5314C16.0727 15.5789 16.2495 15.5532 16.4424 15.4414L16.2417 15.0954C16.1221 15.1647 16.0584 15.1578 16.0234 15.1476C15.9749 15.1333 15.9295 15.098 15.8579 15.0329L15.5889 15.3289ZM13.0209 11.9525L15.5641 15.3018L15.8827 15.06L13.3395 11.7106L13.0209 11.9525ZM10.9091 15.1763L13.3399 11.952L13.0205 11.7112L10.5897 14.9355L10.9091 15.1763Z" fill="#121212" mask="url(#path-1-outside-1_54_2358)"/>
</svg>
