<svg width="31" height="31" viewBox="0 0 31 31" fill="none" xmlns="http://www.w3.org/2000/svg">
<mask id="path-1-outside-1_54_2441" maskUnits="userSpaceOnUse" x="-0.75" y="-0.153687" width="32" height="32" fill="black">
<rect fill="white" x="-0.75" y="-0.153687" width="32" height="32"/>
<path fill-rule="evenodd" clip-rule="evenodd" d="M27.2265 3.93927C25.2744 1.96203 22.6612 0.872665 19.878 0.872665C18.2471 0.872665 16.6728 1.25048 15.256 1.95574C13.7825 1.2064 12.1453 0.82229 10.4893 0.847477C8.73871 0.872665 7.01335 1.35123 5.49579 2.2328C5.21873 2.39652 5.11798 2.75545 5.2817 3.03251C5.44542 3.30958 5.80434 3.41033 6.08141 3.24661C8.50572 1.84239 11.4653 1.65348 14.0281 2.68618C13.4992 3.0514 12.9954 3.4733 12.5295 3.94556L10.2185 6.28172C9.48175 7.02476 9.48175 8.23377 10.2185 8.97681C11.5849 10.3558 13.4425 9.57502 14.5571 9.10275L19.412 7.05625L21.8867 9.56242C22.1134 9.79541 22.4849 9.79541 22.7179 9.56872C22.9509 9.34203 22.9509 8.97051 22.7242 8.73752L19.9661 5.94799C19.7961 5.77797 19.5442 5.72759 19.3238 5.82205L14.1037 8.01967C12.6491 8.63048 11.7297 8.83198 11.0497 8.14561C10.7663 7.86225 10.7663 7.38369 11.0497 7.10032L13.3607 4.76416C15.0923 3.01362 17.4033 2.04389 19.8717 2.04389C22.3401 2.04389 24.651 3.00732 26.3827 4.76416C28.9329 7.3459 29.739 11.2059 28.5111 14.6L26.4268 12.4905C26.2001 12.2575 25.8286 12.2575 25.5956 12.4842C25.3626 12.7109 25.3626 13.0824 25.5893 13.3154L28.3473 16.1049C28.8259 16.5898 28.8259 17.3706 28.3473 17.8555C28.1206 18.0822 27.8184 18.2144 27.491 18.2144C27.1698 18.2144 26.8676 18.0885 26.6409 17.8618C26.4142 17.6288 26.0427 17.6288 25.8097 17.8555C25.5767 18.0822 25.5767 18.4537 25.8034 18.6867L25.9167 18.8063C26.3197 19.2156 26.2693 19.9649 25.8034 20.4372C25.5578 20.6891 25.2304 20.8276 24.9029 20.8276C24.6321 20.8276 24.3866 20.7269 24.2103 20.5506C23.9836 20.3176 23.612 20.3176 23.3791 20.5443C23.2657 20.6576 23.2027 20.8087 23.2027 20.9599C23.2027 21.111 23.2594 21.2558 23.3728 21.3692C23.7758 21.7785 23.7254 22.5278 23.2594 23.0001C23.0138 23.2519 22.6864 23.3905 22.359 23.3905C22.0882 23.3905 21.8426 23.2897 21.6663 23.1134C21.4396 22.8804 21.0681 22.8804 20.8351 23.1071C20.7218 23.2205 20.6588 23.3716 20.6588 23.5227C20.6588 23.6738 20.7155 23.8187 20.8288 23.932C21.2318 24.3413 21.1814 25.0906 20.7155 25.5629C20.4132 25.8652 20.0039 25.9974 19.6387 25.9407C19.8213 25.1599 19.6072 24.3035 19.009 23.6927C18.5619 23.2393 17.9637 22.9875 17.3214 22.9875C17.2773 22.9875 17.2333 22.9875 17.1955 22.9938C17.2333 22.3326 16.9877 21.6462 16.4713 21.1236C16.0054 20.6513 15.3757 20.3805 14.7334 20.3805H14.6578C14.683 19.732 14.4374 19.0582 13.9337 18.5481C13.4677 18.0759 12.838 17.8051 12.1957 17.8051H12.1202C12.1453 17.1565 11.8998 16.4827 11.396 15.9727C10.93 15.5004 10.3003 15.2297 9.65806 15.2297C9.07245 15.2297 8.53091 15.45 8.1342 15.8531L5.08649 18.9385L4.11677 17.9562C1.19499 14.9967 0.577896 10.381 2.6244 6.7351C2.78182 6.45174 2.68107 6.09282 2.39771 5.93539C2.11435 5.77797 1.75542 5.87872 1.598 6.16208C-0.70038 10.2614 -0.00771841 15.4563 3.27928 18.7811L4.40643 19.9209C4.12306 20.7395 4.33086 21.7155 5.01093 22.4081C5.4769 22.8804 6.1066 23.1512 6.74888 23.1512H6.82444C6.79926 23.7998 7.04484 24.4735 7.54859 24.9836C8.01456 25.4559 8.64426 25.7266 9.28654 25.7266H9.36211C9.33692 26.3752 9.5825 27.049 10.0863 27.559C10.5522 28.0313 11.1819 28.3021 11.8242 28.3021H11.9375C11.8998 28.9632 12.1328 29.6307 12.6239 30.1345C13.071 30.5879 13.6692 30.8397 14.3115 30.8397C14.9475 30.8397 15.552 30.5879 15.9991 30.1345L19.0027 27.0931C19.0153 27.0805 19.0279 27.0663 19.0404 27.0522L19.0405 27.0521C19.0531 27.038 19.0657 27.0238 19.0783 27.0112C19.3112 27.0931 19.5568 27.1371 19.8087 27.1371C20.4321 27.1371 21.0618 26.8853 21.5404 26.3941C22.0441 25.8841 22.2897 25.2103 22.2708 24.5617H22.3464C22.9824 24.5617 23.6183 24.2909 24.0843 23.8187C24.5881 23.3086 24.8336 22.6348 24.8148 21.9863H24.8903C25.5263 21.9863 26.1623 21.7155 26.6283 21.2432C27.1446 20.7206 27.3902 20.0342 27.3524 19.373C27.3753 19.373 27.3982 19.3747 27.4202 19.3764C27.4406 19.3779 27.4602 19.3793 27.4784 19.3793C28.1143 19.3793 28.7189 19.1275 29.1659 18.6741C30.0097 17.8177 30.0853 16.4764 29.3863 15.5319C31.0865 11.5963 30.2301 6.98068 27.2265 3.93927ZM6.76148 21.9863C6.43404 21.9863 6.1066 21.8414 5.86101 21.5958C5.39504 21.1236 5.33837 20.3742 5.74767 19.9649L8.98429 16.6905C9.1606 16.5142 9.40618 16.4135 9.67695 16.4135C10.0044 16.4135 10.3318 16.5583 10.5774 16.8039C11.0434 17.2762 11.1001 18.0255 10.6908 18.4348L7.45414 21.7092C7.27782 21.8855 7.03224 21.9863 6.76148 21.9863ZM9.30543 24.5554C8.97799 24.5554 8.65055 24.4106 8.40497 24.165C7.939 23.6927 7.88233 22.9434 8.29163 22.5341L11.5282 19.2597C11.7046 19.0834 11.9501 18.9826 12.2209 18.9826C12.5483 18.9826 12.8758 19.1275 13.1214 19.373C13.5873 19.8453 13.644 20.5946 13.2347 21.0039L9.99809 24.2783C9.81548 24.4609 9.5699 24.5554 9.30543 24.5554ZM12.5358 26.8538C12.3594 27.0301 12.1139 27.1308 11.8431 27.1308C11.5157 27.1308 11.1882 26.986 10.9426 26.7404C10.4767 26.2682 10.42 25.5188 10.8293 25.1095L14.0659 21.8351C14.2422 21.6588 14.4878 21.5581 14.7586 21.5581C15.086 21.5581 15.4134 21.7029 15.659 21.9485C16.125 22.4207 16.1817 23.1701 15.7724 23.5794L15.7346 23.6172C15.722 23.6298 15.7078 23.6423 15.6937 23.6549C15.6795 23.6675 15.6653 23.6801 15.6527 23.6927L12.6491 26.7341C12.6239 26.7593 12.5987 26.7845 12.5735 26.816L12.5358 26.8538ZM15.1931 29.3033C14.9664 29.5363 14.6641 29.6622 14.3367 29.6622C14.0155 29.6622 13.707 29.5363 13.4803 29.3033C13.0017 28.8184 13.0017 28.0376 13.4803 27.5527L16.4839 24.5113C16.7106 24.2783 17.0129 24.1524 17.3403 24.1524C17.6615 24.1524 17.97 24.2783 18.1967 24.5113C18.6753 24.9962 18.6753 25.777 18.1967 26.2619L15.1931 29.3033ZM3.71385 4.94045C4.03499 4.94045 4.29946 4.67598 4.29946 4.35484C4.29946 4.0337 4.03499 3.76923 3.71385 3.76923C3.39271 3.76923 3.12823 4.0337 3.12823 4.35484C3.12823 4.67598 3.38641 4.94045 3.71385 4.94045ZM24.1662 10.444C24.4873 10.444 24.7518 10.7084 24.7518 11.0296C24.7518 11.3507 24.4873 11.6152 24.1662 11.6152C23.845 11.6152 23.5806 11.3507 23.5806 11.0296C23.5806 10.7084 23.845 10.444 24.1662 10.444Z"/>
</mask>
<path fill-rule="evenodd" clip-rule="evenodd" d="M27.2265 3.93927C25.2744 1.96203 22.6612 0.872665 19.878 0.872665C18.2471 0.872665 16.6728 1.25048 15.256 1.95574C13.7825 1.2064 12.1453 0.82229 10.4893 0.847477C8.73871 0.872665 7.01335 1.35123 5.49579 2.2328C5.21873 2.39652 5.11798 2.75545 5.2817 3.03251C5.44542 3.30958 5.80434 3.41033 6.08141 3.24661C8.50572 1.84239 11.4653 1.65348 14.0281 2.68618C13.4992 3.0514 12.9954 3.4733 12.5295 3.94556L10.2185 6.28172C9.48175 7.02476 9.48175 8.23377 10.2185 8.97681C11.5849 10.3558 13.4425 9.57502 14.5571 9.10275L19.412 7.05625L21.8867 9.56242C22.1134 9.79541 22.4849 9.79541 22.7179 9.56872C22.9509 9.34203 22.9509 8.97051 22.7242 8.73752L19.9661 5.94799C19.7961 5.77797 19.5442 5.72759 19.3238 5.82205L14.1037 8.01967C12.6491 8.63048 11.7297 8.83198 11.0497 8.14561C10.7663 7.86225 10.7663 7.38369 11.0497 7.10032L13.3607 4.76416C15.0923 3.01362 17.4033 2.04389 19.8717 2.04389C22.3401 2.04389 24.651 3.00732 26.3827 4.76416C28.9329 7.3459 29.739 11.2059 28.5111 14.6L26.4268 12.4905C26.2001 12.2575 25.8286 12.2575 25.5956 12.4842C25.3626 12.7109 25.3626 13.0824 25.5893 13.3154L28.3473 16.1049C28.8259 16.5898 28.8259 17.3706 28.3473 17.8555C28.1206 18.0822 27.8184 18.2144 27.491 18.2144C27.1698 18.2144 26.8676 18.0885 26.6409 17.8618C26.4142 17.6288 26.0427 17.6288 25.8097 17.8555C25.5767 18.0822 25.5767 18.4537 25.8034 18.6867L25.9167 18.8063C26.3197 19.2156 26.2693 19.9649 25.8034 20.4372C25.5578 20.6891 25.2304 20.8276 24.9029 20.8276C24.6321 20.8276 24.3866 20.7269 24.2103 20.5506C23.9836 20.3176 23.612 20.3176 23.3791 20.5443C23.2657 20.6576 23.2027 20.8087 23.2027 20.9599C23.2027 21.111 23.2594 21.2558 23.3728 21.3692C23.7758 21.7785 23.7254 22.5278 23.2594 23.0001C23.0138 23.2519 22.6864 23.3905 22.359 23.3905C22.0882 23.3905 21.8426 23.2897 21.6663 23.1134C21.4396 22.8804 21.0681 22.8804 20.8351 23.1071C20.7218 23.2205 20.6588 23.3716 20.6588 23.5227C20.6588 23.6738 20.7155 23.8187 20.8288 23.932C21.2318 24.3413 21.1814 25.0906 20.7155 25.5629C20.4132 25.8652 20.0039 25.9974 19.6387 25.9407C19.8213 25.1599 19.6072 24.3035 19.009 23.6927C18.5619 23.2393 17.9637 22.9875 17.3214 22.9875C17.2773 22.9875 17.2333 22.9875 17.1955 22.9938C17.2333 22.3326 16.9877 21.6462 16.4713 21.1236C16.0054 20.6513 15.3757 20.3805 14.7334 20.3805H14.6578C14.683 19.732 14.4374 19.0582 13.9337 18.5481C13.4677 18.0759 12.838 17.8051 12.1957 17.8051H12.1202C12.1453 17.1565 11.8998 16.4827 11.396 15.9727C10.93 15.5004 10.3003 15.2297 9.65806 15.2297C9.07245 15.2297 8.53091 15.45 8.1342 15.8531L5.08649 18.9385L4.11677 17.9562C1.19499 14.9967 0.577896 10.381 2.6244 6.7351C2.78182 6.45174 2.68107 6.09282 2.39771 5.93539C2.11435 5.77797 1.75542 5.87872 1.598 6.16208C-0.70038 10.2614 -0.00771841 15.4563 3.27928 18.7811L4.40643 19.9209C4.12306 20.7395 4.33086 21.7155 5.01093 22.4081C5.4769 22.8804 6.1066 23.1512 6.74888 23.1512H6.82444C6.79926 23.7998 7.04484 24.4735 7.54859 24.9836C8.01456 25.4559 8.64426 25.7266 9.28654 25.7266H9.36211C9.33692 26.3752 9.5825 27.049 10.0863 27.559C10.5522 28.0313 11.1819 28.3021 11.8242 28.3021H11.9375C11.8998 28.9632 12.1328 29.6307 12.6239 30.1345C13.071 30.5879 13.6692 30.8397 14.3115 30.8397C14.9475 30.8397 15.552 30.5879 15.9991 30.1345L19.0027 27.0931C19.0153 27.0805 19.0279 27.0663 19.0404 27.0522L19.0405 27.0521C19.0531 27.038 19.0657 27.0238 19.0783 27.0112C19.3112 27.0931 19.5568 27.1371 19.8087 27.1371C20.4321 27.1371 21.0618 26.8853 21.5404 26.3941C22.0441 25.8841 22.2897 25.2103 22.2708 24.5617H22.3464C22.9824 24.5617 23.6183 24.2909 24.0843 23.8187C24.5881 23.3086 24.8336 22.6348 24.8148 21.9863H24.8903C25.5263 21.9863 26.1623 21.7155 26.6283 21.2432C27.1446 20.7206 27.3902 20.0342 27.3524 19.373C27.3753 19.373 27.3982 19.3747 27.4202 19.3764C27.4406 19.3779 27.4602 19.3793 27.4784 19.3793C28.1143 19.3793 28.7189 19.1275 29.1659 18.6741C30.0097 17.8177 30.0853 16.4764 29.3863 15.5319C31.0865 11.5963 30.2301 6.98068 27.2265 3.93927ZM6.76148 21.9863C6.43404 21.9863 6.1066 21.8414 5.86101 21.5958C5.39504 21.1236 5.33837 20.3742 5.74767 19.9649L8.98429 16.6905C9.1606 16.5142 9.40618 16.4135 9.67695 16.4135C10.0044 16.4135 10.3318 16.5583 10.5774 16.8039C11.0434 17.2762 11.1001 18.0255 10.6908 18.4348L7.45414 21.7092C7.27782 21.8855 7.03224 21.9863 6.76148 21.9863ZM9.30543 24.5554C8.97799 24.5554 8.65055 24.4106 8.40497 24.165C7.939 23.6927 7.88233 22.9434 8.29163 22.5341L11.5282 19.2597C11.7046 19.0834 11.9501 18.9826 12.2209 18.9826C12.5483 18.9826 12.8758 19.1275 13.1214 19.373C13.5873 19.8453 13.644 20.5946 13.2347 21.0039L9.99809 24.2783C9.81548 24.4609 9.5699 24.5554 9.30543 24.5554ZM12.5358 26.8538C12.3594 27.0301 12.1139 27.1308 11.8431 27.1308C11.5157 27.1308 11.1882 26.986 10.9426 26.7404C10.4767 26.2682 10.42 25.5188 10.8293 25.1095L14.0659 21.8351C14.2422 21.6588 14.4878 21.5581 14.7586 21.5581C15.086 21.5581 15.4134 21.7029 15.659 21.9485C16.125 22.4207 16.1817 23.1701 15.7724 23.5794L15.7346 23.6172C15.722 23.6298 15.7078 23.6423 15.6937 23.6549C15.6795 23.6675 15.6653 23.6801 15.6527 23.6927L12.6491 26.7341C12.6239 26.7593 12.5987 26.7845 12.5735 26.816L12.5358 26.8538ZM15.1931 29.3033C14.9664 29.5363 14.6641 29.6622 14.3367 29.6622C14.0155 29.6622 13.707 29.5363 13.4803 29.3033C13.0017 28.8184 13.0017 28.0376 13.4803 27.5527L16.4839 24.5113C16.7106 24.2783 17.0129 24.1524 17.3403 24.1524C17.6615 24.1524 17.97 24.2783 18.1967 24.5113C18.6753 24.9962 18.6753 25.777 18.1967 26.2619L15.1931 29.3033ZM3.71385 4.94045C4.03499 4.94045 4.29946 4.67598 4.29946 4.35484C4.29946 4.0337 4.03499 3.76923 3.71385 3.76923C3.39271 3.76923 3.12823 4.0337 3.12823 4.35484C3.12823 4.67598 3.38641 4.94045 3.71385 4.94045ZM24.1662 10.444C24.4873 10.444 24.7518 10.7084 24.7518 11.0296C24.7518 11.3507 24.4873 11.6152 24.1662 11.6152C23.845 11.6152 23.5806 11.3507 23.5806 11.0296C23.5806 10.7084 23.845 10.444 24.1662 10.444Z" fill="#121212"/>
<path d="M27.2265 3.93927L27.1197 4.04465L27.1198 4.04467L27.2265 3.93927ZM15.256 1.95574L15.188 2.08944L15.2553 2.12365L15.3229 2.09002L15.256 1.95574ZM10.4893 0.847477L10.4914 0.997462L10.4915 0.99746L10.4893 0.847477ZM5.49579 2.2328L5.42045 2.10309L5.41948 2.10366L5.49579 2.2328ZM5.2817 3.03251L5.41084 2.9562L5.41084 2.9562L5.2817 3.03251ZM6.08141 3.24661L6.00622 3.1168L6.0051 3.11747L6.08141 3.24661ZM14.0281 2.68618L14.1134 2.80961L14.3427 2.65123L14.0842 2.54705L14.0281 2.68618ZM12.5295 3.94556L12.6361 4.05105L12.6362 4.05092L12.5295 3.94556ZM10.2185 6.28172L10.325 6.38734L10.3251 6.38721L10.2185 6.28172ZM10.2185 8.97681L10.325 8.87123L10.325 8.87119L10.2185 8.97681ZM14.5571 9.10275L14.4988 8.96452L14.4985 8.96463L14.5571 9.10275ZM19.412 7.05625L19.5187 6.95085L19.4473 6.87856L19.3537 6.91802L19.412 7.05625ZM21.8867 9.56242L21.9942 9.45781L21.9934 9.45703L21.8867 9.56242ZM22.7179 9.56872L22.8225 9.67623L22.8225 9.67623L22.7179 9.56872ZM22.7242 8.73752L22.8317 8.63292L22.8308 8.63206L22.7242 8.73752ZM19.9661 5.94799L20.0728 5.84252L20.0722 5.84192L19.9661 5.94799ZM19.3238 5.82205L19.382 5.9603L19.3829 5.95992L19.3238 5.82205ZM14.1037 8.01967L14.1618 8.15798L14.1619 8.15792L14.1037 8.01967ZM11.0497 8.14561L11.1562 8.04004L11.1557 8.03955L11.0497 8.14561ZM11.0497 7.10032L11.1557 7.20639L11.1563 7.20581L11.0497 7.10032ZM13.3607 4.76416L13.4673 4.86965L13.4673 4.86965L13.3607 4.76416ZM26.3827 4.76416L26.2759 4.86946L26.276 4.86958L26.3827 4.76416ZM28.5111 14.6L28.4043 14.7054L28.5713 14.8744L28.6521 14.651L28.5111 14.6ZM26.4268 12.4905L26.3193 12.5951L26.3201 12.5959L26.4268 12.4905ZM25.5893 13.3154L25.4818 13.42L25.4826 13.4209L25.5893 13.3154ZM28.3473 16.1049L28.4541 15.9996L28.454 15.9995L28.3473 16.1049ZM28.3473 17.8555L28.4534 17.9615L28.4541 17.9608L28.3473 17.8555ZM26.6409 17.8618L26.5333 17.9664L26.5348 17.9678L26.6409 17.8618ZM25.8097 17.8555L25.7051 17.748L25.7051 17.748L25.8097 17.8555ZM25.8034 18.6867L25.9123 18.5835L25.9109 18.5821L25.8034 18.6867ZM25.9167 18.8063L25.8078 18.9095L25.8098 18.9115L25.9167 18.8063ZM25.8034 20.4372L25.6966 20.3319L25.696 20.3325L25.8034 20.4372ZM24.2103 20.5506L24.1027 20.6552L24.1042 20.6566L24.2103 20.5506ZM23.3791 20.5443L23.2744 20.4367L23.273 20.4382L23.3791 20.5443ZM23.3728 21.3692L23.4797 21.2639L23.4788 21.2631L23.3728 21.3692ZM23.2594 23.0001L23.1526 22.8947L23.152 22.8953L23.2594 23.0001ZM21.6663 23.1134L21.5588 23.218L21.5602 23.2195L21.6663 23.1134ZM20.8351 23.1071L20.7305 22.9996L20.729 23.001L20.8351 23.1071ZM20.8288 23.932L20.9357 23.8268L20.9349 23.8259L20.8288 23.932ZM20.7155 25.5629L20.8215 25.669L20.8222 25.6683L20.7155 25.5629ZM19.6387 25.9407L19.4926 25.9066L19.4558 26.0641L19.6157 26.089L19.6387 25.9407ZM19.009 23.6927L19.1162 23.5878L19.1158 23.5874L19.009 23.6927ZM17.1955 22.9938L17.0457 22.9852L17.035 23.1726L17.2201 23.1417L17.1955 22.9938ZM16.4713 21.1236L16.3646 21.2289L16.3646 21.229L16.4713 21.1236ZM14.6578 20.3805L14.5079 20.3747L14.5019 20.5305H14.6578V20.3805ZM13.9337 18.5481L13.8269 18.6535L13.827 18.6535L13.9337 18.5481ZM12.1202 17.8051L11.9703 17.7993L11.9642 17.9551H12.1202V17.8051ZM11.396 15.9727L11.2892 16.078L11.2893 16.0781L11.396 15.9727ZM8.1342 15.8531L8.24092 15.9585L8.2411 15.9583L8.1342 15.8531ZM5.08649 18.9385L4.97975 19.0439L5.08646 19.152L5.19321 19.044L5.08649 18.9385ZM4.11677 17.9562L4.22352 17.8508L4.22351 17.8508L4.11677 17.9562ZM2.6244 6.7351L2.7552 6.80852L2.75552 6.80795L2.6244 6.7351ZM2.39771 5.93539L2.32486 6.06652L2.32486 6.06652L2.39771 5.93539ZM1.598 6.16208L1.72884 6.23544L1.72912 6.23493L1.598 6.16208ZM3.27928 18.7811L3.17261 18.8866L3.17262 18.8866L3.27928 18.7811ZM4.40643 19.9209L4.54817 19.9699L4.5787 19.8817L4.51308 19.8154L4.40643 19.9209ZM5.01093 22.4081L4.9039 22.5132L4.90415 22.5135L5.01093 22.4081ZM6.82444 23.1512L6.97433 23.157L6.98038 23.0012H6.82444V23.1512ZM7.54859 24.9836L7.65537 24.8782L7.65531 24.8782L7.54859 24.9836ZM9.36211 25.7266L9.51199 25.7325L9.51804 25.5766H9.36211V25.7266ZM10.0863 27.559L10.193 27.4537L10.193 27.4536L10.0863 27.559ZM11.9375 28.3021L12.0873 28.3106L12.0964 28.1521H11.9375V28.3021ZM12.6239 30.1345L12.5165 30.2392L12.5171 30.2398L12.6239 30.1345ZM15.9991 30.1345L15.8923 30.0291L15.8923 30.0292L15.9991 30.1345ZM19.0027 27.0931L18.8966 26.987L18.896 26.9877L19.0027 27.0931ZM19.0404 27.0522L19.1525 27.1518L19.1525 27.1518L19.0404 27.0522ZM19.0405 27.0521L18.9284 26.9525L18.9284 26.9525L19.0405 27.0521ZM19.0783 27.0112L19.128 26.8697L19.0389 26.8384L18.9722 26.9051L19.0783 27.0112ZM21.5404 26.3941L21.4336 26.2887L21.4329 26.2894L21.5404 26.3941ZM22.2708 24.5617V24.4117H22.1164L22.1209 24.5661L22.2708 24.5617ZM24.0843 23.8187L23.9776 23.7133L23.9775 23.7133L24.0843 23.8187ZM24.8148 21.9863V21.8363H24.6603L24.6648 21.9906L24.8148 21.9863ZM26.6283 21.2432L26.5216 21.1378L26.5215 21.1379L26.6283 21.2432ZM27.3524 19.373V19.223H27.1936L27.2027 19.3816L27.3524 19.373ZM27.4202 19.3764L27.4091 19.526L27.4091 19.526L27.4202 19.3764ZM29.1659 18.6741L29.2727 18.7794L29.2728 18.7794L29.1659 18.6741ZM29.3863 15.5319L29.2486 15.4724L29.2144 15.5517L29.2657 15.6211L29.3863 15.5319ZM5.86101 21.5958L5.75424 21.7012L5.75495 21.7019L5.86101 21.5958ZM5.74767 19.9649L5.85374 20.071L5.85435 20.0704L5.74767 19.9649ZM8.98429 16.6905L8.87822 16.5845L8.87761 16.5851L8.98429 16.6905ZM10.5774 16.8039L10.6842 16.6985L10.6835 16.6978L10.5774 16.8039ZM10.6908 18.4348L10.5847 18.3287L10.5841 18.3293L10.6908 18.4348ZM7.45414 21.7092L7.5602 21.8153L7.56082 21.8146L7.45414 21.7092ZM8.40497 24.165L8.2982 24.2703L8.29891 24.2711L8.40497 24.165ZM8.29163 22.5341L8.3977 22.6402L8.39831 22.6395L8.29163 22.5341ZM11.5282 19.2597L11.4222 19.1536L11.4216 19.1542L11.5282 19.2597ZM13.1214 19.373L13.2281 19.2677L13.2274 19.267L13.1214 19.373ZM13.2347 21.0039L13.1286 20.8979L13.128 20.8985L13.2347 21.0039ZM9.99809 24.2783L10.1042 24.3844L10.1048 24.3838L9.99809 24.2783ZM12.5358 26.8538L12.4297 26.7477L12.4297 26.7477L12.5358 26.8538ZM10.9426 26.7404L10.8359 26.8458L10.8366 26.8465L10.9426 26.7404ZM10.8293 25.1095L10.9354 25.2156L10.936 25.215L10.8293 25.1095ZM14.0659 21.8351L13.9598 21.7291L13.9592 21.7297L14.0659 21.8351ZM15.659 21.9485L15.7658 21.8431L15.7651 21.8424L15.659 21.9485ZM15.7724 23.5794L15.6663 23.4733L15.6663 23.4733L15.7724 23.5794ZM15.7346 23.6172L15.8407 23.7232L15.8407 23.7232L15.7346 23.6172ZM15.6937 23.6549L15.594 23.5428L15.594 23.5428L15.6937 23.6549ZM15.6527 23.6927L15.5467 23.5867L15.546 23.5873L15.6527 23.6927ZM12.6491 26.7341L12.7552 26.8402L12.7558 26.8395L12.6491 26.7341ZM12.5735 26.816L12.6796 26.9221L12.6855 26.9162L12.6907 26.9097L12.5735 26.816ZM15.1931 29.3033L15.0863 29.1979L15.0855 29.1987L15.1931 29.3033ZM13.4803 29.3033L13.5878 29.1987L13.5871 29.1979L13.4803 29.3033ZM13.4803 27.5527L13.3736 27.4473L13.3735 27.4474L13.4803 27.5527ZM16.4839 24.5113L16.5907 24.6167L16.5914 24.6159L16.4839 24.5113ZM18.1967 24.5113L18.0892 24.6159L18.0899 24.6167L18.1967 24.5113ZM18.1967 26.2619L18.3034 26.3673L18.3034 26.3672L18.1967 26.2619ZM19.878 1.02266C22.6212 1.02266 25.196 2.09607 27.1197 4.04465L27.3332 3.83388C25.3529 1.828 22.7012 0.722665 19.878 0.722665V1.02266ZM15.3229 2.09002C16.719 1.39504 18.2704 1.02266 19.878 1.02266V0.722665C18.2237 0.722665 16.6266 1.10592 15.1892 1.82145L15.3229 2.09002ZM10.4915 0.99746C12.123 0.972647 13.7361 1.35104 15.188 2.08944L15.324 1.82203C13.829 1.06176 12.1677 0.671932 10.487 0.697495L10.4915 0.99746ZM5.57114 2.3625C7.0665 1.49383 8.76666 1.02228 10.4914 0.997462L10.4871 0.697493C8.71076 0.723052 6.96021 1.20863 5.42045 2.1031L5.57114 2.3625ZM5.41084 2.9562C5.29121 2.75376 5.36302 2.48549 5.5721 2.36194L5.41948 2.10366C5.07444 2.30755 4.94474 2.75713 5.15256 3.10882L5.41084 2.9562ZM6.0051 3.11747C5.80265 3.23709 5.53439 3.16529 5.41084 2.9562L5.15256 3.10882C5.35645 3.45386 5.80603 3.58356 6.15772 3.37574L6.0051 3.11747ZM14.0842 2.54705C11.479 1.49729 8.47097 1.68917 6.00623 3.11681L6.15659 3.3764C8.54047 1.99561 11.4516 1.80968 13.9721 2.82531L14.0842 2.54705ZM12.6362 4.05092C13.0956 3.5853 13.5922 3.16947 14.1134 2.80961L13.9429 2.56274C13.4062 2.93333 12.8952 3.36129 12.4227 3.84021L12.6362 4.05092ZM10.3251 6.38721L12.6361 4.05105L12.4228 3.84007L10.1118 6.17623L10.3251 6.38721ZM10.325 8.87119C9.64624 8.18663 9.64624 7.0719 10.325 6.38734L10.112 6.17611C9.31725 6.97762 9.31725 8.28091 10.112 9.08242L10.325 8.87119ZM14.4985 8.96463C13.9387 9.20185 13.2155 9.50568 12.4665 9.58484C11.7244 9.66328 10.9681 9.52022 10.325 8.87123L10.1119 9.08239C10.8353 9.81242 11.6911 9.96847 12.498 9.88318C13.298 9.79863 14.0609 9.47591 14.6156 9.24086L14.4985 8.96463ZM19.3537 6.91802L14.4988 8.96452L14.6153 9.24097L19.4703 7.19447L19.3537 6.91802ZM21.9934 9.45703L19.5187 6.95085L19.3053 7.16164L21.78 9.66781L21.9934 9.45703ZM22.6133 9.46121C22.4379 9.6318 22.1615 9.62972 21.9942 9.45782L21.7792 9.66702C22.0653 9.96109 22.5318 9.95901 22.8225 9.67623L22.6133 9.46121ZM22.6167 8.84213C22.7873 9.01746 22.7852 9.29395 22.6133 9.46121L22.8225 9.67623C23.1166 9.39011 23.1145 8.92356 22.8317 8.63292L22.6167 8.84213ZM19.8595 6.05345L22.6175 8.84299L22.8308 8.63206L20.0728 5.84252L19.8595 6.05345ZM19.3829 5.95992C19.546 5.89005 19.7327 5.92665 19.8601 6.05405L20.0722 5.84192C19.8596 5.62929 19.5425 5.56514 19.2648 5.68418L19.3829 5.95992ZM14.1619 8.15792L19.382 5.9603L19.2656 5.6838L14.0455 7.88143L14.1619 8.15792ZM10.9431 8.25119C11.3192 8.63078 11.7651 8.76253 12.2986 8.71858C12.8211 8.67551 13.4339 8.46362 14.1618 8.15798L14.0456 7.88137C13.3189 8.18653 12.7447 8.38079 12.2739 8.41959C11.814 8.45749 11.4602 8.34681 11.1562 8.04004L10.9431 8.25119ZM10.9436 6.99426C10.6017 7.3362 10.6017 7.90974 10.9436 8.25168L11.1557 8.03955C10.931 7.81476 10.931 7.43117 11.1557 7.20639L10.9436 6.99426ZM13.254 4.65868L10.943 6.99483L11.1563 7.20581L13.4673 4.86965L13.254 4.65868ZM19.8717 1.89389C17.3631 1.89389 15.0137 2.87976 13.254 4.65868L13.4673 4.86965C15.1709 3.14748 17.4435 2.19389 19.8717 2.19389V1.89389ZM26.4895 4.65887C24.7296 2.87331 22.3801 1.89389 19.8717 1.89389V2.19389C22.3001 2.19389 24.5725 3.14134 26.2759 4.86946L26.4895 4.65887ZM28.6521 14.651C29.8993 11.2037 29.0811 7.28249 26.4894 4.65875L26.276 4.86958C28.7847 7.40932 29.5786 11.2082 28.37 14.5489L28.6521 14.651ZM26.3201 12.5959L28.4043 14.7054L28.6178 14.4945L26.5335 12.3851L26.3201 12.5959ZM25.7002 12.5917C25.8755 12.4211 26.152 12.4232 26.3193 12.5951L26.5343 12.3859C26.2482 12.0918 25.7816 12.0939 25.491 12.3767L25.7002 12.5917ZM25.6968 13.2108C25.5262 13.0355 25.5283 12.759 25.7002 12.5917L25.491 12.3767C25.1969 12.6628 25.199 13.1294 25.4818 13.42L25.6968 13.2108ZM28.454 15.9995L25.6959 13.2099L25.4826 13.4209L28.2407 16.2104L28.454 15.9995ZM28.4541 17.9608C28.9903 17.4176 28.9903 16.5428 28.4541 15.9996L28.2406 16.2103C28.6615 16.6367 28.6615 17.3237 28.2406 17.7501L28.4541 17.9608ZM27.491 18.3644C27.8599 18.3644 28.1999 18.2151 28.4534 17.9615L28.2413 17.7494C28.0414 17.9492 27.7768 18.0644 27.491 18.0644V18.3644ZM26.5348 17.9678C26.7895 18.2225 27.1298 18.3644 27.491 18.3644V18.0644C27.2098 18.0644 26.9456 17.9544 26.7469 17.7557L26.5348 17.9678ZM25.9143 17.963C26.0896 17.7924 26.3661 17.7945 26.5334 17.9664L26.7484 17.7572C26.4623 17.4631 25.9957 17.4652 25.7051 17.748L25.9143 17.963ZM25.9109 18.5821C25.7403 18.4067 25.7424 18.1302 25.9143 17.963L25.7051 17.748C25.411 18.0341 25.4131 18.5006 25.6959 18.7913L25.9109 18.5821ZM26.0256 18.7031L25.9123 18.5835L25.6945 18.7898L25.8078 18.9095L26.0256 18.7031ZM25.9102 20.5426C26.4198 20.026 26.4971 19.182 26.0236 18.7011L25.8098 18.9115C26.1424 19.2493 26.1189 19.9039 25.6966 20.3319L25.9102 20.5426ZM24.9029 20.9776C25.2725 20.9776 25.6381 20.8216 25.9108 20.5419L25.696 20.3325C25.4774 20.5566 25.1883 20.6776 24.9029 20.6776V20.9776ZM24.1042 20.6566C24.3101 20.8626 24.5945 20.9776 24.9029 20.9776V20.6776C24.6698 20.6776 24.463 20.5912 24.3163 20.4445L24.1042 20.6566ZM23.4837 20.6518C23.659 20.4812 23.9355 20.4833 24.1027 20.6552L24.3178 20.446C24.0316 20.1519 23.5651 20.154 23.2745 20.4368L23.4837 20.6518ZM23.3527 20.9599C23.3527 20.85 23.3989 20.7366 23.4851 20.6503L23.273 20.4382C23.1326 20.5786 23.0527 20.7675 23.0527 20.9599H23.3527ZM23.4788 21.2631C23.3943 21.1785 23.3527 21.0722 23.3527 20.9599H23.0527C23.0527 21.1498 23.1246 21.3331 23.2667 21.4752L23.4788 21.2631ZM23.3662 23.1054C23.8759 22.5889 23.9531 21.7448 23.4796 21.2639L23.2659 21.4744C23.5984 21.8121 23.5749 22.4667 23.1526 22.8947L23.3662 23.1054ZM22.359 23.5405C22.7285 23.5405 23.0942 23.3844 23.3668 23.1048L23.152 22.8953C22.9335 23.1195 22.6443 23.2405 22.359 23.2405V23.5405ZM21.5602 23.2195C21.7662 23.4254 22.0506 23.5405 22.359 23.5405V23.2405C22.1258 23.2405 21.9191 23.154 21.7724 23.0073L21.5602 23.2195ZM20.9397 23.2146C21.115 23.044 21.3915 23.0461 21.5588 23.218L21.7738 23.0088C21.4877 22.7147 21.0211 22.7168 20.7305 22.9996L20.9397 23.2146ZM20.8088 23.5227C20.8088 23.4128 20.8549 23.2994 20.9412 23.2132L20.729 23.001C20.5886 23.1415 20.5088 23.3303 20.5088 23.5227H20.8088ZM20.9349 23.8259C20.8503 23.7414 20.8088 23.635 20.8088 23.5227H20.5088C20.5088 23.7127 20.5806 23.8959 20.7227 24.0381L20.9349 23.8259ZM20.8222 25.6683C21.3319 25.1517 21.4092 24.3077 20.9357 23.8268L20.7219 24.0372C21.0544 24.375 21.031 25.0296 20.6087 25.4576L20.8222 25.6683ZM19.6157 26.089C20.0314 26.1535 20.4878 26.0027 20.8215 25.669L20.6094 25.4568C20.3386 25.7277 19.9764 25.8413 19.6617 25.7925L19.6157 26.089ZM18.9018 23.7977C19.463 24.3706 19.6639 25.1741 19.4926 25.9066L19.7847 25.9749C19.9787 25.1457 19.7514 24.2364 19.1162 23.5878L18.9018 23.7977ZM17.3214 23.1375C17.9235 23.1375 18.4832 23.3732 18.9022 23.798L19.1158 23.5874C18.6406 23.1055 18.0039 22.8375 17.3214 22.8375V23.1375ZM17.2201 23.1417C17.2432 23.1379 17.274 23.1375 17.3214 23.1375V22.8375C17.2807 22.8375 17.2233 22.8371 17.1708 22.8458L17.2201 23.1417ZM16.3646 21.229C16.8514 21.7217 17.0811 22.3667 17.0457 22.9852L17.3452 23.0023C17.3855 22.2985 17.124 21.5708 16.578 21.0182L16.3646 21.229ZM14.7334 20.5305C15.3337 20.5305 15.9255 20.7839 16.3646 21.2289L16.5781 21.0182C16.0853 20.5187 15.4176 20.2305 14.7334 20.2305V20.5305ZM14.6578 20.5305H14.7334V20.2305H14.6578V20.5305ZM13.827 18.6535C14.3014 19.1339 14.5315 19.7674 14.5079 20.3747L14.8077 20.3864C14.8345 19.6965 14.5734 18.9824 14.0404 18.4427L13.827 18.6535ZM12.1957 17.9551C12.796 17.9551 13.3878 18.2085 13.8269 18.6535L14.0404 18.4428C13.5476 17.9433 12.88 17.6551 12.1957 17.6551V17.9551ZM12.1202 17.9551H12.1957V17.6551H12.1202V17.9551ZM11.2893 16.0781C11.7637 16.5585 11.9939 17.1919 11.9703 17.7993L12.27 17.8109C12.2968 17.1211 12.0358 16.407 11.5027 15.8673L11.2893 16.0781ZM9.65806 15.3797C10.2584 15.3797 10.8501 15.633 11.2892 16.078L11.5028 15.8673C11.0099 15.3678 10.3423 15.0797 9.65806 15.0797V15.3797ZM8.2411 15.9583C8.60829 15.5853 9.11071 15.3797 9.65806 15.3797V15.0797C9.03418 15.0797 8.45353 15.3148 8.02731 15.7478L8.2411 15.9583ZM5.19321 19.044L8.24092 15.9585L8.02749 15.7476L4.97978 18.8331L5.19321 19.044ZM4.01002 18.0616L4.97975 19.0439L5.19324 18.8332L4.22352 17.8508L4.01002 18.0616ZM2.49359 6.66168C0.41453 10.3656 1.04105 15.0542 4.01002 18.0616L4.22351 17.8508C1.34894 14.9391 0.741262 10.3964 2.7552 6.80852L2.49359 6.66168ZM2.32486 6.06652C2.53509 6.18331 2.61086 6.4506 2.49327 6.66226L2.75552 6.80795C2.95278 6.45288 2.82704 6.00232 2.47055 5.80427L2.32486 6.06652ZM1.72912 6.23493C1.84592 6.02469 2.1132 5.94893 2.32486 6.06652L2.47055 5.80427C2.11549 5.60701 1.66492 5.73275 1.46687 6.08924L1.72912 6.23493ZM3.38595 18.6757C0.146293 15.3988 -0.537066 10.2768 1.72884 6.23544L1.46716 6.08872C-0.863694 10.2459 -0.16173 15.5139 3.17261 18.8866L3.38595 18.6757ZM4.51308 19.8154L3.38593 18.6756L3.17262 18.8866L4.29977 20.0263L4.51308 19.8154ZM5.11796 22.3031C4.47631 21.6495 4.28412 20.7328 4.54817 19.9699L4.26468 19.8718C3.96201 20.7462 4.18541 21.7814 4.9039 22.5132L5.11796 22.3031ZM6.74888 23.0012C6.14855 23.0012 5.5568 22.7478 5.11771 22.3028L4.90415 22.5135C5.397 23.013 6.06464 23.3012 6.74888 23.3012V23.0012ZM6.82444 23.0012H6.74888V23.3012H6.82444V23.0012ZM7.65531 24.8782C7.18086 24.3978 6.95075 23.7644 6.97433 23.157L6.67456 23.1454C6.64777 23.8352 6.90881 24.5493 7.44187 25.089L7.65531 24.8782ZM9.28654 25.5766C8.68621 25.5766 8.09446 25.3233 7.65537 24.8782L7.44182 25.0889C7.93466 25.5885 8.6023 25.8766 9.28654 25.8766V25.5766ZM9.36211 25.5766H9.28654V25.8766H9.36211V25.5766ZM10.193 27.4536C9.71852 26.9732 9.48841 26.3398 9.51199 25.7325L9.21222 25.7208C9.18543 26.4106 9.44647 27.1247 9.97953 27.6644L10.193 27.4536ZM11.8242 28.1521C11.2239 28.1521 10.6321 27.8987 10.193 27.4537L9.97948 27.6644C10.4723 28.1639 11.14 28.4521 11.8242 28.4521V28.1521ZM11.9375 28.1521H11.8242V28.4521H11.9375V28.1521ZM12.7313 30.0298C12.2704 29.557 12.0519 28.931 12.0873 28.3106L11.7878 28.2935C11.7477 28.9955 11.9951 29.7045 12.5165 30.2392L12.7313 30.0298ZM14.3115 30.6897C13.7094 30.6897 13.1497 30.454 12.7307 30.0292L12.5171 30.2398C12.9923 30.7217 13.629 30.9897 14.3115 30.9897V30.6897ZM15.8923 30.0292C15.4735 30.4539 14.9075 30.6897 14.3115 30.6897V30.9897C14.9875 30.9897 15.6305 30.7219 16.1059 30.2398L15.8923 30.0292ZM18.896 26.9877L15.8923 30.0291L16.1058 30.2399L19.1094 27.1985L18.896 26.9877ZM18.9283 26.9525C18.9151 26.9674 18.9055 26.9781 18.8966 26.987L19.1088 27.1991C19.125 27.1829 19.1406 27.1653 19.1525 27.1518L18.9283 26.9525ZM18.9284 26.9525L18.9283 26.9525L19.1525 27.1518L19.1526 27.1518L18.9284 26.9525ZM18.9722 26.9051C18.9559 26.9214 18.9403 26.939 18.9284 26.9525L19.1526 27.1518C19.1658 27.1369 19.1754 27.1262 19.1843 27.1173L18.9722 26.9051ZM19.8087 26.9871C19.5745 26.9871 19.3457 26.9462 19.128 26.8697L19.0285 27.1527C19.2768 27.24 19.5392 27.2871 19.8087 27.2871V26.9871ZM21.4329 26.2894C20.9827 26.7515 20.3917 26.9871 19.8087 26.9871V27.2871C20.4725 27.2871 21.1409 27.019 21.6478 26.4988L21.4329 26.2894ZM22.1209 24.5661C22.1386 25.1745 21.908 25.8084 21.4336 26.2887L21.6471 26.4995C22.1802 25.9597 22.4408 25.2461 22.4207 24.5573L22.1209 24.5661ZM22.3464 24.4117H22.2708V24.7117H22.3464V24.4117ZM23.9775 23.7133C23.5386 24.1582 22.9406 24.4117 22.3464 24.4117V24.7117C23.0241 24.7117 23.6981 24.4237 24.1911 23.924L23.9775 23.7133ZM24.6648 21.9906C24.6825 22.599 24.452 23.2329 23.9776 23.7133L24.191 23.9241C24.7241 23.3843 24.9848 22.6706 24.9647 21.9819L24.6648 21.9906ZM24.8903 21.8363H24.8148V22.1363H24.8903V21.8363ZM26.5215 21.1379C26.0825 21.5827 25.4846 21.8363 24.8903 21.8363V22.1363C25.5681 22.1363 26.2421 21.8482 26.735 21.3486L26.5215 21.1379ZM27.2027 19.3816C27.238 20.0001 27.0083 20.6451 26.5216 21.1378L26.735 21.3486C27.2809 20.796 27.5424 20.0683 27.5022 19.3645L27.2027 19.3816ZM27.4313 19.2268C27.4102 19.2252 27.3818 19.223 27.3524 19.223V19.523C27.3688 19.523 27.3862 19.5243 27.4091 19.526L27.4313 19.2268ZM27.4784 19.2293C27.4668 19.2293 27.453 19.2284 27.4313 19.2268L27.4091 19.526C27.4282 19.5274 27.4536 19.5293 27.4784 19.5293V19.2293ZM29.0591 18.5688C28.6403 18.9934 28.0743 19.2293 27.4784 19.2293V19.5293C28.1544 19.5293 28.7974 19.2615 29.2727 18.7794L29.0591 18.5688ZM29.2657 15.6211C29.9215 16.5073 29.8502 17.7659 29.0591 18.5688L29.2728 18.7794C30.1692 17.8695 30.2491 16.4456 29.5069 15.4427L29.2657 15.6211ZM27.1198 4.04467C30.0801 7.04228 30.9247 11.5926 29.2486 15.4724L29.524 15.5914C31.2483 11.6001 30.3801 6.91908 27.3332 3.83387L27.1198 4.04467ZM5.75495 21.7019C6.02579 21.9727 6.39037 22.1363 6.76148 22.1363V21.8363C6.47771 21.8363 6.1874 21.7101 5.96708 21.4898L5.75495 21.7019ZM5.6416 19.8589C5.15969 20.3408 5.24568 21.1858 5.75424 21.7012L5.96779 21.4905C5.5444 21.0614 5.51705 20.4077 5.85374 20.071L5.6416 19.8589ZM8.87761 16.5851L5.64099 19.8595L5.85435 20.0704L9.09097 16.796L8.87761 16.5851ZM9.67695 16.2635C9.36856 16.2635 9.08416 16.3785 8.87822 16.5845L9.09035 16.7966C9.23704 16.6499 9.4438 16.5635 9.67695 16.5635V16.2635ZM10.6835 16.6978C10.4126 16.427 10.0481 16.2635 9.67695 16.2635V16.5635C9.96072 16.5635 10.251 16.6896 10.4713 16.91L10.6835 16.6978ZM10.7968 18.5409C11.2787 18.0589 11.1927 17.214 10.6842 16.6985L10.4706 16.9092C10.894 17.3383 10.9214 17.992 10.5847 18.3287L10.7968 18.5409ZM7.56082 21.8146L10.7974 18.5402L10.5841 18.3293L7.34746 21.6037L7.56082 21.8146ZM6.76148 22.1363C7.06986 22.1363 7.35427 22.0212 7.5602 21.8153L7.34807 21.6031C7.20138 21.7498 6.99462 21.8363 6.76148 21.8363V22.1363ZM8.29891 24.2711C8.56974 24.5419 8.93432 24.7054 9.30543 24.7054V24.4054C9.02166 24.4054 8.73136 24.2792 8.51104 24.0589L8.29891 24.2711ZM8.18556 22.428C7.70365 22.9099 7.78964 23.7549 8.2982 24.2703L8.51175 24.0596C8.08836 23.6305 8.061 22.9768 8.39769 22.6402L8.18556 22.428ZM11.4216 19.1542L8.18495 22.4286L8.39831 22.6395L11.6349 19.3651L11.4216 19.1542ZM12.2209 18.8326C11.9125 18.8326 11.6281 18.9477 11.4222 19.1536L11.6343 19.3658C11.781 19.2191 11.9878 19.1326 12.2209 19.1326V18.8326ZM13.2274 19.267C12.9566 18.9961 12.592 18.8326 12.2209 18.8326V19.1326C12.5047 19.1326 12.795 19.2588 13.0153 19.4791L13.2274 19.267ZM13.3408 21.11C13.8227 20.6281 13.7367 19.7831 13.2281 19.2677L13.0146 19.4784C13.438 19.9075 13.4653 20.5612 13.1286 20.8979L13.3408 21.11ZM10.1048 24.3838L13.3414 21.1094L13.128 20.8985L9.89141 24.1729L10.1048 24.3838ZM9.30543 24.7054C9.60623 24.7054 9.89107 24.5975 10.1042 24.3844L9.89203 24.1723C9.7399 24.3244 9.53358 24.4054 9.30543 24.4054V24.7054ZM11.8431 27.2808C12.1515 27.2808 12.4359 27.1658 12.6418 26.9598L12.4297 26.7477C12.283 26.8944 12.0762 26.9808 11.8431 26.9808V27.2808ZM10.8366 26.8465C11.1074 27.1173 11.472 27.2808 11.8431 27.2808V26.9808C11.5593 26.9808 11.269 26.8547 11.0487 26.6344L10.8366 26.8465ZM10.7232 25.0035C10.2413 25.4854 10.3273 26.3304 10.8359 26.8458L11.0494 26.6351C10.626 26.206 10.5987 25.5523 10.9354 25.2156L10.7232 25.0035ZM13.9592 21.7297L10.7226 25.0041L10.936 25.215L14.1726 21.9406L13.9592 21.7297ZM14.7586 21.4081C14.4502 21.4081 14.1658 21.5231 13.9598 21.7291L14.172 21.9412C14.3187 21.7945 14.5254 21.7081 14.7586 21.7081V21.4081ZM15.7651 21.8424C15.4943 21.5716 15.1297 21.4081 14.7586 21.4081V21.7081C15.0423 21.7081 15.3326 21.8342 15.553 22.0545L15.7651 21.8424ZM15.8784 23.6854C16.3604 23.2035 16.2744 22.3586 15.7658 21.8431L15.5523 22.0538C15.9756 22.4829 16.003 23.1366 15.6663 23.4733L15.8784 23.6854ZM15.8407 23.7232L15.8784 23.6854L15.6663 23.4733L15.6285 23.5111L15.8407 23.7232ZM15.7933 23.7671C15.8068 23.7551 15.8244 23.7395 15.8407 23.7232L15.6285 23.5111C15.6196 23.52 15.6089 23.5296 15.594 23.5428L15.7933 23.7671ZM15.7588 23.7988C15.7677 23.7899 15.7784 23.7803 15.7933 23.767L15.594 23.5428C15.5806 23.5548 15.5629 23.5704 15.5467 23.5867L15.7588 23.7988ZM12.7558 26.8395L15.7595 23.7981L15.546 23.5873L12.5424 26.6287L12.7558 26.8395ZM12.6907 26.9097C12.71 26.8856 12.7295 26.8658 12.7552 26.8402L12.543 26.6281C12.5183 26.6528 12.4875 26.6835 12.4564 26.7223L12.6907 26.9097ZM12.6418 26.9598L12.6796 26.9221L12.4675 26.7099L12.4297 26.7477L12.6418 26.9598ZM14.3367 29.8122C14.7039 29.8122 15.0452 29.6704 15.3006 29.4079L15.0855 29.1987C14.8876 29.4021 14.6243 29.5122 14.3367 29.5122V29.8122ZM13.3728 29.4079C13.6285 29.6707 13.9762 29.8122 14.3367 29.8122V29.5122C14.0549 29.5122 13.7855 29.4018 13.5878 29.1987L13.3728 29.4079ZM13.3735 27.4474C12.8373 27.9906 12.8373 28.8654 13.3735 29.4087L13.5871 29.1979C13.1661 28.7715 13.1661 28.0846 13.5871 27.6581L13.3735 27.4474ZM16.3772 24.4059L13.3736 27.4473L13.587 27.6581L16.5907 24.6167L16.3772 24.4059ZM17.3403 24.0024C16.9731 24.0024 16.6318 24.1442 16.3764 24.4067L16.5914 24.6159C16.7894 24.4125 17.0527 24.3024 17.3403 24.3024V24.0024ZM18.3042 24.4067C18.0485 24.1439 17.7008 24.0024 17.3403 24.0024V24.3024C17.6221 24.3024 17.8915 24.4128 18.0892 24.6159L18.3042 24.4067ZM18.3034 26.3672C18.8397 25.824 18.8397 24.9492 18.3034 24.406L18.0899 24.6167C18.5108 25.0431 18.5108 25.7301 18.0899 26.1565L18.3034 26.3672ZM15.2998 29.4087L18.3034 26.3673L18.09 26.1565L15.0863 29.1979L15.2998 29.4087ZM4.14946 4.35484C4.14946 4.59314 3.95215 4.79045 3.71385 4.79045V5.09045C4.11783 5.09045 4.44946 4.75883 4.44946 4.35484H4.14946ZM3.71385 3.91923C3.95215 3.91923 4.14946 4.11654 4.14946 4.35484H4.44946C4.44946 3.95085 4.11783 3.61923 3.71385 3.61923V3.91923ZM3.27823 4.35484C3.27823 4.11654 3.47555 3.91923 3.71385 3.91923V3.61923C3.30986 3.61923 2.97823 3.95085 2.97823 4.35484H3.27823ZM3.71385 4.79045C3.4703 4.79045 3.27823 4.59419 3.27823 4.35484H2.97823C2.97823 4.75777 3.30252 5.09045 3.71385 5.09045V4.79045ZM24.9018 11.0296C24.9018 10.6256 24.5702 10.294 24.1662 10.294V10.594C24.4045 10.594 24.6018 10.7913 24.6018 11.0296H24.9018ZM24.1662 11.7652C24.5702 11.7652 24.9018 11.4336 24.9018 11.0296H24.6018C24.6018 11.2679 24.4045 11.4652 24.1662 11.4652V11.7652ZM23.4306 11.0296C23.4306 11.4336 23.7622 11.7652 24.1662 11.7652V11.4652C23.9279 11.4652 23.7306 11.2679 23.7306 11.0296H23.4306ZM24.1662 10.294C23.7622 10.294 23.4306 10.6256 23.4306 11.0296H23.7306C23.7306 10.7913 23.9279 10.594 24.1662 10.594V10.294Z" fill="#121212" mask="url(#path-1-outside-1_54_2441)"/>
</svg>
