<svg width="48" height="48" viewBox="0 0 48 48" fill="none" xmlns="http://www.w3.org/2000/svg">
<path fill-rule="evenodd" clip-rule="evenodd" d="M21.4696 16.057C20.4698 16.057 19.6594 16.8675 19.6594 17.8672V21.5072H16.0195C15.0197 21.5072 14.2092 22.3176 14.2092 23.3174V29.1568C14.2092 30.1565 15.0197 30.967 16.0195 30.967H19.6594V34.6069C19.6594 35.6067 20.4698 36.4171 21.4696 36.4171H26.5304C27.5302 36.4171 28.3406 35.6067 28.3406 34.6069V30.967H31.9805C32.9803 30.967 33.7908 30.1565 33.7908 29.1568V23.3174C33.7908 22.3176 32.9803 21.5072 31.9805 21.5072H28.3406V17.8672C28.3406 16.8675 27.5302 16.057 26.5304 16.057H21.4696ZM22.1119 18.5096H25.8881V22.1495C25.8881 23.1492 26.6985 23.9597 27.6983 23.9597H31.3382V28.5144H27.6983C26.6985 28.5144 25.8881 29.3249 25.8881 30.3247V33.9646H22.1119V30.3247C22.1119 29.3249 21.3015 28.5144 20.3017 28.5144H16.6618V23.9597H20.3017C21.3015 23.9597 22.1119 23.1492 22.1119 22.1495V18.5096Z" fill="#121212"/>
<path fill-rule="evenodd" clip-rule="evenodd" d="M14.9878 5.99377V8.85508H5.31387C2.3791 8.85508 0 11.2342 0 14.169V39.0838C0 42.0186 2.3791 44.3977 5.31387 44.3977H42.6861C45.6209 44.3977 48 42.0186 48 39.0838V14.169C48 11.2342 45.6209 8.85508 42.6861 8.85508H33.0122V5.99377C33.0122 4.67151 31.9403 3.59961 30.618 3.59961H17.382C16.0597 3.59961 14.9878 4.67151 14.9878 5.99377ZM17.4404 8.85508V6.05216H30.5596V8.85508H17.4404ZM5.31387 11.3076H42.6861C44.2664 11.3076 45.5474 12.5887 45.5474 14.169V39.0838C45.5474 40.664 44.2664 41.9451 42.6861 41.9451H5.31387C3.73361 41.9451 2.45255 40.6641 2.45255 39.0838V14.169C2.45255 12.5887 3.73361 11.3076 5.31387 11.3076Z" fill="#121212"/>
</svg>
