<svg width="48" height="48" viewBox="0 0 48 48" fill="none" xmlns="http://www.w3.org/2000/svg">
<path d="M24.1243 13.1437C24.0094 12.8009 23.6648 12.5724 23.3202 12.5724C22.9755 12.5724 22.6309 12.8009 22.516 13.1437L20.2185 20.4572L18.8399 15.5435C18.7251 15.2006 18.3804 14.9721 18.0358 14.9721H11.1431C10.6836 14.9721 10.339 15.3149 10.339 15.772C10.339 16.2291 10.6836 16.6862 11.1431 16.6862H17.4614L19.5292 23.5426C19.6441 23.8854 19.9887 24.1139 20.3333 24.1139C20.678 24.1139 21.0226 23.8854 21.1375 23.5426L23.435 16.2291L23.7797 17.4861C23.8946 17.8289 24.2392 18.0575 24.5838 18.0575H31.2467C31.7062 18.0575 32.0509 17.7146 32.0509 17.2575C32.0509 16.8005 31.7062 16.4576 31.2467 16.4576H25.1582L24.1243 13.1437Z" fill="#121212"/>
<path d="M46.4106 10.744C46.4106 10.744 46.0659 9.94407 45.2618 10.2869C44.4577 10.6297 44.8023 11.3153 44.9172 11.5439C45.7213 13.0294 46.1808 14.6293 46.1808 16.3434C46.1808 20.8 43.9981 26.2851 38.5989 30.856C38.484 30.9703 27.4558 40.455 27.4558 40.455C27.226 40.6835 26.8814 40.6835 26.5367 40.455L17.2499 32.913H23.3202V35.6555C23.3202 36.5697 24.1243 37.3696 25.0433 37.3696H26.5367C27.4558 37.3696 28.145 36.5697 28.2599 35.6555H29.8682C30.7872 35.6555 31.5914 34.8556 31.5914 33.9414V25.9423C31.5914 25.0281 30.7872 24.2282 29.8682 24.2282H28.2599C28.145 23.314 27.4558 22.6284 26.5367 22.6284H25.0433C24.1243 22.6284 23.3202 23.4283 23.3202 24.3425V26.9708H21.2524C20.7929 26.9708 20.4482 27.3136 20.4482 27.7707C20.4482 28.2278 20.7929 28.5706 21.2524 28.5706H23.3202V31.1989H8.38607V28.5706H18.2656C18.7251 28.5706 19.0697 28.2278 19.0697 27.7707C19.0697 27.3136 18.7251 26.9708 18.2656 26.9708H12.0622C9.30509 23.1998 7.92656 19.543 7.92656 16.3434C7.92656 10.8583 12.4068 6.40161 17.9209 6.40161C20.9077 6.40161 23.7797 7.77288 25.6177 10.0583C25.6177 10.0583 26.0772 10.744 26.9963 10.744C27.4558 10.744 27.9153 10.5154 28.2599 10.1726C30.3277 7.77288 33.1997 6.40161 36.1865 6.40161C38.7138 6.40161 41.2411 7.31579 43.0791 9.14416C43.194 9.25843 43.7684 9.60125 44.2279 9.14416C44.8023 8.45852 44.113 8.00143 44.113 8.00143C41.9304 5.94451 39.0584 4.80178 36.1865 4.80178C32.7401 4.80178 29.4087 6.28733 27.226 9.02989L27.1111 9.14416L26.9963 9.02989C23.8946 4.57324 18.0358 4.80178 18.0358 4.80178C11.6026 4.80178 6.31827 10.0583 6.31827 16.3434C6.31827 18.5146 6.89266 20.8 7.92656 23.1998L8.04144 23.314C7.69681 22.8569 7.12242 22.5141 6.54803 22.5141H5.05462C4.1356 22.5141 3.33145 23.314 3.33145 24.2282H1.72317C0.804144 24.2282 0 25.0281 0 25.9423V33.9414C0 34.8556 0.804144 35.6555 1.72317 35.6555H3.33145C3.44633 36.5697 4.25047 37.3696 5.1695 37.3696H6.66291C7.58193 37.3696 8.38607 36.5697 8.38607 35.6555V32.913H14.9153C14.9153 32.913 25.388 41.5977 25.7326 41.712C26.6516 42.3976 27.6855 42.2834 28.4897 41.712L40.8965 31.0846C46.1808 26.3994 47.904 21.2571 47.904 16.2291C47.904 14.4007 47.3296 12.4581 46.4106 10.744ZM28.2599 25.5661H30.3277V34.17H28.2599V25.5661ZM24.7326 24.2282H26.8814V35.7698H24.7326V24.2282ZM6.66291 35.7698H4.93974V30.1704C4.93974 29.7133 4.59511 29.3705 4.1356 29.3705C3.67609 29.3705 3.33145 29.7133 3.33145 30.1704V34.17H1.60829V25.9423H3.33145V26.8565C3.33145 27.3136 3.67609 27.6564 4.1356 27.6564C4.59511 27.6564 4.93974 27.3136 4.93974 26.8565V24.2282H6.66291V35.7698ZM8.27119 23.8854C8.7307 24.9138 9.41997 26.0566 10.1092 26.9708H8.38607V24.3425C8.38607 24.2282 8.27119 23.8854 8.27119 23.8854Z" fill="#121212"/>
</svg>
