<svg width="31" height="32" viewBox="0 0 31 32" fill="none" xmlns="http://www.w3.org/2000/svg">
<path fill-rule="evenodd" clip-rule="evenodd" d="M22.5552 8.59879C21.9339 8.59879 21.4302 9.10245 21.4302 9.72374C21.4302 10.345 21.9339 10.8487 22.5552 10.8487C23.1764 10.8487 23.6801 10.345 23.6801 9.72374C23.6801 9.10245 23.1764 8.59879 22.5552 8.59879ZM20.6802 9.72374C20.6802 8.68826 21.5197 7.84883 22.5552 7.84883C23.5906 7.84883 24.4301 8.68826 24.4301 9.72374C24.4301 10.7592 23.5906 11.5987 22.5552 11.5987C21.5197 11.5987 20.6802 10.7592 20.6802 9.72374Z" fill="currentColor"/>
<path d="M24.9416 23.8899C25.0881 24.0363 25.3255 24.0363 25.4719 23.8899C25.6184 23.7435 25.6184 23.506 25.4719 23.3596L24.6764 22.5641L25.4719 21.7687C25.6183 21.6222 25.6183 21.3848 25.4719 21.2384C25.3254 21.0919 25.088 21.0919 24.9416 21.2384L24.1461 22.0338L23.3507 21.2384C23.2043 21.0919 22.9668 21.0919 22.8204 21.2384C22.674 21.3848 22.674 21.6222 22.8204 21.7687L23.6158 22.5641L22.8203 23.3596C22.6739 23.506 22.6739 23.7435 22.8203 23.8899C22.9668 24.0363 23.2042 24.0363 23.3507 23.8899L24.1461 23.0944L24.9416 23.8899Z" fill="currentColor"/>
<path d="M9.94231 12.6404C10.0888 12.7869 10.3262 12.7869 10.4726 12.6404C10.6191 12.494 10.6191 12.2565 10.4726 12.1101L9.67713 11.3146L10.4726 10.5192C10.619 10.3728 10.619 10.1353 10.4726 9.98889C10.3261 9.84245 10.0887 9.84245 9.94225 9.98889L9.14683 10.7843L8.35139 9.98889C8.20495 9.84245 7.96753 9.84245 7.82109 9.98889C7.67465 10.1353 7.67465 10.3728 7.82109 10.5192L8.61652 11.3146L7.82103 12.1101C7.67459 12.2566 7.67459 12.494 7.82103 12.6404C7.96747 12.7869 8.2049 12.7869 8.35134 12.6404L9.14683 11.8449L9.94231 12.6404Z" fill="currentColor"/>
<path d="M15.1921 23.8899C15.3385 24.0363 15.5759 24.0363 15.7224 23.8899C15.8688 23.7435 15.8688 23.506 15.7224 23.3596L14.9269 22.5641L15.7223 21.7687C15.8688 21.6222 15.8688 21.3848 15.7223 21.2384C15.5759 21.0919 15.3385 21.0919 15.192 21.2384L14.3966 22.0338L13.6012 21.2384C13.4547 21.0919 13.2173 21.0919 13.0708 21.2384C12.9244 21.3848 12.9244 21.6222 13.0708 21.7687L13.8663 22.5641L13.0708 23.3596C12.9244 23.506 12.9244 23.7435 13.0708 23.8899C13.2172 24.0363 13.4547 24.0363 13.6011 23.8899L14.3966 23.0944L15.1921 23.8899Z" fill="currentColor"/>
<path fill-rule="evenodd" clip-rule="evenodd" d="M21.3734 14.5221C21.5789 14.4964 21.7247 14.309 21.699 14.1035L21.4182 11.8546C21.3926 11.6491 21.2052 11.5034 20.9997 11.529L18.7508 11.8098C18.5453 11.8355 18.3995 12.0229 18.4252 12.2284C18.4508 12.4339 18.6382 12.5797 18.8437 12.554L20.1985 12.3848L16.1876 18.1585L12.1604 15.6127C12.0249 15.527 11.8499 15.537 11.725 15.6375L7.50474 19.0331C7.16087 18.615 6.63953 18.3483 6.05591 18.3483C5.02043 18.3483 4.181 19.1878 4.181 20.2233C4.181 21.2587 5.02043 22.0982 6.05591 22.0982C7.0914 22.0982 7.93083 21.2587 7.93083 20.2233C7.93083 20.0453 7.90604 19.8732 7.85973 19.7101L11.9863 16.3898L16.0904 18.9842C16.2601 19.0915 16.4842 19.0461 16.5987 18.8812L20.787 12.8522L20.9548 14.1964C20.9805 14.4019 21.1679 14.5477 21.3734 14.5221ZM4.93096 20.2233C4.93096 19.602 5.43462 19.0983 6.05591 19.0983C6.6772 19.0983 7.18086 19.602 7.18086 20.2233C7.18086 20.8446 6.6772 21.3482 6.05591 21.3482C5.43462 21.3482 4.93096 20.8446 4.93096 20.2233Z" fill="currentColor"/>
<path d="M2.32111 13.2012C3.80424 7.35492 9.17762 3.01251 15.5905 3.01251C23.1545 3.01251 29.2666 9.05001 29.2666 16.4734C29.2666 23.8969 23.1545 29.9344 15.5905 29.9344C12.2016 29.9344 9.10353 28.7221 6.71543 26.7153C6.70485 26.7064 6.6941 26.6978 6.6832 26.6896L9.03159 26.0623C9.44202 25.9527 9.68586 25.5311 9.57623 25.1207C9.4666 24.7103 9.04501 24.4664 8.63459 24.5761L4.45356 25.6929C4.04313 25.8025 3.79929 26.2241 3.90892 26.6345L5.02574 30.8155C5.13537 31.226 5.55695 31.4698 5.96738 31.3602C6.37781 31.2505 6.62165 30.829 6.51202 30.4185L5.86924 28.0122C8.50606 30.1735 11.8959 31.4728 15.5905 31.4728C23.9823 31.4728 30.805 24.7682 30.805 16.4734C30.805 8.1787 23.9823 1.47412 15.5905 1.47412C8.4713 1.47412 2.48559 6.29664 0.829954 12.8229C0.725493 13.2347 0.974617 13.6532 1.38639 13.7576C1.79816 13.8621 2.21665 13.613 2.32111 13.2012Z" fill="currentColor"/>
</svg>
