<svg width="41" height="40" viewBox="0 0 41 40" fill="none" xmlns="http://www.w3.org/2000/svg">
<path fill-rule="evenodd" clip-rule="evenodd" d="M31.5339 12.6666C31.1657 12.6666 30.8672 12.9651 30.8672 13.3333V38.6666H25.5339V22C25.5339 21.6318 25.2354 21.3333 24.8672 21.3333H17.5339C17.1657 21.3333 16.8672 21.6318 16.8672 22V38.6666H10.8672V28.6666C10.8672 28.2985 10.5687 28 10.2005 28H2.86719C2.499 28 2.20052 28.2985 2.20052 28.6666V38.6666H1.53385C1.16566 38.6666 0.867188 38.9651 0.867188 39.3333C0.867188 39.7015 1.16566 40 1.53385 40L40.2005 40C40.5687 40 40.8672 39.7015 40.8672 39.3333C40.8672 38.9651 40.5687 38.6666 40.2005 38.6666H39.5339V13.3333C39.5339 12.9651 39.2354 12.6666 38.8672 12.6666H31.5339ZM38.2005 38.6666V14H32.2005V38.6666H38.2005ZM24.2005 22.6666V38.6666H18.2005V22.6666H24.2005ZM9.53385 38.6666V29.3333H3.53385V38.6666H9.53385Z" fill="#3693FF"/>
<path d="M39.8079 4.27408C39.8079 4.64227 39.5095 4.94074 39.1413 4.94074C38.7731 4.94074 38.4746 4.64227 38.4746 4.27408V2.3241L26.0776 13.9856C25.8134 14.2341 25.3989 14.2258 25.1449 13.9668L21.5083 10.2594L6.65004 23.8256C6.37813 24.0739 5.95646 24.0547 5.7082 23.7828C5.45994 23.5109 5.47911 23.0893 5.75101 22.841L21.0843 8.841C21.3494 8.599 21.7585 8.61026 22.0098 8.86649L25.6396 12.5671L37.5819 1.33333L35.5339 1.33333C35.1657 1.33333 34.8672 1.03486 34.8672 0.666667C34.8672 0.298477 35.1657 1.73779e-07 35.5339 1.57685e-07L39.1413 0C39.5095 -1.60938e-08 39.8079 0.298477 39.8079 0.666667V4.27408Z" fill="#3693FF"/>
</svg>
