<svg width="31" height="31" viewBox="0 0 31 31" fill="none" xmlns="http://www.w3.org/2000/svg">
<path d="M30.064 2.48826C30.064 3.33793 29.3752 4.02672 28.5255 4.02672C28.4408 4.02672 28.3578 4.01988 28.2768 4.00672L22.9781 11.7989C23.0822 12.0063 23.1408 12.2404 23.1408 12.4883C23.1408 13.338 22.4521 14.0267 21.6024 14.0267C20.7527 14.0267 20.0639 13.338 20.0639 12.4883C20.0639 12.3913 20.0729 12.2964 20.0901 12.2043L17.5391 10.0785C17.3806 10.1395 17.2094 10.175 17.0306 10.1799L13.7621 16.4445C13.857 16.6443 13.91 16.8678 13.91 17.1036C13.91 17.9533 13.2213 18.6421 12.3716 18.6421C11.5219 18.6421 10.8331 17.9533 10.8331 17.1036C10.8331 17.0231 10.8393 16.9441 10.8512 16.8669L8.32404 13.9186C8.14836 13.9884 7.95677 14.0267 7.75623 14.0267C7.66925 14.0267 7.58395 14.0195 7.50091 14.0057L2.93258 21.7147C3.06502 21.942 3.14089 22.2062 3.14089 22.4882C3.14089 23.3379 2.45209 24.0267 1.60243 24.0267C0.752757 24.0267 0.0639648 23.3379 0.0639648 22.4882C0.0639648 21.6385 0.752757 20.9498 1.60243 20.9498C1.61566 20.9498 1.62885 20.9499 1.642 20.9503L6.32357 13.0501C6.25527 12.8761 6.21777 12.6865 6.21777 12.4883C6.21777 11.6386 6.90656 10.9498 7.75623 10.9498C8.6059 10.9498 9.29469 11.6386 9.29469 12.4883C9.29469 12.5688 9.28851 12.6478 9.27659 12.725L11.8038 15.6734C11.9794 15.6036 12.171 15.5652 12.3716 15.5652C12.4234 15.5652 12.4746 15.5677 12.5251 15.5727L15.7007 9.48614C15.5414 9.24381 15.4487 8.95376 15.4487 8.64206C15.4487 7.7924 16.1375 7.1036 16.9871 7.1036C17.8368 7.1036 18.5256 7.7924 18.5256 8.64206C18.5256 8.73914 18.5166 8.83411 18.4994 8.9262L21.0502 11.0519C21.2216 10.986 21.4078 10.9498 21.6024 10.9498C21.6479 10.9498 21.693 10.9518 21.7376 10.9557L27.1005 3.06907C27.0273 2.88985 26.987 2.69376 26.987 2.48826C26.987 1.63859 27.6758 0.949798 28.5255 0.949798C29.3752 0.949798 30.064 1.63859 30.064 2.48826Z" fill="black"/>
<path d="M0.813964 0.488281C0.399751 0.488281 0.0639648 0.824067 0.0639648 1.23828V8.73828C0.0639648 8.85471 0.0910736 8.96954 0.143144 9.07369L2.76814 14.3237C2.95338 14.6942 3.40389 14.8443 3.77437 14.6591C4.14486 14.4739 4.29502 14.0233 4.10978 13.6529L2.02749 9.48828H12.814C13.2282 9.48828 13.564 9.15249 13.564 8.73828C13.564 8.32406 13.2282 7.98828 12.814 7.98828H1.56396V1.98828H25.1889C25.6032 1.98828 25.9389 1.65249 25.9389 1.23828C25.9389 0.824067 25.6032 0.488281 25.1889 0.488281H0.813964Z" fill="black"/>
<path fill-rule="evenodd" clip-rule="evenodd" d="M30.0639 5.73828C30.0639 5.32406 29.7282 4.98828 29.3139 4.98828C28.8997 4.98828 28.5639 5.32406 28.5639 5.73828V8.56122L25.4754 14.7383H16.564C16.1497 14.7383 15.814 15.0741 15.814 15.4883C15.814 15.9025 16.1497 16.2383 16.564 16.2383H24.7254L22.4754 20.7383H7.81303L7.11471 19.2879C6.93502 18.9147 6.48681 18.7578 6.1136 18.9375C5.74039 19.1172 5.58352 19.5654 5.76321 19.9386L10.6382 30.0636C10.7632 30.3232 11.0258 30.4883 11.314 30.4883H18.814C19.098 30.4883 19.3577 30.3278 19.4848 30.0737L29.9848 9.07369C30.0368 8.96954 30.0639 8.85471 30.0639 8.73828V5.73828ZM8.53526 22.2383L11.7853 28.9883H18.3504L21.7254 22.2383H8.53526Z" fill="currentColor"/>
</svg>
