<svg width="40" height="40" viewBox="0 0 40 40" fill="none" xmlns="http://www.w3.org/2000/svg">
<path d="M4.7126 5.44048C5.18598 5.44048 5.56974 5.05672 5.56974 4.58333C5.56974 4.10995 5.18598 3.72619 4.7126 3.72619C4.23921 3.72619 3.85546 4.10995 3.85546 4.58333C3.85546 5.05672 4.23921 5.44048 4.7126 5.44048Z" fill="#121212"/>
<path d="M31.4745 12.5833C31.0936 12.5833 30.6174 12.869 30.6174 13.4405C30.6174 13.9167 30.9983 14.2976 31.4745 14.2976C31.8555 14.2024 32.3316 13.8214 32.3316 13.4405C32.4269 13.0595 32.0459 12.5833 31.4745 12.5833Z" fill="#121212"/>
<path d="M38.2364 19.3452C40.6174 14.2024 39.4745 8.10714 35.5697 4.10714C33.0935 1.44048 29.665 0.0119048 25.9507 0.0119048C23.7602 0.0119048 21.7602 0.488095 19.8555 1.44048C17.8555 0.392857 15.665 -0.0833333 13.5697 0.0119048C11.284 0.0119048 8.99831 0.678571 6.90307 1.82143C6.61736 2.0119 6.33165 2.4881 6.61736 2.96429C6.90307 3.34524 7.37926 3.44048 7.76022 3.34524C10.8078 1.53571 14.6174 1.25 17.9507 2.4881L18.1412 2.58333L17.9507 2.67857C17.284 3.15476 16.7126 3.63095 16.1412 4.20238L13.0936 7.15476C12.6174 7.63095 12.3316 8.29762 12.3316 9.05952C12.3316 9.72619 12.6174 10.2976 13.0936 10.7738C13.8555 11.5357 14.9031 11.9167 16.1412 11.8214C16.9983 11.7262 17.665 11.4405 18.3316 11.1548C18.5221 11.0595 18.7126 11.0595 18.8078 10.9643L25.1888 8.29762L28.3316 11.5357C28.7126 11.9167 29.1888 11.9167 29.5697 11.5357C29.9507 11.1548 29.9507 10.6786 29.5697 10.2976L25.9507 6.58333C25.665 6.29762 25.3793 6.20238 24.9983 6.39286L18.1412 9.25C17.1888 9.63095 16.4269 9.91667 15.7602 9.91667C15.1888 10.0119 14.6174 9.82143 14.1412 9.44048C13.9507 9.25 13.8555 9.05952 13.8555 8.77381C13.8555 8.4881 13.9507 8.29762 14.1412 8.10714L17.1888 5.05952C19.4745 2.77381 22.4269 1.53571 25.7602 1.53571C29.0935 1.53571 31.9507 2.77381 34.3316 5.05952C37.5697 8.39286 38.7126 13.25 37.1888 17.7262V17.9167L34.5221 15.25C34.1412 14.869 33.665 14.869 33.284 15.25C32.9031 15.631 32.9031 16.1071 33.284 16.4881L36.9031 20.2024C37.4745 20.7738 37.4745 21.8214 36.9031 22.3929C36.6174 22.6786 36.2364 22.7738 35.7602 22.7738C35.3793 22.7738 34.9031 22.5833 34.6174 22.3929C34.2364 22.0119 33.7602 22.0119 33.3793 22.3929C32.8078 22.9643 33.5697 23.8214 33.5697 23.8214C34.0459 24.2976 33.9507 25.25 33.3793 25.8214C33.0936 26.1071 32.6174 26.2976 32.2364 26.2976C31.9507 26.2976 31.5697 26.2024 31.3793 26.0119C30.9983 25.631 30.5221 25.631 30.1412 26.0119C29.7602 26.4881 29.9507 27.0595 30.1412 27.25C30.4269 27.5357 30.5221 27.8214 30.4269 28.2024C30.4269 28.5833 30.2364 28.9643 29.9507 29.25C29.665 29.5357 29.1888 29.7262 28.8078 29.7262C28.5221 29.7262 28.1412 29.631 27.9507 29.4405C27.5697 29.0595 27.0935 29.0595 26.7126 29.4405C26.2364 29.8214 26.5221 30.4881 26.7126 30.6786C26.9983 30.9643 27.0936 31.25 26.9983 31.631C26.9983 32.0119 26.8078 32.3929 26.5221 32.6786C26.2364 32.9643 25.7602 33.1548 25.284 33.1548H25.4745V33.0595C25.665 32.0119 25.3793 30.9643 24.6174 30.2024C24.1412 29.631 23.284 29.25 22.4269 29.25H22.3316V29.1548C22.3316 28.4881 22.1412 27.631 21.3793 26.869C20.7126 26.2024 19.8555 25.8214 19.0935 25.8214H18.9983V25.7262C18.9983 25.0595 18.8078 24.2024 18.0459 23.4405C17.3793 22.7738 16.5221 22.3929 15.7602 22.3929H15.665V22.2976C15.665 21.631 15.4745 20.7738 14.7126 20.0119C14.0459 19.3452 13.1888 18.9643 12.4269 18.9643C11.665 18.9643 10.9031 19.25 10.4269 19.8214L6.42688 23.8214L5.18879 22.5833C1.37926 18.7738 0.61736 12.6786 3.28403 7.91667C3.4745 7.53571 3.28403 6.96429 2.80784 6.67857C2.33165 6.4881 1.85546 6.67857 1.66498 7.05952C-1.19216 12.3929 -0.335021 19.25 3.95069 23.631L5.4745 25.1548V25.25C5.09355 26.3929 5.37927 27.5357 6.33165 28.4881C6.99831 29.1548 7.85546 29.5357 8.61736 29.5357H8.7126V29.631C8.7126 30.2976 8.90307 31.1548 9.66498 31.9167C10.3316 32.5833 11.1888 32.9643 11.9507 32.9643H12.0459V33.0595C12.0459 33.7262 12.2364 34.5833 12.9983 35.3452C13.665 36.0119 14.5221 36.3929 15.284 36.3929H15.3793V36.4881C15.3793 37.1548 15.5697 38.0119 16.3316 38.7738C16.8078 39.3452 17.665 39.7262 18.5221 39.7262C19.284 39.7262 20.1412 39.3452 20.7126 38.7738C22.2364 37.25 24.5221 34.9643 24.7126 34.6786V34.5833H24.8078C25.0936 34.6786 25.3793 34.7738 25.7602 34.7738C26.6174 34.7738 27.3793 34.3929 28.0459 33.7262C28.8078 32.9643 28.9983 32.0119 28.9983 31.4405V31.3452H29.0935C29.9507 31.3452 30.7126 30.9643 31.3793 30.2976C32.1412 29.5357 32.3316 28.5833 32.3316 28.0119V27.9167H32.4269C33.284 27.9167 34.0459 27.5357 34.7126 26.869C35.4745 26.1071 35.665 25.1548 35.665 24.5833V24.4881H35.7602C36.5221 24.4881 37.3793 24.1071 37.9507 23.5357C38.9983 22.4881 39.1888 20.7738 38.2364 19.3452ZM9.4745 27.4405C9.28403 27.631 8.33165 28.0119 7.56974 27.25C6.90307 26.5833 6.99831 25.7262 7.37926 25.25L11.665 20.9643C11.8555 20.7738 12.8078 20.2976 13.5697 21.1548C14.1412 21.7262 14.2364 22.6786 13.7602 23.1548L9.4745 27.4405ZM12.8078 30.7738C12.6174 30.9643 11.665 31.4405 10.9031 30.5833C10.2364 29.9167 10.3316 29.0595 10.7126 28.5833L14.9983 24.3929C15.1888 24.2024 16.0459 23.631 16.9031 24.5833C17.665 25.4405 17.284 26.3929 17.0936 26.4881L12.8078 30.7738ZM16.1412 34.2024C15.9507 34.3929 14.9983 34.7738 14.2364 34.0119C13.5697 33.3452 13.665 32.4881 14.0459 32.0119L18.3316 27.7262C18.5221 27.5357 19.4745 27.1548 20.2364 27.9167C20.9031 28.5833 20.8078 29.4405 20.4269 29.9167L16.1412 34.2024ZM23.5697 33.4405L19.665 37.4405C19.3793 37.7262 18.3316 38.2976 17.4745 37.4405C16.5221 36.4881 17.1888 35.5357 17.4745 35.1548L21.3793 31.1548C21.665 30.869 22.8078 30.2976 23.5697 31.1548C24.2364 31.8214 24.2364 32.7738 23.5697 33.4405Z" fill="#121212"/>
</svg>
