<svg width="48" height="48" viewBox="0 0 48 48" fill="none" xmlns="http://www.w3.org/2000/svg">
<path d="M29.6346 36.7585C29.6346 37.2395 29.9952 37.6003 30.4761 37.6003C30.957 37.6003 31.3176 37.2395 31.3176 36.7585V34.3535C33.3612 32.6699 34.5634 30.2649 34.5634 27.6194C34.5634 22.9296 30.7165 19.0815 26.0282 19.0815C21.3398 19.0815 17.493 22.9296 17.493 27.6194C17.493 30.2649 18.6951 32.6699 20.7387 34.3535V42.0496C20.7387 42.5306 20.9792 42.8913 21.3398 43.1318C21.7005 43.3723 22.1813 43.4926 22.542 43.3723L26.0282 42.2901L29.5144 43.2521C29.9952 43.3723 30.4761 43.2521 30.7165 43.0116C31.0772 42.7711 31.3176 42.2901 31.3176 41.9293V39.5243C31.3176 39.0433 30.957 38.6825 30.4761 38.6825C29.9952 38.6825 29.6346 39.0433 29.6346 39.5243V41.5686L26.3888 40.6066C26.1484 40.4863 25.908 40.4863 25.5473 40.6066L22.3015 41.5686V35.075L22.4217 35.1952C24.7058 36.1572 27.1101 36.1572 29.3942 35.1952L29.6346 35.0533V36.7585ZM25.908 34.594C22.0611 34.594 18.9355 31.4674 18.9355 27.6194C18.9355 23.7713 22.0611 20.6448 25.908 20.6448C29.7548 20.6448 32.8804 23.7713 32.8804 27.6194C32.8804 31.4674 29.7548 34.594 25.908 34.594Z" fill="#121212"/>
<path d="M29.331 24.8442H27.5315L26.9316 23.5213C26.6917 23.0403 26.3318 22.7998 25.8519 22.7998C25.372 22.7998 25.0121 22.9201 24.6522 23.5213L24.0523 24.7239H22.2528C21.7729 24.7239 21.289 25.0847 21.169 25.5657C21.049 26.0468 21.0531 26.4075 21.293 26.7683L22.6127 28.3317L21.8929 30.376C21.7729 30.8571 21.7606 31.2055 22.2528 31.6989C22.4927 31.9394 22.9726 32.0596 23.5724 31.6989L25.6119 30.376L27.5315 31.6989C28.0113 32.0596 28.5634 32.0111 28.9711 31.6989C29.4463 31.335 29.571 30.802 29.331 30.3209L29.1972 29.8984L28.7312 28.4519L30.0508 26.8886C30.4107 26.5278 30.4107 26.0468 30.1708 25.5657C29.9309 25.0847 29.7042 24.8442 29.331 24.8442ZM27.6514 27.6101C27.2535 28.0392 27.2915 28.4519 27.4115 28.8127L27.7714 30.0153L26.5717 29.1735C26.0918 28.9329 25.6119 28.9329 25.1321 29.1735L23.5724 30.0153L24.2113 28.6308C24.338 28.3317 24.2958 27.7857 24.0523 27.6101L23.0926 26.4075H24.4122C25.252 26.4075 25.492 25.686 25.6119 25.686L25.9718 24.9644L26.3318 25.686C26.3318 25.686 26.5717 26.4075 27.5315 26.4075H28.6112L27.6514 27.6101Z" fill="#121212"/>
<path d="M42.4662 14.7797L42.3459 6.6034C42.3459 5.64148 41.5038 4.7998 40.5414 4.7998H38.7368C38.015 4.7998 37.2932 5.28076 37.0526 6.0022L29.594 11.1725C27.188 12.8559 24.3007 13.6976 21.2932 13.6976H6.61654C3.00752 13.6976 0 16.7036 0 20.3108V23.5572C0 26.443 1.92481 29.0883 4.81203 29.93H4.93233V31.2526C4.93233 31.7336 5.29323 32.0943 5.77444 32.0943C6.25564 32.0943 6.61654 31.7336 6.61654 31.2526V30.1704H12.6316L10.2256 33.4169C9.98496 33.7776 9.86466 34.2586 9.86466 34.6193V41.7135C9.86466 41.9539 9.62406 42.0742 9.50376 42.0742H7.09774C6.85714 42.0742 6.73684 41.8337 6.73684 41.7135V34.1384C6.73684 33.6574 6.37594 33.2967 5.89474 33.2967C5.41353 33.2967 5.05263 33.6574 5.05263 34.1384V41.7135C5.05263 42.7956 6.01504 43.7575 7.09774 43.7575H9.50376C10.5865 43.7575 11.5489 42.7956 11.5489 41.7135V34.6193C11.5489 34.4991 11.5489 34.3788 11.6692 34.3788L14.797 30.1704H15.7594C16.2406 30.1704 16.6015 29.8097 16.6015 29.3288C16.6015 28.8478 16.2406 28.4871 15.7594 28.4871H12.5113V15.2607H21.6541C24.9023 15.2607 28.0301 14.2988 30.797 12.4952L37.2932 8.16652V35.7015L34.5263 33.8979C34.1654 33.6574 33.6842 33.7776 33.4436 34.1384C33.203 34.4991 33.3233 34.98 33.6842 35.2205L37.4135 37.7456C37.6541 38.467 38.3759 38.9479 39.0977 38.9479H40.9023C41.8647 38.9479 42.7068 38.1063 42.7068 37.1444V29.2085H42.8271C45.8346 28.7276 48 26.2025 48 23.1965V20.7917C47.7594 17.7857 45.4737 15.2607 42.4662 14.7797ZM7.45865 28.6073H6.61654C3.84962 28.6073 1.56391 26.3228 1.56391 23.5572V20.3108C1.56391 17.5452 3.84962 15.2607 6.61654 15.2607H7.45865V28.6073ZM10.5865 28.6073H9.02256V15.3809H10.5865V28.6073ZM46.0752 23.0763C46.0752 25.1204 44.6316 27.0442 42.4662 27.4049H42.3459V21.1524C42.3459 20.6715 41.985 20.3108 41.5038 20.3108C41.0226 20.3108 40.6617 20.6715 40.6617 21.1524V37.2646H38.8796V6.6034H40.6617V18.3869C40.6617 18.8679 41.0226 19.2286 41.5038 19.2286C41.985 19.2286 42.3459 18.8679 42.3459 18.3869V16.4631H42.4662C44.5113 16.944 46.0752 18.7476 46.0752 20.7917V23.0763Z" fill="#121212"/>
</svg>
