<svg width="31" height="31" viewBox="0 0 31 31" fill="none" xmlns="http://www.w3.org/2000/svg">
<path fill-rule="evenodd" clip-rule="evenodd" d="M16.3496 0.945251C16.5367 0.826588 16.7758 0.82793 16.9616 0.948686L29.9356 9.38179C30.0964 9.48628 30.1934 9.66498 30.1934 9.8567V12.7759C30.1934 12.9853 30.0777 13.1777 29.8928 13.276C29.7078 13.3743 29.4837 13.3625 29.31 13.2453L28.5716 12.7469V29.6421C28.5716 29.9549 28.318 30.2085 28.0052 30.2085H0.759778C0.446954 30.2085 0.193359 29.9549 0.193359 29.6421V20.3819C0.193359 19.2719 1.09317 18.3721 2.20314 18.3721H4.73426V12.5455L3.6661 13.2489C3.49212 13.3635 3.26929 13.3733 3.0859 13.2745C2.90251 13.1757 2.78816 12.9842 2.78816 12.7759V9.8567C2.78816 9.66272 2.88742 9.48224 3.05124 9.37836L16.3496 0.945251ZM5.86709 11.7995L5.8671 11.8028V18.3716H10.6688C11.7788 18.3716 12.6786 19.2714 12.6786 20.3814V20.8644C13.1393 20.7268 13.8043 20.5468 14.4818 20.4106C14.4596 20.1602 14.4609 19.9218 14.4758 19.7144C14.3263 19.6423 14.185 19.5619 14.0514 19.4736C13.3871 19.0342 12.9613 18.4284 12.6902 17.7805C12.231 16.6832 12.1954 15.4019 12.1939 14.4682C11.804 14.2805 11.5139 13.9887 11.3243 13.6215C11.083 13.1544 11.0259 12.6086 11.0547 12.0833C11.112 11.0349 11.5248 9.85474 11.9311 8.96146C12.2014 8.36728 12.7602 7.97572 13.3877 7.89058C17.0494 7.39375 19.3292 8.00095 20.7395 9.14645C22.1463 10.2891 22.5628 11.868 22.7273 13.0192C22.8902 14.1596 22.5408 15.2848 22.0397 16.2108C21.5375 17.1388 20.8517 17.9255 20.25 18.4069C20.2368 18.4174 20.2233 18.4273 20.2094 18.4365C19.9759 18.8531 19.6506 19.228 19.2003 19.5214C19.0839 19.5972 18.961 19.6664 18.8312 19.7289C18.8445 19.9248 18.8457 20.1477 18.8266 20.3818C21.0709 20.6926 22.3979 21.4217 23.1553 22.3415C23.9591 23.3175 24.0294 24.4005 24.0305 25.085L24.0307 25.1012V29.0756H27.4388V11.9822L16.6491 4.69916L5.86709 11.7995ZM17.708 20.0737C17.3846 20.1279 17.0334 20.1555 16.6528 20.1555C16.274 20.1555 15.9228 20.1256 15.5979 20.0681C15.6021 20.3734 15.6489 20.7123 15.7647 20.9959C15.8479 21.1996 15.9565 21.3502 16.0862 21.4494C16.2092 21.5434 16.3838 21.6167 16.653 21.6167C16.9221 21.6167 17.0967 21.5434 17.2198 21.4494C17.3494 21.3502 17.4581 21.1996 17.5412 20.9959C17.6564 20.714 17.7033 20.3776 17.708 20.0737ZM20.7804 16.1139C20.8726 15.972 20.9609 15.8242 21.0434 15.6716C21.4771 14.8702 21.7224 13.9953 21.6059 13.1794C21.456 12.1303 21.1012 10.8997 20.0253 10.0258C18.9529 9.15477 17.0386 8.53844 13.54 9.01313C13.2788 9.04858 13.0634 9.20829 12.9623 9.43047C12.578 10.2755 12.2318 11.3046 12.1858 12.1452C12.1629 12.5645 12.218 12.8832 12.3308 13.1017C12.4312 13.2962 12.5937 13.4468 12.8978 13.5228C13.7567 13.7375 14.6958 13.5216 15.5656 13.1069C16.4259 12.6968 17.1495 12.1242 17.5436 11.7317C17.5695 11.7049 17.5982 11.6805 17.6297 11.659C17.6742 11.6284 17.7222 11.6048 17.772 11.5884C18.0485 11.4963 18.3541 11.6302 18.471 11.9029C18.6156 12.2404 18.8917 12.7301 19.2315 13.093C19.5916 13.4777 19.8768 13.5743 20.0834 13.5226C20.3869 13.4467 20.6944 13.6313 20.7703 13.9347C20.7833 13.9867 20.7887 14.0388 20.7871 14.0898C20.7872 14.2605 20.79 14.4453 20.7928 14.6383V14.6384V14.6384V14.6385V14.6385V14.6385C20.7988 15.0455 20.8054 15.4892 20.7895 15.9156C20.787 15.9813 20.784 16.0475 20.7804 16.1139ZM19.6596 14.6396C19.1414 14.5372 18.7102 14.1938 18.4045 13.8673C18.1627 13.6091 17.9533 13.3149 17.7832 13.033C17.3212 13.4063 16.7246 13.8093 16.0531 14.1295C15.2551 14.51 14.3052 14.7947 13.3293 14.7313C13.3401 15.5923 13.4008 16.5441 13.7352 17.3432C13.9392 17.8306 14.2374 18.2383 14.6764 18.5287C15.1162 18.8196 15.7425 19.0226 16.6528 19.0226C17.5746 19.0226 18.1785 18.835 18.5819 18.5722C18.9792 18.3134 19.2335 17.9484 19.3978 17.4917C19.5659 17.0247 19.6351 16.4737 19.6574 15.8734C19.6723 15.4743 19.6664 15.0871 19.6605 14.6991L19.6605 14.6987L19.6596 14.6396ZM12.6786 22.0504C13.0752 21.9216 13.9144 21.6773 14.7534 21.5115C14.8916 21.8186 15.0967 22.1189 15.3981 22.3493C15.7347 22.6066 16.156 22.7495 16.653 22.7495C17.15 22.7495 17.5713 22.6066 17.9078 22.3493C18.2165 22.1133 18.4243 21.8041 18.5624 21.4893C20.711 21.7685 21.7573 22.4259 22.2808 23.0616C22.672 23.5366 22.8185 24.0547 22.8707 24.5347H22.6413C21.4171 24.5347 20.3944 25.3981 20.1492 26.5492L16.5352 26.7902C15.9847 26.3125 15.4047 26.1115 14.8227 26.1762C14.2969 26.2346 13.8559 26.5015 13.51 26.8052H12.6786V22.0504ZM5.30068 19.5049L5.31247 19.5048L5.32483 19.5044H10.6688C11.1531 19.5044 11.5457 19.897 11.5457 20.3814V27.1295H1.3262V20.3819C1.3262 19.8975 1.71882 19.5049 2.20314 19.5049H5.30068ZM1.3262 28.2624H11.5457V29.0756H1.3262V28.2624ZM13.1674 29.0756H12.6786V27.938H13.1674V29.0756ZM22.8979 29.0756V25.6676H22.6413C22.0664 25.6676 21.5716 26.0103 21.35 26.5027C21.5731 26.5666 21.7427 26.7647 21.759 27.0096C21.7798 27.3217 21.5436 27.5916 21.2315 27.6124L16.3663 27.9368C16.2033 27.9476 16.0436 27.8876 15.9281 27.7721C15.4975 27.3416 15.1728 27.2771 14.9478 27.3021C14.7425 27.3249 14.524 27.4325 14.3002 27.6198V29.0756H22.8979ZM3.921 10.1682V11.7246L16.3414 3.54534C16.5324 3.41957 16.7803 3.42098 16.9698 3.54892L29.0605 11.7101V10.1641L16.6492 2.0967L3.921 10.1682ZM17.2193 15.6941C17.2193 15.3813 16.9657 15.1277 16.6528 15.1277C16.34 15.1277 16.0864 15.3813 16.0864 15.6941V16.6672C16.0864 16.98 16.34 17.2336 16.6528 17.2336C16.9657 17.2336 17.2193 16.98 17.2193 16.6672V15.6941ZM15.4474 17.1246C15.7327 16.9962 16.068 17.1234 16.1964 17.4087C16.3852 17.8283 16.9206 17.8283 17.1094 17.4087C17.2378 17.1234 17.5731 16.9962 17.8584 17.1246C18.1437 17.253 18.2708 17.5883 18.1425 17.8736C17.5529 19.1838 15.7529 19.1838 15.1633 17.8736C15.0349 17.5883 15.1621 17.253 15.4474 17.1246ZM6.76252 23.1532C6.76252 23.4233 6.54362 23.6422 6.27361 23.6422C6.00359 23.6422 5.78469 23.4233 5.78469 23.1532C5.78469 22.8832 6.00359 22.6643 6.27361 22.6643C6.54362 22.6643 6.76252 22.8832 6.76252 23.1532ZM7.89536 23.1532C7.89536 24.0489 7.16927 24.775 6.27361 24.775C5.37794 24.775 4.65186 24.0489 4.65186 23.1532C4.65186 22.2576 5.37794 21.5315 6.27361 21.5315C7.16927 21.5315 7.89536 22.2576 7.89536 23.1532ZM15.3559 15.5302C15.3559 15.7989 15.138 16.0168 14.8693 16.0168C14.6006 16.0168 14.3828 15.7989 14.3828 15.5302C14.3828 15.2615 14.6006 15.0437 14.8693 15.0437C15.138 15.0437 15.3559 15.2615 15.3559 15.5302ZM18.7614 16.0168C19.0301 16.0168 19.248 15.7989 19.248 15.5302C19.248 15.2615 19.0301 15.0437 18.7614 15.0437C18.4927 15.0437 18.2749 15.2615 18.2749 15.5302C18.2749 15.7989 18.4927 16.0168 18.7614 16.0168Z" fill="#121212"/>
</svg>
