<svg width="31" height="30" viewBox="0 0 31 30" fill="none" xmlns="http://www.w3.org/2000/svg">
<path fill-rule="evenodd" clip-rule="evenodd" d="M19.878 2.39791L18.1676 1.41681L17.8495 1.97043L19.56 2.95154L19.878 2.39791ZM18.5038 0.359656C18.0969 0.128233 17.5786 0.268013 17.3436 0.67432L17.3428 0.675717L16.7933 1.63212L16.7922 1.6342C16.7766 1.66149 16.7628 1.68929 16.7506 1.71747L15.3966 0.940421L15.3949 0.939479C14.9474 0.68472 14.3769 0.838607 14.1201 1.28612L14.1201 1.28623L11.1201 6.51293L11.1191 6.51461C10.8644 6.96217 11.0183 7.5326 11.4658 7.78939L11.4659 7.78945L26.4722 16.4023C26.9228 16.6622 27.4932 16.5043 27.7506 16.0582L27.7511 16.0572L30.7512 10.8304L30.7521 10.8287C31.0069 10.3811 30.853 9.81062 30.4054 9.55386L29.3528 8.94978C29.3716 8.92408 29.3891 8.89704 29.4053 8.86869L29.406 8.86744L29.9543 7.91311L29.9554 7.91104C30.1869 7.50405 30.0471 6.98578 29.6408 6.75076L29.6391 6.74978L27.5257 5.53755L27.5239 5.53654C27.1169 5.30512 26.5987 5.4449 26.3636 5.85121L26.3628 5.85261L25.8134 6.80901L25.8122 6.81109C25.7968 6.83829 25.7829 6.866 25.7708 6.89408L24.7786 6.32469C24.7977 6.29847 24.8156 6.27086 24.832 6.24189L25.3806 5.28699L25.3818 5.28491C25.6132 4.87792 25.4734 4.35965 25.0671 4.12463L25.0654 4.12365L22.952 2.91142L22.9503 2.91042C22.5433 2.679 22.025 2.81878 21.79 3.22508L21.7892 3.22648L21.2397 4.18289L21.2386 4.18496C21.2229 4.21251 21.2089 4.24058 21.1966 4.26903L20.3323 3.77302C20.3508 3.74794 20.368 3.72159 20.384 3.69402L20.3848 3.69263L20.9342 2.73622L20.9354 2.73415C21.1668 2.32717 21.027 1.80889 20.6207 1.57387L20.619 1.57289L18.5056 0.360662L18.5056 0.360659L18.5038 0.359656ZM14.9864 1.95522L29.7364 10.4201L26.8846 15.3887L12.1349 6.92317L14.9864 1.95522ZM9.57686 12.7405V13.3785H11.5478V12.7405H9.57686ZM8.49252 12.5079C8.49252 12.037 8.87334 11.6561 9.34429 11.6561H11.7804C12.2513 11.6561 12.6321 12.037 12.6321 12.5079V13.6111C12.6321 13.6439 12.6303 13.6762 12.6267 13.7081H13.7719C13.7683 13.6763 13.7665 13.6439 13.7665 13.6111V12.5079C13.7665 12.037 14.1473 11.6561 14.6182 11.6561H17.0543C17.5253 11.6561 17.9061 12.037 17.9061 12.5079V13.6111C17.9061 13.6439 17.9042 13.6762 17.9006 13.7081H19.1151C19.6311 13.7081 20.0497 14.1267 20.0497 14.6427V20.6704V20.674H20.0497C20.0462 21.185 19.6318 21.6035 19.1136 21.6035H1.80961C1.29361 21.6035 0.875 21.1849 0.875 20.6689V14.6427C0.875 14.1267 1.29361 13.7081 1.80961 13.7081H3.04911C3.04552 13.6763 3.04367 13.6439 3.04367 13.6111V12.5079C3.04367 12.037 3.42449 11.6561 3.89543 11.6561H6.33151C6.80246 11.6561 7.18328 12.037 7.18328 12.5079V13.6111C7.18328 13.6439 7.18142 13.6762 7.1778 13.7081H8.49796C8.49437 13.6763 8.49252 13.6439 8.49252 13.6111V12.5079ZM1.95934 14.7924V20.5192H18.9654V14.7924H1.95934ZM4.12801 13.3785V12.7405H6.09894V13.3785H4.12801ZM14.8508 12.7405V13.3786H16.8218V12.7405H14.8508ZM12.5768 28.6682V22.9399H29.5828V28.6682H12.5768ZM12.4271 21.8556C11.9111 21.8556 11.4924 22.2742 11.4924 22.7902V28.8179C11.4924 29.3339 11.9111 29.7525 12.4271 29.7525H29.7325C30.2485 29.7525 30.6671 29.3339 30.6671 28.8179V22.7902C30.6671 22.2742 30.2485 21.8556 29.7325 21.8556H28.5198C28.5234 21.8238 28.5253 21.7914 28.5253 21.7586V20.6554C28.5253 20.1845 28.1445 19.8037 27.6735 19.8037H25.2375C24.7665 19.8037 24.3857 20.1845 24.3857 20.6554V21.7586C24.3857 21.7914 24.3875 21.8238 24.3911 21.8556H12.4271ZM1.95934 22.9399V28.6682H9.68035V22.9399H1.95934ZM0.875 22.7902C0.875 22.2742 1.29361 21.8556 1.80961 21.8556H9.83007C10.3461 21.8556 10.7647 22.2742 10.7647 22.7902V28.8179C10.7647 29.3339 10.3461 29.7525 9.83007 29.7525H1.80961C1.29361 29.7525 0.875 29.3339 0.875 28.8179V22.7902ZM25.47 21.5261V20.888H27.441V21.5261H25.47ZM22.614 3.96757L24.3244 4.94868L24.0064 5.5023L22.2959 4.5212L22.614 3.96757ZM28.8981 7.5748L27.1876 6.59369L26.8696 7.14732L28.58 8.12843L28.8981 7.5748Z" fill="#121212"/>
</svg>
