<svg width="31" height="31" viewBox="0 0 31 31" fill="none" xmlns="http://www.w3.org/2000/svg">
<path fill-rule="evenodd" clip-rule="evenodd" d="M14.6851 10.583H16.185C16.5993 10.583 16.9351 10.9188 16.9351 11.333L16.935 11.3375C16.9368 12.403 17.5591 13.9286 18.4726 15.4863C19.3684 17.0138 20.4596 18.4318 21.2286 19.2407C21.4152 19.437 21.4815 19.7187 21.402 19.9776L19.4367 26.3763C19.7271 26.4797 19.9351 26.7571 19.9351 27.083V30.083C19.9351 30.4972 19.5993 30.833 19.1851 30.833H11.6851C11.2708 30.833 10.9351 30.4972 10.9351 30.083V27.083C10.9351 26.7571 11.143 26.4797 11.4334 26.3763L9.46813 19.9776C9.3886 19.7187 9.45487 19.437 9.64151 19.2407C10.4105 18.4318 11.5017 17.0138 12.3975 15.4863C13.3111 13.9285 13.9334 12.4028 13.9351 11.3374L13.9351 11.333C13.9351 10.9188 14.2709 10.583 14.6851 10.583ZM16.1851 14.3129V18.2837C16.6334 18.543 16.9351 19.0278 16.9351 19.583C16.9351 20.4114 16.2635 21.083 15.4351 21.083C14.6066 21.083 13.9351 20.4114 13.9351 19.583C13.9351 19.0278 14.2367 18.543 14.6851 18.2837L14.6851 14.3129C14.399 14.9715 14.0539 15.627 13.6914 16.2451C12.85 17.6798 11.8426 19.0324 11.0282 19.9479L12.9893 26.333H17.8808L19.8419 19.9479C19.0275 19.0324 18.0201 17.6798 17.1787 16.2451C16.8162 15.627 16.4711 14.9715 16.1851 14.3129ZM18.4181 27.833L18.4351 27.8332V29.333H12.4351V27.8332L12.452 27.833H18.4181Z" fill="black"/>
<path fill-rule="evenodd" clip-rule="evenodd" d="M2.68506 0.833008C1.44242 0.833008 0.435059 1.84037 0.435059 3.08301C0.435059 4.32565 1.44242 5.33301 2.68506 5.33301C3.66472 5.33301 4.49815 4.7069 4.80703 3.83301L9.07876 3.83301C5.05884 5.86312 2.2378 9.76228 1.95795 14.333H1.18506C0.770845 14.333 0.435059 14.6688 0.435059 15.083V18.083C0.435059 18.4972 0.770845 18.833 1.18506 18.833H4.18506C4.59927 18.833 4.93506 18.4972 4.93506 18.083V15.083C4.93506 14.6688 4.59927 14.333 4.18506 14.333H3.46141C3.82271 9.20652 7.86007 4.97613 13.1851 4.03038V4.58301C13.1851 4.99722 13.5208 5.33301 13.9351 5.33301H16.9351C17.3493 5.33301 17.6851 4.99722 17.6851 4.58301V4.03038C23.01 4.97613 27.0474 9.20652 27.4087 14.333H26.6851C26.2708 14.333 25.9351 14.6688 25.9351 15.083V18.083C25.9351 18.4972 26.2708 18.833 26.6851 18.833H29.6851C30.0993 18.833 30.4351 18.4972 30.4351 18.083V15.083C30.4351 14.6688 30.0993 14.333 29.6851 14.333H28.9122C28.6323 9.76228 25.8113 5.86312 21.7914 3.83301L26.0631 3.83301C26.372 4.7069 27.2054 5.33301 28.1851 5.33301C29.4277 5.33301 30.4351 4.32565 30.4351 3.08301C30.4351 1.84037 29.4277 0.833008 28.1851 0.833008C27.2054 0.833008 26.372 1.45911 26.0631 2.33301L17.6851 2.33301V1.58301C17.6851 1.16879 17.3493 0.833008 16.9351 0.833008H13.9351C13.5208 0.833008 13.1851 1.16879 13.1851 1.58301V2.33301L4.80703 2.33301C4.49815 1.45911 3.66472 0.833008 2.68506 0.833008ZM1.93506 3.08301C1.93506 2.66879 2.27085 2.33301 2.68506 2.33301C3.09927 2.33301 3.43506 2.66879 3.43506 3.08301C3.43506 3.49722 3.09927 3.83301 2.68506 3.83301C2.27085 3.83301 1.93506 3.49722 1.93506 3.08301ZM27.4351 3.08301C27.4351 2.66879 27.7708 2.33301 28.1851 2.33301C28.5993 2.33301 28.9351 2.66879 28.9351 3.08301C28.9351 3.49722 28.5993 3.83301 28.1851 3.83301C27.7708 3.83301 27.4351 3.49722 27.4351 3.08301ZM2.67199 15.833L2.68506 15.8331L2.69813 15.833H3.43506V17.333H1.93506V15.833H2.67199ZM14.6851 3.83301V3.17619C14.6851 3.16955 14.6851 3.1629 14.6851 3.15624V2.33301H16.1851V3.15625C16.185 3.16291 16.185 3.16954 16.1851 3.17616V3.83301H14.6851ZM28.172 15.833H27.4351V17.333H28.9351V15.833H28.1981L28.1851 15.8331L28.172 15.833Z" fill="currentColor"/>
</svg>
