<svg width="41" height="40" viewBox="0 0 41 40" fill="none" xmlns="http://www.w3.org/2000/svg">
<path fill-rule="evenodd" clip-rule="evenodd" d="M35.974 30.166C36.2506 30.4091 36.2777 30.8303 36.0346 31.1068L31.932 35.7735C31.8124 35.9096 31.6426 35.9911 31.4616 35.9993C31.2806 36.0076 31.1041 35.9418 30.9727 35.8172L29.7419 34.6505C29.4747 34.3972 29.4634 33.9753 29.7167 33.708C29.97 33.4408 30.3919 33.4295 30.6592 33.6828L31.3876 34.3733L35.0332 30.2265C35.2763 29.95 35.6975 29.9229 35.974 30.166Z" fill="#3693FF"/>
<path fill-rule="evenodd" clip-rule="evenodd" d="M32.5339 27.3333C29.4042 27.3333 26.8672 29.8704 26.8672 33C26.8672 36.1296 29.4042 38.6667 32.5339 38.6667C35.6635 38.6667 38.2005 36.1296 38.2005 33C38.2005 29.8704 35.6635 27.3333 32.5339 27.3333ZM25.5339 33C25.5339 29.134 28.6679 26 32.5339 26C36.3998 26 39.5339 29.134 39.5339 33C39.5339 36.866 36.3998 40 32.5339 40C28.6679 40 25.5339 36.866 25.5339 33Z" fill="#3693FF"/>
<path d="M37.5339 0C39.3748 0 40.8672 1.49238 40.8672 3.33333V15.1111C40.8672 16.9521 39.3748 18.4444 37.5339 18.4444H37.1149L38.1336 23.8771C38.1886 24.1706 38.0418 24.4649 37.7742 24.5974C37.5066 24.7299 37.1835 24.6684 36.9835 24.4467L33.3724 20.4467C33.1257 20.1734 33.1472 19.7519 33.4205 19.5052C33.6938 19.2584 34.1153 19.28 34.3621 19.5533L36.3868 21.796L35.6589 17.9141C35.6536 17.8887 35.6498 17.8627 35.6475 17.8362C35.6408 17.7613 35.647 17.6876 35.6643 17.6177C35.7127 17.4212 35.8483 17.2591 36.0276 17.1745C36.0964 17.142 36.1716 17.121 36.2508 17.1138C36.2757 17.1115 36.3004 17.1106 36.3249 17.1111H37.5339C38.6384 17.1111 39.5339 16.2157 39.5339 15.1111V3.33333C39.5339 2.22876 38.6384 1.33333 37.5339 1.33333H17.2005C16.096 1.33333 15.2005 2.22876 15.2005 3.33333V9.33333C15.2005 9.70152 14.902 10 14.5339 10C14.1657 10 13.8672 9.70152 13.8672 9.33333V3.33333C13.8672 1.49238 15.3596 0 17.2005 0H37.5339Z" fill="#3693FF"/>
<path fill-rule="evenodd" clip-rule="evenodd" d="M36.2005 5.33333C36.2005 4.96514 35.902 4.66667 35.5339 4.66667H18.2005C17.8323 4.66667 17.5339 4.96514 17.5339 5.33333C17.5339 5.70152 17.8323 6 18.2005 6H35.5339C35.902 6 36.2005 5.70152 36.2005 5.33333Z" fill="#3693FF"/>
<path fill-rule="evenodd" clip-rule="evenodd" d="M36.2005 9.33333C36.2005 8.96514 35.902 8.66667 35.5339 8.66667H22.8672C22.499 8.66667 22.2005 8.96514 22.2005 9.33333C22.2005 9.70152 22.499 10 22.8672 10H35.5339C35.902 10 36.2005 9.70152 36.2005 9.33333Z" fill="#3693FF"/>
<path d="M4.20052 11.3333C2.35957 11.3333 0.867188 12.8257 0.867188 14.6667V29.3333C0.867188 31.1743 2.35957 32.6667 4.20052 32.6667H5.27605L4.06045 39.1499C4.00586 39.4411 4.14998 39.7334 4.41422 39.8673C4.67847 40.0013 4.99943 39.9448 5.20206 39.7287L11.8227 32.6667H23.8672C24.2354 32.6667 24.5339 32.3682 24.5339 32C24.5339 31.6318 24.2354 31.3333 23.8672 31.3333H11.5365C11.5319 31.3333 11.5273 31.3333 11.5227 31.3334C11.4283 31.335 11.3386 31.3562 11.2577 31.3931C11.1921 31.4229 11.1305 31.4638 11.0757 31.5157C11.0647 31.5261 11.054 31.537 11.0436 31.5482L5.79201 37.1499L6.73243 32.1344C6.73645 32.1147 6.73961 32.0948 6.74186 32.0745C6.75206 31.9847 6.74371 31.8964 6.71965 31.8139C6.69607 31.7326 6.65743 31.6577 6.60695 31.5925C6.54061 31.5065 6.45322 31.4365 6.35066 31.3909C6.28685 31.3624 6.21775 31.3437 6.14524 31.3366C6.11859 31.3339 6.09209 31.3328 6.06585 31.3333H4.20052C3.09595 31.3333 2.20052 30.4379 2.20052 29.3333V14.6667C2.20052 13.5621 3.09595 12.6667 4.20052 12.6667H28.8672C29.9718 12.6667 30.8672 13.5621 30.8672 14.6667V24.3333C30.8672 24.7015 31.1657 25 31.5339 25C31.902 25 32.2005 24.7015 32.2005 24.3333V14.6667C32.2005 12.8257 30.7081 11.3333 28.8672 11.3333H4.20052Z" fill="#3693FF"/>
<path fill-rule="evenodd" clip-rule="evenodd" d="M6.20052 17.6364C6.20052 17.2682 6.499 16.9697 6.86719 16.9697H27.5339C27.902 16.9697 28.2005 17.2682 28.2005 17.6364C28.2005 18.0046 27.902 18.303 27.5339 18.303H6.86719C6.499 18.303 6.20052 18.0046 6.20052 17.6364Z" fill="#3693FF"/>
<path fill-rule="evenodd" clip-rule="evenodd" d="M6.20052 22.303C6.20052 21.9348 6.499 21.6364 6.86719 21.6364H27.5339C27.902 21.6364 28.2005 21.9348 28.2005 22.303C28.2005 22.6712 27.902 22.9697 27.5339 22.9697H6.86719C6.499 22.9697 6.20052 22.6712 6.20052 22.303Z" fill="#3693FF"/>
<path fill-rule="evenodd" clip-rule="evenodd" d="M6.20052 26.9697C6.20052 26.6015 6.499 26.303 6.86719 26.303H18.8672C19.2354 26.303 19.5339 26.6015 19.5339 26.9697C19.5339 27.3379 19.2354 27.6364 18.8672 27.6364H6.86719C6.499 27.6364 6.20052 27.3379 6.20052 26.9697Z" fill="#3693FF"/>
</svg>
