<svg width="48" height="48" viewBox="0 0 48 48" fill="none" xmlns="http://www.w3.org/2000/svg">
<path d="M46.9305 14.6926L25.342 0.452546C24.4977 -0.150849 23.4123 -0.150849 22.6886 0.452546L1.10012 14.6926C0.0146604 15.4167 -0.347159 16.9855 0.376479 18.1923C0.738298 18.9164 1.94436 19.642 2.71579 19.3399C2.90921 19.2642 3.99467 18.7957 3.99467 18.7957V45.5864C3.87406 47.0346 4.95952 48 6.4068 48H41.5032C42.8299 48 43.9154 46.9139 43.9154 45.5864V18.675C44.2772 18.9164 46.3275 19.7612 47.5335 18.0717C48.3778 16.7442 48.016 15.4167 46.9305 14.6926ZM42.2269 45.4657C42.2269 45.8278 41.8651 46.1898 41.5032 46.1898H6.5274C6.16558 46.1898 5.80376 45.8278 5.80376 45.4657V17.5889L24.0153 5.52106L42.2269 17.5889V45.4657ZM46.2069 17.2269C45.8451 17.7096 45.2534 17.4872 45.1328 17.3666L24.4977 3.71087C24.2565 3.46952 23.8947 3.46952 23.5329 3.71087L2.90921 17.4683C2.42679 17.7096 2.18557 17.5889 1.94436 17.2269C1.70315 16.8649 1.70315 16.5028 2.18557 16.1408L23.6535 1.78001C23.8947 1.65933 24.1359 1.65933 24.3771 1.78001L45.8451 16.0201C46.3275 16.3821 46.4481 16.8649 46.2069 17.2269Z" fill="#121212"/>
<path d="M14.005 15.0547L9.54256 19.5198C8.57771 20.4852 8.57771 22.0541 9.54256 23.0195L16.6583 30.1395L12.425 34.3375C12.3044 34.4582 12.1216 34.6107 12.0753 34.846L10.2662 41.3627C10.1456 41.8454 10.0584 42.322 10.5438 42.9596C11.2113 43.6882 11.9721 43.4749 12.334 43.3542L18.5842 41.6238C18.7049 41.6238 18.9499 41.4833 19.0705 41.3627L23.4123 37.0182L30.5281 44.1383C31.0105 44.621 31.6135 44.8623 32.2165 44.8623C32.8196 44.8623 33.4226 44.621 33.905 44.1383L38.4881 39.6732C38.9705 39.1904 39.2117 38.587 39.2117 37.9837C39.2117 37.3803 38.9705 36.7769 38.4881 36.2942L31.3723 29.1741L37.4026 23.1402C38.0057 22.5368 38.3675 21.692 38.3675 20.8473C38.3675 20.0025 38.0057 19.1578 37.4026 18.5544L35.2317 16.3821C34.6287 15.7788 33.7844 15.4167 32.9402 15.4167C32.0959 15.4167 31.2517 15.7788 30.6487 16.3821L24.6184 22.4161L17.5026 15.296C16.4171 14.0893 14.8492 14.0893 14.005 15.0547ZM11.9547 41.604C11.9547 41.604 12.4371 39.5525 12.5577 39.5525C12.9195 39.5525 14.1256 40.7593 14.005 41.0006C14.005 41.1213 11.9547 41.604 11.9547 41.604ZM15.6935 40.6386C15.6935 40.6386 15.2111 39.5525 14.608 39.0698C14.1256 38.587 13.0401 37.9837 13.0401 37.9837L13.5226 36.4148L16.1759 37.6216L17.382 40.2766L15.6935 40.6386ZM18.7086 39.1904L17.7438 37.0182L29.4426 25.3124L31.0105 26.8812L18.7086 39.1904ZM31.6135 31.829L30.5281 32.9151C30.2868 33.1565 30.0456 33.6392 30.5281 34.1219C30.9635 34.6107 31.5399 34.3375 31.7341 34.1219L32.8196 33.0358L34.3875 34.6046L32.8196 36.1735C32.5784 36.4148 32.3372 36.8975 32.8196 37.3803C33.302 37.863 33.7844 37.6216 34.0256 37.3803L35.5935 35.8114L37.1614 37.3803C37.282 37.5009 37.4026 37.7423 37.4026 37.863C37.4026 37.9837 37.282 38.225 37.1614 38.3457L32.699 42.8108C32.5784 42.9315 32.3372 43.0522 32.2165 43.0522C31.9753 43.0522 31.8547 42.9315 31.7341 42.8108L24.6184 35.6908L30.0456 30.2602L31.6135 31.829ZM31.8547 17.4683C32.0959 17.2269 32.4578 16.9855 32.9402 16.9855C33.302 16.9855 33.6638 17.1062 34.0256 17.4683L36.1966 19.6405C36.4378 19.8818 36.679 20.2439 36.679 20.7266C36.679 21.2093 36.5584 21.4507 36.1966 21.8127L35.1111 22.7781L30.7693 18.4337L31.8547 17.4683ZM29.5632 19.6405L33.905 23.9849L32.3372 25.5537L27.9953 21.2093L29.5632 19.6405ZM26.7893 22.4161L28.3571 23.9849L16.6583 35.6908L14.3668 34.846L26.7893 22.4161ZM16.2965 19.3991C16.0553 19.6405 15.8141 20.1232 16.1759 20.6059C16.5377 21.0886 17.1408 20.9679 17.5026 20.6059L18.9499 19.1578L20.5177 20.7266L19.4323 21.8127C19.1304 22.133 18.9787 22.6309 19.3731 23.0195C19.7676 23.4081 20.344 23.317 20.6383 23.0195L21.7238 21.9334L23.2917 23.5022L17.8644 28.9327L10.7486 21.692C10.5074 21.4507 10.5074 20.9679 10.7486 20.7266L15.2111 16.2615C15.4523 16.0201 15.9347 16.0201 16.1759 16.2615L17.7438 17.8303L16.2965 19.3991Z" fill="#121212"/>
</svg>
