<svg width="31" height="30" viewBox="0 0 31 30" fill="none" xmlns="http://www.w3.org/2000/svg">
<path fill-rule="evenodd" clip-rule="evenodd" d="M23.8068 6.77679C23.8068 6.34778 24.137 6 24.5445 6H29.4625C29.8699 6 30.2002 6.34778 30.2002 6.77679V11.9554C30.2002 12.3844 29.8699 12.7321 29.4625 12.7321C29.0551 12.7321 28.7248 12.3844 28.7248 11.9554V8.69503L14.7464 23.8887C14.6089 24.0382 14.4201 24.1233 14.2224 24.125C14.0248 24.1266 13.8347 24.0447 13.695 23.8975L9.29856 19.2682L1.45954 27.5225C1.17144 27.8258 0.704356 27.8258 0.416264 27.5225C0.128172 27.2191 0.128172 26.7273 0.416264 26.4239L8.77692 17.6204C8.91527 17.4747 9.1029 17.3929 9.29856 17.3929C9.49421 17.3929 9.68185 17.4747 9.82019 17.6204L14.2082 22.2409L27.7207 7.55357H24.5445C24.137 7.55357 23.8068 7.20579 23.8068 6.77679ZM28.0169 13.4775C28.305 13.7809 28.305 14.2727 28.0169 14.5761L15.7218 27.5225C15.4337 27.8258 14.9667 27.8258 14.6786 27.5225C14.3905 27.2191 14.3905 26.7273 14.6786 26.4239L26.9736 13.4775C27.2617 13.1742 27.7288 13.1742 28.0169 13.4775ZM29.4923 17.1025C29.7804 17.4059 29.7804 17.8977 29.4923 18.2011L20.6399 27.5225C20.3518 27.8258 19.8847 27.8258 19.5966 27.5225C19.3085 27.2191 19.3085 26.7273 19.5966 26.4239L28.4491 17.1025C28.7371 16.7992 29.2042 16.7992 29.4923 17.1025ZM10.312 21.7632C10.6001 22.0666 10.6001 22.5584 10.312 22.8618L5.88577 27.5225C5.59767 27.8258 5.13059 27.8258 4.84249 27.5225C4.5544 27.2191 4.5544 26.7273 4.84249 26.4239L9.26872 21.7632C9.55681 21.4599 10.0239 21.4599 10.312 21.7632ZM29.4923 22.2811C29.7804 22.5844 29.7804 23.0763 29.4923 23.3796L25.5579 27.5225C25.2698 27.8258 24.8027 27.8258 24.5146 27.5225C24.2265 27.2191 24.2265 26.7273 24.5146 26.4239L28.4491 22.2811C28.7371 21.9777 29.2042 21.9777 29.4923 22.2811ZM12.771 24.3525C13.0591 24.6559 13.0591 25.1477 12.771 25.4511L10.8038 27.5225C10.5157 27.8258 10.0486 27.8258 9.76053 27.5225C9.47243 27.2191 9.47243 26.7273 9.76053 26.4239L11.7277 24.3525C12.0158 24.0492 12.4829 24.0492 12.771 24.3525Z" fill="#121212"/>
</svg>
