<svg width="30" height="31" viewBox="0 0 30 31" fill="none" xmlns="http://www.w3.org/2000/svg">
<path fill-rule="evenodd" clip-rule="evenodd" d="M0 1.23325C0 0.825525 0.33053 0.494995 0.738259 0.494995H8.21982C8.62755 0.494995 8.95808 0.825525 8.95808 1.23325C8.95808 1.64098 8.62755 1.97151 8.21982 1.97151H2.57812L12.0033 10.9869C12.298 11.2687 12.3083 11.7361 12.0265 12.0307C11.7447 12.3253 11.2773 12.3357 10.9827 12.0539L1.47652 2.96102V9.18242C1.47652 9.59015 1.14599 9.92067 0.738259 9.92067C0.33053 9.92067 0 9.59015 0 9.18242V1.23325ZM21.0419 1.23325C21.0419 0.825525 21.3724 0.494995 21.7802 0.494995H29.2617C29.6695 0.494995 30 0.825525 30 1.23325V9.18242C30 9.59015 29.6695 9.92067 29.2617 9.92067C28.854 9.92067 28.5235 9.59015 28.5235 9.18242V2.96103L19.0173 12.0539C18.7227 12.3357 18.2553 12.3253 17.9735 12.0307C17.6917 11.7361 17.702 11.2687 17.9967 10.9869L27.4219 1.97151H21.7802C21.3724 1.97151 21.0419 1.64098 21.0419 1.23325ZM12.0265 18.4905C12.3083 18.7852 12.298 19.2525 12.0033 19.5343L2.57812 28.5497H8.21982C8.62755 28.5497 8.95808 28.8803 8.95808 29.288C8.95808 29.6957 8.62755 30.0262 8.21982 30.0262H0.738259C0.33053 30.0262 0 29.6957 0 29.288V21.3388C0 20.9311 0.33053 20.6006 0.738259 20.6006C1.14599 20.6006 1.47652 20.9311 1.47652 21.3388V27.5602L10.9827 18.4673C11.2773 18.1855 11.7447 18.1959 12.0265 18.4905ZM17.9735 18.4905C18.2553 18.1959 18.7227 18.1855 19.0173 18.4673L28.5235 27.5602V21.3388C28.5235 20.9311 28.854 20.6006 29.2617 20.6006C29.6695 20.6006 30 20.9311 30 21.3388V29.288C30 29.6957 29.6695 30.0262 29.2617 30.0262H21.7802C21.3724 30.0262 21.0419 29.6957 21.0419 29.288C21.0419 28.8803 21.3724 28.5497 21.7802 28.5497H27.4219L17.9967 19.5343C17.702 19.2525 17.6917 18.7852 17.9735 18.4905Z" fill="#121212"/>
</svg>
