<svg width="27" height="27" viewBox="0 0 27 27" fill="none" xmlns="http://www.w3.org/2000/svg">
<path d="M7.92323 7.91084C8.24855 8.16725 8.30441 8.63883 8.04801 8.96414C5.72346 11.9134 5.76872 14.8021 6.93027 16.9425C8.11684 19.1289 10.4941 20.5927 12.9558 20.5927C15.6877 20.5927 18.0507 19.115 19.1674 16.9557C20.2671 14.8294 20.2097 11.9327 17.8699 8.96414C17.6135 8.63883 17.6694 8.16726 17.9947 7.91085C18.32 7.65444 18.7916 7.7103 19.048 8.03561C21.7083 11.4108 21.9009 14.9355 20.4998 17.6447C19.1158 20.3209 16.2272 22.0927 12.9558 22.0927C9.92075 22.0927 7.04956 20.307 5.61191 17.658C4.14925 14.9628 4.19449 11.4301 6.86994 8.03562C7.12634 7.7103 7.59792 7.65444 7.92323 7.91084Z" fill="#121212"/>
<path d="M13.9501 6.5C13.9501 6.08579 13.6143 5.75 13.2001 5.75C12.7859 5.75 12.4501 6.08579 12.4501 6.5V13.5C12.4501 13.9142 12.7859 14.25 13.2001 14.25C13.6143 14.25 13.9501 13.9142 13.9501 13.5V6.5Z" fill="#121212"/>
<path fill-rule="evenodd" clip-rule="evenodd" d="M1.7002 0.5C0.871768 0.5 0.200195 1.17157 0.200195 2V25C0.200195 25.8284 0.871769 26.5 1.7002 26.5H24.7002C25.5286 26.5 26.2002 25.8284 26.2002 25V2C26.2002 1.17157 25.5286 0.5 24.7002 0.5H1.7002ZM24.7002 2H1.7002V25H24.7002V2Z" fill="#121212"/>
</svg>
