<svg width="157" height="29" viewBox="0 0 157 29" fill="none" xmlns="http://www.w3.org/2000/svg">
<g clip-path="url(#clip0_773_5126)">
<path d="M30.5793 5.8377C30.4917 5.7502 29.9667 5.3127 29.5292 4.8752C27.6042 3.2127 25.6792 1.4627 24.8042 1.0252C24.7167 1.0252 24.1917 0.762695 22.9667 0.762695H9.57925C8.96675 0.762695 8.09175 0.850195 7.65425 1.1127C7.47925 1.2877 6.77925 1.9002 5.99175 2.5127C4.67925 3.6502 2.57925 5.4002 2.05425 5.7502L1.87925 5.9252C1.26675 6.5377 0.916748 7.3252 0.916748 8.1127V8.3752V21.5002C0.916748 22.4627 1.52925 22.9002 1.79175 23.1627C1.87925 23.1627 1.87925 23.2502 1.87925 23.2502C2.66675 24.0377 6.77925 27.1877 7.21675 27.4502C8.35425 28.1502 9.31675 28.1502 9.66675 28.1502H23.1417C24.2792 28.1502 24.8917 28.0627 25.6792 27.4502L30.6667 23.4252C31.3667 22.7252 31.6292 22.0252 31.6292 21.2377V8.3752V8.1127V7.9377C31.6292 7.3252 31.2792 6.5377 30.5793 5.8377ZM1.79175 10.1252C1.87925 10.2127 1.87925 10.2127 1.96675 10.3002C3.19175 11.3502 6.60425 14.0627 7.04175 14.5002C7.65425 15.1127 8.79175 15.3752 9.57925 15.3752H23.0542C24.1042 15.3752 24.8042 15.0252 25.5917 14.5002L28.5667 12.1377L30.6667 10.3002C30.7542 10.2127 30.7542 10.2127 30.8417 10.1252V14.8502C30.7542 15.3752 30.4917 15.8127 30.1418 16.1627L25.1542 20.2752C24.4542 20.7127 23.9292 20.8002 23.1417 20.8002H9.66675C8.44175 20.8002 7.65425 20.2752 7.65425 20.2752C7.04175 19.9252 4.85425 18.1752 3.54175 17.0377C3.01675 16.6002 2.57925 16.2502 2.49175 16.1627C1.96675 15.7252 1.79175 15.3752 1.79175 14.7627V10.1252ZM25.5042 13.4502C25.1542 13.0127 24.3667 12.0502 24.0167 11.7002C23.6667 11.4377 23.1417 11.3502 22.2667 11.3502H10.4542C10.1917 11.3502 9.31675 11.3502 8.79175 11.6127C8.26675 11.8752 7.47925 12.8377 7.04175 13.3627C6.42925 12.8377 5.37925 11.9627 4.50425 11.2627C5.29175 10.3877 7.30425 8.1127 7.74175 7.6752C8.26675 7.1502 8.96675 7.1502 9.31675 7.1502H23.2292C23.8417 7.1502 24.5417 7.3252 24.8042 7.6752C25.2417 8.1127 27.3417 10.3877 28.2167 11.2627L27.9542 11.4377L25.5042 13.4502ZM24.8042 13.9752C24.1917 14.3252 23.6667 14.5002 22.9667 14.5002H9.57925C8.96675 14.5002 8.17925 14.3252 7.74175 13.9752C8.26675 13.2752 8.87925 12.5752 9.14175 12.4877C9.40425 12.3127 9.84175 12.3127 10.4542 12.3127H22.2667C23.1417 12.3127 23.4917 12.4877 23.4917 12.4002C23.7542 12.6627 24.4542 13.5377 24.8042 13.9752ZM30.0542 22.8127L25.0667 26.8377C24.5417 27.2752 24.1042 27.3627 23.1417 27.3627H9.66675C9.31675 27.3627 8.52925 27.3627 7.65425 26.8377C7.21675 26.5752 3.19175 23.5127 2.49175 22.8127C2.40425 22.7252 2.40425 22.7252 2.31675 22.6377C2.05425 22.3752 1.79175 22.0252 1.79175 21.5002V16.6877C1.87925 16.7752 1.87925 16.7752 1.96675 16.8627C2.14175 16.9502 2.49175 17.3002 3.01675 17.7377C4.85425 19.2252 6.60425 20.7127 7.21675 20.9752C7.21675 20.9752 8.17925 21.6752 9.75425 21.6752H23.2292C24.1042 21.6752 24.8042 21.5877 25.7667 20.9752L30.7542 16.8627C30.8417 16.7752 30.8417 16.7752 30.8417 16.6877V21.2377C30.7542 21.8502 30.5792 22.3752 30.0542 22.8127ZM30.7542 8.1127V8.2877C30.5792 8.9002 30.4042 9.3377 30.0542 9.6002L28.8293 10.6502C28.0417 9.7752 25.8542 7.4127 25.4167 7.0627C24.8917 6.3627 23.6667 6.2752 23.2292 6.2752H9.31675C8.96675 6.2752 7.91675 6.2752 7.12925 7.0627C6.60425 7.5877 4.59175 9.8627 3.80425 10.7377C3.10425 10.1252 2.57925 9.6877 2.49175 9.6002C2.05425 9.2502 1.79175 8.8127 1.79175 8.3752V8.1127C1.79175 7.5877 2.05425 7.0627 2.49175 6.5377C2.84175 6.2752 3.71675 5.5752 6.51675 3.2127C7.30425 2.5127 8.00425 1.9877 8.17925 1.8127C8.35425 1.8127 8.87925 1.6377 9.57925 1.6377H23.0542C24.0167 1.6377 24.4542 1.8127 24.4542 1.8127C25.2417 2.2502 27.6917 4.3502 28.9167 5.4877C29.6167 6.1002 29.9667 6.4502 30.0542 6.4502C30.4917 6.8877 30.7542 7.4127 30.7542 7.8502V8.1127Z" fill="black"/>
<path d="M38.3667 22.3754V10.2129H41.2542V22.3754H38.3667ZM39.8542 7.93789C39.3292 7.93789 38.9792 7.85039 38.6292 7.41289C38.1917 7.23789 38.1042 6.71289 38.1042 6.18789C38.1042 5.66289 38.1917 5.31289 38.6292 5.05039C38.9792 4.87539 39.3292 4.61289 39.8542 4.61289C40.3792 4.61289 40.7292 4.70039 41.0792 5.13789C41.4292 5.31289 41.6042 5.83789 41.6042 6.18789C41.6042 6.71289 41.5167 7.06289 41.0792 7.41289C40.7292 7.85039 40.2917 7.93789 39.8542 7.93789ZM45.0167 22.3754V10.2129H47.3792L47.6417 11.8754C48.1667 11.3504 48.7792 10.9129 49.3917 10.4754C50.0042 10.1254 50.7917 9.86289 51.6667 9.86289C53.0667 9.86289 53.9417 10.2129 54.5542 11.0879C55.1667 11.9629 55.4292 13.1004 55.4292 14.6754V22.3754H52.7167V15.0254C52.7167 14.0629 52.6292 13.2754 52.1917 12.9254C51.9292 12.5754 51.4042 12.3129 50.7042 12.3129C50.1792 12.3129 49.7417 12.4004 49.3042 12.6629C48.9542 12.9254 48.4292 13.2754 47.9042 13.8004V22.3754H45.0167ZM63.4792 22.6379C62.0792 22.6379 61.1167 22.2879 60.5042 21.4129C59.8917 20.5379 59.6292 19.5754 59.6292 18.1754V12.3129H57.8792V10.2129L59.7167 10.1254L60.0667 6.80039H62.4293V10.1254H65.5793V12.4004H62.4293V18.2629C62.4293 19.6629 63.0417 20.3629 64.1793 20.3629C64.4418 20.3629 64.7042 20.3629 64.7917 20.2754C65.0542 20.1879 65.1417 20.1879 65.4042 20.0129L65.9293 22.1129C65.5793 22.2004 65.1417 22.3754 64.7917 22.3754C64.3542 22.6379 64.0042 22.6379 63.4792 22.6379ZM73.1917 22.6379C72.0542 22.6379 71.0917 22.3754 70.0417 21.8504C69.1667 21.3254 68.4667 20.6254 67.9417 19.5754C67.4167 18.6129 67.1542 17.4754 67.1542 16.0754C67.1542 14.6754 67.4167 13.6254 67.9417 12.5754C68.4667 11.5254 69.1667 10.8254 70.0417 10.3004C70.9167 9.77539 71.7917 9.51289 72.7542 9.51289C73.8917 9.51289 74.7667 9.77539 75.4667 10.3004C76.2542 10.8254 76.8667 11.4379 77.2167 12.3129C77.5667 13.1879 77.8293 14.1504 77.8293 15.2879C77.8293 15.9004 77.8293 16.4254 77.7418 16.6879H70.0417C70.1292 17.8254 70.5667 18.5254 71.1793 19.1379C71.7918 19.7504 72.6667 20.0129 73.6292 20.0129C74.1542 20.0129 74.5918 19.9254 75.1168 19.7504C75.6418 19.6629 75.9917 19.4004 76.5168 19.1379L77.4792 20.8879C76.8667 21.2379 76.2542 21.6754 75.4667 21.8504C74.6792 22.5504 73.8917 22.6379 73.1917 22.6379ZM69.9543 15.0254H75.4667C75.4667 14.0629 75.2042 13.2754 74.8542 12.7504C74.5042 12.2254 73.8918 11.8754 73.0168 11.8754C72.2292 11.8754 71.6168 12.1379 71.1793 12.6629C70.3043 13.2754 70.0417 14.0629 69.9543 15.0254ZM83.5168 22.6379C82.5542 22.6379 81.7667 22.3754 81.4167 21.7629C81.0667 21.1504 80.8043 20.2754 80.8043 19.3129V4.70039H83.6042V19.4004C83.6042 19.7504 83.6917 20.0129 83.8668 20.1879C83.9543 20.2754 84.1292 20.4504 84.2167 20.4504C84.3042 20.4504 84.3043 20.4504 84.3043 20.4504C84.3918 20.4504 84.3917 20.4504 84.5667 20.4504L84.9167 22.5504C84.8292 22.6379 84.5667 22.6379 84.3043 22.6379C84.1292 22.6379 83.8667 22.6379 83.5168 22.6379ZM90.5168 22.6379C89.5542 22.6379 88.7667 22.3754 88.4167 21.7629C88.0667 21.1504 87.8043 20.2754 87.8043 19.3129V4.70039H90.6917V19.4004C90.6917 19.7504 90.7793 20.0129 90.9543 20.1879C91.0417 20.2754 91.2168 20.4504 91.3043 20.4504C91.3918 20.4504 91.3918 20.4504 91.3918 20.4504C91.4792 20.4504 91.4792 20.4504 91.6542 20.4504L92.0042 22.5504C91.9167 22.6379 91.6543 22.6379 91.3918 22.6379C91.1292 22.6379 90.8667 22.6379 90.5168 22.6379ZM94.6292 22.3754V10.2129H97.5168V22.3754H94.6292ZM96.1168 7.93789C95.5918 7.93789 95.2417 7.85039 94.8918 7.41289C94.5417 7.15039 94.3668 6.62539 94.3668 6.18789C94.3668 5.75039 94.4543 5.31289 94.8918 5.05039C95.2417 4.78789 95.6793 4.52539 96.1168 4.52539C96.5543 4.52539 96.9917 4.61289 97.3417 5.05039C97.6917 5.31289 97.8668 5.83789 97.8668 6.18789C97.8668 6.71289 97.7792 7.06289 97.3417 7.41289C96.9917 7.85039 96.5543 7.93789 96.1168 7.93789ZM105.567 27.8004C104.604 27.8004 103.729 27.7129 102.942 27.4504C102.154 27.1879 101.542 26.8379 101.104 26.3129C100.754 25.7879 100.492 25.3504 100.492 24.5629C100.492 23.6004 101.104 22.7254 102.242 21.9379C101.892 21.6754 101.629 21.4129 101.454 21.1504C101.192 20.8004 101.192 20.3629 101.192 19.9254C101.192 19.4004 101.279 19.0504 101.542 18.7004C101.804 18.3504 102.154 17.9129 102.504 17.7379V17.6504C102.154 17.3004 101.717 16.8629 101.367 16.2504C101.017 15.6379 100.842 15.0254 100.842 14.4129C100.842 13.4504 101.104 12.6629 101.454 12.0504C101.979 11.4379 102.417 10.9129 103.204 10.5629C103.992 10.2129 104.692 10.0379 105.567 10.0379C105.917 10.0379 106.179 10.0379 106.529 10.1254C106.879 10.1254 107.142 10.2129 107.404 10.3879H111.779V12.4879H109.504C109.767 12.7504 109.854 13.0129 110.029 13.3629C110.117 13.7129 110.292 14.1504 110.292 14.5004C110.292 15.3754 110.029 16.0754 109.679 16.7754C109.329 17.3879 108.717 17.9129 108.104 18.1754C107.492 18.4379 106.617 18.7004 105.742 18.7004C105.479 18.7004 105.217 18.7004 104.867 18.6129C104.604 18.6129 104.254 18.5254 103.992 18.3504C103.904 18.4379 103.642 18.7004 103.467 18.8754C103.379 18.9629 103.379 19.2254 103.379 19.4879C103.379 19.8379 103.467 20.1004 103.729 20.3629C103.992 20.6254 104.604 20.6254 105.304 20.6254H107.404C108.892 20.6254 110.029 20.8879 110.729 21.4129C111.517 21.9379 111.867 22.6379 111.867 23.6879C111.867 24.4754 111.604 25.1754 111.079 25.7879C110.554 26.4004 109.854 27.0129 108.804 27.3629C108.017 27.5379 106.967 27.8004 105.567 27.8004ZM105.829 16.6879C106.442 16.6879 106.967 16.4254 107.317 16.0754C107.667 15.7254 107.929 15.1129 107.929 14.2379C107.929 13.4504 107.667 12.8379 107.317 12.4879C106.967 12.1379 106.442 11.8754 105.829 11.8754C105.217 11.8754 104.692 12.1379 104.342 12.4879C103.992 12.8379 103.729 13.4504 103.729 14.2379C103.729 15.0254 103.992 15.6379 104.342 16.0754C104.692 16.4254 105.217 16.6879 105.829 16.6879ZM106.092 25.8754C107.054 25.8754 107.842 25.6129 108.454 25.2629C109.067 24.9129 109.329 24.3879 109.329 23.8629C109.329 23.3379 109.067 23.0754 108.717 22.9004C108.367 22.8129 107.842 22.6379 107.054 22.6379H105.479C104.867 22.6379 104.254 22.6379 103.904 22.5504C103.292 23.0754 102.942 23.5129 102.942 24.1254C102.942 24.6504 103.204 25.0879 103.817 25.3504C104.342 25.7879 105.042 25.8754 106.092 25.8754ZM119.217 22.6379C118.079 22.6379 117.117 22.3754 116.067 21.8504C115.192 21.3254 114.404 20.6254 113.967 19.5754C113.442 18.6129 113.179 17.4754 113.179 16.0754C113.179 14.6754 113.442 13.6254 113.967 12.5754C114.492 11.5254 115.192 10.8254 116.067 10.3004C116.942 9.77539 117.817 9.51289 118.779 9.51289C119.917 9.51289 120.792 9.77539 121.492 10.3004C122.279 10.8254 122.892 11.4379 123.242 12.3129C123.592 13.1879 123.854 14.1504 123.854 15.2879C123.854 15.9004 123.854 16.4254 123.767 16.6879H116.067C116.154 17.8254 116.592 18.5254 117.204 19.1379C117.817 19.7504 118.692 20.0129 119.654 20.0129C120.179 20.0129 120.617 19.9254 121.142 19.7504C121.667 19.6629 122.017 19.4004 122.542 19.1379L123.504 20.8879C122.892 21.2379 122.279 21.6754 121.492 21.8504C120.879 22.5504 120.092 22.6379 119.217 22.6379ZM115.979 15.0254H121.492C121.492 14.0629 121.229 13.2754 120.879 12.7504C120.529 12.2254 119.917 11.8754 119.042 11.8754C118.254 11.8754 117.642 12.1379 117.204 12.6629C116.504 13.2754 116.154 14.0629 115.979 15.0254ZM126.829 22.3754V10.2129H129.192L129.454 11.8754H129.542C130.067 11.3504 130.679 10.9129 131.117 10.4754C131.729 10.1254 132.342 9.86289 133.217 9.86289C134.092 9.86289 134.879 10.1254 135.317 10.4754C135.754 10.8254 136.279 11.3504 136.542 12.0504C137.154 11.4379 137.767 10.9129 138.379 10.4754C138.992 10.1254 139.779 9.86289 140.479 9.86289C141.704 9.86289 142.754 10.2129 143.367 11.0879C143.979 11.9629 144.242 13.1004 144.242 14.6754V22.3754H141.354V15.0254C141.354 14.0629 141.267 13.2754 140.829 12.9254C140.567 12.5754 140.042 12.3129 139.429 12.3129C138.642 12.3129 137.767 12.8379 136.804 13.8004V22.3754H133.917V15.0254C133.917 14.0629 133.829 13.2754 133.392 12.9254C133.129 12.5754 132.604 12.3129 131.992 12.3129C131.204 12.3129 130.329 12.8379 129.367 13.8004V22.3754H126.829ZM151.504 22.6379C150.629 22.6379 149.842 22.5504 149.054 22.1129C148.179 21.7629 147.567 21.3254 146.954 20.8879L148.354 19.0504C148.879 19.4004 149.492 19.8379 149.929 20.0129C150.454 20.2754 151.067 20.3629 151.679 20.3629C152.292 20.3629 152.817 20.2754 153.167 20.0129C153.517 19.7504 153.692 19.4004 153.692 19.0504C153.692 18.7004 153.604 18.4379 153.342 18.1754C153.079 17.9129 152.729 17.8254 152.379 17.5629C152.029 17.4754 151.504 17.2129 151.154 17.0379C150.629 16.7754 150.017 16.5129 149.492 16.2504C148.967 15.9879 148.529 15.6379 148.267 15.1129C147.917 14.5879 147.742 14.1504 147.742 13.3629C147.742 12.2254 148.092 11.3504 148.967 10.7379C149.754 10.1254 150.804 9.77539 152.204 9.77539C153.079 9.77539 153.779 9.86289 154.567 10.3004C155.179 10.5629 155.792 10.9129 156.317 11.2629L154.917 13.0129C154.567 12.6629 154.042 12.4004 153.517 12.2254C153.167 11.9629 152.642 11.9629 152.117 11.9629C151.504 11.9629 150.979 12.0504 150.717 12.3129C150.454 12.5754 150.192 12.9254 150.192 13.2754C150.192 13.8004 150.454 14.1504 150.979 14.4129C151.504 14.6754 152.117 14.9379 152.729 15.2004C153.342 15.4629 153.867 15.7254 154.304 15.9879C154.829 16.2504 155.267 16.6004 155.704 17.1254C156.142 17.6504 156.229 18.2629 156.229 18.9629C156.229 19.9254 155.879 20.9754 155.004 21.6754C154.217 22.2879 152.992 22.6379 151.504 22.6379Z" fill="black"/>
</g>
<defs>
<clipPath id="clip0_773_5126">
<rect width="155.75" height="28" fill="white" transform="translate(0.479248 0.5)"/>
</clipPath>
</defs>
</svg>
