<svg width="156" height="31" viewBox="0 0 156 31" fill="none" xmlns="http://www.w3.org/2000/svg">
<path d="M22.4565 17.9324C22.4565 18.9864 22.2131 19.9594 21.8075 20.8513C20.6718 23.2837 17.9137 25.0675 15.1556 25.1486C15.0745 25.1486 14.9933 25.1486 14.9122 25.1486C14.1821 25.1486 13.452 25.0675 12.7219 24.8243C9.4771 23.8513 8.09804 20.8513 8.09804 20.8513C7.9358 20.4459 7.77355 20.0405 7.69243 19.554C7.20571 16.9594 8.82813 14.8513 9.15261 14.4459C9.55822 13.9594 9.96383 13.4729 10.4506 13.0675L11.3429 14.2837L10.6128 15.0135C10.3694 15.2567 9.07149 16.8783 9.4771 19.0675C9.96383 21.6621 12.5597 22.7162 12.9653 22.8783C13.0464 22.8783 13.2087 22.9594 13.2087 22.9594C13.7765 23.1216 14.3444 23.2027 14.9933 23.2027C17.1025 23.1216 19.1305 21.8243 20.0229 19.9594C20.3473 19.3108 20.5096 18.4999 20.5096 17.7702C20.5096 17.2027 20.4285 16.7162 20.2662 16.2297C20.1851 15.9864 20.104 15.7432 19.9417 15.4999C19.3739 14.4459 16.129 10.554 15.2367 9.41887L14.2632 11.0405L17.0214 14.2837C17.2647 14.527 17.427 14.8513 17.5892 15.0945C17.9948 15.7432 18.3193 16.2297 18.4816 16.8783C18.6438 17.527 18.7249 18.0945 18.5627 18.7432C18.2382 20.0405 16.8591 21.4189 15.0745 21.4999C14.5877 21.4999 14.101 21.4189 13.6143 21.2567C13.1276 21.0945 12.7219 20.7702 12.3975 20.4459C12.1541 20.2027 11.0184 19.2297 11.1806 17.6891C11.2618 16.4729 12.2352 15.6621 12.3975 15.4999L13.3709 16.7972C13.0464 17.1216 12.8842 17.527 12.8842 17.9324C12.8031 18.7432 13.452 19.3108 13.6143 19.3918C13.8576 19.554 14.1821 19.7162 14.4255 19.7972C14.6689 19.8783 15.0745 19.8783 15.3178 19.7972C15.7234 19.7162 16.129 19.3918 16.3724 19.0675C16.6158 18.7432 16.778 18.3378 16.778 17.9324C16.778 17.6081 16.6969 17.2027 16.4535 16.8783L11.9107 11.0405L12.1541 10.7972C13.0464 9.58103 13.8576 8.44589 14.75 7.22968L15.1556 6.66211L15.5612 7.22968C15.9668 7.47292 16.2102 7.79724 16.4535 8.12157C17.7515 9.82427 20.3473 12.8243 21.483 14.6081C22.132 15.6621 22.4565 16.7972 22.4565 17.9324Z" fill="#091226"/>
<path d="M69.1011 20.6886C68.6955 20.6886 68.371 20.6075 68.2088 20.3643C67.9654 20.121 67.8843 19.7967 67.8843 19.3913V15.094H70.3179V13.3913H67.8843V11.3643H65.7751V13.3913H64.3149V15.094H65.7751V19.4724C65.7751 20.4453 66.0185 21.2562 66.5863 21.7426C67.1542 22.2291 67.8843 22.4724 68.8577 22.4724C69.2633 22.4724 69.5878 22.3913 69.9934 22.3102C70.3179 22.2291 70.6424 22.067 70.8858 21.8237L70.3179 20.2832C69.9934 20.6075 69.5878 20.6886 69.1011 20.6886Z" fill="#091226"/>
<path d="M85.9744 13.6349C85.4065 13.3917 84.7575 13.2295 84.0274 13.2295C83.1351 13.2295 82.3239 13.4727 81.6749 13.8781C81.2693 14.1214 80.9448 14.4457 80.6204 14.77C80.377 14.4457 80.1336 14.1214 79.8091 13.8781C79.1602 13.4727 78.4301 13.2295 77.6189 13.2295C76.8888 13.2295 76.2398 13.3917 75.5908 13.716C75.1852 13.9592 74.8607 14.2025 74.6174 14.5268V13.3917H72.5894V22.3917H74.6985V17.77C74.6985 17.1214 74.7796 16.6349 75.023 16.2295C75.2664 15.8241 75.5097 15.4998 75.8342 15.3376C76.1587 15.0944 76.6454 15.0133 77.051 15.0133C77.7 15.0133 78.1867 15.1754 78.5923 15.5808C78.9168 15.9862 79.0791 16.5538 79.0791 17.3646V22.2295H81.1882V17.6079C81.1882 16.9592 81.2693 16.4727 81.5127 16.0673C81.6749 15.6619 81.9994 15.3376 82.3239 15.1754C82.6484 14.9322 83.1351 14.8511 83.5407 14.8511C84.1897 14.8511 84.6764 15.0133 85.082 15.4187C85.4065 15.8241 85.5687 16.3917 85.5687 17.2025V22.0673H87.6779V16.8781C87.6779 15.9862 87.5157 15.2565 87.1912 14.6079C86.9478 14.3646 86.5422 13.8781 85.9744 13.6349Z" fill="#091226"/>
<path d="M51.1734 13.7971C50.5245 13.3917 49.7133 13.2295 48.8209 13.2295C47.9286 13.2295 47.1174 13.3917 46.3873 13.7971C45.6572 14.2025 45.1705 14.77 44.7649 15.4187C44.3593 16.0673 44.197 16.8781 44.197 17.77C44.197 18.6619 44.4404 19.4727 44.846 20.1214C45.2516 20.8511 45.8194 21.3376 46.5495 21.743C47.2796 22.1484 48.172 22.3106 49.2265 22.3106C50.0377 22.3106 50.6867 22.1484 51.3357 21.9052C51.9847 21.6619 52.4714 21.2565 52.877 20.77L51.7413 19.4727C51.4168 19.7971 51.0923 20.0403 50.6867 20.2025C50.2811 20.3646 49.7944 20.4457 49.3077 20.4457C48.7398 20.4457 48.172 20.3646 47.7664 20.1214C47.2796 19.8781 46.9551 19.5538 46.7118 19.1484C46.5495 18.9052 46.4684 18.5808 46.3873 18.2565H53.4448C53.4448 18.1754 53.4448 18.0133 53.4448 17.9322C53.4448 17.8511 53.4448 17.689 53.4448 17.6079C53.4448 16.6349 53.2826 15.8241 52.877 15.1754C52.3903 14.689 51.9035 14.2025 51.1734 13.7971ZM46.5495 16.1484C46.7929 15.743 47.1174 15.4187 47.4419 15.1754C47.8475 14.9322 48.2531 14.8511 48.8209 14.8511C49.3077 14.8511 49.7944 14.9322 50.1189 15.1754C50.5245 15.4187 50.849 15.743 51.0112 16.0673C51.1734 16.3106 51.2546 16.6349 51.2546 16.9592H46.1439C46.3062 16.7971 46.3873 16.4727 46.5495 16.1484Z" fill="#091226"/>
<path d="M58.6366 13.2295C57.9065 13.2295 57.1764 13.3106 56.5275 13.5538C55.8785 13.716 55.3107 14.0403 54.8239 14.3646L55.6351 15.9052C55.9596 15.6619 56.3652 15.4187 56.852 15.2565C57.3387 15.0944 57.8254 15.0133 58.3933 15.0133C59.1234 15.0133 59.6912 15.1754 60.0968 15.4998C60.5024 15.8241 60.6647 16.3106 60.6647 16.9592V17.1214H58.3121C57.4198 17.1214 56.6897 17.2025 56.1219 17.4457C55.554 17.689 55.1484 18.0133 54.9051 18.4187C54.6617 18.8241 54.5806 19.3106 54.5806 19.7971C54.5806 20.2835 54.7428 20.77 54.9862 21.1754C55.2295 21.5808 55.6351 21.9052 56.203 22.1484C56.6897 22.3917 57.3387 22.4727 57.9877 22.4727C58.7989 22.4727 59.4478 22.3106 59.9346 22.0673C60.3402 21.8241 60.5835 21.5808 60.8269 21.2565V22.3917H62.8549V17.1214C62.8549 15.8241 62.5304 14.8511 61.8004 14.2025C60.9891 13.5538 59.9346 13.2295 58.6366 13.2295ZM59.7723 20.5268C59.3667 20.77 58.88 20.8511 58.3933 20.8511C57.8254 20.8511 57.4198 20.77 57.0953 20.5268C56.7708 20.2835 56.6086 19.9592 56.6086 19.6349C56.6086 19.3106 56.7708 18.9862 57.0142 18.8241C57.2576 18.5808 57.7443 18.4998 58.4744 18.4998H60.6647V19.5538C60.4213 19.9592 60.1779 20.3646 59.7723 20.5268Z" fill="#091226"/>
<path d="M39.7353 15.4186H33.6512V10.4727H31.4609V22.3105H33.6512V17.2835H39.7353V22.3105H41.9256V10.4727H39.7353V15.4186Z" fill="#091226"/>
<path d="M118.828 15.3376C119.234 15.0944 119.721 15.0133 120.207 15.0133C120.694 15.0133 121.1 15.0944 121.424 15.3376C121.83 15.5808 122.154 15.8241 122.398 16.3106L124.02 15.3376C123.696 14.689 123.128 14.1214 122.479 13.7971C121.83 13.4727 121.019 13.2295 120.126 13.2295C119.153 13.2295 118.342 13.3917 117.612 13.7971C116.881 14.2025 116.314 14.77 115.908 15.4187C115.502 16.0673 115.259 16.8781 115.259 17.77C115.259 18.6619 115.502 19.4727 115.908 20.1214C116.314 20.8511 116.881 21.3376 117.612 21.743C118.342 22.1484 119.234 22.3106 120.126 22.3106C121.019 22.3106 121.749 22.1484 122.479 21.743C123.128 21.3376 123.696 20.8511 124.02 20.2025L122.398 19.2295C122.154 19.6349 121.83 19.9592 121.424 20.2025C121.019 20.4457 120.613 20.5268 120.207 20.5268C119.721 20.5268 119.234 20.4457 118.828 20.2025C118.423 19.9592 118.098 19.6349 117.855 19.2295C117.612 18.8241 117.53 18.2565 117.53 17.689C117.53 17.1214 117.612 16.6349 117.855 16.1484C118.098 15.9052 118.423 15.5808 118.828 15.3376Z" fill="#091226"/>
<path d="M93.9243 13.2295C93.1942 13.2295 92.4641 13.3106 91.8151 13.5538C91.1662 13.716 90.5983 14.0403 90.1116 14.3646L90.9228 15.9052C91.2473 15.6619 91.6529 15.4187 92.1396 15.2565C92.6264 15.0944 93.1131 15.0133 93.6809 15.0133C94.411 15.0133 94.9789 15.1754 95.3845 15.4998C95.7901 15.8241 95.9523 16.3106 95.9523 16.9592V17.1214H93.5187C92.6263 17.1214 91.8963 17.2025 91.3284 17.4457C90.7606 17.689 90.355 18.0133 90.1116 18.4187C89.8682 18.8241 89.7871 19.3106 89.7871 19.7971C89.7871 20.2835 89.9494 20.77 90.1927 21.1754C90.4361 21.5808 90.8417 21.9052 91.4095 22.1484C91.8963 22.3917 92.5452 22.4727 93.1942 22.4727C94.0054 22.4727 94.6544 22.3106 95.1411 22.0673C95.5467 21.8241 95.7901 21.5808 96.0334 21.2565V22.3917H98.0615V17.1214C98.0615 15.8241 97.737 14.8511 97.0069 14.2025C96.1957 13.5538 95.2222 13.2295 93.9243 13.2295ZM94.9789 20.5268C94.5733 20.77 94.0865 20.8511 93.5998 20.8511C93.032 20.8511 92.6263 20.77 92.3019 20.5268C91.9774 20.2835 91.8151 19.9592 91.8151 19.6349C91.8151 19.3106 91.9774 18.9862 92.2207 18.8241C92.4641 18.5808 92.9508 18.4998 93.6809 18.4998H95.8712V19.5538C95.709 19.9592 95.3845 20.3646 94.9789 20.5268Z" fill="#091226"/>
<path d="M151.358 14.9322C151.034 14.3646 150.628 13.8781 150.06 13.6349C149.492 13.3917 148.843 13.2295 148.113 13.2295C147.221 13.2295 146.41 13.4727 145.761 13.8781C145.355 14.1214 145.031 14.4457 144.706 14.77C144.463 14.4457 144.219 14.1214 143.895 13.8781C143.246 13.4727 142.516 13.2295 141.705 13.2295C140.974 13.2295 140.326 13.3917 139.677 13.716C139.271 13.9592 138.946 14.2025 138.703 14.5268V13.3917H136.675V22.3917H138.784V17.77C138.784 17.1214 138.865 16.6349 139.109 16.2295C139.352 15.8241 139.595 15.4998 139.92 15.3376C140.244 15.0944 140.731 15.0133 141.137 15.0133C141.786 15.0133 142.272 15.1754 142.678 15.5808C143.003 15.9862 143.165 16.5538 143.165 17.3646V22.2295H145.274V17.6079C145.274 16.9592 145.355 16.4727 145.598 16.0673C145.761 15.6619 146.085 15.3376 146.41 15.1754C146.734 14.9322 147.221 14.8511 147.626 14.8511C148.275 14.8511 148.762 15.0133 149.168 15.4187C149.492 15.8241 149.654 16.3917 149.654 17.2025V22.0673H151.764V16.8781C151.845 16.2295 151.682 15.4998 151.358 14.9322Z" fill="#091226"/>
<path d="M132.376 13.7971C131.646 13.3917 130.834 13.2295 129.861 13.2295C128.969 13.2295 128.076 13.3917 127.427 13.7971C126.697 14.2025 126.129 14.77 125.724 15.4187C125.318 16.0673 125.075 16.8781 125.075 17.77C125.075 18.6619 125.318 19.4727 125.724 20.1214C126.129 20.8511 126.697 21.3376 127.427 21.743C128.157 22.1484 128.969 22.3106 129.861 22.3106C130.834 22.3106 131.646 22.1484 132.376 21.743C133.106 21.3376 133.674 20.77 134.079 20.1214C134.485 19.3917 134.728 18.6619 134.728 17.77C134.728 16.8781 134.485 16.0673 134.079 15.3376C133.674 14.77 133.106 14.2025 132.376 13.7971ZM132.213 19.3106C131.97 19.716 131.646 20.0403 131.24 20.2835C130.834 20.5268 130.348 20.6079 129.861 20.6079C129.374 20.6079 128.887 20.5268 128.482 20.2835C128.076 20.0403 127.752 19.716 127.508 19.3106C127.265 18.9052 127.184 18.4187 127.184 17.77C127.184 17.2025 127.265 16.716 127.508 16.2295C127.752 15.8241 128.076 15.4998 128.482 15.2565C128.887 15.0133 129.374 14.9322 129.861 14.9322C130.348 14.9322 130.834 15.0133 131.24 15.2565C131.646 15.4998 131.97 15.8241 132.213 16.2295C132.457 16.6349 132.538 17.1214 132.538 17.77C132.619 18.4187 132.457 18.9052 132.213 19.3106Z" fill="#091226"/>
<path d="M108.039 13.7971C107.39 13.3917 106.579 13.2295 105.687 13.2295C104.957 13.2295 104.227 13.3917 103.659 13.716C103.334 13.8781 103.01 14.2025 102.685 14.5268V13.3106H100.657V25.6349H102.766V21.2565C103.01 21.5808 103.334 21.8241 103.659 21.9862C104.308 22.3106 104.957 22.4727 105.687 22.4727C106.579 22.4727 107.39 22.3106 108.039 21.9052C108.688 21.4998 109.256 21.0133 109.662 20.2835C110.067 19.5538 110.311 18.743 110.311 17.8511C110.311 16.9592 110.148 16.0673 109.662 15.4187C109.337 14.689 108.769 14.2025 108.039 13.7971ZM107.796 19.3106C107.553 19.716 107.228 20.0403 106.822 20.2835C106.417 20.5268 106.011 20.6079 105.443 20.6079C104.957 20.6079 104.47 20.5268 104.064 20.2835C103.659 20.0403 103.334 19.716 103.091 19.3106C102.847 18.9052 102.766 18.4187 102.766 17.77C102.766 17.2025 102.847 16.716 103.091 16.2295C103.334 15.8241 103.659 15.4998 104.064 15.2565C104.47 15.0133 104.957 14.9322 105.443 14.9322C105.93 14.9322 106.417 15.0133 106.822 15.2565C107.228 15.4998 107.553 15.8241 107.796 16.2295C108.039 16.6349 108.12 17.1214 108.12 17.77C108.12 18.4187 108.039 18.9052 107.796 19.3106Z" fill="#091226"/>
<path d="M112.826 19.6348C112.42 19.6348 112.096 19.7969 111.852 20.0402C111.609 20.2834 111.447 20.6077 111.447 21.0942C111.447 21.4996 111.609 21.824 111.852 22.1483C112.096 22.3915 112.42 22.5537 112.826 22.5537C113.231 22.5537 113.556 22.3915 113.799 22.1483C114.042 21.905 114.205 21.4996 114.205 21.0942C114.205 20.6888 114.042 20.3645 113.799 20.0402C113.556 19.7969 113.231 19.6348 112.826 19.6348Z" fill="#091226"/>
</svg>
