<svg width="143" height="23" viewBox="0 0 143 23" fill="none" xmlns="http://www.w3.org/2000/svg">
<g clip-path="url(#clip0_773_5161)">
<path d="M20.3601 4.57008C21.0199 4.57008 21.4597 5.01008 21.4597 5.67008C21.4597 6.22008 21.0199 6.77008 20.3601 6.77008C19.7004 6.77008 19.2606 6.33008 19.2606 5.67008C19.2606 5.01008 19.8104 4.57008 20.3601 4.57008ZM24.4285 9.63008C24.3185 9.30008 24.2086 8.97008 23.8787 8.75008C23.5488 8.42008 23.3289 8.20008 22.999 7.87008V7.76008C23.6588 2.92008 20.4701 0.940078 20.3601 0.830078C20.2502 0.830078 18.7108 1.82008 18.0511 4.02008C17.9411 4.46008 17.8312 5.01008 17.7212 5.56008C17.6112 6.22008 17.6112 6.88008 17.7212 7.54008V7.65008V7.76008C17.3913 8.09008 17.1714 8.31008 16.8416 8.64008C16.7316 8.75008 16.6217 8.86008 16.5117 9.08008C16.4017 9.19008 16.4017 9.41008 16.2918 9.63008C16.1818 10.0701 16.2918 10.4001 16.4017 10.8401C16.5117 11.2801 16.7316 11.7201 16.8416 12.1601L16.9515 12.0501L18.161 10.9501V11.2801C18.161 12.2701 18.161 12.6001 17.6112 14.0301V14.1401C17.5013 14.2501 17.5013 14.4701 17.3913 14.5801C17.3913 14.6901 17.2814 14.6901 17.2814 14.8001C17.2814 14.8001 17.2814 14.9101 17.1714 14.9101C16.9515 15.2401 16.7316 15.4601 16.5117 15.6801C15.3022 16.8901 13.6529 17.6601 11.7836 17.6601C8.15511 17.6601 5.29628 14.9101 5.29628 11.3901C5.29628 7.98008 8.15511 5.12008 11.7836 5.12008C12.8832 5.12008 15.3022 5.45008 16.6217 7.76008C16.6217 7.76008 16.6217 7.76008 16.7316 7.65008C16.7316 7.65008 16.9515 7.43008 17.0615 7.32008C16.9515 6.66008 16.9515 6.00008 17.0615 5.34008C16.8416 4.90008 16.9515 4.35008 17.1714 3.80008C17.2814 3.47008 17.5013 3.03008 17.7212 2.59008C15.852 1.16008 13.1031 0.830078 11.5637 0.830078C5.40623 0.830078 0.458252 5.56008 0.458252 11.3901C0.458252 17.2201 5.40623 22.0601 11.5637 22.0601C13.323 22.0601 14.8624 21.7301 16.2918 21.0701C16.5117 20.9601 16.7316 20.8501 17.0615 20.7401C17.3913 20.5201 17.7212 20.3001 18.0511 20.0801V22.0601H22.6692V14.8001V13.9201V12.0501V11.5001V11.3901V10.9501L23.8787 12.0501L23.9886 12.1601C24.0986 11.7201 24.3185 11.2801 24.4285 10.8401C24.5384 10.4001 24.5384 10.0701 24.4285 9.63008Z" fill="black"/>
<path d="M31.2456 22.0596H26.8474L34.5443 1.59961H38.9425L46.6393 22.0596H42.1312L40.9217 18.5396H32.5651L31.2456 22.0596ZM36.7434 6.87961L33.8845 14.7996H39.6022L36.7434 6.87961Z" fill="black"/>
<path d="M53.1268 6.99H55.4359V10.18H53.1268V22.06H49.0585V10.18H46.8594V6.99H49.0585V5.78C49.0585 4.02 49.4983 2.7 50.3779 1.82C51.2576 0.94 52.577 0.5 54.1164 0.5L55.3259 0.61V4.13C55.216 4.13 54.9961 4.13 54.6662 4.13C53.5666 4.13 53.0169 4.68 53.0169 5.78V6.99H53.1268Z" fill="black"/>
<path d="M64.8919 18.43V21.95C64.4521 22.06 63.7923 22.17 62.9127 22.17C59.834 22.17 58.2946 20.63 58.2946 17.55V10.18H56.2054V6.99H58.2946V3.25H62.3629V6.99H64.8919V10.18H62.3629V17.11C62.3629 18.1 62.9127 18.54 63.9023 18.54L64.8919 18.43Z" fill="black"/>
<path d="M81.1653 15.6802H70.2797C70.3897 16.6702 70.8295 17.5502 71.3793 18.1002C72.039 18.6502 72.8087 18.8702 73.9083 18.8702C74.568 18.8702 75.1178 18.7602 75.6675 18.4302C76.2173 18.1002 76.5472 17.7702 76.7671 17.2202H80.8354C80.3956 18.7602 79.516 19.9702 78.1965 20.9602C76.877 21.9502 75.4476 22.3902 73.6883 22.3902C71.4892 22.3902 69.62 21.6202 68.1906 20.1902C66.7612 18.7602 66.1014 16.7802 66.1014 14.4702C66.1014 12.2702 66.7612 10.4002 68.1906 8.86016C69.62 7.32016 71.3793 6.66016 73.5784 6.66016C75.7775 6.66016 77.5368 7.43016 78.9662 8.86016C80.3956 10.2902 81.0553 12.1602 81.0553 14.4702L81.1653 15.6802ZM73.7983 9.96016C72.9187 9.96016 72.149 10.1802 71.4892 10.7302C70.9395 11.2802 70.4996 11.9402 70.3897 12.8202H77.2069C77.097 11.9402 76.6571 11.2802 76.1074 10.7302C75.4476 10.1802 74.6779 9.96016 73.7983 9.96016Z" fill="black"/>
<path d="M92.4907 6.87988V10.7299C92.1608 10.6199 91.9409 10.6199 91.721 10.6199C90.5115 10.6199 89.6319 10.9499 88.9722 11.6099C88.4224 12.2699 88.0925 13.2599 88.0925 14.5799V22.0599H84.0242V6.98988H87.7626V8.96988C88.6423 7.53988 90.0717 6.87988 92.0509 6.87988H92.4907Z" fill="black"/>
<path d="M102.057 18.7599C103.156 18.7599 104.036 18.5399 104.696 18.2099C105.355 17.7699 105.685 17.2199 105.685 16.4499C105.685 15.8999 105.465 15.4599 105.136 15.1299C104.696 14.7999 104.256 14.4699 103.596 14.3599C102.936 14.1399 102.277 14.0299 101.507 13.8099C100.737 13.5899 99.9677 13.4799 99.198 13.1499C98.4283 12.9299 97.7686 12.5999 97.1088 12.1599C96.4491 11.7199 96.0093 11.1699 95.5695 10.3999C95.1296 9.62988 95.0197 8.63988 95.0197 7.64988C95.0197 5.88988 95.6794 4.34988 96.9989 3.13988C98.3183 1.92988 100.188 1.37988 102.387 1.37988C104.696 1.37988 106.565 2.03988 107.884 3.35988C109.204 4.67988 109.974 6.32988 109.974 8.19988H105.905C105.905 7.31988 105.575 6.54988 104.916 5.99988C104.256 5.44988 103.486 5.11988 102.387 5.11988C101.397 5.11988 100.627 5.33988 100.078 5.77988C99.5278 6.21988 99.198 6.76988 99.198 7.42988C99.198 7.97988 99.4179 8.41988 99.7478 8.74988C100.188 9.07988 100.627 9.40988 101.287 9.51988C101.947 9.73988 102.607 9.84988 103.486 10.0699C104.256 10.1799 105.026 10.3999 105.795 10.7299C106.565 10.9499 107.335 11.3899 107.994 11.7199C108.654 12.1599 109.204 12.7099 109.534 13.4799C109.974 14.2499 110.084 15.2399 110.084 16.3399C110.084 18.2099 109.314 19.6399 107.884 20.8499C106.455 21.9499 104.476 22.6099 102.057 22.6099C100.737 22.6099 99.5278 22.3899 98.4283 22.0599C97.4387 21.6199 96.5591 21.0699 96.0093 20.4099C95.4595 19.7499 94.9097 18.9799 94.6898 18.2099C94.3599 17.4399 94.25 16.5599 94.25 15.6799H98.4283C98.5382 16.5599 98.8681 17.3299 99.5278 17.8799C99.8577 18.4299 100.737 18.7599 102.057 18.7599Z" fill="black"/>
<path d="M127.127 15.6802H116.241C116.351 16.6702 116.791 17.5502 117.341 18.1002C118 18.6502 118.77 18.8702 119.87 18.8702C120.529 18.8702 121.079 18.7602 121.629 18.4302C122.179 18.1002 122.508 17.7702 122.728 17.2202H126.797C126.357 18.7602 125.477 19.9702 124.158 20.9602C122.838 21.9502 121.409 22.3902 119.65 22.3902C117.451 22.3902 115.581 21.6202 114.152 20.1902C112.722 18.7602 112.063 16.7802 112.063 14.4702C112.063 12.2702 112.722 10.4002 114.152 8.86016C115.581 7.32016 117.341 6.66016 119.54 6.66016C121.739 6.66016 123.498 7.43016 124.927 8.86016C126.357 10.2902 127.017 12.1602 127.017 14.4702L127.127 15.6802ZM119.65 9.96016C118.77 9.96016 118 10.1802 117.341 10.7302C116.791 11.2802 116.351 11.9402 116.241 12.8202H123.058C122.948 11.9402 122.508 11.2802 121.959 10.7302C121.299 10.1802 120.529 9.96016 119.65 9.96016Z" fill="black"/>
<path d="M133.944 22.06H129.875V0.5H133.944V22.06Z" fill="black"/>
<path d="M141.861 22.06H137.792V0.5H141.861V22.06Z" fill="black"/>
</g>
<defs>
<clipPath id="clip0_773_5161">
<rect width="141.842" height="22" fill="white" transform="translate(0.458252 0.5)"/>
</clipPath>
</defs>
</svg>
