<svg width="173" height="29" viewBox="0 0 173 29" fill="none" xmlns="http://www.w3.org/2000/svg">
<path d="M103.021 28.1185L105.384 15.4129C105.679 13.8616 105.9 12.5 106.048 11.2259H107.057L106.688 13.7757H106.738C107.796 12.1822 109.274 11.0557 110.849 11.0557C113.09 11.0557 113.926 12.9097 113.926 14.8541C113.926 18.8423 111.193 23.4299 107.426 23.4299C106.269 23.4299 105.506 23.0188 105.063 23.0188H105.013L104.078 28.1185H103.021ZM105.236 21.6813C105.778 22.1 106.566 22.3455 107.525 22.3455C110.652 22.3455 112.819 17.913 112.819 14.8842C112.819 13.4805 112.277 11.9051 110.53 11.9051C108.855 11.9051 106.664 14.0468 106 17.6178L105.236 21.6813Z" fill="#3B3B3B"/>
<path d="M121.956 23.3388C121.932 22.3825 122.079 21.4261 122.251 20.1519H122.201C120.847 22.7018 119.346 23.4292 117.795 23.4292C115.998 23.4292 114.913 21.8794 114.913 19.7618C114.913 15.7239 117.795 11.0098 122.373 11.0098C123.211 11.0098 124.146 11.1152 124.762 11.3366L123.506 17.831C123.087 20.0465 122.939 22.0662 122.989 23.3403H121.956V23.3388ZM123.531 12.0791C123.26 11.9797 122.842 11.9074 122.104 11.9074C118.706 11.9074 116.046 15.6983 116.022 19.4169C115.998 20.9682 116.441 22.3463 118.042 22.3463C119.962 22.3463 122.129 19.4651 122.695 16.4122L123.531 12.0791Z" fill="#3B3B3B"/>
<path d="M125.524 23.3382L127.026 15.2383C127.321 13.7367 127.494 12.5001 127.592 11.226H128.553C128.479 12.1824 128.382 12.8194 128.232 14.0951H128.282C128.996 12.5017 130.178 11.1175 131.656 11.1175C131.803 11.1175 131.977 11.0693 132.099 11.0693L131.877 12.1658C131.779 12.1417 131.656 12.1236 131.483 12.1236C129.931 12.1236 128.208 14.6042 127.716 17.1902L126.583 23.3397H125.524V23.3382Z" fill="#3B3B3B"/>
<path d="M136.951 8.63574L136.435 11.2248H139.217L139.019 12.1811H136.238L134.933 19.1966C134.786 19.9843 134.688 20.5868 134.688 21.2269C134.688 21.9167 135.009 22.3279 135.747 22.3279C136.141 22.3279 136.387 22.2992 136.608 22.2254L136.682 23.0854C136.363 23.1833 135.944 23.2571 135.525 23.2571C134.122 23.2571 133.581 22.3203 133.581 21.3368C133.581 20.6967 133.655 20.1078 133.852 19.1966L135.182 12.1811H133.483L133.655 11.2248H135.378L135.772 9.10565L136.951 8.63574Z" fill="#3B3B3B"/>
<path d="M139.066 23.3384L140.642 14.8439C140.913 13.4402 141.06 12.1811 141.158 11.2262H142.167L141.822 13.776H141.872C142.907 12.1826 144.384 11.0439 146.008 11.0439C147.165 11.0439 148.642 11.7458 148.642 13.9869C148.642 14.5773 148.544 15.3017 148.421 15.9418L147.067 23.3384H146.008L147.386 15.9238C147.484 15.3816 147.558 14.74 147.558 14.1255C147.558 12.895 147.065 11.9702 145.613 11.9702C144.038 11.9702 141.797 14.0727 141.28 16.9283L140.123 23.3384H139.066Z" fill="#3B3B3B"/>
<path d="M157.19 22.3715C156.574 22.7902 155.441 23.2586 153.964 23.2586C151.206 23.2586 150.245 21.0913 150.245 18.8261C150.245 15.4283 152.634 10.9717 156.008 10.9717C157.952 10.9717 158.765 12.2278 158.765 13.5577C158.765 16.5609 155.318 17.3983 151.453 17.3742C151.33 17.9164 151.306 19.4677 151.551 20.3292C151.97 21.6591 152.881 22.3233 154.137 22.3233C155.441 22.3233 156.329 21.8549 156.871 21.5356L157.19 22.3715ZM157.701 13.5818C157.701 12.4989 156.94 11.907 155.833 11.907C154.011 11.907 152.396 13.877 151.658 16.4374C154.735 16.4615 157.701 15.9449 157.701 13.6059V13.5818Z" fill="#3B3B3B"/>
<path d="M159.479 23.3382L160.98 15.2383C161.276 13.7367 161.449 12.5001 161.547 11.226H162.508C162.434 12.1824 162.336 12.8194 162.187 14.0951H162.236C162.95 12.5017 164.133 11.1175 165.61 11.1175C165.758 11.1175 165.931 11.0693 166.053 11.0693L165.832 12.1658C165.734 12.1417 165.61 12.1236 165.437 12.1236C163.886 12.1236 162.163 14.6042 161.67 17.1902L160.538 23.3397H159.479V23.3382Z" fill="#3B3B3B"/>
<path d="M165.685 21.6576C166.104 21.9769 166.892 22.3218 167.753 22.3218C169.304 22.3218 170.363 21.2133 170.363 19.8593C170.363 18.677 169.871 17.9631 168.762 17.2492C167.58 16.4856 166.94 15.4268 166.94 14.3198C166.94 12.4733 168.441 10.9717 170.535 10.9717C171.347 10.9717 172.136 11.2172 172.479 11.4883L172.085 12.3995C171.716 12.1781 171.1 11.907 170.41 11.907C168.982 11.907 168.021 12.9161 168.021 14.1225C168.021 15.231 168.661 15.8455 169.622 16.5112C170.755 17.2748 171.445 18.3577 171.445 19.5641C171.445 21.9528 169.696 23.2571 167.652 23.2571C166.593 23.2571 165.658 22.8625 165.263 22.5432L165.685 21.6576Z" fill="#3B3B3B"/>
<path d="M9.68896 9.45927C9.66637 9.45927 9.64227 9.45776 9.61817 9.45475C9.34858 9.4171 9.12266 9.17311 9.11362 8.90953C9.10459 8.65199 8.94795 2.57782 12.5099 1.19671C13.4091 0.847289 14.2254 0.925607 14.9363 1.42865C15.7917 2.03411 16.4153 3.22846 16.7888 4.98007C17.0539 6.2181 17.096 7.28443 17.0991 7.32962C17.1096 7.59319 16.8972 7.77693 16.6276 7.74079C16.358 7.70464 16.1306 7.46065 16.1201 7.19708C16.0779 6.09611 15.6969 3.05074 14.4618 2.17719C14.0657 1.89705 13.5883 1.87296 12.9979 2.10038C9.945 3.28419 10.0896 8.98635 10.0911 9.04358C10.1001 9.28606 9.92392 9.45927 9.68896 9.45927Z" fill="#3B3B3B"/>
<path d="M17.2933 3.48493L3.51839 7.75025C3.51839 7.75025 2.92799 7.91743 2.78792 8.08461C2.6358 8.26685 2.60568 8.75935 2.60568 8.75935L0.477539 25.1836L16.462 28.1792L17.6925 3.47137C17.5177 3.43673 17.337 3.47439 17.2933 3.48493Z" fill="#3B3B3B"/>
<path d="M22.0661 5.60735C22.0661 5.60735 22.0435 5.48084 21.9712 5.43566C21.9004 5.38897 21.8221 5.37993 21.8221 5.37993L19.5659 5.21124L17.9047 3.56205C17.8429 3.51385 17.7691 3.48523 17.6953 3.47168L16.4648 28.1795L25.1265 26.3044L22.0661 5.60735Z" fill="#3B3B3B"/>
<path d="M11.6022 17.212C11.3567 16.8822 11.0721 16.593 10.7708 16.3354C10.4741 16.0824 10.1624 15.861 9.85662 15.6667C9.63823 15.5312 9.44997 15.4001 9.29032 15.2706C9.13218 15.1426 8.99964 15.0176 8.89722 14.8926C8.79481 14.7676 8.718 14.6426 8.6698 14.513C8.6216 14.385 8.60052 14.2525 8.60654 14.1154C8.61407 13.9302 8.65625 13.7615 8.72703 13.6139C8.79782 13.4648 8.89873 13.3353 9.02524 13.2268C9.15326 13.1184 9.30839 13.031 9.48612 12.9663C9.66685 12.9015 9.87018 12.8623 10.0961 12.8488C10.3416 12.8337 10.5796 12.8413 10.8055 12.8653C11.0344 12.8894 11.2498 12.9286 11.4516 12.9783C11.6549 13.028 11.8417 13.0883 12.0104 13.15C12.1806 13.2133 12.3297 13.2795 12.4562 13.3398L13.5225 10.1634C13.3644 10.082 13.1716 10.0082 12.9502 9.94499C12.7303 9.88324 12.4818 9.83203 12.2092 9.79739C11.9396 9.76275 11.6474 9.74467 11.3371 9.74618C11.0314 9.74769 10.7061 9.76877 10.3687 9.81245C9.64125 9.90734 8.98458 10.1092 8.40924 10.3953C7.85047 10.6739 7.36701 11.0369 6.96789 11.4662C6.5778 11.8879 6.26604 12.3774 6.04614 12.9211C5.82926 13.4603 5.69823 14.0597 5.66962 14.7103C5.65305 15.0989 5.69221 15.4559 5.77655 15.7857C5.86089 16.1171 5.99192 16.4228 6.1591 16.7044C6.32779 16.9891 6.53262 17.2512 6.76456 17.4936C6.99952 17.7391 7.26158 17.9651 7.54021 18.1729C7.76764 18.3386 7.95891 18.4952 8.11856 18.6473C8.27972 18.7995 8.40774 18.9471 8.50563 19.0947C8.60353 19.2422 8.67281 19.3898 8.71348 19.542C8.75565 19.6941 8.77071 19.8507 8.76318 20.0179C8.75565 20.1851 8.7195 20.3402 8.65625 20.4788C8.59299 20.6173 8.50262 20.7363 8.38514 20.8312C8.26917 20.9261 8.12609 20.9954 7.96042 21.033C7.79475 21.0707 7.60648 21.0767 7.39412 21.0451C7.15465 21.0089 6.91216 20.9412 6.67721 20.8508C6.44527 20.7619 6.21935 20.652 6.00849 20.5345C5.80065 20.4185 5.60485 20.2935 5.43165 20.1715C5.25995 20.051 5.10934 19.9336 4.98584 19.8281L4.25537 22.25C4.37586 22.4051 4.53099 22.5602 4.71172 22.7093C4.89547 22.8599 5.10633 23.006 5.33978 23.1431C5.57624 23.2817 5.83679 23.4082 6.11392 23.5211C6.39556 23.6356 6.69377 23.732 7.00554 23.8073C7.01157 23.8088 7.01608 23.8103 7.0206 23.8103C7.02663 23.8118 7.03114 23.8133 7.03566 23.8133C7.04018 23.8148 7.04621 23.8163 7.05072 23.8163C7.05524 23.8178 7.06127 23.8193 7.06579 23.8193C7.72697 23.9654 8.36858 24.0016 8.96801 23.9202C9.58401 23.8374 10.1503 23.6326 10.6398 23.3027C11.1398 22.9654 11.5555 22.4985 11.8567 21.9051C12.161 21.3041 12.3462 20.5797 12.3824 19.7393C12.405 19.2257 12.3342 18.7588 12.1941 18.3356C12.0571 17.9199 11.8507 17.5464 11.6022 17.212Z" fill="white"/>
<path d="M6.331 8.62233C6.30841 8.62233 6.28431 8.62083 6.26172 8.61782C5.99815 8.58016 5.81591 8.33617 5.85356 8.0726C5.88971 7.81355 6.80392 1.74088 10.6084 0.358269C11.5693 0.00884962 12.372 0.0886739 12.9941 0.591717C13.7426 1.19718 14.1553 2.39153 14.2215 4.14314C14.2682 5.38117 14.1236 6.4475 14.1161 6.49268C14.08 6.75626 13.836 6.94 13.5724 6.90385C13.3088 6.86771 13.1251 6.62372 13.1612 6.36015C13.3134 5.26068 13.4685 2.21381 12.3871 1.34026C12.0407 1.06012 11.5663 1.03602 10.9367 1.26345C7.67446 2.44725 6.81446 8.14941 6.80543 8.20665C6.77229 8.44913 6.56595 8.62233 6.331 8.62233Z" fill="#3B3B3B"/>
<path d="M35.2226 16.1211C34.358 15.6527 33.9153 15.2581 33.9153 14.7144C33.9153 14.0231 34.5328 13.5788 35.4952 13.5788C36.3838 13.5788 37.1489 13.8258 37.6173 14.0472L38.4065 11.6284C37.8628 11.3075 36.8522 11.0605 35.5434 11.0605C32.5567 11.0605 30.5084 12.764 30.5084 15.1572C30.5084 16.5142 31.4708 17.5504 32.754 18.2914C33.7902 18.8833 34.1608 19.3035 34.1608 19.921C34.1608 20.5626 33.6426 21.0807 32.6802 21.0807C31.6184 21.1048 30.5084 20.6605 29.8909 20.3397L29.052 22.7586C29.6936 23.2029 31.0024 23.5734 32.4091 23.5975C35.4696 23.6216 37.6655 22.0913 37.6655 19.3773C37.6655 17.9224 36.5555 16.8862 35.2226 16.1211Z" fill="#3B3B3B"/>
<path d="M47.4154 11.0376C45.9093 11.0376 44.7255 11.753 43.8128 12.8389L43.7631 12.8148L45.0719 5.97852H41.6666L38.3591 23.3772H41.7645L42.9001 17.4295C43.3444 15.1839 44.5041 13.8013 45.59 13.8013C46.3551 13.8013 46.6518 14.3194 46.6518 15.0604C46.6518 15.5288 46.6021 16.0966 46.5042 16.5665L45.221 23.3787H48.6263L49.9592 16.3451C50.1068 15.6041 50.2063 14.7155 50.2063 14.1236C50.2032 12.1973 49.1926 11.0376 47.4154 11.0376Z" fill="#3B3B3B"/>
<path d="M57.9023 11.0381C53.8056 11.0381 51.0901 14.7401 51.0901 18.8609C51.0901 21.5011 52.7182 23.6247 55.7786 23.6247C59.8015 23.6247 62.5155 20.0221 62.5155 15.8019C62.517 13.3575 61.0862 11.0381 57.9023 11.0381ZM56.2244 21.0086C55.0647 21.0086 54.5707 20.0221 54.5707 18.7871C54.5707 16.8366 55.5828 13.6542 57.4339 13.6542C58.6433 13.6542 59.0379 14.6904 59.0379 15.7025C59.0379 17.799 58.0258 21.0086 56.2244 21.0086Z" fill="#3B3B3B"/>
<path d="M71.2288 11.0381C69.8718 11.0381 68.5389 11.7791 67.6262 13.0623H67.5765L67.7738 11.2354H64.7631C64.6155 12.4689 64.3429 14.3455 64.0718 15.7522L61.7026 28.2154H65.108L66.0463 23.1804H66.1201C66.5147 23.4274 67.2798 23.6247 68.1187 23.6247C72.1174 23.6247 74.7321 19.5281 74.7321 15.3817C74.7336 13.0864 73.7215 11.0381 71.2288 11.0381ZM67.9711 21.0568C67.3536 21.0568 66.9349 20.8595 66.5644 20.5628L67.1322 17.3788C67.5268 15.2567 68.6383 13.85 69.8221 13.85C70.8583 13.85 71.1791 14.8124 71.1791 15.7251C71.1791 17.9225 69.8718 21.0568 67.9711 21.0568Z" fill="#3B3B3B"/>
<path d="M79.5956 6.15039C78.5097 6.15039 77.6467 7.0149 77.6467 8.12491C77.6467 9.13702 78.2883 9.82833 79.2507 9.82833H79.3004C80.3623 9.82833 81.275 9.11292 81.2991 7.85381C81.2991 6.8658 80.6319 6.15039 79.5956 6.15039Z" fill="#3B3B3B"/>
<path d="M74.8328 23.3771H78.2396L80.559 11.3086H77.1281L74.8328 23.3771Z" fill="#3B3B3B"/>
<path d="M89.2232 11.2835H86.8541L86.9776 10.7157C87.1749 9.55601 87.8662 8.5198 89.0018 8.5198C89.4461 8.5198 89.791 8.5936 90.0878 8.693L90.7535 6.02717C90.3589 5.85397 89.7413 5.73047 88.9024 5.73047C87.693 5.73047 86.4836 6.07537 85.5709 6.86608C84.4112 7.85259 83.8675 9.28491 83.5964 10.7157L83.497 11.2835H81.9171L81.4231 13.8499H83.003L81.2017 23.3761H84.607L86.4083 13.8499H88.7533L89.2232 11.2835Z" fill="#3B3B3B"/>
<path d="M97.4143 11.3091L95.3419 16.7146C94.8479 18.0234 94.6009 18.7885 94.3298 19.6018H94.2801C94.2304 18.8126 94.1325 17.9481 93.9834 16.7387L93.4397 11.3091H89.8611L91.9095 22.3896C91.9592 22.6366 91.9335 22.7842 91.8357 22.9574C91.441 23.7225 90.7738 24.4635 89.9846 25.0058C89.343 25.4742 88.6276 25.7709 88.0598 25.9682L88.9981 28.8554C89.6894 28.7078 91.1202 28.14 92.3297 27.0044C93.884 25.548 95.3163 23.3023 96.7968 20.2419L100.967 11.3076H97.4143V11.3091Z" fill="#3B3B3B"/>
</svg>
