<svg width="95" height="25" viewBox="0 0 95 25" fill="none" xmlns="http://www.w3.org/2000/svg">
<g clip-path="url(#clip0_773_5145)">
<mask id="mask0_773_5145" style="mask-type:luminance" maskUnits="userSpaceOnUse" x="0" y="0" width="94" height="25">
<path d="M93.8819 0.5H0.981934V24.5H93.8819V0.5Z" fill="white"/>
</mask>
<g mask="url(#mask0_773_5145)">
<path d="M25.282 18.7V0.5H28.082V7.7C28.982 6.4 30.282 5.7 32.082 5.7C33.582 5.7 34.782 6.1 35.582 7C36.382 7.9 36.782 9.1 36.782 10.8V18.7H33.982V11.2C33.982 9.1 33.082 8.1 31.182 8.1C30.282 8.1 29.482 8.4 28.882 8.9C28.282 9.5 27.982 10.2 27.982 11.3V18.7H25.282Z" fill="#323232"/>
<path d="M50.182 17.0996C48.882 18.3996 47.382 18.9996 45.482 18.9996C43.582 18.9996 41.982 18.3996 40.782 17.0996C39.482 15.7996 38.882 14.1996 38.882 12.2996C38.882 10.3996 39.482 8.79961 40.782 7.49961C42.082 6.29961 43.582 5.59961 45.482 5.59961C47.382 5.59961 48.982 6.19961 50.182 7.49961C51.482 8.69961 52.082 10.2996 52.082 12.2996C52.082 14.2996 51.482 15.8996 50.182 17.0996ZM42.782 15.4996C43.482 16.2996 44.382 16.6996 45.482 16.6996C46.582 16.6996 47.482 16.2996 48.182 15.4996C48.882 14.6996 49.182 13.6996 49.182 12.2996C49.182 10.9996 48.882 9.89961 48.182 9.09961C47.482 8.29961 46.582 7.89961 45.482 7.89961C44.382 7.89961 43.482 8.29961 42.782 9.09961C42.082 9.89961 41.782 10.8996 41.782 12.2996C41.782 13.6996 42.182 14.6996 42.782 15.4996Z" fill="#323232"/>
<path d="M58.682 18.9998C56.082 18.9998 54.782 17.5998 54.782 14.7998V8.39981H52.782V5.99981H54.782L55.482 2.2998H57.582V5.99981H62.582V8.39981H57.582V14.7998C57.582 15.9998 57.982 16.5998 58.882 16.5998C59.682 16.5998 60.382 15.8998 61.082 14.3998L63.282 15.4998C62.182 17.7998 60.582 18.9998 58.682 18.9998Z" fill="#323232"/>
<path d="M64.1819 24.5C62.8819 24.5 61.8819 24.2 61.0819 23.5L62.0819 21.3C62.5819 21.9 63.1819 22.2 63.6819 22.2C64.4819 22.2 64.8819 21.7 64.8819 20.7V6H67.6819V20.6C67.6819 22 67.3819 22.9 66.6819 23.5C66.0819 24.2 65.1819 24.5 64.1819 24.5ZM66.2819 3.9C65.7819 3.9 65.3819 3.7 64.9819 3.4C64.7819 3.2 64.6819 3.1 64.5819 2.9C64.4819 2.7 64.4819 2.5 64.4819 2.2C64.4819 2 64.4819 1.7 64.5819 1.5C64.6819 1.3 64.7819 1.1 64.9819 0.9C65.3819 0.7 65.8819 0.5 66.2819 0.5C66.7819 0.5 67.1819 0.7 67.4819 1C67.6819 1.1 67.8819 1.3 67.9819 1.5C68.0819 1.7 68.0819 1.9 68.0819 2.2C68.0819 2.4 68.0819 2.6 67.9819 2.8C67.8819 3 67.7819 3.2 67.5819 3.3C67.3819 3.5 67.1819 3.7 66.9819 3.8C66.7819 3.8 66.5819 3.9 66.2819 3.9Z" fill="#323232"/>
<path d="M74.7819 19.0002C73.3819 19.0002 72.1819 18.6002 71.2819 17.9002C70.3819 17.2002 69.9819 16.2002 69.9819 15.0002C69.9819 13.9002 70.4819 12.9002 71.3819 12.2002C72.2819 11.4002 73.4819 11.0002 74.8819 11.0002C76.2819 11.0002 77.5819 11.5002 78.5819 12.4002V10.9002C78.5819 10.0002 78.3819 9.3002 77.8819 8.8002C77.3819 8.3002 76.7819 8.1002 75.8819 8.1002C74.1819 8.1002 73.0819 9.0002 72.6819 10.7002L69.9819 10.1002C70.2819 8.7002 70.9819 7.7002 72.0819 6.9002C73.1819 6.1002 74.3819 5.7002 75.8819 5.7002C77.5819 5.7002 78.8819 6.1002 79.8819 7.0002C80.8819 7.9002 81.3819 9.2002 81.3819 10.9002V18.7002H78.6819V17.1002C77.5819 18.4002 76.3819 19.0002 74.7819 19.0002ZM75.2819 16.9002C76.5819 16.9002 77.5819 16.3002 78.4819 15.0002V14.6002C77.5819 13.6002 76.5819 13.0002 75.2819 13.0002C74.5819 13.0002 73.9819 13.2002 73.4819 13.5002C73.2819 13.7002 73.0819 13.9002 72.9819 14.1002C72.8819 14.3002 72.7819 14.6002 72.7819 14.9002C72.7819 15.2002 72.8819 15.4002 72.9819 15.7002C73.0819 15.9002 73.2819 16.2002 73.4819 16.3002C73.8819 16.7002 74.4819 16.9002 75.2819 16.9002Z" fill="#323232"/>
<path d="M84.0819 18.6998V5.9998H86.7819V8.1998C87.4819 6.5998 88.6819 5.7998 90.3819 5.7998C91.3819 5.7998 92.1819 6.0998 92.8819 6.7998C93.5819 7.4998 93.8819 8.3998 93.8819 9.4998C93.8819 10.1998 93.7819 10.7998 93.5819 11.4998L90.9819 11.1998C91.0819 10.8998 91.0819 10.4998 91.0819 10.1998C91.0819 8.8998 90.5819 8.1998 89.4819 8.1998C88.7819 8.1998 88.1819 8.5998 87.6819 9.3998C87.1819 10.1998 86.9819 11.1998 86.9819 12.4998V18.7998H84.0819V18.6998Z" fill="#323232"/>
<path d="M7.68193 7.99961C9.78193 6.79961 12.6819 5.19961 12.6819 0.599609H9.18193C9.18193 3.19961 7.88193 3.89961 5.98193 4.99961C3.88193 6.19961 0.981934 7.79961 0.981934 12.3996H4.48193C4.48193 9.69961 5.78193 8.99961 7.68193 7.99961Z" fill="#323232"/>
<path d="M13.6819 6.90039C13.6819 9.50039 12.3819 10.2004 10.4819 11.3004C8.38193 12.5004 5.48193 14.1004 5.48193 18.7004H8.98193C8.98193 16.1004 10.2819 15.4004 12.1819 14.3004C14.2819 13.1004 17.1819 11.5004 17.1819 6.90039H13.6819Z" fill="#323232"/>
</g>
</g>
<defs>
<clipPath id="clip0_773_5145">
<rect width="93.6" height="24" fill="white" transform="translate(0.981934 0.5)"/>
</clipPath>
</defs>
</svg>
