<svg width="70" height="21" viewBox="0 0 70 21" fill="none" xmlns="http://www.w3.org/2000/svg">
<g clip-path="url(#clip0_773_5159)">
<path d="M60.4448 0.5C57.5537 0.5 55.0027 1.8617 53.3446 3.90426V3.8617L49.0505 9.09575C48.8804 4.32979 44.9264 0.5 40.0796 0.5C36.5082 0.5 33.447 2.58511 31.959 5.56383L31.0661 7.18085L29.9607 5.2234C29.9607 5.2234 29.9607 5.2234 29.9607 5.18085L29.7481 4.79787V4.84043C28.1325 2.24468 25.2839 0.5 22.0102 0.5C17.0358 0.5 12.9968 4.54255 12.9968 9.52128C12.9968 12.1596 14.1447 14.5426 15.9729 16.2021H9.63799C9.59547 16.2021 9.59547 16.2021 9.55296 16.2021C3.38811 16.2021 3.04798 10.5 3.00547 9.8617V0.5H0.709595V9.90426C0.752111 12.883 2.70785 18.5426 9.51044 18.5426C9.55296 18.5426 9.59547 18.5426 9.59547 18.5426H21.0748C21.3725 18.5851 21.6701 18.5851 21.9677 18.5851C25.454 18.5851 28.4726 16.6277 29.9607 13.734L30.9811 12.2447L32.0865 13.8191C33.6171 16.6277 36.5932 18.5426 40.037 18.5426C42.673 18.5426 45.0114 17.4362 46.6696 15.6489L46.8396 15.4362C46.9672 15.3085 47.0947 15.1383 47.1798 15.0106L51.3463 9.90426V20.5H53.6422V15.5638C55.3004 17.4362 57.6813 18.5851 60.3598 18.5851C65.3342 18.5851 69.3732 14.5426 69.3732 9.56383C69.4582 4.54255 65.4192 0.5 60.4448 0.5ZM22.0102 16.2872C21.7976 16.2872 21.5425 16.2872 21.3299 16.2447H21.2449C17.8861 15.8617 15.2926 13.0106 15.2926 9.56383C15.2926 5.8617 18.3113 2.84043 22.0102 2.84043C25.7091 2.84043 28.7277 5.8617 28.7277 9.56383C28.7277 10.6702 28.4727 11.6915 27.9625 12.6277L27.7924 13.0106C26.6019 14.9681 24.4761 16.2872 22.0102 16.2872ZM40.0796 16.2872C37.7412 16.2872 35.7004 15.0957 34.4674 13.266L34.0423 12.5C33.6171 11.6064 33.362 10.6277 33.362 9.56383C33.362 5.8617 36.3807 2.84043 40.0796 2.84043C43.7785 2.84043 46.7971 5.8617 46.7971 9.56383C46.7971 13.266 43.7785 16.2872 40.0796 16.2872ZM60.4448 16.2872C56.7459 16.2872 53.7273 13.266 53.7273 9.56383C53.7273 5.8617 56.7459 2.84043 60.4448 2.84043C64.1437 2.84043 67.1624 5.8617 67.1624 9.56383C67.1624 13.266 64.1437 16.2872 60.4448 16.2872Z" fill="#242424"/>
</g>
<defs>
<clipPath id="clip0_773_5159">
<rect width="68.8762" height="20" fill="white" transform="translate(0.582031 0.5)"/>
</clipPath>
</defs>
</svg>
