<svg width="152" height="21" viewBox="0 0 152 21" fill="none" xmlns="http://www.w3.org/2000/svg">
<g clip-path="url(#clip0_139_2939)">
<path d="M7.19926 21H17.4604C18.8663 21 20.0059 19.785 20.0059 18.2864V15.3413H7.19926V21ZM7.19926 13.3283H17.4604C18.8663 13.3283 20.0059 12.1127 20.0059 10.6147V7.6697H7.19926V13.3283ZM7.19926 5.65865H17.4604C18.8663 5.65865 20.0059 4.44417 20.0059 2.94509V0H7.19926V5.65865V5.65865ZM0.00170898 5.65865H2.73608C4.14184 5.65865 5.28134 4.44417 5.28134 2.94509V0H0.00170898V5.65865ZM0.00170898 13.3283H2.73608C4.14184 13.3283 5.28134 12.1127 5.28134 10.6147V7.6697H0.00170898V13.3283ZM0.00170898 21H2.73608C4.14184 21 5.28134 19.785 5.28134 18.2864V15.3413H0.00170898V21Z" fill="#3B3B3B"/>
<path d="M26.9255 15.7657L28.4592 15.2036C29.2256 17.4471 31.1827 18.783 33.9051 18.783C36.5759 18.783 38.6375 17.3676 38.6375 15.0441C38.6375 12.8005 37.3687 11.9199 35.6241 11.3587L31.9229 10.2633C29.2521 9.46197 27.8774 7.99319 27.8774 5.4823C27.8774 2.49127 30.4156 0.541992 33.7462 0.541992C36.5759 0.541992 38.8756 1.58302 39.8805 4.01424L38.4523 4.60168C37.5804 2.94558 36.0206 1.98404 33.7732 1.98404C31.6844 1.98404 29.5428 3.0527 29.5428 5.32279C29.5428 6.89851 30.3097 8.07393 32.7951 8.82106L36.4956 9.91645C38.717 10.5565 40.2771 11.9458 40.2771 14.8562C40.2771 18.0351 37.7653 20.2517 33.7992 20.2517C30.3628 20.2517 27.7448 18.6493 26.9255 15.7657V15.7657ZM50.7451 12.3999V11.4924C50.7451 9.40868 49.6079 7.64654 47.0705 7.64654C44.6645 7.64654 43.3161 9.54235 43.3161 11.6788V12.4001H50.7451V12.3999ZM41.7033 14.9113V12.0263C41.7033 8.36693 44.0563 6.33745 47.2024 6.33745C50.1371 6.33745 52.2788 8.15377 52.2788 11.5726V13.522H43.3161V15.097C43.3161 17.4473 44.7964 18.9435 47.3346 18.9435C49.0272 18.9435 50.1371 18.1157 50.8513 17.2342L52.0139 17.982C50.7981 19.7449 48.974 20.2788 47.2288 20.2788C44.0031 20.2788 41.7033 18.5694 41.7033 14.9113V14.9113ZM62.535 15.1239V13.6291H58.9927C57.195 13.6291 55.3438 14.0829 55.3438 16.353C55.3438 18.1426 56.8775 18.9967 58.5435 18.9967C61.187 18.9967 62.535 17.4208 62.535 15.1239V15.1239ZM53.7846 16.4325C53.7846 13.4415 56.5074 12.4537 58.6752 12.4537H62.535V10.3975C62.535 8.31436 61.1611 7.59325 59.1773 7.59325C57.5386 7.59325 55.794 8.18069 55.794 9.91681V10.3446H54.3661V9.94391C54.3661 7.29953 56.7985 6.31107 59.2576 6.31107C61.8217 6.31107 64.0955 7.24588 64.0955 10.1302V16.5931C64.0955 17.3682 64.2014 19.3444 64.2801 19.9316H62.7467C62.6939 19.4781 62.6409 18.223 62.6409 17.822H62.5881C61.5045 19.8782 59.7329 20.225 58.1205 20.225C55.7408 20.225 53.7846 18.8906 53.7846 16.4327V16.4325ZM66.7124 6.63117H68.2194V9.46197H68.2722C69.4359 7.08493 71.3922 6.44474 73.1631 6.44474C73.4807 6.44474 73.825 6.47076 74.0889 6.52423V7.99319C73.6397 7.91298 73.1899 7.91299 72.872 7.91299C70.3346 7.91299 68.3516 9.51544 68.2722 12.5334V19.9311H66.7124V6.63117V6.63117ZM74.7498 14.9373V11.8392C74.7498 8.39367 76.8383 6.33727 80.0108 6.33727C83.1041 6.33727 85.0336 8.10031 85.0336 10.7447V11.1448H83.5274V10.6101C83.5274 9.24827 82.5226 7.64654 80.037 7.64654C77.5788 7.64654 76.3623 9.40868 76.3623 11.7322V14.9641C76.3623 17.2869 77.4458 18.9435 80.0634 18.9435C82.549 18.9435 83.5274 17.3678 83.5274 15.9784V15.5246H85.0336V15.8721C85.0336 18.5158 83.1576 20.2779 80.037 20.2779C76.7592 20.2779 74.7498 18.3561 74.7498 14.9373V14.9373ZM86.9893 0.862806H88.523V9.16861H88.602C89.5014 7.27208 91.2728 6.31035 93.0712 6.31035C95.8204 6.31035 97.1688 8.18033 97.1688 10.5039V19.9311H95.6087V11.225C95.6087 8.74086 94.3929 7.69983 92.5949 7.69983C90.5063 7.69983 88.523 9.35593 88.523 11.9727V19.9311H86.9893V0.862806V0.862806ZM108.007 15.1239V13.6291H104.464C102.667 13.6291 100.815 14.0829 100.815 16.353C100.815 18.1426 102.349 18.9967 104.015 18.9967C106.659 18.9967 108.007 17.4208 108.007 15.1239V15.1239ZM99.2558 16.4325C99.2558 13.4415 101.98 12.4537 104.147 12.4537H108.007V10.3975C108.007 8.31436 106.632 7.59325 104.65 7.59325C103.01 7.59325 101.266 8.18069 101.266 9.91681V10.3446H99.8373V9.94391C99.8373 7.29953 102.271 6.31107 104.729 6.31107C107.293 6.31107 109.567 7.24588 109.567 10.1302V16.5931C109.567 17.3682 109.673 19.3444 109.752 19.9316H108.219C108.165 19.4781 108.113 18.223 108.113 17.822H108.06C106.976 19.8782 105.204 20.225 103.592 20.225C101.213 20.225 99.2558 18.8906 99.2558 16.4327V16.4325ZM112.238 6.63135H113.718V9.16861H113.772C114.696 7.27208 116.468 6.31035 118.319 6.31035C121.068 6.31035 122.417 8.18033 122.417 10.5039V19.9311H120.857V11.225C120.857 8.74104 119.641 7.69983 117.843 7.69983C115.754 7.69983 113.772 9.35593 113.772 11.9727V19.9311H112.238V6.63117V6.63135ZM125.218 6.63117H126.751V19.9311H125.218V6.63117ZM125.218 0.702399H126.751V3.42698H125.218V0.702399ZM128.709 18.3017L129.765 17.3937C130.876 18.4621 132.119 18.9968 133.864 18.9968C135.556 18.9968 137.274 18.0618 137.274 16.3525C137.274 14.7233 136.27 14.216 134.445 13.8685L132.991 13.5477C130.664 13.0939 129.263 12.0261 129.263 10.1563C129.263 7.99319 130.929 6.31035 133.837 6.31035C135.688 6.31035 137.221 6.7381 138.226 7.77931L137.195 8.66137C136.349 7.96663 135.265 7.5396 133.705 7.5396C131.96 7.5396 130.797 8.52788 130.797 9.8899C130.797 11.2787 131.854 11.8124 133.784 12.2395L135.74 12.6672C137.592 13.0943 138.887 14.0825 138.887 16.0318C138.887 18.8366 136.376 20.2519 133.89 20.2519C131.802 20.2519 129.925 19.7181 128.709 18.3019V18.3017ZM149.382 12.3999V11.4924C149.382 9.40868 148.245 7.64654 145.707 7.64654C143.301 7.64654 141.953 9.54235 141.953 11.6788V12.4001H149.382V12.3999ZM140.34 14.9113V12.0263C140.34 8.36693 142.693 6.33745 145.839 6.33745C148.773 6.33745 150.915 8.15377 150.915 11.5726V13.522H141.953V15.097C141.953 17.4473 143.433 18.9435 145.972 18.9435C147.664 18.9435 148.773 18.1157 149.487 17.2342L150.651 17.982C149.435 19.7449 147.611 20.2788 145.865 20.2788C142.64 20.2788 140.34 18.5694 140.34 14.9113V14.9113Z" fill="#3B3B3B"/>
</g>
<defs>
<clipPath id="clip0_139_2939">
<rect width="151" height="21" fill="white" transform="translate(0.00170898)"/>
</clipPath>
</defs>
</svg>
