<svg xmlns="http://www.w3.org/2000/svg" width="192" height="22" fill="none"><g fill="#121212" clip-path="url(#a)"><path d="m94.728 21.389 5.272-1.3S97.73 4.873 97.716 4.768a.202.202 0 0 0-.183-.169 164.88 164.88 0 0 0-1.56-.028l-1.245-1.201v18.02ZM94.154 3.195l-.623.192a4.308 4.308 0 0 0-.299-.728c-.442-.836-1.089-1.278-1.871-1.28h-.003c-.054 0-.108.006-.163.01a2.32 2.32 0 0 0-.07-.08c-.34-.362-.778-.538-1.301-.522-1.01.028-2.016.752-2.831 2.036-.574.905-1.011 2.04-1.135 2.92l-1.989.61c-.585.183-.603.2-.68.748-.057.413-1.589 12.159-1.589 12.159l12.708 2.179V3.169a.748.748 0 0 0-.154.026Zm-2.934.901-2.143.658c.207-.786.6-1.57 1.082-2.083.18-.19.43-.403.728-.525.28.578.34 1.397.333 1.95Zm-1.376-2.643c.237-.005.436.047.607.158-.273.14-.537.342-.784.606-.642.682-1.133 1.742-1.33 2.764l-1.76.54c.348-1.609 1.708-4.023 3.267-4.068Zm-1.965 9.166c.068 1.072 2.912 1.306 3.072 3.817.125 1.976-1.057 3.327-2.76 3.434-2.045.128-3.171-1.069-3.171-1.069l.433-1.828s1.133.848 2.04.791a.797.797 0 0 0 .783-.853c-.089-1.398-2.405-1.316-2.551-3.614-.124-1.933 1.157-3.893 3.983-4.07 1.088-.068 1.646.208 1.646.208l-.646 2.397s-.72-.325-1.575-.271c-1.254.078-1.267.862-1.254 1.058ZM91.89 3.89c-.007-.507-.068-1.212-.306-1.822.766.144 1.144 1.004 1.303 1.517l-.997.305ZM104.2 16.357h2.75v-2.88h4.502v2.88h2.74V8.785h-2.74v2.677h-4.502V8.785h-2.75v7.572ZM118.887 16.357h2.75v-2.829l3.854-4.743h-3.011l-2.14 2.616-2.101-2.616h-3.292l3.94 4.723v2.85ZM126.244 16.357h5.122c4.29 0 5.19-1.964 5.19-3.684v-.305c0-1.781-1.046-3.583-5.199-3.583h-5.113v7.572Zm2.75-5.587h2.043c2.401 0 2.663 1.089 2.663 1.75v.062c0 .661-.262 1.77-2.663 1.77h-2.043V10.77ZM140.447 10.627h3.156c.62 0 .833.285.833.642v.01c0 .366-.223.651-.833.651h-3.156v-1.303Zm0 3.135h2.633c1.085 0 1.462.448 1.462 1.313v.886c0 .213.019.315.087.396h2.808v-.05c-.068-.133-.136-.326-.136-.855v-1.12c0-.977-.59-1.588-1.48-1.801.541-.133 1.452-.59 1.452-1.69v-.112c0-1.231-.93-1.944-3.031-1.944h-6.545v7.572h2.75v-2.595ZM153.522 8.643c-4.667 0-5.257 2.33-5.257 3.756v.305c0 1.415.59 3.796 5.257 3.796h.436c4.657 0 5.248-2.381 5.248-3.796v-.305c0-1.425-.6-3.756-5.248-3.756h-.436Zm2.837 3.97c0 .814-.494 1.841-2.624 1.841s-2.624-1.068-2.624-1.862v-.122c0-.804.455-1.791 2.624-1.791 2.13 0 2.624.987 2.624 1.79v.143ZM165.216 16.5c2.246 0 3.147-.865 3.428-1.19.135.274.29.803.338 1.048h1.734v-4.265h-5.335v1.476h2.527c0 .244-.601.947-2.459.947-1.782 0-2.47-.947-2.47-1.914v-.112c0-.997.552-1.872 2.489-1.872 2.034 0 2.285.763 2.334.956h2.865v-.01c-.038-1.058-.639-2.92-5.054-2.92h-.378c-4.25 0-5.102 2.126-5.102 3.755v.285c0 1.598.92 3.816 4.861 3.816h.222ZM172.082 8.785v7.572h8.047v-1.893h-5.336v-1.038h5.152v-1.842h-5.152v-.946h5.258V8.785h-7.969ZM181.408 8.785v7.572h2.73v-4.59l4.512 4.59h2.75V8.785h-2.73v4.305l-4.184-4.305h-3.078ZM1.499 19.251H0L1.737 9.6h1.499l-.21 1.142c.42-.605 1.134-1.28 2.325-1.28 1.513 0 2.574 1.06 2.574 2.873a6.834 6.834 0 0 1-.168 1.348c-.406 2.036-1.737 3.247-3.432 3.247-1.12 0-1.835-.55-2.185-1.239l-.641 3.561Zm.966-5.1c0 1.046.729 1.597 1.681 1.597 1.065 0 1.822-.742 2.106-2.183.086-.384.133-.776.14-1.169 0-1.17-.574-1.761-1.512-1.761-1.107 0-1.947.81-2.242 2.174-.121.437-.18.89-.173 1.343ZM16.026 12.553c-.007.425-.058.849-.155 1.263-.378 1.946-1.792 3.112-3.696 3.112-1.82 0-3.234-1.197-3.234-3.11.005-.42.057-.84.153-1.252.378-1.94 1.793-3.109 3.698-3.109 1.82 0 3.234 1.197 3.234 3.095Zm-5.408.137a5.157 5.157 0 0 0-.139 1.184c0 1.142.585 1.884 1.722 1.884s1.864-.742 2.143-2.068c.093-.383.14-.776.14-1.17 0-1.14-.602-1.898-1.722-1.898-1.121 0-1.863.748-2.144 2.068ZM17.33 9.597h1.515l.448 5.338 2.476-5.338h1.303l.476 5.338 2.396-5.338h1.441l-3.402 7.2h-1.555l-.448-5.103-2.38 5.104h-1.5l-.77-7.201ZM30.764 16.928c-1.806 0-3.166-1.142-3.166-2.999.002-.467.054-.933.155-1.39.378-1.94 1.793-3.082 3.614-3.082 1.737 0 2.956.977 2.956 2.78 0 .288-.028.574-.154 1.264H29.14a4.223 4.223 0 0 0-.015.44c0 1.114.617 1.838 1.765 1.838.967 0 1.513-.606 1.794-1.17l1.302.359c-.476 1.052-1.555 1.96-3.222 1.96Zm-1.456-4.445h3.515c.024-.136.033-.274.028-.412 0-.894-.49-1.494-1.512-1.494-.912-.005-1.696.517-2.031 1.906ZM36.382 9.593h1.498l-.233 1.28c.616-.881 1.344-1.404 2.773-1.379l-.266 1.39c-1.653 0-2.574.454-2.845 1.954l-.717 3.956h-1.498l1.288-7.201ZM43.808 16.928c-1.808 0-3.166-1.142-3.166-2.999.002-.467.053-.933.153-1.39.38-1.94 1.794-3.082 3.614-3.082 1.738 0 2.957.977 2.957 2.78 0 .288-.029.574-.155 1.264h-5.03c-.014.15-.014.288-.014.44 0 1.114.616 1.838 1.764 1.838.966 0 1.512-.606 1.793-1.17l1.302.359c-.474 1.052-1.552 1.96-3.218 1.96Zm-1.458-4.445h3.52a2.02 2.02 0 0 0 .029-.412c0-.894-.49-1.494-1.513-1.494-.915-.005-1.699.517-2.036 1.906ZM50.907 16.93c-1.528 0-2.648-1.073-2.648-2.848.006-.458.057-.914.154-1.362.407-2.036 1.765-3.26 3.474-3.26 1.15 0 1.835.605 2.144 1.307l.797-4.481h1.513l-1.89 10.512h-1.5l.224-1.239c-.42.655-1.092 1.371-2.268 1.371Zm2.829-4.719c0-1.045-.728-1.582-1.681-1.582-1.053 0-1.849.77-2.129 2.215a5.92 5.92 0 0 0-.126 1.183c0 1.183.575 1.723 1.555 1.723 1.093 0 1.905-.811 2.2-2.201.124-.608.18-.887.18-1.338ZM61.202 16.797h-1.499l1.89-10.511h1.5l-.813 4.513c.42-.66 1.15-1.335 2.325-1.335 1.514 0 2.574 1.06 2.574 2.872a6.72 6.72 0 0 1-.169 1.348c-.406 2.036-1.737 3.247-3.446 3.247-1.148 0-1.863-.605-2.157-1.307l-.205 1.173Zm.518-2.643c0 1.087.729 1.596 1.681 1.596 1.065 0 1.82-.742 2.106-2.174.085-.389.132-.785.14-1.182 0-1.17-.574-1.762-1.513-1.762-1.107 0-1.947.812-2.24 2.174-.12.44-.178.893-.174 1.348ZM69.556 19.254H68.07l1.836-3.177-1.555-6.48h1.555l1.053 4.774 2.574-4.774h1.52l-5.497 9.657Z"/></g><defs><clipPath id="a"><path fill="#fff" d="M0 0h192v22H0z"/></clipPath></defs></svg>