<svg width="2417" height="856" fill="none" xmlns="http://www.w3.org/2000/svg"><g clip-path="url(#a)"><path d="m367.687 225.23 36.279 97.735 38.007-97.735h53.96l-92.269 226.318h-53.365l27.291-70.125L312 225.23h55.687Zm569.9-3.46c48.721 0 84.243 36.941 84.243 87.508 0 50.567-35.522 87.507-84.243 87.507-17.977 0-33.121-4.651-44.675-13.617l-.748-.591-.638-.52.001 69.436h-51.995l.001-226.263h45.975v16.92l.258-.291c11.33-12.628 28.468-19.617 49.634-20.065l1.118-.018 1.069-.006Zm-346.956 0c53.65 0 91.681 36.219 91.681 87.508 0 51.063-38.158 87.507-91.681 87.507-53.824 0-92.035-36.393-92.035-87.507 0-51.34 38.084-87.508 92.035-87.508ZM768.925 188l-.001 37.23h42.785v43.886l-42.785-.002.001 60.577c0 13.55 6.741 21.004 19.007 21.457l.598.016.606.006c8.32 0 14.622-2.136 20.258-7.43l.527-.506 1.402-1.406h.386v48.407l-1.594.746c-8.555 3.997-13.833 5.803-28.415 5.803-41.226 0-63.866-21.931-64.743-62.874l-.018-1.246-.006-1.243-.002-62.307-18.814.001V225.23h20.232l.001-37.23h50.575Zm366.525 33.77c53.65 0 91.68 36.219 91.68 87.508 0 51.063-38.16 87.507-91.68 87.507-53.82 0-92.03-36.393-92.03-87.507 0-51.34 38.08-87.508 92.03-87.508Zm134.06 119.338c15.73 0 28.49 12.463 28.49 27.838 0 15.375-12.76 27.839-28.49 27.839-15.74 0-28.49-12.464-28.49-27.839 0-15.375 12.75-27.838 28.49-27.838Zm-339.713-73.722c-23.423 0-39.332 16.941-39.332 41.892 0 24.95 15.909 41.892 39.332 41.892 23.73 0 39.686-16.891 39.686-41.892 0-25.002-15.956-41.892-39.686-41.892Zm-339.166 0c-23.505 0-39.686 17.027-39.686 41.892 0 24.865 16.181 41.892 39.686 41.892 23.198 0 39.332-17.078 39.332-41.892 0-24.815-16.134-41.892-39.332-41.892Zm544.819 0c-23.51 0-39.69 17.027-39.69 41.892 0 24.865 16.18 41.892 39.69 41.892 23.2 0 39.33-17.078 39.33-41.892 0-24.815-16.13-41.892-39.33-41.892ZM335.829 667.921v-46.637h33.559c31.971 0 48.453-14.487 48.453-42.468 0-28.181-16.482-42.668-48.453-42.668H312v131.773h23.829Zm32.567-67.871h-32.567v-42.667h32.567c17.276 0 25.417 6.946 25.417 21.433 0 14.288-8.141 21.234-25.417 21.234Zm83.182 67.871 10.525-24.807h67.516l10.524 24.807h25.617l-58.183-131.773h-22.836l-57.985 131.773h24.822Zm69.304-45.644H470.84l24.822-59.139h.397l24.823 59.139Zm103.834 45.644v-48.224h29.39l29.389 48.224h28.198l-33.162-50.407c19.261-4.961 29.19-18.258 29.19-39.492 0-27.585-16.482-41.874-48.453-41.874h-58.381v131.773h23.829Zm33.758-69.459h-33.758v-41.079h33.758c17.078 0 25.22 6.747 25.22 20.639 0 13.693-8.142 20.44-25.22 20.44Zm146.529 69.459V557.383h41.304v-21.235H739.672v21.235h41.501v110.538h23.83Zm101.452 0V562.146h.397l64.935 105.775h28.793V536.148h-23.035v98.433h-.397l-60.963-98.433H883.42v131.773h23.035Zm238.465 0v-21.235h-73.67v-34.729h59.38v-20.639h-59.38v-33.935h73.67v-21.235h-97.5v131.773h97.5Zm65.32 0v-48.224h29.38l29.39 48.224h28.2l-33.16-50.407c19.26-4.961 29.19-18.258 29.19-39.492 0-27.585-16.48-41.874-48.45-41.874h-58.38v131.773h23.83Zm33.75-69.459h-33.75v-41.079h33.75c17.08 0 25.22 6.747 25.22 20.639 0 13.693-8.14 20.44-25.22 20.44ZM0 0h153v856H0V0Z" fill="#2B2B2B"/><path d="M1419-223h383.59l249.91 536.786L2314.3-223H2686l-635.58 1243h-367.6l187.99-385.146L1419-223Z" fill="#E7E7E7"/></g><rect x="4" y="4" width="2409" height="848" rx="36" stroke="#CDCDCD" stroke-width="8"/><defs><clipPath id="a"><rect width="2417" height="856" rx="40" fill="#fff"/></clipPath></defs></svg>