<?xml version="1.0" standalone="no"?>
<!DOCTYPE svg PUBLIC "-//W3C//DTD SVG 20010904//EN"
 "http://www.w3.org/TR/2001/REC-SVG-20010904/DTD/svg10.dtd">
<svg version="1.0" xmlns="http://www.w3.org/2000/svg"
 width="700.000000pt" height="700.000000pt" viewBox="0 0 700.000000 700.000000"
 preserveAspectRatio="xMidYMid meet">
<metadata>
Created by potrace 1.14, written by Peter Selinger 2001-2017
</metadata>
<g transform="translate(0.000000,700.000000) scale(0.100000,-0.100000)"
fill="#000000" stroke="none">
<path d="M906 6979 c-45 -35 -36 -76 31 -156 506 -597 2496 -2928 2523 -2957
45 -45 89 -51 124 -16 l21 21 5 1446 5 1446 1243 -1459 c710 -833 1255 -1464
1270 -1470 31 -14 78 -1 92 26 6 12 10 573 10 1559 l0 1540 -26 20 -27 21
-2622 0 -2622 0 -27 -21z"/>
<path d="M5005 4639 c-11 -6 -280 -271 -597 -588 -519 -517 -578 -579 -578
-607 0 -28 72 -112 556 -655 305 -343 571 -639 590 -657 41 -39 76 -41 109 -7
l25 24 0 1220 c0 671 -3 1227 -6 1236 -6 15 -54 45 -71 45 -4 0 -17 -5 -28
-11z"/>
<path d="M944 4228 c-12 -5 -27 -21 -33 -34 -17 -38 -15 -1610 2 -1644 17 -33
57 -47 94 -31 15 7 118 114 228 238 110 124 282 317 383 430 190 214 199 228
166 278 -32 49 -783 775 -801 774 -10 0 -28 -5 -39 -11z"/>
<path d="M3458 3133 c-26 -28 -2099 -2458 -2521 -2956 -67 -80 -76 -121 -31
-156 l27 -21 1308 0 1308 0 28 24 28 24 0 1540 c0 1500 0 1540 -19 1561 -32
35 -85 28 -128 -16z"/>
</g>
</svg>
